<?xml version="1.0" encoding="UTF-8" standalone="no"?>
<svg
   xmlns:dc="http://purl.org/dc/elements/1.1/"
   xmlns:cc="http://creativecommons.org/ns#"
   xmlns:rdf="http://www.w3.org/1999/02/22-rdf-syntax-ns#"
   xmlns:svg="http://www.w3.org/2000/svg"
   xmlns="http://www.w3.org/2000/svg"
   xmlns:sodipodi="http://sodipodi.sourceforge.net/DTD/sodipodi-0.dtd"
   xmlns:inkscape="http://www.inkscape.org/namespaces/inkscape"
   width="300"
   height="300"
   viewBox="0 0 300 300"
   version="1.1"
   id="svg8"
   inkscape:version="1.0.1 (3bc2e813f5, 2020-09-07)"
   sodipodi:docname="alarm-clock-music.svg">
  <defs
     id="defs2" />
  <sodipodi:namedview
     id="base"
     pagecolor="#ffffff"
     bordercolor="#666666"
     borderopacity="1.0"
     inkscape:pageopacity="0.0"
     inkscape:pageshadow="2"
     inkscape:zoom="2"
     inkscape:cx="150"
     inkscape:cy="150"
     inkscape:document-units="px"
     inkscape:current-layer="layer1"
     inkscape:document-rotation="0"
     showgrid="false"
     units="px"
     inkscape:window-width="2560"
     inkscape:window-height="1377"
     inkscape:window-x="2552"
     inkscape:window-y="-8"
     inkscape:window-maximized="1" />
  <metadata
     id="metadata5">
    <rdf:RDF>
      <cc:Work
         rdf:about="">
        <dc:format>image/svg+xml</dc:format>
        <dc:type
           rdf:resource="http://purl.org/dc/dcmitype/StillImage" />
        <dc:title></dc:title>
      </cc:Work>
    </rdf:RDF>
  </metadata>
  <g
     inkscape:label="Ebene 1"
     inkscape:groupmode="layer"
     id="layer1">
    <path
       id="path1041-0-0-6-1"
       style="opacity:0.99;fill:#000000;fill-opacity:1;stroke-width:29.4633;stop-color:#000000"
       d="M 71.171875 0.005859375 C 70.571064 -0.0021263034 69.970537 -0.002239375 69.369141 0.0078125 C 57.822341 0.2008125 46.207096 3.725176 36.035156 10.847656 C 8.9099449 29.840936 2.3172765 67.228296 21.310547 94.353516 L 119.53906 25.572266 C 108.03924 9.148785 89.797016 0.2534154 71.171875 0.005859375 z M 228.82812 0.005859375 C 210.20292 0.25341598 191.96078 9.1487947 180.46094 25.572266 L 278.68945 94.353516 C 297.68275 67.228316 291.09005 29.840926 263.96484 10.847656 C 253.79289 3.7251759 242.17771 0.2008125 230.63086 0.0078125 C 230.02946 -0.002239375 229.42894 -0.002126322 228.82812 0.005859375 z M 149.35547 49.267578 A 119.91534 119.91534 0 0 0 29.439453 169.18164 A 119.91534 119.91534 0 0 0 58.669922 247.64258 L 34.242188 272.06836 C 27.836467 278.47406 27.836468 288.78959 34.242188 295.19531 C 40.647909 301.60103 50.963421 301.60103 57.369141 295.19531 L 83.300781 269.26367 A 119.91534 119.91534 0 0 0 149.35547 289.09766 A 119.91534 119.91534 0 0 0 215.4082 269.26367 L 241.33984 295.19531 C 247.74555 301.60103 258.06108 301.60103 264.4668 295.19531 C 270.87253 288.78959 270.87253 278.47406 264.4668 272.06836 L 240.03906 247.64258 A 119.91534 119.91534 0 0 0 269.26953 169.18164 A 119.91534 119.91534 0 0 0 149.35547 49.267578 z M 202.68359 104.75977 C 204.02186 104.78957 205.3272 105.70548 205.31641 107.04688 L 205.2207 119.05469 C 205.22063 119.06369 205.21875 119.07283 205.21875 119.08203 L 205.21875 192.63867 A 19.561295 26.707785 61.7235 0 1 187.94531 216.98242 A 19.561295 26.707785 61.7235 0 1 155.98047 210.79297 A 19.561295 26.707785 61.7235 0 1 171.99414 181.20508 A 19.561295 26.707785 61.7235 0 1 190.41992 178.02148 L 190.41992 124.53516 L 131.92383 135.13477 L 131.92383 205.77734 A 19.561295 26.707785 61.7235 0 1 114.64844 230.12109 A 19.561295 26.707785 61.7235 0 1 82.683594 223.93164 A 19.561295 26.707785 61.7235 0 1 98.697266 194.34375 A 19.561295 26.707785 61.7235 0 1 117.12305 191.16016 L 117.12305 122.1875 C 117.12305 121.28733 117.62008 120.51629 118.34961 120.10547 C 118.74046 119.70415 119.25144 119.41372 119.84766 119.30859 L 202.11133 104.80273 C 202.30005 104.76943 202.49241 104.75557 202.68359 104.75977 z " />
  </g>
</svg>
