<?xml version="1.0" encoding="UTF-8" standalone="no"?>
<svg
   xmlns:dc="http://purl.org/dc/elements/1.1/"
   xmlns:cc="http://creativecommons.org/ns#"
   xmlns:rdf="http://www.w3.org/1999/02/22-rdf-syntax-ns#"
   xmlns:svg="http://www.w3.org/2000/svg"
   xmlns="http://www.w3.org/2000/svg"
   xmlns:sodipodi="http://sodipodi.sourceforge.net/DTD/sodipodi-0.dtd"
   xmlns:inkscape="http://www.inkscape.org/namespaces/inkscape"
   width="300"
   height="300"
   viewBox="0 0 300 300"
   version="1.1"
   id="svg8"
   inkscape:version="1.0.1 (3bc2e813f5, 2020-09-07)"
   sodipodi:docname="alarm-clock-trash.svg">
  <defs
     id="defs2" />
  <sodipodi:namedview
     id="base"
     pagecolor="#ffffff"
     bordercolor="#666666"
     borderopacity="1.0"
     inkscape:pageopacity="0.0"
     inkscape:pageshadow="2"
     inkscape:zoom="2"
     inkscape:cx="150"
     inkscape:cy="150"
     inkscape:document-units="px"
     inkscape:current-layer="layer1"
     inkscape:document-rotation="0"
     showgrid="false"
     units="px"
     inkscape:window-width="2560"
     inkscape:window-height="1377"
     inkscape:window-x="2552"
     inkscape:window-y="-8"
     inkscape:window-maximized="1" />
  <metadata
     id="metadata5">
    <rdf:RDF>
      <cc:Work
         rdf:about="">
        <dc:format>image/svg+xml</dc:format>
        <dc:type
           rdf:resource="http://purl.org/dc/dcmitype/StillImage" />
        <dc:title></dc:title>
      </cc:Work>
    </rdf:RDF>
  </metadata>
  <g
     inkscape:label="Ebene 1"
     inkscape:groupmode="layer"
     id="layer1">
    <path
       id="path1041-0-0-6-1"
       style="opacity:0.99;fill:#000000;fill-opacity:1;stroke-width:29.4633;stop-color:#000000"
       d="M 69.369136,0.00830171 C 57.822334,0.20129671 46.207094,3.7256697 36.035151,10.848146 8.9099415,29.84143 2.3172721,67.22879 21.310542,94.35401 L 119.53906,25.57276 C 107.66827,8.6194857 88.613805,-0.31335529 69.369136,0.00830171 Z m 161.261724,0 C 211.38611,-0.31335729 192.33174,8.6194987 180.46094,25.57276 l 98.22851,68.78125 C 297.68275,67.22881 291.09005,29.84142 263.96484,10.848146 253.79289,3.7256697 242.17771,0.20129771 230.63086,0.00830171 Z M 149.35547,49.26807 A 119.91534,119.91534 0 0 0 29.439448,169.18213 119.91534,119.91534 0 0 0 58.669917,247.64307 l -24.427734,24.42578 c -6.40572,6.4057 -6.405721,16.72123 0,23.12695 6.40573,6.40572 16.721233,6.40572 23.126953,0 l 25.93164,-25.93164 a 119.91534,119.91534 0 0 0 66.054694,19.83399 119.91534,119.91534 0 0 0 66.05273,-19.83399 l 25.93164,25.93164 c 6.40571,6.40572 16.72124,6.40572 23.12696,0 6.40573,-6.40572 6.40573,-16.72125 0,-23.12695 L 240.03906,247.64307 A 119.91534,119.91534 0 0 0 269.26953,169.18213 119.91534,119.91534 0 0 0 149.35547,49.26807 Z m -22.67969,55.11523 h 45.35938 c 3.5747,0 3.45507,10.15235 3.45507,10.15235 h 23.97657 c 3.58992,0 6.48047,2.89054 6.48047,6.48046 v 4.32032 c 0,3.58992 -2.89055,6.47851 -6.48047,6.47851 H 99.242183 c -3.589921,0 -6.478516,-2.88859 -6.478516,-6.47851 v -4.32032 c 0,-3.58992 2.888596,-6.48046 6.478516,-6.48046 h 23.976567 c 0,0 -0.11767,-10.15235 3.45703,-10.15235 z m -25.91993,34.56055 h 97.19923 l -4.83203,88.56836 a 6.8430874,6.8430874 0 0 1 -6.83203,6.4707 h -73.8711 a 6.8430874,6.8430874 0 0 1 -6.83398,-6.4707 z" />
  </g>
</svg>
