<?xml version="1.0" encoding="UTF-8" standalone="no"?>
<svg
   xmlns:dc="http://purl.org/dc/elements/1.1/"
   xmlns:cc="http://creativecommons.org/ns#"
   xmlns:rdf="http://www.w3.org/1999/02/22-rdf-syntax-ns#"
   xmlns:svg="http://www.w3.org/2000/svg"
   xmlns="http://www.w3.org/2000/svg"
   xmlns:sodipodi="http://sodipodi.sourceforge.net/DTD/sodipodi-0.dtd"
   xmlns:inkscape="http://www.inkscape.org/namespaces/inkscape"
   width="300"
   height="300"
   viewBox="0 0 300 300"
   version="1.1"
   id="svg8"
   inkscape:version="1.0.1 (3bc2e813f5, 2020-09-07)"
   sodipodi:docname="alarm-clock-times.svg">
  <defs
     id="defs2" />
  <sodipodi:namedview
     id="base"
     pagecolor="#ffffff"
     bordercolor="#666666"
     borderopacity="1.0"
     inkscape:pageopacity="0.0"
     inkscape:pageshadow="2"
     inkscape:zoom="2"
     inkscape:cx="150"
     inkscape:cy="150"
     inkscape:document-units="px"
     inkscape:current-layer="layer1"
     inkscape:document-rotation="0"
     showgrid="false"
     units="px"
     inkscape:window-width="2560"
     inkscape:window-height="1377"
     inkscape:window-x="2552"
     inkscape:window-y="-8"
     inkscape:window-maximized="1" />
  <metadata
     id="metadata5">
    <rdf:RDF>
      <cc:Work
         rdf:about="">
        <dc:format>image/svg+xml</dc:format>
        <dc:type
           rdf:resource="http://purl.org/dc/dcmitype/StillImage" />
        <dc:title></dc:title>
      </cc:Work>
    </rdf:RDF>
  </metadata>
  <g
     inkscape:label="Ebene 1"
     inkscape:groupmode="layer"
     id="layer1">
    <path
       id="path1041-0-0-6-1"
       style="opacity:0.99;fill:#000000;fill-opacity:1;stroke-width:29.4633;stop-color:#000000"
       d="M 69.369136,0.00830073 C 57.822335,0.20130073 46.207094,3.7256707 36.035151,10.848151 8.9099411,29.841431 2.3172721,67.228791 21.310542,94.354011 L 119.53906,25.572761 C 107.66827,8.6194907 88.613804,-0.31335927 69.369136,0.00830073 Z m 161.261724,0 c -19.24475,-0.32166 -38.29912,8.61119997 -50.16992,25.56446027 l 98.22851,68.78125 c 18.9933,-27.1252 12.4006,-64.51259 -14.72461,-83.50586 C 253.79289,3.7256707 242.17771,0.20130073 230.63086,0.00830073 Z M 149.35546,49.268071 A 119.91534,119.91534 0 0 0 29.439448,169.18213 119.91534,119.91534 0 0 0 58.669917,247.64307 l -24.427734,24.42578 c -6.405721,6.4057 -6.405721,16.72123 0,23.12695 6.40573,6.40572 16.721232,6.40572 23.126953,0 l 25.93164,-25.93164 a 119.91534,119.91534 0 0 0 66.054684,19.83399 119.91534,119.91534 0 0 0 66.05274,-19.83399 l 25.93164,25.93164 c 6.40571,6.40572 16.72124,6.40572 23.12696,0 6.40573,-6.40572 6.40573,-16.72125 0,-23.12695 L 240.03906,247.64307 A 119.91534,119.91534 0 0 0 269.26953,169.18213 119.91534,119.91534 0 0 0 149.35546,49.268071 Z m -39.0332,60.099609 c 1.84046,0 3.68153,0.70498 5.0918,2.11523 l 33.9414,33.94141 33.94142,-33.94141 c 2.82053,-2.82051 7.36116,-2.82051 10.18164,0 l 13.57617,13.57813 c 2.82053,2.82051 2.82053,7.36113 0,10.18164 l -33.94141,33.9414 33.94141,33.94141 c 2.82053,2.82051 2.82053,7.36114 0,10.18164 l -13.57617,13.57617 c -2.82048,2.82051 -7.36112,2.82051 -10.18164,0 l -33.94142,-33.9414 -33.9414,33.9414 c -2.82053,2.82051 -7.36116,2.82051 -10.18164,0 L 91.654292,213.30713 c -2.82048,-2.8205 -2.82048,-7.36113 0,-10.18164 L 125.5957,169.18408 91.654292,135.24268 c -2.82048,-2.82051 -2.82048,-7.36113 0,-10.18164 l 13.578128,-13.57813 c 1.41024,-1.41025 3.24939,-2.11523 5.08984,-2.11523 z" />
  </g>
</svg>
