<?xml version="1.0" encoding="UTF-8" standalone="no"?>
<svg
   xmlns:dc="http://purl.org/dc/elements/1.1/"
   xmlns:cc="http://creativecommons.org/ns#"
   xmlns:rdf="http://www.w3.org/1999/02/22-rdf-syntax-ns#"
   xmlns:svg="http://www.w3.org/2000/svg"
   xmlns="http://www.w3.org/2000/svg"
   xmlns:sodipodi="http://sodipodi.sourceforge.net/DTD/sodipodi-0.dtd"
   xmlns:inkscape="http://www.inkscape.org/namespaces/inkscape"
   width="300"
   height="300"
   viewBox="0 0 300 300"
   version="1.1"
   id="svg8"
   inkscape:version="1.0.1 (3bc2e813f5, 2020-09-07)"
   sodipodi:docname="alarm-clock-plus.svg">
  <defs
     id="defs2" />
  <sodipodi:namedview
     id="base"
     pagecolor="#ffffff"
     bordercolor="#666666"
     borderopacity="1.0"
     inkscape:pageopacity="0.0"
     inkscape:pageshadow="2"
     inkscape:zoom="2"
     inkscape:cx="150"
     inkscape:cy="150"
     inkscape:document-units="px"
     inkscape:current-layer="layer1"
     inkscape:document-rotation="0"
     showgrid="false"
     units="px"
     inkscape:window-width="2560"
     inkscape:window-height="1377"
     inkscape:window-x="2552"
     inkscape:window-y="-8"
     inkscape:window-maximized="1" />
  <metadata
     id="metadata5">
    <rdf:RDF>
      <cc:Work
         rdf:about="">
        <dc:format>image/svg+xml</dc:format>
        <dc:type
           rdf:resource="http://purl.org/dc/dcmitype/StillImage" />
        <dc:title></dc:title>
      </cc:Work>
    </rdf:RDF>
  </metadata>
  <g
     inkscape:label="Ebene 1"
     inkscape:groupmode="layer"
     id="layer1">
    <path
       id="path1041-0-0-6-1"
       style="opacity:0.99;fill:#000000;fill-opacity:1;stroke-width:29.4633;stop-color:#000000"
       d="M 69.369138,0.00830171 C 57.822336,0.20129671 46.207096,3.7256697 36.035153,10.848146 8.9099375,29.841426 2.3172675,67.228786 21.310544,94.354006 L 119.53906,25.572755 C 107.66827,8.6194867 88.613806,-0.31335529 69.369138,0.00830171 Z m 161.261722,0 C 211.38611,-0.31335729 192.33174,8.6194987 180.46094,25.572755 l 98.22851,68.781251 c 18.9933,-27.1252 12.4006,-64.51259 -14.72461,-83.50586 C 253.79289,3.7256697 242.17771,0.20129771 230.63086,0.00830171 Z M 149.35547,49.268068 A 119.91534,119.91534 0 0 0 29.43945,169.18213 119.91534,119.91534 0 0 0 58.669919,247.64307 l -24.427734,24.42578 c -6.405721,6.4057 -6.405721,16.72123 0,23.12695 6.40573,6.40572 16.721233,6.40572 23.126953,0 l 25.93164,-25.93164 a 119.91534,119.91534 0 0 0 66.054692,19.83399 119.91534,119.91534 0 0 0 66.05273,-19.83399 l 25.93164,25.93164 c 6.40571,6.40572 16.72124,6.40572 23.12696,0 6.40573,-6.40572 6.40573,-16.72125 0,-23.12695 L 240.03906,247.64307 A 119.91534,119.91534 0 0 0 269.26953,169.18213 119.91534,119.91534 0 0 0 149.35547,49.268068 Z m -8.64063,55.115232 h 17.2793 c 3.58992,0 6.48047,2.89055 6.48047,6.48047 v 43.19922 h 43.20117 c 3.58992,0 6.47852,2.89055 6.47852,6.48047 v 17.2793 c 0,3.58992 -2.8886,6.48046 -6.47852,6.48046 h -43.20117 v 43.20118 c 0,3.58992 -2.89055,6.47851 -6.48047,6.47851 h -17.2793 c -3.58992,0 -6.48047,-2.88859 -6.48047,-6.47851 V 184.30322 H 91.035153 c -3.58992,0 -6.480469,-2.89054 -6.480468,-6.48046 v -17.2793 c 0,-3.58992 2.890548,-6.48047 6.480468,-6.48047 h 43.199217 v -43.19922 c 0,-3.58992 2.89055,-6.48047 6.48047,-6.48047 z" />
  </g>
</svg>
