<?xml version="1.0" encoding="UTF-8" standalone="no"?>
<svg
   xmlns:dc="http://purl.org/dc/elements/1.1/"
   xmlns:cc="http://creativecommons.org/ns#"
   xmlns:rdf="http://www.w3.org/1999/02/22-rdf-syntax-ns#"
   xmlns:svg="http://www.w3.org/2000/svg"
   xmlns="http://www.w3.org/2000/svg"
   xmlns:sodipodi="http://sodipodi.sourceforge.net/DTD/sodipodi-0.dtd"
   xmlns:inkscape="http://www.inkscape.org/namespaces/inkscape"
   width="300"
   height="300"
   viewBox="0 0 300 300"
   version="1.1"
   id="svg8"
   inkscape:version="1.0.1 (3bc2e813f5, 2020-09-07)"
   sodipodi:docname="alarm-clock-star.svg">
  <defs
     id="defs2" />
  <sodipodi:namedview
     id="base"
     pagecolor="#ffffff"
     bordercolor="#666666"
     borderopacity="1.0"
     inkscape:pageopacity="0.0"
     inkscape:pageshadow="2"
     inkscape:zoom="2"
     inkscape:cx="150"
     inkscape:cy="150"
     inkscape:document-units="px"
     inkscape:current-layer="layer1"
     inkscape:document-rotation="0"
     showgrid="false"
     units="px"
     inkscape:window-width="2560"
     inkscape:window-height="1377"
     inkscape:window-x="2552"
     inkscape:window-y="-8"
     inkscape:window-maximized="1" />
  <metadata
     id="metadata5">
    <rdf:RDF>
      <cc:Work
         rdf:about="">
        <dc:format>image/svg+xml</dc:format>
        <dc:type
           rdf:resource="http://purl.org/dc/dcmitype/StillImage" />
        <dc:title />
      </cc:Work>
    </rdf:RDF>
  </metadata>
  <g
     inkscape:label="Ebene 1"
     inkscape:groupmode="layer"
     id="layer1">
    <path
       id="path1041-0-0-6-1"
       style="opacity:0.99;fill:#000000;fill-opacity:1;stroke-width:29.4633;stop-color:#000000"
       d="M 69.369141 0.0078125 C 57.822338 0.2008073 46.207099 3.72518 36.035156 10.847656 C 8.9099464 29.840936 2.3172771 67.228296 21.310547 94.353516 L 119.53906 25.572266 C 107.66828 8.6189969 88.613811 -0.31384549 69.369141 0.0078125 z M 230.63086 0.0078125 C 211.38611 -0.31384725 192.33174 8.6190094 180.46094 25.572266 L 278.68945 94.353516 C 297.68275 67.228316 291.09005 29.840926 263.96484 10.847656 C 253.79289 3.72518 242.17771 0.20080835 230.63086 0.0078125 z M 149.35547 49.267578 A 119.91534 119.91534 0 0 0 29.439453 169.18164 A 119.91534 119.91534 0 0 0 58.669922 247.64258 L 34.242188 272.06836 C 27.836468 278.47406 27.836467 288.78959 34.242188 295.19531 C 40.647917 301.60103 50.963421 301.60103 57.369141 295.19531 L 83.300781 269.26367 A 119.91534 119.91534 0 0 0 149.35547 289.09766 A 119.91534 119.91534 0 0 0 215.4082 269.26367 L 241.33984 295.19531 C 247.74555 301.60103 258.06108 301.60103 264.4668 295.19531 C 270.87253 288.78959 270.87253 278.47406 264.4668 272.06836 L 240.03906 247.64258 A 119.91534 119.91534 0 0 0 269.26953 169.18164 A 119.91534 119.91534 0 0 0 149.35547 49.267578 z M 149.21289 92.324219 A 4.9602327 4.9602327 0 0 1 154.03711 95.654297 L 169.09961 138.97656 A 4.1013774 4.1013774 0 0 0 172.88867 141.73047 L 218.74609 142.66211 A 4.9602287 4.9602287 0 0 1 221.64258 151.57422 L 185.09375 179.28516 A 4.1013758 4.1013758 0 0 0 183.64648 183.74219 L 196.92969 227.64062 A 4.9602287 4.9602287 0 0 1 189.34961 233.15039 L 151.70117 206.95508 A 4.1013773 4.1013773 0 0 0 147.01562 206.95508 L 109.36914 233.1543 A 4.9602271 4.9602271 0 0 1 101.78906 227.64648 L 115.06836 183.74609 A 4.1013741 4.1013741 0 0 0 113.61914 179.28906 L 77.068359 151.58203 A 4.9602281 4.9602281 0 0 1 79.962891 142.66992 L 125.82031 141.73242 A 4.1013768 4.1013768 0 0 0 129.60938 138.97852 L 144.66602 95.654297 A 4.9602327 4.9602327 0 0 1 149.21289 92.324219 z " />
  </g>
</svg>
