<?xml version="1.0" encoding="UTF-8" standalone="no"?>
<svg
   xmlns:dc="http://purl.org/dc/elements/1.1/"
   xmlns:cc="http://creativecommons.org/ns#"
   xmlns:rdf="http://www.w3.org/1999/02/22-rdf-syntax-ns#"
   xmlns:svg="http://www.w3.org/2000/svg"
   xmlns="http://www.w3.org/2000/svg"
   xmlns:sodipodi="http://sodipodi.sourceforge.net/DTD/sodipodi-0.dtd"
   xmlns:inkscape="http://www.inkscape.org/namespaces/inkscape"
   width="300"
   height="300"
   viewBox="0 0 300 300"
   version="1.1"
   id="svg8"
   inkscape:version="1.0.1 (3bc2e813f5, 2020-09-07)"
   sodipodi:docname="alarm-clock-gear.svg">
  <defs
     id="defs2" />
  <sodipodi:namedview
     id="base"
     pagecolor="#ffffff"
     bordercolor="#666666"
     borderopacity="1.0"
     inkscape:pageopacity="0.0"
     inkscape:pageshadow="2"
     inkscape:zoom="2"
     inkscape:cx="150"
     inkscape:cy="150"
     inkscape:document-units="px"
     inkscape:current-layer="layer1"
     inkscape:document-rotation="0"
     showgrid="false"
     units="px"
     inkscape:window-width="2560"
     inkscape:window-height="1377"
     inkscape:window-x="2552"
     inkscape:window-y="-8"
     inkscape:window-maximized="1" />
  <metadata
     id="metadata5">
    <rdf:RDF>
      <cc:Work
         rdf:about="">
        <dc:format>image/svg+xml</dc:format>
        <dc:type
           rdf:resource="http://purl.org/dc/dcmitype/StillImage" />
        <dc:title></dc:title>
      </cc:Work>
    </rdf:RDF>
  </metadata>
  <g
     inkscape:label="Ebene 1"
     inkscape:groupmode="layer"
     id="layer1">
    <path
       id="path1041-0-0-6-1"
       style="opacity:0.99;fill:#000000;fill-opacity:1;stroke-width:29.4633;stop-color:#000000"
       d="M 69.369136,0.00830171 C 57.822334,0.20129671 46.207094,3.7256697 36.035151,10.848146 8.9099411,29.84143 2.3172721,67.22879 21.310542,94.35401 L 119.53906,25.57276 C 107.66827,8.6194857 88.613804,-0.31335529 69.369136,0.00830171 Z m 161.261724,0 C 211.38611,-0.31335729 192.33174,8.6194987 180.46094,25.57276 l 98.22851,68.78125 C 297.68275,67.22881 291.09005,29.84142 263.96484,10.848146 253.79289,3.7256697 242.17771,0.20129771 230.63086,0.00830171 Z M 149.35546,49.26807 A 119.91534,119.91534 0 0 0 29.439448,169.18213 119.91534,119.91534 0 0 0 58.669917,247.64307 l -24.427734,24.42578 c -6.405721,6.4057 -6.40572,16.72123 0,23.12695 6.405729,6.40572 16.721233,6.40572 23.126953,0 l 25.93164,-25.93164 a 119.91534,119.91534 0 0 0 66.054684,19.83399 119.91534,119.91534 0 0 0 66.05274,-19.83399 l 25.93164,25.93164 c 6.40571,6.40572 16.72124,6.40572 23.12696,0 6.40573,-6.40572 6.40573,-16.72125 0,-23.12695 L 240.03906,247.64307 A 119.91534,119.91534 0 0 0 269.26953,169.18213 119.91534,119.91534 0 0 0 149.35546,49.26807 Z m -12.18164,55.11523 h 24.36133 c 2.69918,0 4.87305,2.17386 4.87305,4.87305 v 14.28711 a 48.721805,48.721805 0 0 1 7.30859,3.44531 48.721805,48.721805 0 0 1 6.63673,4.60742 l 12.375,-7.14453 c 2.33755,-1.3496 5.30468,-0.55436 6.65429,1.78321 l 12.18164,21.09765 c 1.34961,2.33756 0.5544,5.30471 -1.7832,6.6543 l -12.375,7.14453 a 48.721805,48.721805 0 0 1 0,16.10547 l 12.375,7.14258 c 2.3376,1.3496 3.13281,4.31869 1.7832,6.65625 l -12.18164,21.0957 c -1.34961,2.33757 -4.31674,3.13279 -6.65429,1.7832 l -12.375,-7.14453 a 48.721805,48.721805 0 0 1 -13.94532,8.05274 v 14.28906 c 0,2.69919 -2.17387,4.87109 -4.87305,4.87109 h -24.36133 c -2.69919,0 -4.87109,-2.1719 -4.87109,-4.87109 v -14.28906 a 48.721805,48.721805 0 0 1 -7.30859,-3.44532 48.721805,48.721805 0 0 1 -6.63868,-4.60547 l -12.37304,7.14258 c -2.33755,1.34959 -5.30664,0.55437 -6.656253,-1.7832 l -12.179688,-21.0957 c -1.34956,-2.33756 -0.554347,-5.30665 1.783204,-6.65625 l 12.373047,-7.14258 a 48.721805,48.721805 0 0 1 0,-16.10547 l -12.373047,-7.14453 c -2.337551,-1.34959 -3.132764,-4.31674 -1.783204,-6.6543 l 12.179688,-21.09765 c 1.349613,-2.33758 4.318703,-3.13281 6.656253,-1.78321 l 12.375,7.14453 a 48.721805,48.721805 0 0 1 13.94531,-8.05273 v -14.28711 c 0,-2.69919 2.1719,-4.87305 4.87109,-4.87305 z m 12.09571,42.875 a 21.924813,21.924813 0 0 0 -21.83985,21.92578 21.924813,21.924813 0 0 0 21.92578,21.92383 21.924813,21.924813 0 0 0 21.92383,-21.92383 21.924813,21.924813 0 0 0 -21.92383,-21.92578 21.924813,21.924813 0 0 0 -0.0859,0 z" />
  </g>
</svg>
