<?xml version="1.0" encoding="UTF-8" standalone="no"?>
<svg
   xmlns:dc="http://purl.org/dc/elements/1.1/"
   xmlns:cc="http://creativecommons.org/ns#"
   xmlns:rdf="http://www.w3.org/1999/02/22-rdf-syntax-ns#"
   xmlns:svg="http://www.w3.org/2000/svg"
   xmlns="http://www.w3.org/2000/svg"
   xmlns:sodipodi="http://sodipodi.sourceforge.net/DTD/sodipodi-0.dtd"
   xmlns:inkscape="http://www.inkscape.org/namespaces/inkscape"
   width="300"
   height="300"
   viewBox="0 0 300 300"
   version="1.1"
   id="svg8"
   inkscape:version="1.0.1 (3bc2e813f5, 2020-09-07)"
   sodipodi:docname="alarm-clock-exclamation-mark.svg">
  <defs
     id="defs2" />
  <sodipodi:namedview
     id="base"
     pagecolor="#ffffff"
     bordercolor="#666666"
     borderopacity="1.0"
     inkscape:pageopacity="0.0"
     inkscape:pageshadow="2"
     inkscape:zoom="2"
     inkscape:cx="150"
     inkscape:cy="110"
     inkscape:document-units="px"
     inkscape:current-layer="layer1"
     inkscape:document-rotation="0"
     showgrid="false"
     units="px"
     inkscape:window-width="2560"
     inkscape:window-height="1377"
     inkscape:window-x="2552"
     inkscape:window-y="-8"
     inkscape:window-maximized="1" />
  <metadata
     id="metadata5">
    <rdf:RDF>
      <cc:Work
         rdf:about="">
        <dc:format>image/svg+xml</dc:format>
        <dc:type
           rdf:resource="http://purl.org/dc/dcmitype/StillImage" />
        <dc:title></dc:title>
      </cc:Work>
    </rdf:RDF>
  </metadata>
  <g
     inkscape:label="Ebene 1"
     inkscape:groupmode="layer"
     id="layer1">
    <path
       id="path1041-0-0-6-1"
       style="opacity:0.99;fill:#000000;fill-opacity:1;stroke-width:29.4633;stop-color:#000000"
       d="M 69.369136,0.00830073 C 57.822334,0.20130073 46.207094,3.7256707 36.035151,10.848151 8.9099411,29.841431 2.3172721,67.228791 21.310542,94.354011 L 119.53906,25.572761 C 107.66828,8.6194907 88.613805,-0.31335927 69.369136,0.00830073 Z m 161.261724,0 c -19.24475,-0.32166 -38.29912,8.61119997 -50.16992,25.56446027 l 98.22851,68.78125 c 18.9933,-27.1252 12.4006,-64.51259 -14.72461,-83.50586 C 253.79289,3.7256707 242.17771,0.20130073 230.63086,0.00830073 Z M 149.35547,49.268071 A 119.91534,119.91534 0 0 0 29.439448,169.18213 119.91534,119.91534 0 0 0 58.669917,247.64307 l -24.427734,24.42578 c -6.405721,6.4057 -6.40572,16.72123 0,23.12695 6.405729,6.40572 16.721233,6.40572 23.126953,0 l 25.93164,-25.93164 a 119.91534,119.91534 0 0 0 66.054694,19.83399 119.91534,119.91534 0 0 0 66.05273,-19.83399 l 25.93164,25.93164 c 6.40571,6.40572 16.72124,6.40572 23.12696,0 6.40573,-6.40572 6.40573,-16.72125 0,-23.12695 L 240.03906,247.64307 A 119.91534,119.91534 0 0 0 269.26953,169.18213 119.91534,119.91534 0 0 0 149.35547,49.268071 Z m -10.49414,45.33203 h 20.98633 c 3.17405,0 5.83118,2.35039 5.73046,5.26758 l -3.20898,92.863279 c -0.10081,2.9172 -2.55648,5.26953 -5.73047,5.26953 h -14.56836 c -3.17405,0 -5.62781,-2.35233 -5.72851,-5.26953 l -3.20899,-92.863279 c -0.10082,-2.91719 2.55442,-5.26758 5.72852,-5.26758 z m 10.49414,117.267579 a 15.95,15.95 0 0 1 15.94922,15.94922 15.95,15.95 0 0 1 -15.94922,15.95117 15.95,15.95 0 0 1 -15.95117,-15.95117 15.95,15.95 0 0 1 15.95117,-15.94922 z" />
  </g>
</svg>
