<?xml version="1.0" encoding="UTF-8" standalone="no"?>
<svg
   xmlns:dc="http://purl.org/dc/elements/1.1/"
   xmlns:cc="http://creativecommons.org/ns#"
   xmlns:rdf="http://www.w3.org/1999/02/22-rdf-syntax-ns#"
   xmlns:svg="http://www.w3.org/2000/svg"
   xmlns="http://www.w3.org/2000/svg"
   xmlns:sodipodi="http://sodipodi.sourceforge.net/DTD/sodipodi-0.dtd"
   xmlns:inkscape="http://www.inkscape.org/namespaces/inkscape"
   width="300"
   height="300"
   viewBox="0 0 300 300"
   version="1.1"
   id="svg8"
   inkscape:version="1.0.1 (3bc2e813f5, 2020-09-07)"
   sodipodi:docname="alarm-clock-minus.svg">
  <defs
     id="defs2" />
  <sodipodi:namedview
     id="base"
     pagecolor="#ffffff"
     bordercolor="#666666"
     borderopacity="1.0"
     inkscape:pageopacity="0.0"
     inkscape:pageshadow="2"
     inkscape:zoom="2"
     inkscape:cx="150"
     inkscape:cy="150"
     inkscape:document-units="px"
     inkscape:current-layer="layer1"
     inkscape:document-rotation="0"
     showgrid="false"
     units="px"
     inkscape:window-width="2560"
     inkscape:window-height="1377"
     inkscape:window-x="2552"
     inkscape:window-y="-8"
     inkscape:window-maximized="1" />
  <metadata
     id="metadata5">
    <rdf:RDF>
      <cc:Work
         rdf:about="">
        <dc:format>image/svg+xml</dc:format>
        <dc:type
           rdf:resource="http://purl.org/dc/dcmitype/StillImage" />
        <dc:title></dc:title>
      </cc:Work>
    </rdf:RDF>
  </metadata>
  <g
     inkscape:label="Ebene 1"
     inkscape:groupmode="layer"
     id="layer1">
    <path
       id="path1041-0-0-6-1"
       style="opacity:0.99;fill:#000000;fill-opacity:1;stroke-width:29.4633;stop-color:#000000"
       d="M 69.369136,0.00830171 C 57.822335,0.20129671 46.207094,3.7256697 36.035151,10.848146 8.9099411,29.841426 2.3172721,67.228785 21.310542,94.35401 L 119.53906,25.572756 C 107.66827,8.6194867 88.613804,-0.31335629 69.369136,0.00830171 Z m 161.261724,0 C 211.38611,-0.31335729 192.33174,8.6194987 180.46094,25.572756 L 278.68945,94.35401 C 297.68275,67.228805 291.09005,29.841416 263.96484,10.848146 253.79289,3.7256697 242.17771,0.20129771 230.63086,0.00830171 Z M 149.35546,49.268068 A 119.91534,119.91534 0 0 0 29.439448,169.18213 119.91534,119.91534 0 0 0 58.669917,247.64307 l -24.427734,24.42578 c -6.40572,6.4057 -6.40572,16.72123 0,23.12695 6.40573,6.40572 16.721233,6.40572 23.126953,0 l 25.93164,-25.93164 a 119.91534,119.91534 0 0 0 66.054684,19.83399 119.91534,119.91534 0 0 0 66.05274,-19.83399 l 25.93164,25.93164 c 6.40571,6.40572 16.72124,6.40572 23.12696,0 6.40573,-6.40572 6.40573,-16.72125 0,-23.12695 L 240.03906,247.64307 A 119.91534,119.91534 0 0 0 269.26953,169.18213 119.91534,119.91534 0 0 0 149.35546,49.268068 Z M 91.035151,154.06299 H 207.67578 c 3.58992,0 6.47852,2.89055 6.47852,6.48047 v 17.2793 c 0,3.58992 -2.8886,6.48046 -6.47852,6.48046 H 91.035151 c -3.58992,0 -6.480469,-2.89054 -6.480468,-6.48046 v -17.2793 c 0,-3.58992 2.890548,-6.48047 6.480468,-6.48047 z" />
  </g>
</svg>
