<?xml version="1.0" encoding="UTF-8" standalone="no"?>
<svg
   xmlns:dc="http://purl.org/dc/elements/1.1/"
   xmlns:cc="http://creativecommons.org/ns#"
   xmlns:rdf="http://www.w3.org/1999/02/22-rdf-syntax-ns#"
   xmlns:svg="http://www.w3.org/2000/svg"
   xmlns="http://www.w3.org/2000/svg"
   xmlns:sodipodi="http://sodipodi.sourceforge.net/DTD/sodipodi-0.dtd"
   xmlns:inkscape="http://www.inkscape.org/namespaces/inkscape"
   width="300"
   height="300"
   viewBox="0 0 300 300"
   version="1.1"
   id="svg8"
   inkscape:version="1.0.1 (3bc2e813f5, 2020-09-07)"
   sodipodi:docname="alarm-clock-check.svg">
  <defs
     id="defs2" />
  <sodipodi:namedview
     id="base"
     pagecolor="#ffffff"
     bordercolor="#666666"
     borderopacity="1.0"
     inkscape:pageopacity="0.0"
     inkscape:pageshadow="2"
     inkscape:zoom="2"
     inkscape:cx="150"
     inkscape:cy="150"
     inkscape:document-units="px"
     inkscape:current-layer="layer1"
     inkscape:document-rotation="0"
     showgrid="false"
     units="px"
     inkscape:window-width="2560"
     inkscape:window-height="1377"
     inkscape:window-x="2552"
     inkscape:window-y="-8"
     inkscape:window-maximized="1" />
  <metadata
     id="metadata5">
    <rdf:RDF>
      <cc:Work
         rdf:about="">
        <dc:format>image/svg+xml</dc:format>
        <dc:type
           rdf:resource="http://purl.org/dc/dcmitype/StillImage" />
        <dc:title></dc:title>
      </cc:Work>
    </rdf:RDF>
  </metadata>
  <g
     inkscape:label="Ebene 1"
     inkscape:groupmode="layer"
     id="layer1">
    <path
       id="path1041-0-0-6-1"
       style="opacity:0.99;fill:#000000;fill-opacity:1;stroke-width:29.4633;stop-color:#000000"
       d="M 69.369132,0.00830171 C 57.822332,0.20129671 46.207092,3.7256697 36.035152,10.848146 8.9099418,29.841426 2.3172718,67.228786 21.310542,94.354005 L 119.53905,25.572756 C 107.66826,8.6194867 88.613802,-0.31335629 69.369132,0.00830171 Z m 161.261718,0 C 211.3861,-0.31335729 192.33173,8.6194987 180.46093,25.572756 l 98.22851,68.781249 C 297.68274,67.228806 291.09005,29.841416 263.96484,10.848146 253.79289,3.7256697 242.1777,0.20129771 230.63085,0.00830171 Z M 149.35546,49.268068 A 119.91534,119.91534 0 0 0 29.439442,169.18213 a 119.91534,119.91534 0 0 0 29.23047,78.46094 l -24.42773,24.42578 c -6.40572,6.4057 -6.40572,16.72123 0,23.12695 6.40573,6.40572 16.72123,6.40572 23.12695,0 l 25.93164,-25.93164 a 119.91534,119.91534 0 0 0 66.054688,19.83399 119.91534,119.91534 0 0 0 66.05273,-19.83399 l 25.93165,25.93164 c 6.40571,6.40572 16.72123,6.40572 23.12695,0 6.40573,-6.40572 6.40573,-16.72125 0,-23.12695 L 240.03905,247.64307 A 119.91534,119.91534 0 0 0 269.26952,169.18213 119.91534,119.91534 0 0 0 149.35546,49.268068 Z m 56.00195,60.099612 c 1.84046,0 3.68156,0.70498 5.0918,2.11523 l 13.57617,13.57813 c 2.82053,2.82051 2.82053,7.36113 0,10.18164 l -78.06445,78.06445 -13.57617,13.57617 c -1.76284,1.76282 -4.19789,2.42313 -6.46485,1.98242 -0.45339,-0.0881 -0.90076,-0.2202 -1.33398,-0.39648 -0.21662,-0.0881 -0.42962,-0.1867 -0.63867,-0.29687 -0.20905,-0.11018 -0.41348,-0.23107 -0.61329,-0.36329 -0.1998,-0.13221 -0.3951,-0.27544 -0.58398,-0.42968 -0.18888,-0.15425 -0.37255,-0.31982 -0.54883,-0.4961 L 74.683582,179.36572 c -2.82048,-2.8205 -2.82048,-7.36113 0,-10.18164 l 13.57813,-13.57617 c 2.82053,-2.8205 7.36111,-2.8205 10.18164,0 l 28.849608,28.84961 72.97461,-72.97461 c 1.41026,-1.41025 3.24938,-2.11523 5.08984,-2.11523 z" />
  </g>
</svg>
