<?xml version="1.0" encoding="UTF-8" standalone="no"?>
<svg
   xmlns:dc="http://purl.org/dc/elements/1.1/"
   xmlns:cc="http://creativecommons.org/ns#"
   xmlns:rdf="http://www.w3.org/1999/02/22-rdf-syntax-ns#"
   xmlns:svg="http://www.w3.org/2000/svg"
   xmlns="http://www.w3.org/2000/svg"
   xmlns:sodipodi="http://sodipodi.sourceforge.net/DTD/sodipodi-0.dtd"
   xmlns:inkscape="http://www.inkscape.org/namespaces/inkscape"
   width="300"
   height="300"
   viewBox="0 0 300 300"
   version="1.1"
   id="svg8"
   inkscape:version="1.0.1 (3bc2e813f5, 2020-09-07)"
   sodipodi:docname="angle-double-down.svg">
  <defs
     id="defs2" />
  <sodipodi:namedview
     id="base"
     pagecolor="#ffffff"
     bordercolor="#666666"
     borderopacity="1.0"
     inkscape:pageopacity="0.0"
     inkscape:pageshadow="2"
     inkscape:zoom="2"
     inkscape:cx="150"
     inkscape:cy="150"
     inkscape:document-units="px"
     inkscape:current-layer="layer1"
     inkscape:document-rotation="0"
     showgrid="false"
     units="px"
     inkscape:window-width="2560"
     inkscape:window-height="1377"
     inkscape:window-x="2552"
     inkscape:window-y="-8"
     inkscape:window-maximized="1" />
  <metadata
     id="metadata5">
    <rdf:RDF>
      <cc:Work
         rdf:about="">
        <dc:format>image/svg+xml</dc:format>
        <dc:type
           rdf:resource="http://purl.org/dc/dcmitype/StillImage" />
        <dc:title></dc:title>
      </cc:Work>
    </rdf:RDF>
  </metadata>
  <g
     inkscape:label="Ebene 1"
     inkscape:groupmode="layer"
     id="layer1">
    <g
       id="g1176"
       transform="rotate(90,150,150)">
      <path
         id="rect956-0-7-4-1"
         style="fill:#000000;fill-opacity:1;stroke-width:13.8413;stop-color:#000000"
         d="M 295.14507,161.23052 190.32688,266.0487 c -6.2217,6.22172 -15.96105,6.49998 -21.83712,0.62391 l -28.28427,-28.28427 c -5.87606,-5.87606 -5.5978,-15.61541 0.62392,-21.83711 L 245.64759,111.73304 c 6.22171,-6.22171 15.96106,-6.49998 21.83711,-0.62392 l 28.28429,28.28428 c 5.87606,5.87605 5.59779,15.61541 -0.62392,21.83712 z M 190.32689,33.951294 295.14507,138.76949 c 6.22171,6.2217 6.49998,15.96105 0.62391,21.83712 l -28.28427,28.28427 c -5.87606,5.87606 -15.61541,5.59779 -21.83711,-0.62392 L 140.82941,83.448779 c -6.22171,-6.22171 -6.49998,-15.961065 -0.62392,-21.837123 l 28.28428,-28.284278 c 5.87606,-5.876057 15.61541,-5.59779 21.83712,0.623916 z" />
      <path
         id="rect956-0-7-4-1-4"
         style="fill:#000000;fill-opacity:1;stroke-width:13.8413;stop-color:#000000"
         d="M 159.17058,161.23052 54.352404,266.0487 c -6.2217,6.22172 -15.96105,6.49998 -21.83712,0.62391 L 4.2310136,238.38834 c -5.87606,-5.87606 -5.5978,-15.61541 0.62392,-21.83711 L 109.6731,111.73304 c 6.22171,-6.22171 15.96106,-6.49998 21.83711,-0.62392 l 28.28429,28.28428 c 5.87606,5.87605 5.59779,15.61541 -0.62392,21.83712 z M 54.352414,33.951289 159.17058,138.76949 c 6.22171,6.2217 6.49998,15.96105 0.62391,21.83712 l -28.28427,28.28427 c -5.87606,5.87606 -15.61541,5.59779 -21.83711,-0.62392 L 4.8549336,83.448779 c -6.22171,-6.22171 -6.49998,-15.96107 -0.62392,-21.83712 L 32.515294,33.327379 c 5.87606,-5.87606 15.61541,-5.59779 21.83712,0.62391 z" />
    </g>
  </g>
</svg>
