<?xml version="1.0" encoding="UTF-8" standalone="no"?>
<svg
   xmlns:dc="http://purl.org/dc/elements/1.1/"
   xmlns:cc="http://creativecommons.org/ns#"
   xmlns:rdf="http://www.w3.org/1999/02/22-rdf-syntax-ns#"
   xmlns:svg="http://www.w3.org/2000/svg"
   xmlns="http://www.w3.org/2000/svg"
   xmlns:sodipodi="http://sodipodi.sourceforge.net/DTD/sodipodi-0.dtd"
   xmlns:inkscape="http://www.inkscape.org/namespaces/inkscape"
   width="300"
   height="300"
   viewBox="0 0 300 300"
   version="1.1"
   id="svg8"
   inkscape:version="1.0.1 (3bc2e813f5, 2020-09-07)"
   sodipodi:docname="angle-up.svg">
  <defs
     id="defs2" />
  <sodipodi:namedview
     id="base"
     pagecolor="#ffffff"
     bordercolor="#666666"
     borderopacity="1.0"
     inkscape:pageopacity="0.0"
     inkscape:pageshadow="2"
     inkscape:zoom="2"
     inkscape:cx="150"
     inkscape:cy="150"
     inkscape:document-units="px"
     inkscape:current-layer="layer1"
     inkscape:document-rotation="0"
     showgrid="false"
     units="px"
     inkscape:window-width="2560"
     inkscape:window-height="1377"
     inkscape:window-x="2552"
     inkscape:window-y="-8"
     inkscape:window-maximized="1" />
  <metadata
     id="metadata5">
    <rdf:RDF>
      <cc:Work
         rdf:about="">
        <dc:format>image/svg+xml</dc:format>
        <dc:type
           rdf:resource="http://purl.org/dc/dcmitype/StillImage" />
        <dc:title></dc:title>
      </cc:Work>
    </rdf:RDF>
  </metadata>
  <g
     inkscape:label="Ebene 1"
     inkscape:groupmode="layer"
     id="layer1">
    <path
       id="rect956-0-7-4-1-49"
       style="fill:#000000;fill-opacity:1;stroke-width:13.8413;stop-color:#000000"
       d="M 161.23052,72.842167 266.0487,177.66036 c 6.22172,6.2217 6.49998,15.96105 0.62391,21.83712 l -28.28427,28.28427 c -5.87606,5.87606 -15.61541,5.5978 -21.83711,-0.62392 L 111.73304,122.33965 c -6.2217,-6.22171 -6.49997,-15.96106 -0.62392,-21.83711 L 139.3934,72.218247 c 5.87605,-5.87606 15.61541,-5.59779 21.83712,0.62392 z M 33.951301,177.66035 138.76949,72.842167 c 6.2217,-6.22171 15.96105,-6.49998 21.83712,-0.62391 l 28.28427,28.284273 c 5.87606,5.87606 5.59779,15.61541 -0.62392,21.83711 L 83.448791,227.15783 c -6.22171,6.22171 -15.96107,6.49998 -21.83713,0.62392 l -28.28428,-28.28428 c -5.87606,-5.87606 -5.59779,-15.61541 0.62392,-21.83712 z" />
  </g>
</svg>
