<?xml version="1.0" encoding="UTF-8" standalone="no"?>
<svg
   xmlns:dc="http://purl.org/dc/elements/1.1/"
   xmlns:cc="http://creativecommons.org/ns#"
   xmlns:rdf="http://www.w3.org/1999/02/22-rdf-syntax-ns#"
   xmlns:svg="http://www.w3.org/2000/svg"
   xmlns="http://www.w3.org/2000/svg"
   xmlns:sodipodi="http://sodipodi.sourceforge.net/DTD/sodipodi-0.dtd"
   xmlns:inkscape="http://www.inkscape.org/namespaces/inkscape"
   width="300"
   height="300"
   viewBox="0 0 300 300"
   version="1.1"
   id="svg8"
   inkscape:version="1.0.1 (3bc2e813f5, 2020-09-07)"
   sodipodi:docname="arrow-upload.svg">
  <defs
     id="defs2" />
  <sodipodi:namedview
     id="base"
     pagecolor="#ffffff"
     bordercolor="#666666"
     borderopacity="1.0"
     inkscape:pageopacity="0.0"
     inkscape:pageshadow="2"
     inkscape:zoom="2"
     inkscape:cx="150"
     inkscape:cy="150"
     inkscape:document-units="px"
     inkscape:current-layer="layer1"
     inkscape:document-rotation="0"
     showgrid="false"
     units="px"
     inkscape:window-width="2560"
     inkscape:window-height="1377"
     inkscape:window-x="2552"
     inkscape:window-y="-8"
     inkscape:window-maximized="1" />
  <metadata
     id="metadata5">
    <rdf:RDF>
      <cc:Work
         rdf:about="">
        <dc:format>image/svg+xml</dc:format>
        <dc:type
           rdf:resource="http://purl.org/dc/dcmitype/StillImage" />
        <dc:title></dc:title>
      </cc:Work>
    </rdf:RDF>
  </metadata>
  <g
     inkscape:label="Ebene 1"
     inkscape:groupmode="layer"
     id="layer1">
    <path
       id="rect921"
       style="fill:#000000;stroke-width:30.7316;stop-color:#000000"
       d="m 50,48.03906 h 200 c 5.54,0 10,-4.46 10,-10 v -10 c 0,-5.54 -4.46,-10 -10,-10 H 50 c -5.54,0 -10,4.46 -10,10 v 10 c 0,5.54 4.46,10 10,10 z m 85,223.92188 v -109 c -11.82904,-0.63278 -26.00402,-2.02413 -30.0625,-4.35156 -2.29334,-6.36412 34.21669,-80.47579 45.04688,-90.37305 5.48282,0.65752 43.86881,73.50281 45.19726,90.37305 -1.2566,2.24828 -16.41836,3.79211 -30.18164,4.42968 v 108.92188 a 10,-10 0 0 1 -10,10 h -10 a 10,-10 0 0 1 -10,-10 z" />
  </g>
</svg>
