<?xml version="1.0" encoding="UTF-8" standalone="no"?>
<svg
   xmlns:dc="http://purl.org/dc/elements/1.1/"
   xmlns:cc="http://creativecommons.org/ns#"
   xmlns:rdf="http://www.w3.org/1999/02/22-rdf-syntax-ns#"
   xmlns:svg="http://www.w3.org/2000/svg"
   xmlns="http://www.w3.org/2000/svg"
   xmlns:sodipodi="http://sodipodi.sourceforge.net/DTD/sodipodi-0.dtd"
   xmlns:inkscape="http://www.inkscape.org/namespaces/inkscape"
   width="300"
   height="300"
   viewBox="0 0 300 300"
   version="1.1"
   id="svg8"
   inkscape:version="1.0.1 (3bc2e813f5, 2020-09-07)"
   sodipodi:docname="at.svg">
  <defs
     id="defs2">
    <inkscape:path-effect
       effect="fillet_chamfer"
       id="path-effect858"
       is_visible="true"
       lpeversion="1"
       satellites_param="F,0,0,1,0,0,0,1 @ F,0,0,1,0,0,0,1 @ F,0,0,1,0,0,0,1 @ F,0,0,1,0,0,0,1 @ F,0,0,1,0,0,0,1 @ F,0,0,1,0,0,0,1 @ F,0,0,1,0,0.50758173,0,1 @ F,0,0,1,0,0.82,0,1 @ F,0,0,1,0,0,0,1 @ F,0,0,1,0,0,0,1 @ F,0,0,1,0,0,0,1 @ F,0,0,1,0,0,0,1 @ F,0,0,1,0,0,0,1 @ F,0,0,1,0,0,0,1 @ F,0,0,1,0,0,0,1 @ F,0,0,1,0,0.66447685,0,1 @ F,0,0,1,0,0.86029958,0,1 @ F,0,0,1,0,0,0,1 @ F,0,0,1,0,5,0,1 @ F,0,0,1,0,0,0,1 @ F,0,0,1,0,0,0,1 @ F,0,0,1,0,0,0,1 @ F,0,0,1,0,0,0,1 @ F,0,0,1,0,0,0,1 @ F,0,0,1,0,0,0,1 @ F,0,0,1,0,0,0,1 @ F,0,0,1,0,0,0,1 @ F,0,0,1,0,0,0,1 @ F,0,0,1,0,0,0,1 @ F,0,0,1,0,0,0,1 @ F,0,0,1,0,0,0,1 @ F,0,0,1,0,0,0,1 @ F,0,0,1,0,0,0,1 @ F,0,0,1,0,0,0,1 @ F,0,0,1,0,0,0,1 @ F,0,0,1,0,5,0,1 @ F,0,0,1,0,5,0,1 @ F,0,0,1,0,0,0,1 @ F,0,0,1,0,0,0,1 @ F,0,0,1,0,0,0,1 @ F,0,0,1,0,0,0,1 @ F,0,0,1,0,0,0,1 @ F,0,0,1,0,0,0,1 @ F,0,0,1,0,0,0,1 @ F,0,0,1,0,0,0,1 @ F,0,0,1,0,0,0,1 @ F,0,0,1,0,0,0,1 | F,0,0,1,0,0,0,1 @ F,0,0,1,0,0,0,1 @ F,0,0,1,0,0,0,1 @ F,0,0,1,0,0,0,1 @ F,0,0,1,0,0,0,1 @ F,0,0,1,0,0,0,1 @ F,0,0,1,0,0,0,1 @ F,0,0,1,0,0,0,1 @ F,0,0,1,0,0,0,1 @ F,0,0,1,0,0,0,1 @ F,0,0,1,0,0,0,1"
       unit="px"
       method="auto"
       mode="F"
       radius="0"
       chamfer_steps="1"
       flexible="false"
       use_knot_distance="true"
       apply_no_radius="true"
       apply_with_radius="true"
       only_selected="false"
       hide_knots="false" />
  </defs>
  <sodipodi:namedview
     id="base"
     pagecolor="#ffffff"
     bordercolor="#666666"
     borderopacity="1.0"
     inkscape:pageopacity="0.0"
     inkscape:pageshadow="2"
     inkscape:zoom="2"
     inkscape:cx="150"
     inkscape:cy="150"
     inkscape:document-units="px"
     inkscape:current-layer="layer1"
     inkscape:document-rotation="0"
     showgrid="false"
     units="px"
     inkscape:window-width="2560"
     inkscape:window-height="1377"
     inkscape:window-x="5112"
     inkscape:window-y="-8"
     inkscape:window-maximized="1" />
  <metadata
     id="metadata5">
    <rdf:RDF>
      <cc:Work
         rdf:about="">
        <dc:format>image/svg+xml</dc:format>
        <dc:type
           rdf:resource="http://purl.org/dc/dcmitype/StillImage" />
        <dc:title></dc:title>
      </cc:Work>
    </rdf:RDF>
  </metadata>
  <g
     inkscape:label="Ebene 1"
     inkscape:groupmode="layer"
     id="layer1">
    <path
       d="m 300,123.00335 c 0,20.47245 -3.6343,39.14514 -10.9029,56.01803 -7.15502,16.87291 -17.09256,30.09002 -29.8126,39.65132 -12.72004,9.44883 -26.46224,14.17325 -41.22658,14.17325 -10.4486,0 -18.51221,-2.53094 -24.1908,-7.59281 -5.56501,-5.17435 -8.34753,-12.31722 -8.34753,-21.42859 0,-3.95837 0.3082,-7.56062 0.92458,-10.80673 0.0523,-0.2754 -0.11107,-0.58818 -0.36844,-0.69929 -0.40752,-0.17592 -0.89657,0.0125 -1.09677,0.41875 -5.66653,11.49801 -13.83369,21.42453 -24.84267,28.80382 -11.13004,7.53657 -22.54402,11.30485 -34.24191,11.30485 -17.83078,0 -31.686543,-5.68055 -41.567293,-17.04164 -9.767178,-11.47357 -14.650766,-27.44659 -14.650766,-47.91904 0,-18.33521 3.634298,-35.54558 10.902895,-51.63108 7.38217,-16.08549 17.546848,-28.683924 30.494034,-37.795293 13.06076,-9.22385 27.65475,-13.83577 43.78195,-13.83577 21.9131,0 36.82119,9.581085 44.72429,28.743253 0.13992,0.339257 0.54766,0.615586 0.91464,0.615586 a 0.82600497,0.82600497 124.54826 0 0 0.5734,-0.832809 l 6.42821,-24.814001 h 21.57582 a 3.9671611,3.9671611 51.570383 0 1 3.86328,4.869072 l -18.79515,80.507812 c -4.20215,19.34758 -6.30323,32.84591 -6.30323,40.49495 0,5.62432 1.30608,9.61756 3.91823,11.97976 2.72572,2.36221 5.84894,3.54331 9.36967,3.54331 9.08575,0 17.77399,-3.88077 26.06474,-11.6423 8.29074,-7.87402 14.82112,-18.33522 19.59113,-31.38359 4.8836,-13.16087 7.32539,-27.61532 7.32539,-43.36336 0,-19.68505 -4.37251,-37.064133 -13.11754,-52.137253 -8.63147,-15.18561 -21.12437,-26.884159 -37.47871,-35.095637 -16.35435,-8.211479 -35.37762,-12.317218 -57.06985,-12.317218 -27.25724,0 -51.27768,5.905515 -72.061325,17.716546 C 73.594549,53.318277 57.240204,70.359907 45.315162,92.632137 33.503691,114.90437 27.597956,139.87627 27.597956,167.54782 c 0,21.93476 4.486087,41.22612 13.458262,57.87405 9.085747,16.53544 21.805792,29.02139 38.160136,37.45783 16.354348,8.54894 35.547986,12.82342 57.580916,12.82342 31.90969,0 63.87123,-7.96177 95.88463,-23.8853 2.47242,-1.22978 5.47803,-0.27601 6.73867,2.18087 l 5.99703,11.68778 c 1.26064,2.45688 0.33165,5.54678 -2.10078,6.85389 -17.56031,9.43638 -34.78176,16.28365 -51.66435,20.54183 -18.17149,4.61193 -36.85406,6.9179 -56.0477,6.9179 -26.80295,0 -50.425894,-5.39934 -70.868825,-16.19799 C 44.406587,273.11594 28.50653,257.6491 17.035774,237.40163 5.6785916,217.04165 0,193.75705 0,167.54782 0,135.71428 7.1550258,106.91786 21.465077,81.158567 35.888699,55.399267 55.763771,35.433004 81.09029,21.259767 106.41681,7.0865293 134.75299,-8.875e-5 166.09881,-8.875e-5 c 27.59795,0 51.50482,5.11811305 71.72061,15.35434075 20.21579,10.123741 35.60478,24.465706 46.16695,43.025895 C 294.66213,76.940336 300,98.481407 300,123.00335 Z m -110.22147,0.67493 c 0,-10.68618 -3.40715,-19.40385 -10.22146,-26.153003 -6.70074,-6.74916 -15.38898,-10.12374 -26.06473,-10.12374 -10.67576,0 -20.27258,3.54331 -28.79047,10.62993 -8.40431,6.974133 -14.99148,16.929143 -19.76149,29.865033 -4.65645,12.8234 -6.984673,26.04051 -6.984673,39.65132 0,12.8234 2.725723,22.94714 8.177173,30.37121 5.56501,7.42408 14.02612,11.13613 25.3833,11.13613 7.49575,0 14.76435,-2.36222 21.8058,-7.08663 7.15502,-4.72441 13.51504,-11.52982 19.08006,-20.41621 5.56503,-8.99888 9.82397,-19.17886 12.77684,-30.53995 3.06643,-11.47357 4.59965,-20.58494 4.59965,-27.33409 z"
       style="font-weight:bold;font-size:345.557px;line-height:1.25;font-family:'Liberation Sans';-inkscape-font-specification:'Liberation Sans Bold';stroke-width:1.80845"
       id="path854"
       inkscape:path-effect="#path-effect858"
       inkscape:original-d="m 300,123.00335 c 0,20.47245 -3.6343,39.14514 -10.9029,56.01803 -7.15502,16.87291 -17.09256,30.09002 -29.8126,39.65132 -12.72004,9.44883 -26.46224,14.17325 -41.22658,14.17325 -10.4486,0 -18.51221,-2.53094 -24.1908,-7.59281 -5.56501,-5.17435 -8.34753,-12.31722 -8.34753,-21.42859 0,-4.16199 0.34072,-7.93027 1.02215,-11.30484 L 185.33786,192 c -5.6786,11.81102 -13.95796,22.00454 -25.20157,29.5411 -11.13004,7.53657 -22.54402,11.30485 -34.24191,11.30485 -17.83078,0 -31.686543,-5.68055 -41.567293,-17.04164 -9.767178,-11.47357 -14.650766,-27.44659 -14.650766,-47.91904 0,-18.33521 3.634298,-35.54558 10.902895,-51.63108 7.38217,-16.08549 17.546848,-28.683924 30.494034,-37.795293 13.06076,-9.22385 27.65475,-13.83577 43.78195,-13.83577 22.14651,0 37.13799,9.78628 44.97445,29.358839 h 1.02214 l 6.64395,-25.64681 h 26.57582 l -19.93187,85.376884 c -4.20215,19.34758 -6.30323,32.84591 -6.30323,40.49495 0,5.62432 1.30608,9.61756 3.91823,11.97976 2.72572,2.36221 5.84894,3.54331 9.36967,3.54331 9.08575,0 17.77399,-3.88077 26.06474,-11.6423 8.29074,-7.87402 14.82112,-18.33522 19.59113,-31.38359 4.8836,-13.16087 7.32539,-27.61532 7.32539,-43.36336 0,-19.68505 -4.37251,-37.064133 -13.11754,-52.137253 -8.63147,-15.18561 -21.12437,-26.884159 -37.47871,-35.095637 -16.35435,-8.211479 -35.37762,-12.317218 -57.06985,-12.317218 -27.25724,0 -51.27768,5.905515 -72.061325,17.716546 C 73.594549,53.318277 57.240204,70.359907 45.315162,92.632137 33.503691,114.90437 27.597956,139.87627 27.597956,167.54782 c 0,21.93476 4.486087,41.22612 13.458262,57.87405 9.085747,16.53544 21.805792,29.02139 38.160136,37.45783 16.354348,8.54894 35.547986,12.82342 57.580916,12.82342 33.39013,0 66.83703,-8.71767 100.34072,-26.15301 l 10.56219,20.58494 c -19.08007,10.68618 -37.76264,18.33522 -56.04771,22.94714 -18.17149,4.61193 -36.85406,6.9179 -56.0477,6.9179 -26.80295,0 -50.425894,-5.39934 -70.868825,-16.19799 C 44.406587,273.11594 28.50653,257.6491 17.035774,237.40163 5.6785916,217.04165 0,193.75705 0,167.54782 0,135.71428 7.1550258,106.91786 21.465077,81.158567 35.888699,55.399267 55.763771,35.433004 81.09029,21.259767 106.41681,7.0865293 134.75299,-8.875e-5 166.09881,-8.875e-5 c 27.59795,0 51.50482,5.11811305 71.72061,15.35434075 20.21579,10.123741 35.60478,24.465706 46.16695,43.025895 C 294.66213,76.940336 300,98.481407 300,123.00335 Z m -110.22147,0.67493 c 0,-10.68618 -3.40715,-19.40385 -10.22146,-26.153003 -6.70074,-6.74916 -15.38898,-10.12374 -26.06473,-10.12374 -10.67576,0 -20.27258,3.54331 -28.79047,10.62993 -8.40431,6.974133 -14.99148,16.929143 -19.76149,29.865033 -4.65645,12.8234 -6.984673,26.04051 -6.984673,39.65132 0,12.8234 2.725723,22.94714 8.177173,30.37121 5.56501,7.42408 14.02612,11.13613 25.3833,11.13613 7.49575,0 14.76435,-2.36222 21.8058,-7.08663 7.15502,-4.72441 13.51504,-11.52982 19.08006,-20.41621 5.56503,-8.99888 9.82397,-19.17886 12.77684,-30.53995 3.06643,-11.47357 4.59965,-20.58494 4.59965,-27.33409 z"
       sodipodi:nodetypes="sccscscccscsccscccccscsccscssscsccscccsccscssccsscsccscscccs" />
  </g>
</svg>
