<?xml version="1.0" encoding="UTF-8" standalone="no"?>
<svg
   xmlns:dc="http://purl.org/dc/elements/1.1/"
   xmlns:cc="http://creativecommons.org/ns#"
   xmlns:rdf="http://www.w3.org/1999/02/22-rdf-syntax-ns#"
   xmlns:svg="http://www.w3.org/2000/svg"
   xmlns="http://www.w3.org/2000/svg"
   xmlns:sodipodi="http://sodipodi.sourceforge.net/DTD/sodipodi-0.dtd"
   xmlns:inkscape="http://www.inkscape.org/namespaces/inkscape"
   width="300"
   height="300"
   viewBox="0 0 300 300"
   version="1.1"
   id="svg8"
   inkscape:version="1.0.1 (3bc2e813f5, 2020-09-07)"
   sodipodi:docname="basket-shopping-exclamation-mark.svg">
  <defs
     id="defs2">
    <inkscape:path-effect
       effect="fillet_chamfer"
       id="path-effect903"
       is_visible="true"
       lpeversion="1"
       satellites_param="F,0,0,1,0,0,0,1 @ F,0,0,1,0,0,0,1 @ F,0,0,1,0,0,0,1 @ F,0,0,1,0,0,0,1 @ F,0,0,1,0,0,0,1 @ F,0,0,1,0,0,0,1 | F,0,0,1,0,0,0,1 @ F,0,0,1,0,0,0,1 @ F,0,0,1,0,0,0,1 @ F,0,0,1,0,0,0,1 @ F,0,0,1,0,0,0,1 @ F,0,0,1,0,0,0,1 | F,0,0,1,0,15,0,1 @ F,0,0,1,0,15,0,1 @ F,0,0,1,0,5,0,1 @ F,0,0,1,0,15,0,1 @ F,0,0,1,0,15,0,1 @ F,0,0,1,0,5,0,1 @ F,0,0,1,0,15,0,1 @ F,0,0,1,0,15,0,1 @ F,0,0,1,0,0,0,1 @ F,0,0,1,0,0,0,1 @ F,0,0,1,0,0,0,1 @ F,0,0,1,0,0,0,1 @ F,0,0,1,0,0,0,1 @ F,0,0,1,0,0,0,1 @ F,0,0,1,0,0,0,1 @ F,0,0,1,0,0,0,1 @ F,0,0,1,0,0,0,1 @ F,0,0,1,0,0,0,1"
       unit="px"
       method="auto"
       mode="F"
       radius="0"
       chamfer_steps="1"
       flexible="false"
       use_knot_distance="true"
       apply_no_radius="true"
       apply_with_radius="true"
       only_selected="false"
       hide_knots="false" />
  </defs>
  <sodipodi:namedview
     id="base"
     pagecolor="#ffffff"
     bordercolor="#666666"
     borderopacity="1.0"
     inkscape:pageopacity="0.0"
     inkscape:pageshadow="2"
     inkscape:zoom="2"
     inkscape:cx="150"
     inkscape:cy="150"
     inkscape:document-units="px"
     inkscape:current-layer="layer1"
     inkscape:document-rotation="0"
     showgrid="false"
     units="px"
     inkscape:window-width="2560"
     inkscape:window-height="1377"
     inkscape:window-x="2552"
     inkscape:window-y="-8"
     inkscape:window-maximized="1" />
  <metadata
     id="metadata5">
    <rdf:RDF>
      <cc:Work
         rdf:about="">
        <dc:format>image/svg+xml</dc:format>
        <dc:type
           rdf:resource="http://purl.org/dc/dcmitype/StillImage" />
        <dc:title></dc:title>
      </cc:Work>
    </rdf:RDF>
  </metadata>
  <g
     inkscape:label="Ebene 1"
     inkscape:groupmode="layer"
     id="layer1">
    <path
       id="rect836-3-4-0-0-8-0-1"
       style="fill:#000000;stroke-width:39.312;stop-color:#000000"
       d="m 129.23438,27.37284 c -5.31721,-0.143624 -10.52821,2.560102 -13.38477,7.507812 L 60.849609,130.14237 c -4.155,7.19667 -1.706465,16.33523 5.490235,20.49023 7.1967,4.155 16.335234,1.70644 20.490234,-5.49023 L 141.83008,49.880652 c 4.155,-7.19667 1.70646,-16.335234 -5.49024,-20.490234 -2.24897,-1.298437 -4.68855,-1.952295 -7.10546,-2.017578 z m 41.53124,0 c -2.41691,0.06528 -4.8565,0.717187 -7.10546,2.015625 -7.1966,4.155 -9.64524,13.295517 -5.49024,20.492187 l 55,95.261718 c 4.155,7.19667 13.29364,9.64523 20.49024,5.49023 7.1967,-4.155 9.64523,-13.29356 5.49023,-20.49023 l -55,-95.261718 c -2.85656,-4.94771 -8.06756,-7.651436 -13.38477,-7.507812 z M 15,112.6326 a 15,15 0 0 0 -15,15 v 10 a 15,15 0 0 0 15,15 h 5 a 5.9023021,5.9023021 0 0 1 5.822266,4.93164 L 42.533203,257.83768 A 17.706906,17.706906 0 0 0 60,272.6326 h 180 a 17.706906,17.706906 0 0 0 17.4668,-14.79492 L 274.17773,157.56424 A 5.9023021,5.9023021 0 0 1 280,152.6326 h 5 a 15,15 0 0 0 15,-15 v -10 a 15,15 0 0 0 -15,-15 h -44.41211 l 7.22266,12.50977 c 6.8385,11.84451 2.69421,27.31189 -9.15039,34.15039 -11.8445,6.83843 -27.31189,2.69423 -34.15039,-9.15039 L 182.85352,112.6326 h -65.68164 l -21.662114,37.52149 c -6.8446,11.85534 -22.326441,16.00282 -34.181641,9.1582 -11.8553,-6.84469 -16.002803,-22.32641 -9.158203,-34.18164 l 7.214844,-12.49805 z m 128.32227,35.4043 h 13.35546 c 2.01985,0 3.70863,1.49713 3.64454,3.35351 l -2.04102,59.09376 c -0.0642,1.8564 -1.62667,3.35351 -3.64648,3.35351 h -9.26954 c -2.01985,0 -3.5824,-1.49712 -3.64648,-3.35351 l -2.04102,-59.09376 c -0.0642,-1.85639 1.62466,-3.35351 3.64454,-3.35351 z M 150,222.6619 A 10.15,10.15 0 0 1 160.15039,232.81229 10.15,10.15 0 0 1 150,242.96268 10.15,10.15 0 0 1 139.84961,232.81229 10.15,10.15 0 0 1 150,222.6619 Z" />
  </g>
</svg>
