<?xml version="1.0" encoding="UTF-8" standalone="no"?>
<svg
   xmlns:dc="http://purl.org/dc/elements/1.1/"
   xmlns:cc="http://creativecommons.org/ns#"
   xmlns:rdf="http://www.w3.org/1999/02/22-rdf-syntax-ns#"
   xmlns:svg="http://www.w3.org/2000/svg"
   xmlns="http://www.w3.org/2000/svg"
   xmlns:sodipodi="http://sodipodi.sourceforge.net/DTD/sodipodi-0.dtd"
   xmlns:inkscape="http://www.inkscape.org/namespaces/inkscape"
   width="300"
   height="300"
   viewBox="0 0 300 300"
   version="1.1"
   id="svg8"
   inkscape:version="1.0.1 (3bc2e813f5, 2020-09-07)"
   sodipodi:docname="basket.svg">
  <defs
     id="defs2">
    <inkscape:path-effect
       effect="fillet_chamfer"
       id="path-effect1413"
       is_visible="true"
       lpeversion="1"
       satellites_param="F,0,0,1,0,0,0,1 @ F,0,0,1,0,0,0,1 @ F,0,0,1,0,0,0,1 @ F,0,0,1,0,0,0,1 @ F,0,0,1,0,0,0,1 @ F,0,0,1,0,0,0,1 | F,0,0,1,0,0,0,1 @ F,0,0,1,0,0,0,1 @ F,0,0,1,0,0,0,1 @ F,0,0,1,0,0,0,1 @ F,0,0,1,0,0,0,1 @ F,0,0,1,0,0,0,1 | F,0,0,1,0,15,0,1 @ F,0,0,1,0,15,0,1 @ F,0,0,1,0,5,0,1 @ F,0,0,1,0,15,0,1 @ F,0,0,1,0,15,0,1 @ F,0,0,1,0,5,0,1 @ F,0,0,1,0,15,0,1 @ F,0,0,1,0,15,0,1 @ F,0,0,1,0,0,0,1 @ F,0,0,1,0,0,0,1 @ F,0,0,1,0,0,0,1 @ F,0,0,1,0,0,0,1 @ F,0,0,1,0,0,0,1 @ F,0,0,1,0,0,0,1 @ F,0,0,1,0,0,0,1 @ F,0,0,1,0,0,0,1 @ F,0,0,1,0,0,0,1 @ F,0,0,1,0,0,0,1"
       unit="px"
       method="auto"
       mode="F"
       radius="0"
       chamfer_steps="1"
       flexible="false"
       use_knot_distance="true"
       apply_no_radius="true"
       apply_with_radius="true"
       only_selected="false"
       hide_knots="false" />
  </defs>
  <sodipodi:namedview
     id="base"
     pagecolor="#ffffff"
     bordercolor="#666666"
     borderopacity="1.0"
     inkscape:pageopacity="0.0"
     inkscape:pageshadow="2"
     inkscape:zoom="2"
     inkscape:cx="150"
     inkscape:cy="150"
     inkscape:document-units="px"
     inkscape:current-layer="layer1"
     inkscape:document-rotation="0"
     showgrid="false"
     units="px"
     inkscape:window-width="2560"
     inkscape:window-height="1377"
     inkscape:window-x="2552"
     inkscape:window-y="-8"
     inkscape:window-maximized="1" />
  <metadata
     id="metadata5">
    <rdf:RDF>
      <cc:Work
         rdf:about="">
        <dc:format>image/svg+xml</dc:format>
        <dc:type
           rdf:resource="http://purl.org/dc/dcmitype/StillImage" />
        <dc:title></dc:title>
      </cc:Work>
    </rdf:RDF>
  </metadata>
  <g
     inkscape:label="Ebene 1"
     inkscape:groupmode="layer"
     id="layer1">
    <path
       id="rect836-3-4-0-0-8-0"
       style="fill:#000000;stroke-width:39.312;stop-color:#000000"
       d="m 239.15063,130.14275 -55,-95.262792 c -4.155,-7.19667 -13.29371,-9.64538 -20.49038,-5.49038 -7.19667,4.155 -9.64538,13.29371 -5.49038,20.49038 l 55,95.262792 c 4.155,7.19667 13.29371,9.64538 20.49038,5.49038 7.19667,-4.155 9.64538,-13.29371 5.49038,-20.49038 z m -178.301204,1.6e-4 55.000004,-95.262792 c 4.155,-7.19667 13.29371,-9.64538 20.49038,-5.49038 7.19667,4.155 9.64538,13.29371 5.49038,20.49038 L 86.830186,145.14291 c -4.155,7.19667 -13.29371,9.64538 -20.49038,5.49038 -7.19667,-4.155 -9.64538,-13.29371 -5.49038,-20.49038 z M 0,127.63313 v 10 a 15,15 45 0 0 15,15 h 5 a 5.9023021,5.9023021 40.268839 0 1 5.821995,4.93197 l 16.71202,100.27212 A 17.706906,17.706906 40.268839 0 0 60,272.63313 h 180 a 17.706906,17.706906 139.73116 0 0 17.46598,-14.79591 L 274.17801,157.5651 A 5.9023021,5.9023021 139.73116 0 1 280,152.63313 h 5 a 15,15 135 0 0 15,-15 v -10 a 15,15 45 0 0 -15,-15 h -44.41211 l 7.22266,12.50977 c 6.83843,11.84451 2.69422,27.31189 -9.15039,34.15039 -11.84452,6.83843 -27.3119,2.69423 -34.15039,-9.15039 l -21.65625,-37.50977 h -65.68164 l -21.662114,37.52148 c -6.844685,11.85534 -22.326405,16.00283 -34.181641,9.15821 -11.855336,-6.84469 -16.002829,-22.32641 -9.158203,-34.18164 l 7.214844,-12.49805 -44.384766,0 a 15,15 135 0 0 -15,15 z"
       inkscape:path-effect="#path-effect1413"
       inkscape:original-d="m 239.15063,130.14275 -55,-95.262792 c -4.155,-7.19667 -13.29371,-9.64538 -20.49038,-5.49038 -7.19667,4.155 -9.64538,13.29371 -5.49038,20.49038 l 55,95.262792 c 4.155,7.19667 13.29371,9.64538 20.49038,5.49038 7.19667,-4.155 9.64538,-13.29371 5.49038,-20.49038 z m -178.301204,1.6e-4 55.000004,-95.262792 c 4.155,-7.19667 13.29371,-9.64538 20.49038,-5.49038 7.19667,4.155 9.64538,13.29371 5.49038,20.49038 L 86.830186,145.14291 c -4.155,7.19667 -13.29371,9.64538 -20.49038,5.49038 -7.19667,-4.155 -9.64538,-13.29371 -5.49038,-20.49038 z M 0,112.63313 v 40 h 25 l 20,120 h 210 l 20,-120 h 25 v -40 h -59.41211 l 7.22266,12.50977 c 6.83843,11.84451 2.69422,27.31189 -9.15039,34.15039 -11.84452,6.83843 -27.3119,2.69423 -34.15039,-9.15039 l -21.65625,-37.50977 h -65.68164 l -21.662114,37.52148 c -6.844685,11.85534 -22.326405,16.00283 -34.181641,9.15821 -11.855336,-6.84469 -16.002829,-22.32641 -9.158203,-34.18164 l 7.214844,-12.49805 z" />
  </g>
</svg>
