<?xml version="1.0" encoding="UTF-8" standalone="no"?>
<svg
   xmlns:dc="http://purl.org/dc/elements/1.1/"
   xmlns:cc="http://creativecommons.org/ns#"
   xmlns:rdf="http://www.w3.org/1999/02/22-rdf-syntax-ns#"
   xmlns:svg="http://www.w3.org/2000/svg"
   xmlns="http://www.w3.org/2000/svg"
   xmlns:sodipodi="http://sodipodi.sourceforge.net/DTD/sodipodi-0.dtd"
   xmlns:inkscape="http://www.inkscape.org/namespaces/inkscape"
   width="300"
   height="300"
   viewBox="0 0 300 300"
   version="1.1"
   id="svg8"
   inkscape:version="1.0.1 (3bc2e813f5, 2020-09-07)"
   sodipodi:docname="bed.svg">
  <defs
     id="defs2">
    <inkscape:path-effect
       effect="fillet_chamfer"
       id="path-effect931"
       is_visible="true"
       lpeversion="1"
       satellites_param="F,0,0,1,0,0,0,1 @ F,0,0,1,0,0,0,1 @ F,0,0,1,0,0,0,1 @ F,0,0,1,0,0,0,1 | F,0,0,1,0,10,0,1 @ F,0,0,1,0,0,0,1 @ F,0,0,1,0,0,0,1 @ F,0,0,1,0,10,0,1 @ F,0,0,1,0,10,0,1 @ F,0,0,1,0,5,0,1 @ F,0,0,1,0,5,0,1 @ F,0,0,1,0,10,0,1 @ F,0,0,1,0,10,0,1 @ F,0,0,1,0,30,0,1 @ F,0,0,1,0,0,0,1 @ F,0,0,1,0,10,0,1 @ F,0,0,1,0,5,0,1 @ F,0,0,1,0,5,0,1 @ F,0,0,1,0,10,0,1"
       unit="px"
       method="auto"
       mode="F"
       radius="0"
       chamfer_steps="1"
       flexible="false"
       use_knot_distance="true"
       apply_no_radius="true"
       apply_with_radius="true"
       only_selected="false"
       hide_knots="false" />
  </defs>
  <sodipodi:namedview
     id="base"
     pagecolor="#ffffff"
     bordercolor="#666666"
     borderopacity="1.0"
     inkscape:pageopacity="0.0"
     inkscape:pageshadow="2"
     inkscape:zoom="2"
     inkscape:cx="150"
     inkscape:cy="150"
     inkscape:document-units="px"
     inkscape:current-layer="layer1"
     inkscape:document-rotation="0"
     showgrid="false"
     units="px"
     inkscape:window-width="2560"
     inkscape:window-height="1377"
     inkscape:window-x="2552"
     inkscape:window-y="-8"
     inkscape:window-maximized="1" />
  <metadata
     id="metadata5">
    <rdf:RDF>
      <cc:Work
         rdf:about="">
        <dc:format>image/svg+xml</dc:format>
        <dc:type
           rdf:resource="http://purl.org/dc/dcmitype/StillImage" />
        <dc:title></dc:title>
      </cc:Work>
    </rdf:RDF>
  </metadata>
  <g
     inkscape:label="Ebene 1"
     inkscape:groupmode="layer"
     id="layer1">
    <path
       id="path870"
       style="fill:#000000;stroke-width:22.932;stop-color:#000000"
       d="m 120,130 c 0,19.32997 -15.67003,35 -35,35 -19.329966,0 -35,-15.67003 -35,-35 0,-19.32997 15.670034,-35 35,-35 19.32997,0 35,15.67003 35,35 z M 0,45 v 140 30 40 a 10,10 45 0 0 10,10 h 10 a 10,10 135 0 0 10,-10 v -35 a 5,5 135 0 1 5,-5 l 230,0 a 5,5 45 0 1 5,5 v 35 a 10,10 45 0 0 10,10 h 10 a 10,10 135 0 0 10,-10 V 125 A 30,30 45 0 0 270,95 H 150 a 10,10 135 0 0 -10,10 v 75 a 5,5 135 0 1 -5,5 H 35 a 5,5 45 0 1 -5,-5 V 45 A 10,10 45 0 0 20,35 H 10 A 10,10 135 0 0 0,45 Z"
       inkscape:path-effect="#path-effect931"
       inkscape:original-d="M 120,130 A 35,35 0 0 1 85,165 35,35 0 0 1 50,130 35,35 0 0 1 85,95 35,35 0 0 1 120,130 Z M 0,35 v 150 30 50 h 30 v -50 h 240 v 50 h 30 V 95 H 270 140 v 90 H 30 V 35 Z" />
  </g>
</svg>
