<?xml version="1.0" encoding="UTF-8" standalone="no"?>
<svg
   xmlns:dc="http://purl.org/dc/elements/1.1/"
   xmlns:cc="http://creativecommons.org/ns#"
   xmlns:rdf="http://www.w3.org/1999/02/22-rdf-syntax-ns#"
   xmlns:svg="http://www.w3.org/2000/svg"
   xmlns="http://www.w3.org/2000/svg"
   xmlns:sodipodi="http://sodipodi.sourceforge.net/DTD/sodipodi-0.dtd"
   xmlns:inkscape="http://www.inkscape.org/namespaces/inkscape"
   width="300"
   height="300"
   viewBox="0 0 300 300"
   version="1.1"
   id="svg8"
   inkscape:version="1.0.1 (3bc2e813f5, 2020-09-07)"
   sodipodi:docname="bell-gear.svg">
  <defs
     id="defs2" />
  <sodipodi:namedview
     id="base"
     pagecolor="#ffffff"
     bordercolor="#666666"
     borderopacity="1.0"
     inkscape:pageopacity="0.0"
     inkscape:pageshadow="2"
     inkscape:zoom="2"
     inkscape:cx="150"
     inkscape:cy="150"
     inkscape:document-units="px"
     inkscape:current-layer="layer1"
     inkscape:document-rotation="0"
     showgrid="false"
     units="px"
     inkscape:window-width="2560"
     inkscape:window-height="1377"
     inkscape:window-x="2552"
     inkscape:window-y="-8"
     inkscape:window-maximized="1" />
  <metadata
     id="metadata5">
    <rdf:RDF>
      <cc:Work
         rdf:about="">
        <dc:format>image/svg+xml</dc:format>
        <dc:type
           rdf:resource="http://purl.org/dc/dcmitype/StillImage" />
        <dc:title />
      </cc:Work>
    </rdf:RDF>
  </metadata>
  <g
     inkscape:label="Ebene 1"
     inkscape:groupmode="layer"
     id="layer1">
    <path
       id="path830-7-2-3"
       style="fill:#000000;stroke-width:37.6978;stop-color:#000000"
       d="M 149.9707,-9.1948167e-5 A 15.192718,15.192718 0 0 0 134.80664,15.193268 v 8.7168 c -50.954177,7.80324 -90.728207,54.23376 -94.390617,111.691402 -0.3048,4.78182 -0.59448,12.54465 -1.03516,17.31446 -6.92383,74.94226 -16.052423,78.55515 -24.726563,96.83789 -4.02254,8.47841 1.127382,16.0625 9.794922,16.0625 h 91.367188 a 34.183616,34.183616 0 0 0 33.95507,34.18359 34.183616,34.183616 0 0 0 0.22852,0 34.183616,34.183616 0 0 0 34.18359,-34.18359 h 91.36719 c 8.66754,0 13.81745,-7.58409 9.79492,-16.0625 -8.67415,-18.28274 -17.80274,-21.89563 -24.72656,-96.83789 -0.44068,-4.76981 -0.73036,-12.53264 -1.03516,-17.31446 C 255.92157,78.143828 216.14753,31.713308 165.19336,23.910068 v -8.7168 A 15.192718,15.192718 0 0 0 150,-9.1948167e-5 a 15.192718,15.192718 0 0 0 -0.0293,0 z M 137.3125,82.499908 h 25.375 c 2.81165,0 5.07617,2.26257 5.07617,5.07422 v 14.884762 a 50.75188,50.75188 0 0 1 7.61133,3.5879 50.75188,50.75188 0 0 1 6.91602,4.79882 l 12.88867,-7.4414 c 2.43495,-1.40582 5.52774,-0.57754 6.93359,1.85742 l 12.6875,21.97656 c 1.40585,2.43497 0.57758,5.52582 -1.85742,6.93164 l -12.88867,7.44141 a 50.75188,50.75188 0 0 1 0,16.77734 l 12.88867,7.44141 c 2.435,1.40583 3.26327,4.49668 1.85742,6.93164 l -12.6875,21.97656 c -1.40585,2.43496 -4.49864,3.26324 -6.93359,1.85742 l -12.89063,-7.44336 a 50.75188,50.75188 0 0 1 -14.52539,8.38868 v 14.88476 c 0,2.81165 -2.26452,5.07422 -5.07617,5.07422 h -25.375 c -2.81165,0 -5.07617,-2.26256 -5.07617,-5.07422 v -14.88476 a 50.75188,50.75188 0 0 1 -7.61133,-3.5879 50.75188,50.75188 0 0 1 -6.91602,-4.79882 l -12.88867,7.4414 c -2.43495,1.40582 -5.527737,0.57754 -6.933587,-1.85742 l -12.6875,-21.97656 c -1.4058,-2.43496 -0.57753,-5.5258 1.85742,-6.93164 l 12.88867,-7.44141 a 50.75188,50.75188 0 0 1 0,-16.77734 l -12.88867,-7.44141 c -2.43495,-1.40582 -3.26322,-4.49668 -1.85742,-6.93164 l 12.6875,-21.97656 c 1.40585,-2.43496 4.498637,-3.26324 6.933587,-1.85742 l 12.89063,7.44336 a 50.75188,50.75188 0 0 1 14.52539,-8.38868 V 87.574128 c 0,-2.81166 2.26452,-5.07422 5.07617,-5.07422 z m 12.57812,44.662112 A 22.838347,22.838347 0 0 0 127.16211,149.99991 22.838347,22.838347 0 0 0 150,172.8378 22.838347,22.838347 0 0 0 172.83789,149.99991 22.838347,22.838347 0 0 0 150,127.16202 a 22.838347,22.838347 0 0 0 -0.0879,0 22.838347,22.838347 0 0 0 -0.0215,0 z" />
  </g>
</svg>
