<?xml version="1.0" encoding="UTF-8" standalone="no"?>
<svg
   xmlns:dc="http://purl.org/dc/elements/1.1/"
   xmlns:cc="http://creativecommons.org/ns#"
   xmlns:rdf="http://www.w3.org/1999/02/22-rdf-syntax-ns#"
   xmlns:svg="http://www.w3.org/2000/svg"
   xmlns="http://www.w3.org/2000/svg"
   xmlns:sodipodi="http://sodipodi.sourceforge.net/DTD/sodipodi-0.dtd"
   xmlns:inkscape="http://www.inkscape.org/namespaces/inkscape"
   width="300"
   height="300"
   viewBox="0 0 300 300"
   version="1.1"
   id="svg8"
   inkscape:version="1.0.1 (3bc2e813f5, 2020-09-07)"
   sodipodi:docname="box-lens.svg">
  <defs
     id="defs2" />
  <sodipodi:namedview
     id="base"
     pagecolor="#ffffff"
     bordercolor="#666666"
     borderopacity="1.0"
     inkscape:pageopacity="0.0"
     inkscape:pageshadow="2"
     inkscape:zoom="2"
     inkscape:cx="150"
     inkscape:cy="150"
     inkscape:document-units="px"
     inkscape:current-layer="layer1"
     inkscape:document-rotation="0"
     showgrid="false"
     units="px"
     inkscape:window-width="2560"
     inkscape:window-height="1377"
     inkscape:window-x="2552"
     inkscape:window-y="-8"
     inkscape:window-maximized="1" />
  <metadata
     id="metadata5">
    <rdf:RDF>
      <cc:Work
         rdf:about="">
        <dc:format>image/svg+xml</dc:format>
        <dc:type
           rdf:resource="http://purl.org/dc/dcmitype/StillImage" />
        <dc:title></dc:title>
      </cc:Work>
    </rdf:RDF>
  </metadata>
  <g
     inkscape:label="Ebene 1"
     inkscape:groupmode="layer"
     id="layer1">
    <path
       id="rect830-2-23-4"
       style="fill:#000000;stroke-width:25.8266;stop-color:#000000"
       d="M 29.56329,13.98007 -2e-5,90 h 145 V 0 h -95 A 21.927673,21.927673 0 0 0 29.56329,13.98007 Z M 154.99998,0 V 90 H 300.00002 L 270.43672,13.98007 A 21.927673,21.927673 0 0 0 249.99998,0 Z M 0,100 v 170 a 30,30 0 0 0 30,30 h 240 a 30,30 0 0 0 30,-30 V 100 Z m 132,32.5 a 49.500086,49.500086 0 0 1 49.5,49.5 49.500086,49.500086 0 0 1 -10.89453,30.98242 c 4.18895,0.19908 9.74855,1.46146 11.875,3.58789 l 32.52148,32.52149 c 3.33135,3.33131 3.33135,8.69599 0,12.02734 l -3.88281,3.88281 c -3.3313,3.33132 -8.69604,3.33132 -12.02734,0 l -32.52149,-32.52148 c -2.12645,-2.12639 -3.38879,-7.68604 -3.58789,-11.875 A 49.500086,49.500086 0 0 1 132,231.5 49.500086,49.500086 0 0 1 82.5,182 49.500086,49.500086 0 0 1 132,132.5 Z m -0.01,16.47266 A 33.026841,33.026841 0 0 0 98.972656,182 33.026841,33.026841 0 0 0 132,215.02734 33.026841,33.026841 0 0 0 165.02734,182 33.026841,33.026841 0 0 0 132,148.97266 a 33.026841,33.026841 0 0 0 -0.01,0 z" />
  </g>
</svg>
