<?xml version="1.0" encoding="UTF-8" standalone="no"?>
<svg
   xmlns:dc="http://purl.org/dc/elements/1.1/"
   xmlns:cc="http://creativecommons.org/ns#"
   xmlns:rdf="http://www.w3.org/1999/02/22-rdf-syntax-ns#"
   xmlns:svg="http://www.w3.org/2000/svg"
   xmlns="http://www.w3.org/2000/svg"
   xmlns:sodipodi="http://sodipodi.sourceforge.net/DTD/sodipodi-0.dtd"
   xmlns:inkscape="http://www.inkscape.org/namespaces/inkscape"
   width="300"
   height="300"
   viewBox="0 0 300 300"
   version="1.1"
   id="svg8"
   inkscape:version="1.0.1 (3bc2e813f5, 2020-09-07)"
   sodipodi:docname="box-times.svg">
  <defs
     id="defs2" />
  <sodipodi:namedview
     id="base"
     pagecolor="#ffffff"
     bordercolor="#666666"
     borderopacity="1.0"
     inkscape:pageopacity="0.0"
     inkscape:pageshadow="2"
     inkscape:zoom="2"
     inkscape:cx="150"
     inkscape:cy="150"
     inkscape:document-units="px"
     inkscape:current-layer="layer1"
     inkscape:document-rotation="0"
     showgrid="false"
     units="px"
     inkscape:window-width="2560"
     inkscape:window-height="1377"
     inkscape:window-x="2552"
     inkscape:window-y="-8"
     inkscape:window-maximized="1" />
  <metadata
     id="metadata5">
    <rdf:RDF>
      <cc:Work
         rdf:about="">
        <dc:format>image/svg+xml</dc:format>
        <dc:type
           rdf:resource="http://purl.org/dc/dcmitype/StillImage" />
        <dc:title></dc:title>
      </cc:Work>
    </rdf:RDF>
  </metadata>
  <g
     inkscape:label="Ebene 1"
     inkscape:groupmode="layer"
     id="layer1">
    <path
       id="rect830-2-23-4"
       style="fill:#000000;stroke-width:25.8266;stop-color:#000000"
       d="M 29.5629,13.98027 -4e-4,90.0002 H 144.99959 V 2.0000002e-4 h -95 A 21.927673,21.927673 0 0 0 29.5629,13.98027 Z M 154.99959,2.0000002e-4 V 90.0002 H 299.99963 L 270.43633,13.98027 A 21.927673,21.927673 0 0 0 249.99959,2.0000002e-4 Z M 4.1e-4,99.9998 v 170 a 30,30 0 0 0 30,30 H 270.0004 a 30,30 0 0 0 30,-30 v -170 z m 109.33985,37.69336 c 1.91713,0 3.83565,0.73411 5.30467,2.20313 l 35.35547,35.35546 35.35547,-35.35546 c 2.93807,-2.93803 7.66749,-2.93803 10.60547,0 l 14.14258,14.14257 c 2.93804,2.93803 2.93804,7.66744 0,10.60547 l -35.35546,35.35547 35.35546,35.35547 c 2.93804,2.93803 2.93804,7.6694 0,10.60742 l -14.14258,14.14063 c -2.938,2.93803 -7.66742,2.93803 -10.60547,0 l -35.35547,-35.35547 -35.35547,35.35547 c -2.93805,2.93803 -7.66942,2.93803 -10.60742,0 L 89.89494,245.96269 c -2.938,-2.93802 -2.938,-7.66939 0,-10.60742 L 125.2504,199.9998 89.89494,164.64433 c -2.938,-2.93803 -2.938,-7.66744 0,-10.60547 l 14.14257,-14.14257 c 1.469,-1.46902 3.38559,-2.20313 5.30275,-2.20313 z" />
  </g>
</svg>
