<?xml version="1.0" encoding="UTF-8" standalone="no"?>
<svg
   xmlns:dc="http://purl.org/dc/elements/1.1/"
   xmlns:cc="http://creativecommons.org/ns#"
   xmlns:rdf="http://www.w3.org/1999/02/22-rdf-syntax-ns#"
   xmlns:svg="http://www.w3.org/2000/svg"
   xmlns="http://www.w3.org/2000/svg"
   xmlns:sodipodi="http://sodipodi.sourceforge.net/DTD/sodipodi-0.dtd"
   xmlns:inkscape="http://www.inkscape.org/namespaces/inkscape"
   width="300"
   height="300"
   viewBox="0 0 300 300"
   version="1.1"
   id="svg8"
   inkscape:version="1.0.1 (3bc2e813f5, 2020-09-07)"
   sodipodi:docname="box-check.svg">
  <defs
     id="defs2" />
  <sodipodi:namedview
     id="base"
     pagecolor="#ffffff"
     bordercolor="#666666"
     borderopacity="1.0"
     inkscape:pageopacity="0.0"
     inkscape:pageshadow="2"
     inkscape:zoom="2"
     inkscape:cx="150"
     inkscape:cy="150"
     inkscape:document-units="px"
     inkscape:current-layer="layer1"
     inkscape:document-rotation="0"
     showgrid="false"
     units="px"
     inkscape:window-width="2560"
     inkscape:window-height="1377"
     inkscape:window-x="5112"
     inkscape:window-y="-8"
     inkscape:window-maximized="1" />
  <metadata
     id="metadata5">
    <rdf:RDF>
      <cc:Work
         rdf:about="">
        <dc:format>image/svg+xml</dc:format>
        <dc:type
           rdf:resource="http://purl.org/dc/dcmitype/StillImage" />
        <dc:title></dc:title>
      </cc:Work>
    </rdf:RDF>
  </metadata>
  <g
     inkscape:label="Ebene 1"
     inkscape:groupmode="layer"
     id="layer1">
    <path
       id="rect830-2-23"
       style="fill:#000000;stroke-width:25.8266;stop-color:#000000"
       d="M 29.56329,13.98007 -2e-5,90 h 145 V 0 h -95 A 21.927673,21.927673 0 0 0 29.56329,13.98007 Z M 154.99998,0 V 90 H 300.00002 L 270.43672,13.98007 A 21.927673,21.927673 0 0 0 249.99998,0 Z m -155,100 v 170 a 30,30 0 0 0 30,30 h 240.00004 a 30,30 0 0 0 30,-30 V 100 Z m 208.33594,37.69336 c 1.91714,0 3.83373,0.73411 5.30273,2.20312 l 14.14258,14.14063 c 2.93805,2.93803 2.93805,7.66939 0,10.60742 l -95.45898,95.45899 c -1.2854,1.28538 -2.91457,2.00924 -4.58594,2.16992 -0.71631,0.0689 -1.44001,0.0342 -2.14844,-0.10352 -0.47228,-0.0918 -0.9374,-0.23043 -1.38867,-0.41406 -0.22564,-0.0918 -0.44826,-0.19383 -0.66602,-0.30859 -0.21776,-0.11477 -0.43054,-0.24119 -0.63867,-0.37891 -0.20813,-0.13772 -0.41067,-0.28659 -0.60742,-0.44727 -0.19675,-0.16067 -0.38864,-0.33395 -0.57227,-0.51757 l -49.49609,-49.4961 c -2.938,-2.93803 -2.938,-7.66939 0,-10.60742 l 14.14258,-14.14258 c 2.93805,-2.93803 7.66742,-2.93803 10.60547,0 l 30.05273,30.05274 76.01367,-76.01368 c 1.46903,-1.46901 3.38559,-2.20312 5.30274,-2.20312 z" />
  </g>
</svg>
