<?xml version="1.0" encoding="UTF-8" standalone="no"?>
<svg
   xmlns:dc="http://purl.org/dc/elements/1.1/"
   xmlns:cc="http://creativecommons.org/ns#"
   xmlns:rdf="http://www.w3.org/1999/02/22-rdf-syntax-ns#"
   xmlns:svg="http://www.w3.org/2000/svg"
   xmlns="http://www.w3.org/2000/svg"
   xmlns:sodipodi="http://sodipodi.sourceforge.net/DTD/sodipodi-0.dtd"
   xmlns:inkscape="http://www.inkscape.org/namespaces/inkscape"
   width="300"
   height="300"
   viewBox="0 0 300 300"
   version="1.1"
   id="svg8"
   inkscape:version="1.0.1 (3bc2e813f5, 2020-09-07)"
   sodipodi:docname="box-circle-gear.svg">
  <defs
     id="defs2" />
  <sodipodi:namedview
     id="base"
     pagecolor="#ffffff"
     bordercolor="#666666"
     borderopacity="1.0"
     inkscape:pageopacity="0.0"
     inkscape:pageshadow="2"
     inkscape:zoom="2"
     inkscape:cx="150"
     inkscape:cy="150"
     inkscape:document-units="px"
     inkscape:current-layer="layer1"
     inkscape:document-rotation="0"
     showgrid="false"
     units="px"
     inkscape:window-width="2560"
     inkscape:window-height="1377"
     inkscape:window-x="2552"
     inkscape:window-y="-8"
     inkscape:window-maximized="1" />
  <metadata
     id="metadata5">
    <rdf:RDF>
      <cc:Work
         rdf:about="">
        <dc:format>image/svg+xml</dc:format>
        <dc:type
           rdf:resource="http://purl.org/dc/dcmitype/StillImage" />
        <dc:title></dc:title>
      </cc:Work>
    </rdf:RDF>
  </metadata>
  <g
     inkscape:label="Ebene 1"
     inkscape:groupmode="layer"
     id="layer1">
    <path
       id="path833-6"
       style="fill:#000000;stroke-width:13.5011;stop-color:#000000"
       d="m 232,164 a 68,68 0 0 0 -68,68 68,68 0 0 0 68,68 68,68 0 0 0 68,-68 68,68 0 0 0 -68,-68 z m -6.90182,31.28 h 13.80364 c 1.52954,0 2.76162,1.23119 2.76162,2.76073 v 8.09713 a 27.609023,27.609023 0 0 1 4.14109,1.95146 27.609023,27.609023 0 0 1 3.76214,2.61109 l 7.01161,-4.04812 c 1.32462,-0.76477 3.00621,-0.31436 3.77099,1.01026 l 6.90271,11.9549 c 0.76478,1.32462 0.31349,3.0071 -1.01115,3.77187 l -7.01161,4.04724 a 27.609023,27.609023 0 0 1 0,9.12688 l 7.01161,4.04724 c 1.32464,0.76477 1.77593,2.44725 1.01115,3.77187 l -6.90271,11.9549 c -0.76478,1.32462 -2.44637,1.77503 -3.77099,1.01026 l -7.0125,-4.04812 a 27.609023,27.609023 0 0 1 -7.90234,4.56255 v 8.09713 c 0,1.52954 -1.23208,2.76073 -2.76162,2.76073 h -13.80364 c -1.52954,0 -2.76162,-1.23119 -2.76162,-2.76073 v -8.09713 a 27.609023,27.609023 0 0 1 -4.14109,-1.95146 27.609023,27.609023 0 0 1 -3.76214,-2.61109 l -7.01161,4.04812 c -1.32462,0.76477 -3.00621,0.31436 -3.77099,-1.01026 l -6.90271,-11.9549 c -0.76475,-1.32462 -0.31347,-3.0071 1.01115,-3.77187 l 7.01161,-4.04724 a 27.609023,27.609023 0 0 1 0,-9.12688 l -7.01161,-4.04724 c -1.32462,-0.76477 -1.7759,-2.44725 -1.01115,-3.77187 l 6.90271,-11.9549 c 0.76478,-1.32462 2.44637,-1.77503 3.77099,-1.01026 l 7.0125,4.04812 a 27.609023,27.609023 0 0 1 7.90234,-4.56255 v -8.09713 c 0,-1.52954 1.23208,-2.76073 2.76162,-2.76073 z m 6.85401,24.29583 A 12.424061,12.424061 0 0 0 219.57583,232 12.424061,12.424061 0 0 0 232,244.42417 12.424061,12.424061 0 0 0 244.42417,232 12.424061,12.424061 0 0 0 232,219.57583 a 12.424061,12.424061 0 0 0 -0.0478,0 z M 50,0 A 21.927673,21.927673 0 0 0 29.5625,13.98047 L 0,90 H 145 V 0 Z M 155,0 V 90 H 300 L 270.4375,13.98047 A 21.927673,21.927673 0 0 0 250,0 Z M 0,100 v 170 a 30,30 0 0 0 30,30 H 193.79102 A 78,78 0 0 1 154,232 a 78,78 0 0 1 78,-78 78,78 0 0 1 68,39.79102 V 100 Z" />
  </g>
</svg>
