<?xml version="1.0" encoding="UTF-8" standalone="no"?>
<svg
   xmlns:dc="http://purl.org/dc/elements/1.1/"
   xmlns:cc="http://creativecommons.org/ns#"
   xmlns:rdf="http://www.w3.org/1999/02/22-rdf-syntax-ns#"
   xmlns:svg="http://www.w3.org/2000/svg"
   xmlns="http://www.w3.org/2000/svg"
   xmlns:sodipodi="http://sodipodi.sourceforge.net/DTD/sodipodi-0.dtd"
   xmlns:inkscape="http://www.inkscape.org/namespaces/inkscape"
   width="300"
   height="300"
   viewBox="0 0 300 300"
   version="1.1"
   id="svg8"
   inkscape:version="1.0.1 (3bc2e813f5, 2020-09-07)"
   sodipodi:docname="box-circle-times.svg">
  <defs
     id="defs2" />
  <sodipodi:namedview
     id="base"
     pagecolor="#ffffff"
     bordercolor="#666666"
     borderopacity="1.0"
     inkscape:pageopacity="0.0"
     inkscape:pageshadow="2"
     inkscape:zoom="2"
     inkscape:cx="150"
     inkscape:cy="150"
     inkscape:document-units="px"
     inkscape:current-layer="layer1"
     inkscape:document-rotation="0"
     showgrid="false"
     units="px"
     inkscape:window-width="2560"
     inkscape:window-height="1377"
     inkscape:window-x="2552"
     inkscape:window-y="-8"
     inkscape:window-maximized="1" />
  <metadata
     id="metadata5">
    <rdf:RDF>
      <cc:Work
         rdf:about="">
        <dc:format>image/svg+xml</dc:format>
        <dc:type
           rdf:resource="http://purl.org/dc/dcmitype/StillImage" />
        <dc:title></dc:title>
      </cc:Work>
    </rdf:RDF>
  </metadata>
  <g
     inkscape:label="Ebene 1"
     inkscape:groupmode="layer"
     id="layer1">
    <path
       id="path833-5"
       style="fill:#000000;stroke-width:13.5011;stop-color:#000000"
       d="m 232,164 a 68,68 0 0 0 -68,68 68,68 0 0 0 68,68 68,68 0 0 0 68,-68 68,68 0 0 0 -68,-68 z m -22.1186,34.10448 c 1.04293,0 2.08643,0.39971 2.88558,1.19885 L 232,218.53635 251.23302,199.30333 c 1.5983,-1.59828 4.17199,-1.59828 5.77026,0 l 7.69339,7.69339 c 1.5983,1.59829 1.5983,4.17197 0,5.77026 L 245.46365,232 l 19.23302,19.23302 c 1.5983,1.59829 1.5983,4.17198 0,5.77026 l -7.69339,7.69339 c -1.59827,1.59829 -4.17196,1.59829 -5.77026,0 L 232,245.46365 212.76698,264.69667 c -1.5983,1.59829 -4.17199,1.59829 -5.77026,0 l -7.69339,-7.69339 c -1.59827,-1.59828 -1.59827,-4.17197 0,-5.77026 L 218.53635,232 199.30333,212.76698 c -1.59827,-1.59829 -1.59827,-4.17197 0,-5.77026 l 7.69339,-7.69339 c 0.79913,-0.79914 1.84176,-1.19885 2.88468,-1.19885 z M 50,0 A 21.927673,21.927673 0 0 0 29.5625,13.980469 L 0,90 H 145 V 0 Z M 155,0 V 90 H 300 L 270.4375,13.980469 A 21.927673,21.927673 0 0 0 250,0 Z M 0,100 v 170 a 30,30 0 0 0 30,30 H 193.79102 A 78,78 0 0 1 154,232 a 78,78 0 0 1 78,-78 78,78 0 0 1 68,39.79102 V 100 Z" />
  </g>
</svg>
