<?xml version="1.0" encoding="UTF-8" standalone="no"?>
<svg
   xmlns:dc="http://purl.org/dc/elements/1.1/"
   xmlns:cc="http://creativecommons.org/ns#"
   xmlns:rdf="http://www.w3.org/1999/02/22-rdf-syntax-ns#"
   xmlns:svg="http://www.w3.org/2000/svg"
   xmlns="http://www.w3.org/2000/svg"
   xmlns:sodipodi="http://sodipodi.sourceforge.net/DTD/sodipodi-0.dtd"
   xmlns:inkscape="http://www.inkscape.org/namespaces/inkscape"
   width="300"
   height="300"
   viewBox="0 0 300 300"
   version="1.1"
   id="svg8"
   inkscape:version="1.0.1 (3bc2e813f5, 2020-09-07)"
   sodipodi:docname="box-circle-check.svg">
  <defs
     id="defs2" />
  <sodipodi:namedview
     id="base"
     pagecolor="#ffffff"
     bordercolor="#666666"
     borderopacity="1.0"
     inkscape:pageopacity="0.0"
     inkscape:pageshadow="2"
     inkscape:zoom="2"
     inkscape:cx="150"
     inkscape:cy="150"
     inkscape:document-units="px"
     inkscape:current-layer="layer1"
     inkscape:document-rotation="0"
     showgrid="false"
     units="px"
     inkscape:window-width="2560"
     inkscape:window-height="1377"
     inkscape:window-x="5112"
     inkscape:window-y="-8"
     inkscape:window-maximized="1" />
  <metadata
     id="metadata5">
    <rdf:RDF>
      <cc:Work
         rdf:about="">
        <dc:format>image/svg+xml</dc:format>
        <dc:type
           rdf:resource="http://purl.org/dc/dcmitype/StillImage" />
        <dc:title></dc:title>
      </cc:Work>
    </rdf:RDF>
  </metadata>
  <g
     inkscape:label="Ebene 1"
     inkscape:groupmode="layer"
     id="layer1">
    <g
       id="g927">
      <path
         id="rect830-2-1"
         style="fill:#000000;stroke-width:25.8266;stop-color:#000000"
         d="M 50,0 A 21.927673,21.927673 0 0 0 29.5625,13.980469 L 0,90 H 145 V 0 Z M 155,0 V 90 H 300 L 270.4375,13.980469 A 21.927673,21.927673 0 0 0 250,0 Z M 0,100 v 170 a 30,30 0 0 0 30,30 H 193.79102 A 78,78 0 0 1 154,232 a 78,78 0 0 1 78,-78 78,78 0 0 1 68,39.79102 V 100 Z" />
      <path
         id="path833"
         style="fill:#000000;stroke-width:13.5011;stop-color:#000000"
         d="m 232,164 a 68,68 0 0 0 -68,68 68,68 0 0 0 68,68 68,68 0 0 0 68,-68 68,68 0 0 0 -68,-68 z m 31.73511,34.10448 c 1.04292,0 2.08555,0.39971 2.88468,1.19885 l 7.69339,7.69339 c 1.5983,1.59829 1.5983,4.17197 0,5.77026 l -44.23631,44.2363 -7.69338,7.69339 c -0.99894,0.99893 -2.37924,1.37332 -3.66385,1.12359 -0.25693,-0.0499 -0.50977,-0.125 -0.75527,-0.2249 -0.12274,-0.0499 -0.24367,-0.10579 -0.36213,-0.16822 -0.11846,-0.0624 -0.23474,-0.13139 -0.34797,-0.20631 -0.11322,-0.0749 -0.22322,-0.15608 -0.33026,-0.24349 -0.10703,-0.0874 -0.21089,-0.18078 -0.31078,-0.28067 l -26.92641,-26.92641 c -1.59827,-1.59829 -1.59827,-4.17197 0,-5.77026 l 7.69339,-7.69338 c 1.5983,-1.59829 4.17196,-1.59829 5.77026,0 l 16.34745,16.34744 41.35161,-41.35073 c 0.79915,-0.79914 1.84265,-1.19885 2.88558,-1.19885 z" />
    </g>
  </g>
</svg>
