<?xml version="1.0" encoding="UTF-8" standalone="no"?>
<svg
   xmlns:dc="http://purl.org/dc/elements/1.1/"
   xmlns:cc="http://creativecommons.org/ns#"
   xmlns:rdf="http://www.w3.org/1999/02/22-rdf-syntax-ns#"
   xmlns:svg="http://www.w3.org/2000/svg"
   xmlns="http://www.w3.org/2000/svg"
   xmlns:sodipodi="http://sodipodi.sourceforge.net/DTD/sodipodi-0.dtd"
   xmlns:inkscape="http://www.inkscape.org/namespaces/inkscape"
   width="300"
   height="300"
   viewBox="0 0 300 300"
   version="1.1"
   id="svg8"
   inkscape:version="1.0.1 (3bc2e813f5, 2020-09-07)"
   sodipodi:docname="calendar-gear.svg">
  <defs
     id="defs2">
    <inkscape:path-effect
       effect="fillet_chamfer"
       id="path-effect1263"
       is_visible="true"
       lpeversion="1"
       satellites_param="F,0,0,1,0,0,0,1 @ F,0,0,1,0,0,0,1 @ F,0,0,1,0,0,0,1 @ F,0,0,1,0,0,0,1 | F,0,0,1,0,0,0,1 @ F,0,0,1,0,0,0,1 @ F,0,0,1,0,0,0,1 @ F,0,0,1,0,0,0,1 | F,0,0,1,0,0,0,1 @ F,0,0,1,0,0,0,1 @ F,0,0,1,0,0,0,1 @ F,0,1,1,0,13,0,1"
       unit="px"
       method="auto"
       mode="F"
       radius="13"
       chamfer_steps="1"
       flexible="false"
       use_knot_distance="true"
       apply_no_radius="true"
       apply_with_radius="true"
       only_selected="true"
       hide_knots="false" />
  </defs>
  <sodipodi:namedview
     id="base"
     pagecolor="#ffffff"
     bordercolor="#666666"
     borderopacity="1.0"
     inkscape:pageopacity="0.0"
     inkscape:pageshadow="2"
     inkscape:zoom="1.4142136"
     inkscape:cx="81.262458"
     inkscape:cy="73.013039"
     inkscape:document-units="px"
     inkscape:current-layer="layer1"
     inkscape:document-rotation="0"
     showgrid="true"
     units="px"
     inkscape:window-width="2560"
     inkscape:window-height="1377"
     inkscape:window-x="2552"
     inkscape:window-y="-8"
     inkscape:window-maximized="1">
    <inkscape:grid
       type="xygrid"
       id="grid834" />
  </sodipodi:namedview>
  <metadata
     id="metadata5">
    <rdf:RDF>
      <cc:Work
         rdf:about="">
        <dc:format>image/svg+xml</dc:format>
        <dc:type
           rdf:resource="http://purl.org/dc/dcmitype/StillImage" />
        <dc:title></dc:title>
      </cc:Work>
    </rdf:RDF>
  </metadata>
  <g
     inkscape:label="Ebene 1"
     inkscape:groupmode="layer"
     id="layer1">
    <path
       id="path876-5"
       style="fill:#000000;fill-opacity:1;stroke-width:26.0025;stop-color:#000000"
       d="M 75 0 C 66.69 0 60 6.69 60 15 L 60 45 C 60 53.31 66.69 60 75 60 C 83.31 60 90 53.31 90 45 L 90 15 C 90 6.69 83.31 0 75 0 z M 225 0 C 216.69 0 210 6.69 210 15 L 210 45 C 210 53.31 216.69 60 225 60 C 233.31 60 240 53.31 240 45 L 240 15 C 240 6.69 233.31 0 225 0 z M 15 30 C 6.69 30 0 36.690001 0 45 L 0 285 C 0 293.31 6.69 300 15 300 L 285 300 C 293.31 300 300 293.31 300 285 L 300 45 C 300 36.690001 293.31 30 285 30 L 250 30 L 250 45 C 250 58.677028 238.67703 70 225 70 C 211.32297 70 200 58.677028 200 45 L 200 30 L 100 30 L 100 45 C 100 58.677028 88.67703 70 75 70 C 61.32297 70 50 58.677028 50 45 L 50 30 L 15 30 z M 137.3125 112.5 L 162.6875 112.5 C 165.49915 112.5 167.76367 114.76257 167.76367 117.57422 L 167.76367 132.45898 A 50.75188 50.75188 0 0 1 175.375 136.04688 A 50.75188 50.75188 0 0 1 182.29102 140.8457 L 195.17969 133.4043 C 197.61464 131.99847 200.70743 132.82676 202.11328 135.26172 L 214.80078 157.23828 C 216.20663 159.67324 215.37836 162.76409 212.94336 164.16992 L 200.05469 171.61133 A 50.75188 50.75188 0 0 1 200.05469 188.38867 L 212.94336 195.83008 C 215.37836 197.23591 216.20663 200.32676 214.80078 202.76172 L 202.11328 224.73828 C 200.70743 227.17325 197.61464 228.00153 195.17969 226.5957 L 182.28906 219.15234 A 50.75188 50.75188 0 0 1 167.76367 227.54102 L 167.76367 242.42578 C 167.76367 245.23743 165.49915 247.5 162.6875 247.5 L 137.3125 247.5 C 134.50085 247.5 132.23633 245.23743 132.23633 242.42578 L 132.23633 227.54102 A 50.75188 50.75188 0 0 1 124.625 223.95312 A 50.75188 50.75188 0 0 1 117.70898 219.1543 L 104.82031 226.5957 C 102.38536 228.00153 99.292569 227.17325 97.886719 224.73828 L 85.199219 202.76172 C 83.793419 200.32676 84.621691 197.23591 87.056641 195.83008 L 99.945312 188.38867 A 50.75188 50.75188 0 0 1 99.945312 171.61133 L 87.056641 164.16992 C 84.621691 162.76409 83.793419 159.67324 85.199219 157.23828 L 97.886719 135.26172 C 99.292569 132.82676 102.38536 131.99847 104.82031 133.4043 L 117.71094 140.84766 A 50.75188 50.75188 0 0 1 132.23633 132.45898 L 132.23633 117.57422 C 132.23633 114.76257 134.50085 112.5 137.3125 112.5 z M 149.89062 157.16211 A 22.838347 22.838347 0 0 0 127.16211 180 A 22.838347 22.838347 0 0 0 150 202.83789 A 22.838347 22.838347 0 0 0 172.83789 180 A 22.838347 22.838347 0 0 0 150 157.16211 A 22.838347 22.838347 0 0 0 149.91211 157.16211 A 22.838347 22.838347 0 0 0 149.89062 157.16211 z " />
  </g>
</svg>
