<?xml version="1.0" encoding="UTF-8" standalone="no"?>
<svg
   xmlns:dc="http://purl.org/dc/elements/1.1/"
   xmlns:cc="http://creativecommons.org/ns#"
   xmlns:rdf="http://www.w3.org/1999/02/22-rdf-syntax-ns#"
   xmlns:svg="http://www.w3.org/2000/svg"
   xmlns="http://www.w3.org/2000/svg"
   xmlns:sodipodi="http://sodipodi.sourceforge.net/DTD/sodipodi-0.dtd"
   xmlns:inkscape="http://www.inkscape.org/namespaces/inkscape"
   width="300"
   height="300"
   viewBox="0 0 300 300"
   version="1.1"
   id="svg8"
   inkscape:version="1.0.1 (3bc2e813f5, 2020-09-07)"
   sodipodi:docname="calendar.svg">
  <defs
     id="defs2" />
  <sodipodi:namedview
     id="base"
     pagecolor="#ffffff"
     bordercolor="#666666"
     borderopacity="1.0"
     inkscape:pageopacity="0.0"
     inkscape:pageshadow="2"
     inkscape:zoom="1"
     inkscape:cx="367.71648"
     inkscape:cy="307.33944"
     inkscape:document-units="px"
     inkscape:current-layer="layer1"
     inkscape:document-rotation="0"
     showgrid="true"
     units="px"
     inkscape:window-width="2560"
     inkscape:window-height="1377"
     inkscape:window-x="2552"
     inkscape:window-y="-8"
     inkscape:window-maximized="1">
    <inkscape:grid
       type="xygrid"
       id="grid834" />
  </sodipodi:namedview>
  <metadata
     id="metadata5">
    <rdf:RDF>
      <cc:Work
         rdf:about="">
        <dc:format>image/svg+xml</dc:format>
        <dc:type
           rdf:resource="http://purl.org/dc/dcmitype/StillImage" />
        <dc:title></dc:title>
      </cc:Work>
    </rdf:RDF>
  </metadata>
  <g
     inkscape:label="Ebene 1"
     inkscape:groupmode="layer"
     id="layer1">
    <path
       id="rect889-6-8-1-5-63"
       style="fill:#000000;fill-opacity:1;stroke-width:26.0025;stop-color:#000000"
       d="m 47.5,235 h 25 c 2.77,0 5,2.23 5,5 v 15 c 0,2.77 -2.23,5 -5,5 h -25 c -2.77,0 -5,-2.23 -5,-5 v -15 c 0,-2.77 2.23,-5 5,-5 z m 45,0 h 25 c 2.77,0 5,2.23 5,5 v 15 c 0,2.77 -2.23,5 -5,5 h -25 c -2.77,0 -5,-2.23 -5,-5 v -15 c 0,-2.77 2.23,-5 5,-5 z m 45,0 h 25 c 2.77,0 5,2.23 5,5 v 15 c 0,2.77 -2.23,5 -5,5 h -25 c -2.77,0 -5,-2.23 -5,-5 v -15 c 0,-2.77 2.23,-5 5,-5 z m -90,-35 h 25 c 2.77,0 5,2.23 5,5 v 15 c 0,2.77 -2.23,5 -5,5 h -25 c -2.77,0 -5,-2.23 -5,-5 v -15 c 0,-2.77 2.23,-5 5,-5 z m 45,0 h 25 c 2.77,0 5,2.23 5,5 v 15 c 0,2.77 -2.23,5 -5,5 h -25 c -2.77,0 -5,-2.23 -5,-5 v -15 c 0,-2.77 2.23,-5 5,-5 z m 45,0 h 25 c 2.77,0 5,2.23 5,5 v 15 c 0,2.77 -2.23,5 -5,5 h -25 c -2.77,0 -5,-2.23 -5,-5 v -15 c 0,-2.77 2.23,-5 5,-5 z m 45,0 h 25 c 2.77,0 5,2.23 5,5 v 15 c 0,2.77 -2.23,5 -5,5 h -25 c -2.77,0 -5,-2.23 -5,-5 v -15 c 0,-2.77 2.23,-5 5,-5 z m 45,0 h 25 c 2.77,0 5,2.23 5,5 v 15 c 0,2.77 -2.23,5 -5,5 h -25 c -2.77,0 -5,-2.23 -5,-5 v -15 c 0,-2.77 2.23,-5 5,-5 z m -180,-35 h 25 c 2.77,0 5,2.23 5,5 v 15 c 0,2.77 -2.23,5 -5,5 h -25 c -2.77,0 -5,-2.23 -5,-5 v -15 c 0,-2.77 2.23,-5 5,-5 z m 45,0 h 25 c 2.77,0 5,2.23 5,5 v 15 c 0,2.77 -2.23,5 -5,5 h -25 c -2.77,0 -5,-2.23 -5,-5 v -15 c 0,-2.77 2.23,-5 5,-5 z m 45,0 h 25 c 2.77,0 5,2.23 5,5 v 15 c 0,2.77 -2.23,5 -5,5 h -25 c -2.77,0 -5,-2.23 -5,-5 v -15 c 0,-2.77 2.23,-5 5,-5 z m 45,0 h 25 c 2.77,0 5,2.23 5,5 v 15 c 0,2.77 -2.23,5 -5,5 h -25 c -2.77,0 -5,-2.23 -5,-5 v -15 c 0,-2.77 2.23,-5 5,-5 z m 45,0 h 25 c 2.77,0 5,2.23 5,5 v 15 c 0,2.77 -2.23,5 -5,5 h -25 c -2.77,0 -5,-2.23 -5,-5 v -15 c 0,-2.77 2.23,-5 5,-5 z m -180,-35 h 25 c 2.77,0 5,2.23 5,5 v 15 c 0,2.77 -2.23,5 -5,5 h -25 c -2.77,0 -5,-2.23 -5,-5 v -15 c 0,-2.77 2.23,-5 5,-5 z m 45,0 h 25 c 2.77,0 5,2.23 5,5 v 15 c 0,2.77 -2.23,5 -5,5 h -25 c -2.77,0 -5,-2.23 -5,-5 v -15 c 0,-2.77 2.23,-5 5,-5 z m 45,0 h 25 c 2.77,0 5,2.23 5,5 v 15 c 0,2.77 -2.23,5 -5,5 h -25 c -2.77,0 -5,-2.23 -5,-5 v -15 c 0,-2.77 2.23,-5 5,-5 z m 45,0 h 25 c 2.77,0 5,2.23 5,5 v 15 c 0,2.77 -2.23,5 -5,5 h -25 c -2.77,0 -5,-2.23 -5,-5 v -15 c 0,-2.77 2.23,-5 5,-5 z m 45,0 h 25 c 2.77,0 5,2.23 5,5 v 15 c 0,2.77 -2.23,5 -5,5 h -25 c -2.77,0 -5,-2.23 -5,-5 v -15 c 0,-2.77 2.23,-5 5,-5 z M 92.5,95 h 25 c 2.77,0 5,2.23 5,5 v 15 c 0,2.77 -2.23,5 -5,5 h -25 c -2.77,0 -5,-2.23 -5,-5 v -15 c 0,-2.77 2.23,-5 5,-5 z m 45,0 h 25 c 2.77,0 5,2.23 5,5 v 15 c 0,2.77 -2.23,5 -5,5 h -25 c -2.77,0 -5,-2.23 -5,-5 v -15 c 0,-2.77 2.23,-5 5,-5 z m 45,0 h 25 c 2.77,0 5,2.23 5,5 v 15 c 0,2.77 -2.23,5 -5,5 h -25 c -2.77,0 -5,-2.23 -5,-5 v -15 c 0,-2.77 2.23,-5 5,-5 z m 45,0 h 25 c 2.77,0 5,2.23 5,5 v 15 c 0,2.77 -2.23,5 -5,5 h -25 c -2.77,0 -5,-2.23 -5,-5 v -15 c 0,-2.77 2.23,-5 5,-5 z M 75,0 C 66.69,0 60,6.69 60,15 v 30 c 0,8.31 6.69,15 15,15 8.31,0 15,-6.69 15,-15 V 15 C 90,6.69 83.31,0 75,0 Z m 150,0 c -8.31,0 -15,6.69 -15,15 v 30 c 0,8.31 6.69,15 15,15 8.31,0 15,-6.69 15,-15 V 15 C 240,6.69 233.31,0 225,0 Z M 15,30 C 6.6899994,30 0,36.690001 0,45 v 240 c 0,8.31 6.6899994,15 15,15 h 270 c 8.31,0 15,-6.69 15,-15 V 45 c 0,-8.309999 -6.69,-15 -15,-15 h -35 v 15 c 0,13.677028 -11.32297,25 -25,25 -13.67703,0 -25,-11.322972 -25,-25 V 30 H 100 V 45 C 100,58.677028 88.677028,70 75,70 61.322972,70 50,58.677028 50,45 V 30 Z m 25,55 h 220 c 5.54,0 10,4.46 10,10 v 165 c 0,5.54 -4.46,10 -10,10 H 40 c -5.54,0 -10,-4.46 -10,-10 V 95 c 0,-5.54 4.46,-10 10,-10 z" />
  </g>
</svg>
