<?xml version="1.0" encoding="UTF-8" standalone="no"?>
<svg
   xmlns:dc="http://purl.org/dc/elements/1.1/"
   xmlns:cc="http://creativecommons.org/ns#"
   xmlns:rdf="http://www.w3.org/1999/02/22-rdf-syntax-ns#"
   xmlns:svg="http://www.w3.org/2000/svg"
   xmlns="http://www.w3.org/2000/svg"
   xmlns:sodipodi="http://sodipodi.sourceforge.net/DTD/sodipodi-0.dtd"
   xmlns:inkscape="http://www.inkscape.org/namespaces/inkscape"
   width="300"
   height="300"
   viewBox="0 0 300 300"
   version="1.1"
   id="svg8"
   inkscape:version="1.0.1 (3bc2e813f5, 2020-09-07)"
   sodipodi:docname="calendar-floppy-disk.svg">
  <defs
     id="defs2">
    <inkscape:path-effect
       effect="fillet_chamfer"
       id="path-effect1263"
       is_visible="true"
       lpeversion="1"
       satellites_param="F,0,0,1,0,0,0,1 @ F,0,0,1,0,0,0,1 @ F,0,0,1,0,0,0,1 @ F,0,0,1,0,0,0,1 | F,0,0,1,0,0,0,1 @ F,0,0,1,0,0,0,1 @ F,0,0,1,0,0,0,1 @ F,0,0,1,0,0,0,1 | F,0,0,1,0,0,0,1 @ F,0,0,1,0,0,0,1 @ F,0,0,1,0,0,0,1 @ F,0,1,1,0,13,0,1"
       unit="px"
       method="auto"
       mode="F"
       radius="13"
       chamfer_steps="1"
       flexible="false"
       use_knot_distance="true"
       apply_no_radius="true"
       apply_with_radius="true"
       only_selected="true"
       hide_knots="false" />
  </defs>
  <sodipodi:namedview
     id="base"
     pagecolor="#ffffff"
     bordercolor="#666666"
     borderopacity="1.0"
     inkscape:pageopacity="0.0"
     inkscape:pageshadow="2"
     inkscape:zoom="1.4142136"
     inkscape:cx="81.262458"
     inkscape:cy="73.013039"
     inkscape:document-units="px"
     inkscape:current-layer="layer1"
     inkscape:document-rotation="0"
     showgrid="true"
     units="px"
     inkscape:window-width="2560"
     inkscape:window-height="1377"
     inkscape:window-x="2552"
     inkscape:window-y="-8"
     inkscape:window-maximized="1">
    <inkscape:grid
       type="xygrid"
       id="grid834" />
  </sodipodi:namedview>
  <metadata
     id="metadata5">
    <rdf:RDF>
      <cc:Work
         rdf:about="">
        <dc:format>image/svg+xml</dc:format>
        <dc:type
           rdf:resource="http://purl.org/dc/dcmitype/StillImage" />
        <dc:title></dc:title>
      </cc:Work>
    </rdf:RDF>
  </metadata>
  <g
     inkscape:label="Ebene 1"
     inkscape:groupmode="layer"
     id="layer1">
    <path
       id="path876-5"
       style="fill:#000000;fill-opacity:1;stroke-width:26.0025;stop-color:#000000"
       d="M 75 0 C 66.69 0 60 6.69 60 15 L 60 45 C 60 53.31 66.69 60 75 60 C 83.31 60 90 53.31 90 45 L 90 15 C 90 6.69 83.31 0 75 0 z M 225 0 C 216.69 0 210 6.69 210 15 L 210 45 C 210 53.31 216.69 60 225 60 C 233.31 60 240 53.31 240 45 L 240 15 C 240 6.69 233.31 0 225 0 z M 15 30 C 6.69 30 0 36.690001 0 45 L 0 285 C 0 293.31 6.69 300 15 300 L 285 300 C 293.31 300 300 293.31 300 285 L 300 45 C 300 36.690001 293.31 30 285 30 L 250 30 L 250 45 C 250 58.677028 238.67703 70 225 70 C 211.32297 70 200 58.677028 200 45 L 200 30 L 100 30 L 100 45 C 100 58.677028 88.67703 70 75 70 C 61.32297 70 50 58.677028 50 45 L 50 30 L 15 30 z M 89.25 112.5 L 188.25 112.5 A 16.295942 16.295942 0 0 1 199.77344 117.27344 L 212.72656 130.22656 A 16.295942 16.295942 0 0 1 217.5 141.75 L 217.5 240.75 A 6.75 6.75 0 0 1 210.75 247.5 L 89.25 247.5 A 6.75 6.75 0 0 1 82.5 240.75 L 82.5 119.25 A 6.75 6.75 0 0 1 89.25 112.5 z M 120.92383 121.5 C 118.23903 121.5 116.07617 123.507 116.07617 126 L 116.07617 153 C 116.07617 155.493 118.23903 157.5 120.92383 157.5 L 179.07617 157.5 C 181.76097 157.5 183.92383 155.493 183.92383 153 L 183.92383 126 C 183.92383 123.507 181.76097 121.5 179.07617 121.5 L 120.92383 121.5 z M 166.96094 126 L 176.6543 126 C 177.9967 126 179.07617 127.0035 179.07617 128.25 L 179.07617 150.75 C 179.07617 151.9965 177.9967 153 176.6543 153 L 166.96094 153 C 165.61854 153 164.53906 151.9965 164.53906 150.75 L 164.53906 128.25 C 164.53906 127.0035 165.61854 126 166.96094 126 z M 107.25 171 C 103.5105 171 100.5 174.0105 100.5 177.75 L 100.5 227.25 C 100.5 230.9895 103.5105 234 107.25 234 L 192.75 234 C 196.4895 234 199.5 230.9895 199.5 227.25 L 199.5 177.75 C 199.5 174.0105 196.4895 171 192.75 171 L 107.25 171 z " />
  </g>
</svg>
