<?xml version="1.0" encoding="UTF-8" standalone="no"?>
<svg
   xmlns:dc="http://purl.org/dc/elements/1.1/"
   xmlns:cc="http://creativecommons.org/ns#"
   xmlns:rdf="http://www.w3.org/1999/02/22-rdf-syntax-ns#"
   xmlns:svg="http://www.w3.org/2000/svg"
   xmlns="http://www.w3.org/2000/svg"
   xmlns:sodipodi="http://sodipodi.sourceforge.net/DTD/sodipodi-0.dtd"
   xmlns:inkscape="http://www.inkscape.org/namespaces/inkscape"
   width="300"
   height="300"
   viewBox="0 0 300 300"
   version="1.1"
   id="svg8"
   inkscape:version="1.0.1 (3bc2e813f5, 2020-09-07)"
   sodipodi:docname="check.svg">
  <defs
     id="defs2" />
  <sodipodi:namedview
     id="base"
     pagecolor="#ffffff"
     bordercolor="#666666"
     borderopacity="1.0"
     inkscape:pageopacity="0.0"
     inkscape:pageshadow="2"
     inkscape:zoom="2"
     inkscape:cx="150"
     inkscape:cy="150"
     inkscape:document-units="px"
     inkscape:current-layer="layer1"
     inkscape:document-rotation="0"
     showgrid="false"
     units="px"
     inkscape:window-width="2560"
     inkscape:window-height="1377"
     inkscape:window-x="2552"
     inkscape:window-y="-8"
     inkscape:window-maximized="1" />
  <metadata
     id="metadata5">
    <rdf:RDF>
      <cc:Work
         rdf:about="">
        <dc:format>image/svg+xml</dc:format>
        <dc:type
           rdf:resource="http://purl.org/dc/dcmitype/StillImage" />
        <dc:title></dc:title>
      </cc:Work>
    </rdf:RDF>
  </metadata>
  <g
     inkscape:label="Ebene 1"
     inkscape:groupmode="layer"
     id="layer1">
    <path
       id="rect956-0-7"
       style="fill:#000000;fill-opacity:1;stroke-width:12.6129;stop-color:#000000"
       d="m 50.544788,123.47861 92.824862,92.82487 c 5.50982,5.50981 5.50982,14.38122 0,19.89104 l -26.52139,26.52138 c -5.50982,5.50982 -14.38122,5.50982 -19.891033,0 L 4.132364,169.89104 c -5.5098209,-5.50982 -5.5098209,-14.38122 0,-19.89103 l 26.521387,-26.5214 c 5.50982,-5.50982 14.381226,-5.50982 19.891037,0 z M 70.435836,216.30346 249.45521,37.284097 c 5.50982,-5.509821 14.38123,-5.509821 19.89104,0 l 26.52139,26.521386 c 5.50981,5.50982 5.50981,14.381226 0,19.891047 L 116.84827,262.71589 c -5.50982,5.50982 -14.38123,5.50982 -19.891043,0 L 70.435836,236.19451 c -5.509821,-5.50982 -5.509821,-14.38123 0,-19.89105 z" />
  </g>
</svg>
