<?xml version="1.0" encoding="UTF-8" standalone="no"?>
<svg
   xmlns:dc="http://purl.org/dc/elements/1.1/"
   xmlns:cc="http://creativecommons.org/ns#"
   xmlns:rdf="http://www.w3.org/1999/02/22-rdf-syntax-ns#"
   xmlns:svg="http://www.w3.org/2000/svg"
   xmlns="http://www.w3.org/2000/svg"
   xmlns:sodipodi="http://sodipodi.sourceforge.net/DTD/sodipodi-0.dtd"
   xmlns:inkscape="http://www.inkscape.org/namespaces/inkscape"
   width="300"
   height="300"
   viewBox="0 0 300 300"
   version="1.1"
   id="svg8"
   inkscape:version="1.0.1 (3bc2e813f5, 2020-09-07)"
   sodipodi:docname="circle-calendar.svg">
  <defs
     id="defs2" />
  <sodipodi:namedview
     id="base"
     pagecolor="#ffffff"
     bordercolor="#666666"
     borderopacity="1.0"
     inkscape:pageopacity="0.0"
     inkscape:pageshadow="2"
     inkscape:zoom="2"
     inkscape:cx="150"
     inkscape:cy="150"
     inkscape:document-units="px"
     inkscape:current-layer="layer1"
     inkscape:document-rotation="0"
     showgrid="false"
     units="px"
     inkscape:window-width="2560"
     inkscape:window-height="1377"
     inkscape:window-x="2552"
     inkscape:window-y="-8"
     inkscape:window-maximized="1" />
  <metadata
     id="metadata5">
    <rdf:RDF>
      <cc:Work
         rdf:about="">
        <dc:format>image/svg+xml</dc:format>
        <dc:type
           rdf:resource="http://purl.org/dc/dcmitype/StillImage" />
        <dc:title />
      </cc:Work>
    </rdf:RDF>
  </metadata>
  <g
     inkscape:label="Ebene 1"
     inkscape:groupmode="layer"
     id="layer1">
    <path
       id="path833"
       style="fill:#000000;stroke-width:29.7818;stop-color:#000000"
       d="M 150,0 A 150,150 0 0 0 0,150 150,150 0 0 0 150,300 150,150 0 0 0 300,150 150,150 0 0 0 150,0 Z m -37.5,75 c 4.155,0 7.5,3.345 7.5,7.5 v 15 c 0,4.155 -3.345,7.5 -7.5,7.5 -4.155,0 -7.5,-3.345 -7.5,-7.5 v -15 c 0,-4.155 3.345,-7.5 7.5,-7.5 z m 75,0 c 4.155,0 7.5,3.345 7.5,7.5 v 15 c 0,4.155 -3.345,7.5 -7.5,7.5 -4.155,0 -7.5,-3.345 -7.5,-7.5 v -15 c 0,-4.155 3.345,-7.5 7.5,-7.5 z M 82.5,90 H 100 v 7.5 c 0,6.83852 5.66148,12.5 12.5,12.5 6.83852,0 12.5,-5.66148 12.5,-12.5 V 90 h 50 v 7.5 c 0,6.83852 5.66149,12.5 12.5,12.5 6.83851,0 12.5,-5.66148 12.5,-12.5 V 90 h 17.5 c 4.155,0 7.5,3.345 7.5,7.5 v 120 c 0,4.155 -3.345,7.5 -7.5,7.5 H 82.5 C 78.345,225 75,221.655 75,217.5 V 97.5 C 75,93.345 78.345,90 82.5,90 Z M 95,117.5 c -2.77,0 -5,2.23 -5,5 V 205 c 0,2.77 2.23,5 5,5 h 110 c 2.77,0 5,-2.23 5,-5 v -82.5 c 0,-2.77 -2.23,-5 -5,-5 z m 26.25,5 h 12.5 c 1.385,0 2.5,1.115 2.5,2.5 v 7.5 c 0,1.385 -1.115,2.5 -2.5,2.5 h -12.5 c -1.385,0 -2.5,-1.115 -2.5,-2.5 V 125 c 0,-1.385 1.115,-2.5 2.5,-2.5 z m 22.5,0 h 12.5 c 1.385,0 2.5,1.115 2.5,2.5 v 7.5 c 0,1.385 -1.115,2.5 -2.5,2.5 h -12.5 c -1.385,0 -2.5,-1.115 -2.5,-2.5 V 125 c 0,-1.385 1.115,-2.5 2.5,-2.5 z m 22.5,0 h 12.5 c 1.385,0 2.5,1.115 2.5,2.5 v 7.5 c 0,1.385 -1.115,2.5 -2.5,2.5 h -12.5 c -1.385,0 -2.5,-1.115 -2.5,-2.5 V 125 c 0,-1.385 1.115,-2.5 2.5,-2.5 z m 22.5,0 h 12.5 c 1.385,0 2.5,1.115 2.5,2.5 v 7.5 c 0,1.385 -1.115,2.5 -2.5,2.5 h -12.5 c -1.385,0 -2.5,-1.115 -2.5,-2.5 V 125 c 0,-1.385 1.115,-2.5 2.5,-2.5 z m -90,17.5 h 12.5 c 1.385,0 2.5,1.115 2.5,2.5 v 7.5 c 0,1.385 -1.115,2.5 -2.5,2.5 h -12.5 c -1.385,0 -2.5,-1.115 -2.5,-2.5 v -7.5 c 0,-1.385 1.115,-2.5 2.5,-2.5 z m 22.5,0 h 12.5 c 1.385,0 2.5,1.115 2.5,2.5 v 7.5 c 0,1.385 -1.115,2.5 -2.5,2.5 h -12.5 c -1.385,0 -2.5,-1.115 -2.5,-2.5 v -7.5 c 0,-1.385 1.115,-2.5 2.5,-2.5 z m 22.5,0 h 12.5 c 1.385,0 2.5,1.115 2.5,2.5 v 7.5 c 0,1.385 -1.115,2.5 -2.5,2.5 h -12.5 c -1.385,0 -2.5,-1.115 -2.5,-2.5 v -7.5 c 0,-1.385 1.115,-2.5 2.5,-2.5 z m 22.5,0 h 12.5 c 1.385,0 2.5,1.115 2.5,2.5 v 7.5 c 0,1.385 -1.115,2.5 -2.5,2.5 h -12.5 c -1.385,0 -2.5,-1.115 -2.5,-2.5 v -7.5 c 0,-1.385 1.115,-2.5 2.5,-2.5 z m 22.5,0 h 12.5 c 1.385,0 2.5,1.115 2.5,2.5 v 7.5 c 0,1.385 -1.115,2.5 -2.5,2.5 h -12.5 c -1.385,0 -2.5,-1.115 -2.5,-2.5 v -7.5 c 0,-1.385 1.115,-2.5 2.5,-2.5 z m -90,17.5 h 12.5 c 1.385,0 2.5,1.115 2.5,2.5 v 7.5 c 0,1.385 -1.115,2.5 -2.5,2.5 h -12.5 c -1.385,0 -2.5,-1.115 -2.5,-2.5 V 160 c 0,-1.385 1.115,-2.5 2.5,-2.5 z m 22.5,0 h 12.5 c 1.385,0 2.5,1.115 2.5,2.5 v 7.5 c 0,1.385 -1.115,2.5 -2.5,2.5 h -12.5 c -1.385,0 -2.5,-1.115 -2.5,-2.5 V 160 c 0,-1.385 1.115,-2.5 2.5,-2.5 z m 22.5,0 h 12.5 c 1.385,0 2.5,1.115 2.5,2.5 v 7.5 c 0,1.385 -1.115,2.5 -2.5,2.5 h -12.5 c -1.385,0 -2.5,-1.115 -2.5,-2.5 V 160 c 0,-1.385 1.115,-2.5 2.5,-2.5 z m 22.5,0 h 12.5 c 1.385,0 2.5,1.115 2.5,2.5 v 7.5 c 0,1.385 -1.115,2.5 -2.5,2.5 h -12.5 c -1.385,0 -2.5,-1.115 -2.5,-2.5 V 160 c 0,-1.385 1.115,-2.5 2.5,-2.5 z m 22.5,0 h 12.5 c 1.385,0 2.5,1.115 2.5,2.5 v 7.5 c 0,1.385 -1.115,2.5 -2.5,2.5 h -12.5 c -1.385,0 -2.5,-1.115 -2.5,-2.5 V 160 c 0,-1.385 1.115,-2.5 2.5,-2.5 z m -90,17.5 h 12.5 c 1.385,0 2.5,1.115 2.5,2.5 v 7.5 c 0,1.385 -1.115,2.5 -2.5,2.5 h -12.5 c -1.385,0 -2.5,-1.115 -2.5,-2.5 v -7.5 c 0,-1.385 1.115,-2.5 2.5,-2.5 z m 22.5,0 h 12.5 c 1.385,0 2.5,1.115 2.5,2.5 v 7.5 c 0,1.385 -1.115,2.5 -2.5,2.5 h -12.5 c -1.385,0 -2.5,-1.115 -2.5,-2.5 v -7.5 c 0,-1.385 1.115,-2.5 2.5,-2.5 z m 22.5,0 h 12.5 c 1.385,0 2.5,1.115 2.5,2.5 v 7.5 c 0,1.385 -1.115,2.5 -2.5,2.5 h -12.5 c -1.385,0 -2.5,-1.115 -2.5,-2.5 v -7.5 c 0,-1.385 1.115,-2.5 2.5,-2.5 z m 22.5,0 h 12.5 c 1.385,0 2.5,1.115 2.5,2.5 v 7.5 c 0,1.385 -1.115,2.5 -2.5,2.5 h -12.5 c -1.385,0 -2.5,-1.115 -2.5,-2.5 v -7.5 c 0,-1.385 1.115,-2.5 2.5,-2.5 z m 22.5,0 h 12.5 c 1.385,0 2.5,1.115 2.5,2.5 v 7.5 c 0,1.385 -1.115,2.5 -2.5,2.5 h -12.5 c -1.385,0 -2.5,-1.115 -2.5,-2.5 v -7.5 c 0,-1.385 1.115,-2.5 2.5,-2.5 z m -90,17.5 h 12.5 c 1.385,0 2.5,1.115 2.5,2.5 v 7.5 c 0,1.385 -1.115,2.5 -2.5,2.5 h -12.5 c -1.385,0 -2.5,-1.115 -2.5,-2.5 V 195 c 0,-1.385 1.115,-2.5 2.5,-2.5 z m 22.5,0 h 12.5 c 1.385,0 2.5,1.115 2.5,2.5 v 7.5 c 0,1.385 -1.115,2.5 -2.5,2.5 h -12.5 c -1.385,0 -2.5,-1.115 -2.5,-2.5 V 195 c 0,-1.385 1.115,-2.5 2.5,-2.5 z m 22.5,0 h 12.5 c 1.385,0 2.5,1.115 2.5,2.5 v 7.5 c 0,1.385 -1.115,2.5 -2.5,2.5 h -12.5 c -1.385,0 -2.5,-1.115 -2.5,-2.5 V 195 c 0,-1.385 1.115,-2.5 2.5,-2.5 z" />
  </g>
</svg>
