<?xml version="1.0" encoding="UTF-8" standalone="no"?>
<svg
   xmlns:dc="http://purl.org/dc/elements/1.1/"
   xmlns:cc="http://creativecommons.org/ns#"
   xmlns:rdf="http://www.w3.org/1999/02/22-rdf-syntax-ns#"
   xmlns:svg="http://www.w3.org/2000/svg"
   xmlns="http://www.w3.org/2000/svg"
   xmlns:sodipodi="http://sodipodi.sourceforge.net/DTD/sodipodi-0.dtd"
   xmlns:inkscape="http://www.inkscape.org/namespaces/inkscape"
   width="300"
   height="300"
   viewBox="0 0 300 300"
   version="1.1"
   id="svg8"
   inkscape:version="1.0.1 (3bc2e813f5, 2020-09-07)"
   sodipodi:docname="circle-question-mark.svg">
  <defs
     id="defs2" />
  <sodipodi:namedview
     id="base"
     pagecolor="#ffffff"
     bordercolor="#666666"
     borderopacity="1.0"
     inkscape:pageopacity="0.0"
     inkscape:pageshadow="2"
     inkscape:zoom="2"
     inkscape:cx="150"
     inkscape:cy="150"
     inkscape:document-units="px"
     inkscape:current-layer="layer1"
     inkscape:document-rotation="0"
     showgrid="false"
     units="px"
     inkscape:window-width="2560"
     inkscape:window-height="1377"
     inkscape:window-x="2552"
     inkscape:window-y="-8"
     inkscape:window-maximized="1" />
  <metadata
     id="metadata5">
    <rdf:RDF>
      <cc:Work
         rdf:about="">
        <dc:format>image/svg+xml</dc:format>
        <dc:type
           rdf:resource="http://purl.org/dc/dcmitype/StillImage" />
        <dc:title></dc:title>
      </cc:Work>
    </rdf:RDF>
  </metadata>
  <g
     inkscape:label="Ebene 1"
     inkscape:groupmode="layer"
     id="layer1">
    <path
       id="path833"
       style="fill:#000000;stroke-width:29.7818;stop-color:#000000"
       d="M 150,0 A 150,150 0 0 0 0,150 150,150 0 0 0 150,300 150,150 0 0 0 300,150 150,150 0 0 0 150,0 Z m 0.76172,55.910156 c 20.88261,0 37.27098,4.759311 49.16601,14.275394 11.98323,9.42797 17.97461,22.46794 17.97461,39.12109 0,8.54685 -1.93757,16.21147 -5.81445,22.99609 -3.78882,6.78462 -10.92674,13.9226 -21.41211,21.41211 l -10.04492,7.26954 c -5.99158,4.31747 -10.48468,8.67839 -13.48047,13.08398 -1.55344,2.35363 -2.72864,6.27185 -3.52734,10.2168 -1.03474,5.111 -5.46063,9.36132 -10.67969,9.36132 h -16.39063 c -5.21913,0 -9.22764,-4.23864 -8.36132,-9.38281 1.21765,-7.23008 3.36608,-14.88081 6.44531,-19.71094 4.58178,-7.04896 11.27866,-13.65835 20.08984,-19.82617 9.42795,-6.52029 16.08008,-12.24541 19.95703,-17.17968 3.87688,-5.02239 5.81641,-10.57458 5.81641,-16.6543 0,-7.75385 -2.5556,-13.8774 -7.66602,-18.3711 -5.02243,-4.49371 -12.20314,-6.74023 -21.54296,-6.74023 -8.89931,0 -16.38911,2.59827 -22.46875,7.79688 -3.68347,3.19589 -6.43531,7.02517 -8.25391,11.48632 -1.96441,4.81887 -6.54728,8.95395 -11.76172,8.73438 l -18.785156,-0.79102 c -5.21444,-0.21956 -8.953645,-4.61759 -7.671875,-9.67383 3.42069,-13.49463 10.188503,-24.32465 20.302731,-32.48828 12.33568,-9.956636 28.37232,-14.935544 48.10938,-14.935544 z m -5.30078,152.146484 a 20.300008,20.016751 0 0 1 20.30078,20.01563 20.300008,20.016751 0 0 1 -20.30078,20.01757 20.300008,20.016751 0 0 1 -20.29883,-20.01757 20.300008,20.016751 0 0 1 20.29883,-20.01563 z" />
  </g>
</svg>
