<?xml version="1.0" encoding="UTF-8" standalone="no"?>
<svg
   xmlns:dc="http://purl.org/dc/elements/1.1/"
   xmlns:cc="http://creativecommons.org/ns#"
   xmlns:rdf="http://www.w3.org/1999/02/22-rdf-syntax-ns#"
   xmlns:svg="http://www.w3.org/2000/svg"
   xmlns="http://www.w3.org/2000/svg"
   xmlns:sodipodi="http://sodipodi.sourceforge.net/DTD/sodipodi-0.dtd"
   xmlns:inkscape="http://www.inkscape.org/namespaces/inkscape"
   width="300"
   height="300"
   viewBox="0 0 300 300"
   version="1.1"
   id="svg8"
   inkscape:version="1.0.1 (3bc2e813f5, 2020-09-07)"
   sodipodi:docname="circle-arrow-down.svg">
  <defs
     id="defs2" />
  <sodipodi:namedview
     id="base"
     pagecolor="#ffffff"
     bordercolor="#666666"
     borderopacity="1.0"
     inkscape:pageopacity="0.0"
     inkscape:pageshadow="2"
     inkscape:zoom="2"
     inkscape:cx="150"
     inkscape:cy="150"
     inkscape:document-units="px"
     inkscape:current-layer="layer1"
     inkscape:document-rotation="0"
     showgrid="false"
     units="px"
     inkscape:window-width="2560"
     inkscape:window-height="1377"
     inkscape:window-x="2552"
     inkscape:window-y="-8"
     inkscape:window-maximized="1" />
  <metadata
     id="metadata5">
    <rdf:RDF>
      <cc:Work
         rdf:about="">
        <dc:format>image/svg+xml</dc:format>
        <dc:type
           rdf:resource="http://purl.org/dc/dcmitype/StillImage" />
        <dc:title />
      </cc:Work>
    </rdf:RDF>
  </metadata>
  <g
     inkscape:label="Ebene 1"
     inkscape:groupmode="layer"
     id="layer1">
    <path
       id="path833"
       style="fill:#000000;stroke-width:29.7818;stop-color:#000000"
       d="M 150 0 A 150 150 0 0 0 0 150 A 150 150 0 0 0 150 300 A 150 150 0 0 0 300 150 A 150 150 0 0 0 150 0 z M 141.49805 55.5 L 158.49609 55.5 C 161.94863 55.5 164.73047 58.705578 164.73047 62.6875 L 164.73047 150.93555 C 178.31397 151.56482 189.33012 153.08772 190.57031 155.30664 C 189.25921 171.95652 155.4659 243.85107 150.05469 244.5 C 139.36597 234.73201 107.28154 161.58763 109.54492 155.30664 C 113.55039 153.0096 123.59305 151.63623 135.26758 151.01172 L 135.26758 62.6875 C 135.26758 58.705578 138.04551 55.5 141.49805 55.5 z " />
  </g>
</svg>
