<?xml version="1.0" encoding="UTF-8" standalone="no"?>
<svg
   xmlns:dc="http://purl.org/dc/elements/1.1/"
   xmlns:cc="http://creativecommons.org/ns#"
   xmlns:rdf="http://www.w3.org/1999/02/22-rdf-syntax-ns#"
   xmlns:svg="http://www.w3.org/2000/svg"
   xmlns="http://www.w3.org/2000/svg"
   xmlns:sodipodi="http://sodipodi.sourceforge.net/DTD/sodipodi-0.dtd"
   xmlns:inkscape="http://www.inkscape.org/namespaces/inkscape"
   width="300"
   height="300"
   viewBox="0 0 300 300"
   version="1.1"
   id="svg8"
   inkscape:version="1.0.1 (3bc2e813f5, 2020-09-07)"
   sodipodi:docname="circle-gear.svg">
  <defs
     id="defs2" />
  <sodipodi:namedview
     id="base"
     pagecolor="#ffffff"
     bordercolor="#666666"
     borderopacity="1.0"
     inkscape:pageopacity="0.0"
     inkscape:pageshadow="2"
     inkscape:zoom="2"
     inkscape:cx="150"
     inkscape:cy="150"
     inkscape:document-units="px"
     inkscape:current-layer="layer1"
     inkscape:document-rotation="0"
     showgrid="false"
     units="px"
     inkscape:window-width="2560"
     inkscape:window-height="1377"
     inkscape:window-x="2552"
     inkscape:window-y="-8"
     inkscape:window-maximized="1" />
  <metadata
     id="metadata5">
    <rdf:RDF>
      <cc:Work
         rdf:about="">
        <dc:format>image/svg+xml</dc:format>
        <dc:type
           rdf:resource="http://purl.org/dc/dcmitype/StillImage" />
        <dc:title></dc:title>
      </cc:Work>
    </rdf:RDF>
  </metadata>
  <g
     inkscape:label="Ebene 1"
     inkscape:groupmode="layer"
     id="layer1">
    <path
       id="path833"
       style="fill:#000000;stroke-width:29.7818;stop-color:#000000"
       d="M 150,0 A 150,150 0 0 0 0,150 150,150 0 0 0 150,300 150,150 0 0 0 300,150 150,150 0 0 0 150,0 Z m -15.22461,69 h 30.44922 c 3.37398,0 6.0918,2.71586 6.0918,6.08984 v 17.86133 a 60.902256,60.902256 0 0 1 9.13476,4.30469 60.902256,60.902256 0 0 1 8.29883,5.75976 l 15.4668,-8.92968 c 2.92194,-1.687 6.63134,-0.69344 8.31836,2.22851 l 15.22656,26.3711 c 1.68702,2.92195 0.69153,6.63332 -2.23047,8.32031 l -15.4668,8.92773 a 60.902256,60.902256 0 0 1 0,20.13282 l 15.4668,8.92773 c 2.922,1.687 3.91749,5.39836 2.23047,8.32031 l -15.22656,26.3711 c -1.68702,2.92196 -5.39642,3.91551 -8.31836,2.22851 l -15.46875,-8.92968 a 60.902256,60.902256 0 0 1 -17.43164,10.06445 v 17.86133 c 0,3.37398 -2.71782,6.08984 -6.0918,6.08984 h -30.44922 c -3.37398,0 -6.0918,-2.71585 -6.0918,-6.08984 v -17.86133 a 60.902256,60.902256 0 0 1 -9.13476,-4.30469 60.902256,60.902256 0 0 1 -8.29883,-5.75976 l -15.4668,8.92968 c -2.92194,1.68699 -6.63134,0.69345 -8.31836,-2.22851 l -15.22656,-26.3711 c -1.68696,-2.92195 -0.69147,-6.63331 2.23047,-8.32031 l 15.4668,-8.92773 a 60.902256,60.902256 0 0 1 0,-20.13282 l -15.4668,-8.92773 c -2.92194,-1.68699 -3.91743,-5.39836 -2.23047,-8.32031 l 15.22656,-26.3711 c 1.68702,-2.92195 5.39642,-3.91551 8.31836,-2.22851 l 15.46875,8.92968 A 60.902256,60.902256 0 0 1 128.68359,92.95117 V 75.08984 c 0,-3.37398 2.71782,-6.08984 6.0918,-6.08984 z m 15.11914,53.59375 A 27.406016,27.406016 0 0 0 122.59375,150 27.406016,27.406016 0 0 0 150,177.40625 27.406016,27.406016 0 0 0 177.40625,150 27.406016,27.406016 0 0 0 150,122.59375 a 27.406016,27.406016 0 0 0 -0.10547,0 z" />
  </g>
</svg>
