<?xml version="1.0" encoding="UTF-8" standalone="no"?>
<svg
   xmlns:dc="http://purl.org/dc/elements/1.1/"
   xmlns:cc="http://creativecommons.org/ns#"
   xmlns:rdf="http://www.w3.org/1999/02/22-rdf-syntax-ns#"
   xmlns:svg="http://www.w3.org/2000/svg"
   xmlns="http://www.w3.org/2000/svg"
   xmlns:sodipodi="http://sodipodi.sourceforge.net/DTD/sodipodi-0.dtd"
   xmlns:inkscape="http://www.inkscape.org/namespaces/inkscape"
   width="300"
   height="300"
   viewBox="0 0 300 300"
   version="1.1"
   id="svg8"
   inkscape:version="1.0.1 (3bc2e813f5, 2020-09-07)"
   sodipodi:docname="circle-floppy-disk.svg">
  <defs
     id="defs2" />
  <sodipodi:namedview
     id="base"
     pagecolor="#ffffff"
     bordercolor="#666666"
     borderopacity="1.0"
     inkscape:pageopacity="0.0"
     inkscape:pageshadow="2"
     inkscape:zoom="2"
     inkscape:cx="150"
     inkscape:cy="150"
     inkscape:document-units="px"
     inkscape:current-layer="layer1"
     inkscape:document-rotation="0"
     showgrid="false"
     units="px"
     inkscape:window-width="2560"
     inkscape:window-height="1377"
     inkscape:window-x="2552"
     inkscape:window-y="-8"
     inkscape:window-maximized="1" />
  <metadata
     id="metadata5">
    <rdf:RDF>
      <cc:Work
         rdf:about="">
        <dc:format>image/svg+xml</dc:format>
        <dc:type
           rdf:resource="http://purl.org/dc/dcmitype/StillImage" />
        <dc:title></dc:title>
      </cc:Work>
    </rdf:RDF>
  </metadata>
  <g
     inkscape:label="Ebene 1"
     inkscape:groupmode="layer"
     id="layer1">
    <path
       id="path833"
       style="fill:#000000;stroke-width:29.7818;stop-color:#000000"
       d="M 150,0 A 150,150 0 0 0 0,150 150,150 0 0 0 150,300 150,150 0 0 0 300,150 150,150 0 0 0 150,0 Z M 77.099609,69 H 195.90039 a 19.55513,19.55513 0 0 1 13.82813,5.728516 l 15.54296,15.542968 A 19.55513,19.55513 0 0 1 231,104.09961 V 222.90039 A 8.1,8.1 0 0 1 222.90039,231 H 77.099609 A 8.1,8.1 0 0 1 69,222.90039 V 77.099609 A 8.1,8.1 0 0 1 77.099609,69 Z m 38.007811,10.800781 c -3.22176,0 -5.81445,2.406838 -5.81445,5.398438 v 32.400391 c 0,2.9916 2.59269,5.40039 5.81445,5.40039 h 69.78516 c 3.22176,0 5.81445,-2.40879 5.81445,-5.40039 V 85.199219 c 0,-2.991601 -2.59269,-5.398438 -5.81445,-5.398438 z m 55.2461,5.398438 h 11.63086 c 1.61088,0 2.9082,1.205372 2.9082,2.701172 v 26.999999 c 0,1.4958 -1.29732,2.69922 -2.9082,2.69922 h -11.63086 c -1.61088,0 -2.90625,-1.20342 -2.90625,-2.69922 V 87.900391 c 0,-1.4958 1.29537,-2.701172 2.90625,-2.701172 z M 98.699219,139.19922 c -4.4874,0 -8.09961,3.61416 -8.09961,8.10156 v 59.39844 c 0,4.4874 3.61221,8.10156 8.09961,8.10156 H 201.30078 c 4.4874,0 8.09961,-3.61416 8.09961,-8.10156 v -59.39844 c 0,-4.4874 -3.61221,-8.10156 -8.09961,-8.10156 z" />
  </g>
</svg>
