<?xml version="1.0" encoding="UTF-8" standalone="no"?>
<svg
   xmlns:dc="http://purl.org/dc/elements/1.1/"
   xmlns:cc="http://creativecommons.org/ns#"
   xmlns:rdf="http://www.w3.org/1999/02/22-rdf-syntax-ns#"
   xmlns:svg="http://www.w3.org/2000/svg"
   xmlns="http://www.w3.org/2000/svg"
   xmlns:sodipodi="http://sodipodi.sourceforge.net/DTD/sodipodi-0.dtd"
   xmlns:inkscape="http://www.inkscape.org/namespaces/inkscape"
   width="300"
   height="300"
   viewBox="0 0 300 300"
   version="1.1"
   id="svg8"
   inkscape:version="1.0.1 (3bc2e813f5, 2020-09-07)"
   sodipodi:docname="circle-arrow-left.svg">
  <defs
     id="defs2" />
  <sodipodi:namedview
     id="base"
     pagecolor="#ffffff"
     bordercolor="#666666"
     borderopacity="1.0"
     inkscape:pageopacity="0.0"
     inkscape:pageshadow="2"
     inkscape:zoom="2"
     inkscape:cx="150"
     inkscape:cy="150"
     inkscape:document-units="px"
     inkscape:current-layer="layer1"
     inkscape:document-rotation="0"
     showgrid="false"
     units="px"
     inkscape:window-width="2560"
     inkscape:window-height="1377"
     inkscape:window-x="2552"
     inkscape:window-y="-8"
     inkscape:window-maximized="1" />
  <metadata
     id="metadata5">
    <rdf:RDF>
      <cc:Work
         rdf:about="">
        <dc:format>image/svg+xml</dc:format>
        <dc:type
           rdf:resource="http://purl.org/dc/dcmitype/StillImage" />
        <dc:title />
      </cc:Work>
    </rdf:RDF>
  </metadata>
  <g
     inkscape:label="Ebene 1"
     inkscape:groupmode="layer"
     id="layer1">
    <path
       id="path833"
       style="fill:#000000;stroke-width:29.7818;stop-color:#000000"
       d="M 150 0 A 150 150 0 0 0 0 150 A 150 150 0 0 0 150 300 A 150 150 0 0 0 300 150 A 150 150 0 0 0 150 0 z M 143.91211 109.43164 C 144.23501 109.43699 144.49708 109.47419 144.69336 109.54492 C 146.9904 113.55039 148.36377 123.59305 148.98828 135.26758 L 237.3125 135.26758 C 241.29442 135.26758 244.5 138.04551 244.5 141.49805 L 244.5 158.49609 C 244.5 161.94863 241.29442 164.73047 237.3125 164.73047 L 149.06445 164.73047 C 148.43518 178.31397 146.91228 189.33012 144.69336 190.57031 C 128.04348 189.25921 56.14893 155.4659 55.5 150.05469 C 64.96274 139.69999 133.90222 109.26596 143.91211 109.43164 z " />
  </g>
</svg>
