<?xml version="1.0" encoding="UTF-8" standalone="no"?>
<svg
   xmlns:dc="http://purl.org/dc/elements/1.1/"
   xmlns:cc="http://creativecommons.org/ns#"
   xmlns:rdf="http://www.w3.org/1999/02/22-rdf-syntax-ns#"
   xmlns:svg="http://www.w3.org/2000/svg"
   xmlns="http://www.w3.org/2000/svg"
   xmlns:sodipodi="http://sodipodi.sourceforge.net/DTD/sodipodi-0.dtd"
   xmlns:inkscape="http://www.inkscape.org/namespaces/inkscape"
   width="300"
   height="300"
   viewBox="0 0 300 300"
   version="1.1"
   id="svg8"
   inkscape:version="1.0.1 (3bc2e813f5, 2020-09-07)"
   sodipodi:docname="circle-lens.svg">
  <defs
     id="defs2" />
  <sodipodi:namedview
     id="base"
     pagecolor="#ffffff"
     bordercolor="#666666"
     borderopacity="1.0"
     inkscape:pageopacity="0.0"
     inkscape:pageshadow="2"
     inkscape:zoom="2"
     inkscape:cx="150"
     inkscape:cy="150"
     inkscape:document-units="px"
     inkscape:current-layer="layer1"
     inkscape:document-rotation="0"
     showgrid="false"
     units="px"
     inkscape:window-width="2560"
     inkscape:window-height="1377"
     inkscape:window-x="2552"
     inkscape:window-y="-8"
     inkscape:window-maximized="1" />
  <metadata
     id="metadata5">
    <rdf:RDF>
      <cc:Work
         rdf:about="">
        <dc:format>image/svg+xml</dc:format>
        <dc:type
           rdf:resource="http://purl.org/dc/dcmitype/StillImage" />
        <dc:title></dc:title>
      </cc:Work>
    </rdf:RDF>
  </metadata>
  <g
     inkscape:label="Ebene 1"
     inkscape:groupmode="layer"
     id="layer1">
    <path
       id="path833"
       style="fill:#000000;stroke-width:29.7818;stop-color:#000000"
       d="M 150,0 A 150,150 0 0 0 0,150 150,150 0 0 0 150,300 150,150 0 0 0 300,150 150,150 0 0 0 150,0 Z m -21.59961,69 a 59.400104,59.400104 0 0 1 59.40039,59.40039 59.400104,59.400104 0 0 1 -13.07422,37.17773 c 5.02674,0.2389 11.69826,1.75493 14.25,4.30665 l 39.02539,39.02539 c 3.99762,3.99757 3.99762,10.43401 0,14.43164 l -4.66015,4.66015 c -3.99756,3.99758 -10.43408,3.99758 -14.43164,0 l -39.02539,-39.02539 c -2.55174,-2.55167 -4.06772,-9.22324 -4.30665,-14.25 A 59.400104,59.400104 0 0 1 128.40039,187.80078 59.400104,59.400104 0 0 1 69,128.40039 59.400104,59.400104 0 0 1 128.40039,69 Z m -0.0117,19.76758 a 39.63221,39.63221 0 0 0 -39.621092,39.63281 39.63221,39.63221 0 0 0 39.632812,39.63086 39.63221,39.63221 0 0 0 39.63086,-39.63086 39.63221,39.63221 0 0 0 -39.63086,-39.63281 39.63221,39.63221 0 0 0 -0.0117,0 z" />
  </g>
</svg>
