<?xml version="1.0" encoding="UTF-8" standalone="no"?>
<svg
   xmlns:dc="http://purl.org/dc/elements/1.1/"
   xmlns:cc="http://creativecommons.org/ns#"
   xmlns:rdf="http://www.w3.org/1999/02/22-rdf-syntax-ns#"
   xmlns:svg="http://www.w3.org/2000/svg"
   xmlns="http://www.w3.org/2000/svg"
   xmlns:sodipodi="http://sodipodi.sourceforge.net/DTD/sodipodi-0.dtd"
   xmlns:inkscape="http://www.inkscape.org/namespaces/inkscape"
   width="300"
   height="300"
   viewBox="0 0 300 300"
   version="1.1"
   id="svg8"
   inkscape:version="1.0.1 (3bc2e813f5, 2020-09-07)"
   sodipodi:docname="circle-camera-photo.svg">
  <defs
     id="defs2" />
  <sodipodi:namedview
     id="base"
     pagecolor="#ffffff"
     bordercolor="#666666"
     borderopacity="1.0"
     inkscape:pageopacity="0.0"
     inkscape:pageshadow="2"
     inkscape:zoom="2"
     inkscape:cx="150"
     inkscape:cy="150"
     inkscape:document-units="px"
     inkscape:current-layer="layer1"
     inkscape:document-rotation="0"
     showgrid="false"
     units="px"
     inkscape:window-width="2560"
     inkscape:window-height="1377"
     inkscape:window-x="2552"
     inkscape:window-y="-8"
     inkscape:window-maximized="1" />
  <metadata
     id="metadata5">
    <rdf:RDF>
      <cc:Work
         rdf:about="">
        <dc:format>image/svg+xml</dc:format>
        <dc:type
           rdf:resource="http://purl.org/dc/dcmitype/StillImage" />
        <dc:title></dc:title>
      </cc:Work>
    </rdf:RDF>
  </metadata>
  <g
     inkscape:label="Ebene 1"
     inkscape:groupmode="layer"
     id="layer1">
    <path
       id="path833"
       style="fill:#000000;stroke-width:29.7818;stop-color:#000000"
       d="M 150,0 A 150,150 0 0 0 0,150 150,150 0 0 0 150,300 150,150 0 0 0 300,150 150,150 0 0 0 150,0 Z m -21,70 h 42 a 18.297059,18.297059 0 0 1 17.94141,14.708984 l 0.8789,4.388672 A 6.0990195,6.0990195 0 0 0 195.80078,94 H 231 c 4.986,0 9,4.014 9,9 v 102 c 0,4.986 -4.014,9 -9,9 H 69 c -4.986,0 -9,-4.014 -9,-9 V 103 c 0,-4.986 4.014,-9 9,-9 h 35.19922 a 6.0990195,6.0990195 0 0 0 5.98047,-4.902344 l 0.8789,-4.388672 A 18.297059,18.297059 0 0 1 129,70 Z m 20.96875,54 c -16.55618,0.0175 -29.96876,13.44381 -29.96875,30 0,16.56854 13.43146,30 30,30 16.56854,0 30,-13.43146 30,-30 0,-16.56854 -13.43146,-30 -30,-30 z" />
  </g>
</svg>
