<?xml version="1.0" encoding="UTF-8" standalone="no"?>
<svg
   xmlns:dc="http://purl.org/dc/elements/1.1/"
   xmlns:cc="http://creativecommons.org/ns#"
   xmlns:rdf="http://www.w3.org/1999/02/22-rdf-syntax-ns#"
   xmlns:svg="http://www.w3.org/2000/svg"
   xmlns="http://www.w3.org/2000/svg"
   xmlns:sodipodi="http://sodipodi.sourceforge.net/DTD/sodipodi-0.dtd"
   xmlns:inkscape="http://www.inkscape.org/namespaces/inkscape"
   width="300"
   height="300"
   viewBox="0 0 300 300"
   version="1.1"
   id="svg8"
   inkscape:version="1.0.1 (3bc2e813f5, 2020-09-07)"
   sodipodi:docname="cloud-arrow-up.svg">
  <defs
     id="defs2" />
  <sodipodi:namedview
     id="base"
     pagecolor="#ffffff"
     bordercolor="#666666"
     borderopacity="1.0"
     inkscape:pageopacity="0.0"
     inkscape:pageshadow="2"
     inkscape:zoom="2.8284271"
     inkscape:cx="197.77829"
     inkscape:cy="184.00187"
     inkscape:document-units="px"
     inkscape:current-layer="layer1"
     inkscape:document-rotation="0"
     showgrid="false"
     units="px"
     inkscape:window-width="2560"
     inkscape:window-height="1377"
     inkscape:window-x="2552"
     inkscape:window-y="-8"
     inkscape:window-maximized="1" />
  <metadata
     id="metadata5">
    <rdf:RDF>
      <cc:Work
         rdf:about="">
        <dc:format>image/svg+xml</dc:format>
        <dc:type
           rdf:resource="http://purl.org/dc/dcmitype/StillImage" />
        <dc:title />
      </cc:Work>
    </rdf:RDF>
  </metadata>
  <g
     inkscape:label="Ebene 1"
     inkscape:groupmode="layer"
     id="layer1">
    <path
       id="path847"
       style="fill:#000000;stroke-width:19.656;stop-color:#000000"
       d="M 119.25 44.375 A 75 72.875 0 0 0 44.25 117.25 A 75 72.875 0 0 0 44.591797 124.20508 A 67.75 67.75 0 0 0 0 187.875 A 67.75 67.75 0 0 0 62.59375 255.42773 L 62.59375 255.625 L 238 255.625 L 238 255.61914 A 62.75 62.75 0 0 0 300 192.875 A 62.75 62.75 0 0 0 253.4375 132.25 A 45.25 44.625 0 0 0 255.25 119.75 A 45.25 44.625 0 0 0 210 75.125 A 45.25 44.625 0 0 0 185.15039 82.457031 A 75 72.875 0 0 0 119.25 44.375 z M 149.95898 95.226562 C 157.73769 102.33528 181.08861 155.56574 179.44141 160.13672 C 176.5265 161.80839 169.21686 162.80722 160.7207 163.26172 L 160.7207 227.54102 C 160.7207 230.43888 158.6981 232.77148 156.18555 232.77148 L 143.81641 232.77148 C 141.30386 232.77148 139.2793 230.43888 139.2793 227.54102 L 139.2793 163.31836 C 129.39387 162.86046 121.37716 161.75153 120.47461 160.13672 C 121.42874 148.01977 146.02096 95.698853 149.95898 95.226562 z " />
  </g>
</svg>
