<?xml version="1.0" encoding="UTF-8" standalone="no"?>
<svg
   xmlns:dc="http://purl.org/dc/elements/1.1/"
   xmlns:cc="http://creativecommons.org/ns#"
   xmlns:rdf="http://www.w3.org/1999/02/22-rdf-syntax-ns#"
   xmlns:svg="http://www.w3.org/2000/svg"
   xmlns="http://www.w3.org/2000/svg"
   xmlns:sodipodi="http://sodipodi.sourceforge.net/DTD/sodipodi-0.dtd"
   xmlns:inkscape="http://www.inkscape.org/namespaces/inkscape"
   width="300"
   height="300"
   viewBox="0 0 300 300"
   version="1.1"
   id="svg8"
   inkscape:version="1.0.1 (3bc2e813f5, 2020-09-07)"
   sodipodi:docname="cloud.svg">
  <defs
     id="defs2" />
  <sodipodi:namedview
     id="base"
     pagecolor="#ffffff"
     bordercolor="#666666"
     borderopacity="1.0"
     inkscape:pageopacity="0.0"
     inkscape:pageshadow="2"
     inkscape:zoom="2.8284271"
     inkscape:cx="140.02012"
     inkscape:cy="145.15847"
     inkscape:document-units="px"
     inkscape:current-layer="layer1"
     inkscape:document-rotation="0"
     showgrid="true"
     units="px"
     inkscape:window-width="2560"
     inkscape:window-height="1377"
     inkscape:window-x="2552"
     inkscape:window-y="-8"
     inkscape:window-maximized="1"
     showguides="true"
     inkscape:guide-bbox="true">
    <inkscape:grid
       type="xygrid"
       id="grid831" />
    <sodipodi:guide
       position="195,150"
       orientation="0,-1"
       id="guide833" />
    <sodipodi:guide
       position="150,210"
       orientation="1,0"
       id="guide835" />
  </sodipodi:namedview>
  <metadata
     id="metadata5">
    <rdf:RDF>
      <cc:Work
         rdf:about="">
        <dc:format>image/svg+xml</dc:format>
        <dc:type
           rdf:resource="http://purl.org/dc/dcmitype/StillImage" />
        <dc:title />
      </cc:Work>
    </rdf:RDF>
  </metadata>
  <g
     inkscape:label="Ebene 1"
     inkscape:groupmode="layer"
     id="layer1">
    <path
       id="path847"
       style="fill:#000000;stroke-width:19.656;stop-color:#000000"
       d="M 135.5,187.875 A 67.75,67.75 0 0 1 67.75,255.625 67.75,67.75 0 0 1 0,187.875 a 67.75,67.75 0 0 1 67.75,-67.75 67.75,67.75 0 0 1 67.75,67.75 z m 58.75,-70.625 a 75,72.875 0 0 1 -75,72.875 75,72.875 0 0 1 -75,-72.875 75,72.875 0 0 1 75,-72.875 75,72.875 0 0 1 75,72.875 z m 61,2.5 A 45.25,44.625 0 0 1 210,164.375 45.25,44.625 0 0 1 164.75,119.75 45.25,44.625 0 0 1 210,75.125 45.25,44.625 0 0 1 255.25,119.75 Z M 300,192.875 a 62.75,62.75 0 0 1 -62.75,62.75 62.75,62.75 0 0 1 -62.75,-62.75 62.75,62.75 0 0 1 62.75,-62.75 62.75,62.75 0 0 1 62.75,62.75 z M 62.5937,134.42187 H 238 V 255.62499 H 62.5937 Z" />
  </g>
</svg>
