<?xml version="1.0" encoding="UTF-8" standalone="no"?>
<svg
   xmlns:dc="http://purl.org/dc/elements/1.1/"
   xmlns:cc="http://creativecommons.org/ns#"
   xmlns:rdf="http://www.w3.org/1999/02/22-rdf-syntax-ns#"
   xmlns:svg="http://www.w3.org/2000/svg"
   xmlns="http://www.w3.org/2000/svg"
   xmlns:sodipodi="http://sodipodi.sourceforge.net/DTD/sodipodi-0.dtd"
   xmlns:inkscape="http://www.inkscape.org/namespaces/inkscape"
   width="300"
   height="300"
   viewBox="0 0 300 300"
   version="1.1"
   id="svg8"
   inkscape:version="1.0.1 (3bc2e813f5, 2020-09-07)"
   sodipodi:docname="cloud-gear.svg">
  <defs
     id="defs2">
    <inkscape:path-effect
       effect="fillet_chamfer"
       id="path-effect868"
       is_visible="true"
       lpeversion="1"
       satellites_param="F,0,0,1,0,25,0,1 @ F,0,1,1,0,5,0,1 @ F,0,0,1,0,25,0,1 @ F,0,1,1,0,5,0,1 @ F,0,0,1,0,25,0,1 @ F,0,1,1,0,5,0,1 @ F,0,0,1,0,25,0,1 @ F,0,1,1,0,5,0,1 @ F,0,0,1,0,25,0,1 @ F,0,1,1,0,5,0,1"
       unit="px"
       method="auto"
       mode="F"
       radius="5"
       chamfer_steps="1"
       flexible="false"
       use_knot_distance="true"
       apply_no_radius="true"
       apply_with_radius="true"
       only_selected="true"
       hide_knots="false" />
    <inkscape:path-effect
       effect="fillet_chamfer"
       id="path-effect1263"
       is_visible="true"
       lpeversion="1"
       satellites_param="F,0,0,1,0,0,0,1 @ F,0,0,1,0,0,0,1 @ F,0,0,1,0,0,0,1 @ F,0,0,1,0,0,0,1 | F,0,0,1,0,0,0,1 @ F,0,0,1,0,0,0,1 @ F,0,0,1,0,0,0,1 @ F,0,0,1,0,0,0,1 | F,0,0,1,0,0,0,1 @ F,0,0,1,0,0,0,1 @ F,0,0,1,0,0,0,1 @ F,0,1,1,0,13,0,1"
       unit="px"
       method="auto"
       mode="F"
       radius="13"
       chamfer_steps="1"
       flexible="false"
       use_knot_distance="true"
       apply_no_radius="true"
       apply_with_radius="true"
       only_selected="true"
       hide_knots="false" />
    <inkscape:path-effect
       effect="fillet_chamfer"
       id="path-effect1191"
       is_visible="true"
       lpeversion="1"
       satellites_param="F,0,0,1,0,25,0,1 @ F,0,1,1,0,5,0,1 @ F,0,0,1,0,25,0,1 @ F,0,1,1,0,5,0,1 @ F,0,0,1,0,25,0,1 @ F,0,1,1,0,5,0,1 @ F,0,0,1,0,25,0,1 @ F,0,1,1,0,5,0,1 @ F,0,0,1,0,25,0,1 @ F,0,1,1,0,5,0,1"
       unit="px"
       method="auto"
       mode="F"
       radius="5"
       chamfer_steps="1"
       flexible="false"
       use_knot_distance="true"
       apply_no_radius="true"
       apply_with_radius="true"
       only_selected="true"
       hide_knots="false" />
  </defs>
  <sodipodi:namedview
     id="base"
     pagecolor="#ffffff"
     bordercolor="#666666"
     borderopacity="1.0"
     inkscape:pageopacity="0.0"
     inkscape:pageshadow="2"
     inkscape:zoom="2.8284272"
     inkscape:cx="159.11935"
     inkscape:cy="149.84633"
     inkscape:document-units="px"
     inkscape:current-layer="layer1"
     inkscape:document-rotation="0"
     showgrid="true"
     units="px"
     inkscape:window-width="2560"
     inkscape:window-height="1377"
     inkscape:window-x="2552"
     inkscape:window-y="-8"
     inkscape:window-maximized="1"
     showguides="true"
     inkscape:guide-bbox="true">
    <inkscape:grid
       type="xygrid"
       id="grid831" />
    <sodipodi:guide
       position="195,150"
       orientation="0,-1"
       id="guide833" />
    <sodipodi:guide
       position="150,210"
       orientation="1,0"
       id="guide835" />
  </sodipodi:namedview>
  <metadata
     id="metadata5">
    <rdf:RDF>
      <cc:Work
         rdf:about="">
        <dc:format>image/svg+xml</dc:format>
        <dc:type
           rdf:resource="http://purl.org/dc/dcmitype/StillImage" />
        <dc:title></dc:title>
        <dc:description>40%</dc:description>
      </cc:Work>
    </rdf:RDF>
  </metadata>
  <g
     inkscape:label="Ebene 1"
     inkscape:groupmode="layer"
     id="layer1">
    <path
       id="path847"
       style="fill:#000000;stroke-width:19.656;stop-color:#000000"
       d="M 119.25 44.375 A 75 72.875 0 0 0 44.25 117.25 A 75 72.875 0 0 0 44.591797 124.20508 A 67.75 67.75 0 0 0 0 187.875 A 67.75 67.75 0 0 0 62.59375 255.42773 L 62.59375 255.625 L 238 255.625 L 238 255.61914 A 62.75 62.75 0 0 0 300 192.875 A 62.75 62.75 0 0 0 253.4375 132.25 A 45.25 44.625 0 0 0 255.25 119.75 A 45.25 44.625 0 0 0 210 75.125 A 45.25 44.625 0 0 0 185.15039 82.457031 A 75 72.875 0 0 0 119.25 44.375 z M 138.72266 110 L 161.27734 110 C 163.77659 110 165.78906 112.01247 165.78906 114.51172 L 165.78906 127.74219 A 45.11278 45.11278 0 0 1 172.55664 130.93164 A 45.11278 45.11278 0 0 1 178.70312 135.19727 L 190.16016 128.58203 C 192.32458 127.33241 195.07264 128.06996 196.32227 130.23438 L 207.60156 149.76758 C 208.85119 151.93199 208.11364 154.68006 205.94922 155.92969 L 194.49219 162.54492 A 45.11278 45.11278 0 0 1 194.49219 177.45703 L 205.94922 184.07031 C 208.11364 185.31994 208.85119 188.06996 207.60156 190.23438 L 196.32227 209.76758 C 195.07264 211.93199 192.32458 212.66759 190.16016 211.41797 L 178.70117 204.80273 A 45.11278 45.11278 0 0 1 165.78906 212.25977 L 165.78906 225.48828 C 165.78906 227.98753 163.77659 230 161.27734 230 L 138.72266 230 C 136.22341 230 134.21094 227.98753 134.21094 225.48828 L 134.21094 212.25977 A 45.11278 45.11278 0 0 1 127.44336 209.07031 A 45.11278 45.11278 0 0 1 121.29688 204.80469 L 109.83984 211.41797 C 107.67543 212.66759 104.92735 211.93199 103.67773 209.76758 L 92.398438 190.23438 C 91.148818 188.06997 91.886371 185.31994 94.050781 184.07031 L 105.50781 177.45703 A 45.11278 45.11278 0 0 1 105.50781 162.54492 L 94.050781 155.92969 C 91.886371 154.68006 91.148818 151.93199 92.398438 149.76758 L 103.67773 130.23438 C 104.92735 128.06996 107.67543 127.33241 109.83984 128.58203 L 121.29883 135.19727 A 45.11278 45.11278 0 0 1 134.21094 127.74219 L 134.21094 114.51172 C 134.21094 112.01247 136.22341 110 138.72266 110 z M 149.92188 149.69922 A 20.300752 20.300752 0 0 0 129.69922 170 A 20.300752 20.300752 0 0 0 150 190.30078 A 20.300752 20.300752 0 0 0 170.30078 170 A 20.300752 20.300752 0 0 0 150 149.69922 A 20.300752 20.300752 0 0 0 149.92188 149.69922 z " />
    <g
       id="g972"
       transform="rotate(60,303.12178,275.2147)">
      <g
         id="g963"
         transform="rotate(60,150,150)">
        <g
           id="g957" />
      </g>
    </g>
  </g>
</svg>
