<?xml version="1.0" encoding="UTF-8" standalone="no"?>
<svg
   xmlns:dc="http://purl.org/dc/elements/1.1/"
   xmlns:cc="http://creativecommons.org/ns#"
   xmlns:rdf="http://www.w3.org/1999/02/22-rdf-syntax-ns#"
   xmlns:svg="http://www.w3.org/2000/svg"
   xmlns="http://www.w3.org/2000/svg"
   xmlns:sodipodi="http://sodipodi.sourceforge.net/DTD/sodipodi-0.dtd"
   xmlns:inkscape="http://www.inkscape.org/namespaces/inkscape"
   width="300"
   height="300"
   viewBox="0 0 300 300"
   version="1.1"
   id="svg8"
   inkscape:version="1.0.1 (3bc2e813f5, 2020-09-07)"
   sodipodi:docname="cloud-music.svg">
  <defs
     id="defs2">
    <inkscape:path-effect
       effect="fillet_chamfer"
       id="path-effect868"
       is_visible="true"
       lpeversion="1"
       satellites_param="F,0,0,1,0,25,0,1 @ F,0,1,1,0,5,0,1 @ F,0,0,1,0,25,0,1 @ F,0,1,1,0,5,0,1 @ F,0,0,1,0,25,0,1 @ F,0,1,1,0,5,0,1 @ F,0,0,1,0,25,0,1 @ F,0,1,1,0,5,0,1 @ F,0,0,1,0,25,0,1 @ F,0,1,1,0,5,0,1"
       unit="px"
       method="auto"
       mode="F"
       radius="5"
       chamfer_steps="1"
       flexible="false"
       use_knot_distance="true"
       apply_no_radius="true"
       apply_with_radius="true"
       only_selected="true"
       hide_knots="false" />
    <inkscape:path-effect
       effect="fillet_chamfer"
       id="path-effect1263"
       is_visible="true"
       lpeversion="1"
       satellites_param="F,0,0,1,0,0,0,1 @ F,0,0,1,0,0,0,1 @ F,0,0,1,0,0,0,1 @ F,0,0,1,0,0,0,1 | F,0,0,1,0,0,0,1 @ F,0,0,1,0,0,0,1 @ F,0,0,1,0,0,0,1 @ F,0,0,1,0,0,0,1 | F,0,0,1,0,0,0,1 @ F,0,0,1,0,0,0,1 @ F,0,0,1,0,0,0,1 @ F,0,1,1,0,13,0,1"
       unit="px"
       method="auto"
       mode="F"
       radius="13"
       chamfer_steps="1"
       flexible="false"
       use_knot_distance="true"
       apply_no_radius="true"
       apply_with_radius="true"
       only_selected="true"
       hide_knots="false" />
    <inkscape:path-effect
       effect="fillet_chamfer"
       id="path-effect1191"
       is_visible="true"
       lpeversion="1"
       satellites_param="F,0,0,1,0,25,0,1 @ F,0,1,1,0,5,0,1 @ F,0,0,1,0,25,0,1 @ F,0,1,1,0,5,0,1 @ F,0,0,1,0,25,0,1 @ F,0,1,1,0,5,0,1 @ F,0,0,1,0,25,0,1 @ F,0,1,1,0,5,0,1 @ F,0,0,1,0,25,0,1 @ F,0,1,1,0,5,0,1"
       unit="px"
       method="auto"
       mode="F"
       radius="5"
       chamfer_steps="1"
       flexible="false"
       use_knot_distance="true"
       apply_no_radius="true"
       apply_with_radius="true"
       only_selected="true"
       hide_knots="false" />
  </defs>
  <sodipodi:namedview
     id="base"
     pagecolor="#ffffff"
     bordercolor="#666666"
     borderopacity="1.0"
     inkscape:pageopacity="0.0"
     inkscape:pageshadow="2"
     inkscape:zoom="2.8284272"
     inkscape:cx="159.11935"
     inkscape:cy="149.84633"
     inkscape:document-units="px"
     inkscape:current-layer="layer1"
     inkscape:document-rotation="0"
     showgrid="true"
     units="px"
     inkscape:window-width="2560"
     inkscape:window-height="1377"
     inkscape:window-x="2552"
     inkscape:window-y="-8"
     inkscape:window-maximized="1"
     showguides="true"
     inkscape:guide-bbox="true">
    <inkscape:grid
       type="xygrid"
       id="grid831" />
    <sodipodi:guide
       position="195,150"
       orientation="0,-1"
       id="guide833" />
    <sodipodi:guide
       position="150,210"
       orientation="1,0"
       id="guide835" />
  </sodipodi:namedview>
  <metadata
     id="metadata5">
    <rdf:RDF>
      <cc:Work
         rdf:about="">
        <dc:format>image/svg+xml</dc:format>
        <dc:type
           rdf:resource="http://purl.org/dc/dcmitype/StillImage" />
        <dc:title></dc:title>
        <dc:description>40%</dc:description>
      </cc:Work>
    </rdf:RDF>
  </metadata>
  <g
     inkscape:label="Ebene 1"
     inkscape:groupmode="layer"
     id="layer1">
    <path
       id="path847"
       style="fill:#000000;stroke-width:19.656;stop-color:#000000"
       d="M 119.25 44.375 A 75 72.875 0 0 0 44.25 117.25 A 75 72.875 0 0 0 44.591797 124.20508 A 67.75 67.75 0 0 0 0 187.875 A 67.75 67.75 0 0 0 62.59375 255.42773 L 62.59375 255.625 L 238 255.625 L 238 255.61914 A 62.75 62.75 0 0 0 300 192.875 A 62.75 62.75 0 0 0 253.4375 132.25 A 45.25 44.625 0 0 0 255.25 119.75 A 45.25 44.625 0 0 0 210 75.125 A 45.25 44.625 0 0 0 185.15039 82.457031 A 75 72.875 0 0 0 119.25 44.375 z M 199.43945 116.31445 C 200.55467 116.33928 201.64376 117.10288 201.63477 118.2207 L 201.55469 128.22656 L 201.55469 189.55664 A 16.301079 22.256487 61.7235 0 1 187.1582 209.83398 A 16.301079 22.256487 61.7235 0 1 160.52148 204.67383 A 16.301079 22.256487 61.7235 0 1 173.86523 180.01953 A 16.301079 22.256487 61.7235 0 1 189.2207 177.36523 L 189.2207 132.79492 L 140.47461 141.62695 L 140.47461 200.50586 A 16.301079 22.256487 61.7235 0 1 126.07812 220.7832 A 16.301079 22.256487 61.7235 0 1 99.441406 215.62305 A 16.301079 22.256487 61.7235 0 1 112.78516 190.96875 A 16.301079 22.256487 61.7235 0 1 128.14062 188.31445 L 128.14062 130.83789 C 128.14062 130.08724 128.55348 129.44373 129.16211 129.10156 C 129.48772 128.76755 129.91371 128.52504 130.41016 128.4375 L 198.96289 116.34961 C 199.12016 116.32188 199.28014 116.31091 199.43945 116.31445 z " />
  </g>
</svg>
