<?xml version="1.0" encoding="UTF-8" standalone="no"?>
<svg
   xmlns:dc="http://purl.org/dc/elements/1.1/"
   xmlns:cc="http://creativecommons.org/ns#"
   xmlns:rdf="http://www.w3.org/1999/02/22-rdf-syntax-ns#"
   xmlns:svg="http://www.w3.org/2000/svg"
   xmlns="http://www.w3.org/2000/svg"
   xmlns:sodipodi="http://sodipodi.sourceforge.net/DTD/sodipodi-0.dtd"
   xmlns:inkscape="http://www.inkscape.org/namespaces/inkscape"
   width="300"
   height="300"
   viewBox="0 0 300 300"
   version="1.1"
   id="svg8"
   inkscape:version="1.0.1 (3bc2e813f5, 2020-09-07)"
   sodipodi:docname="cookie.svg">
  <defs
     id="defs2" />
  <sodipodi:namedview
     id="base"
     pagecolor="#ffffff"
     bordercolor="#666666"
     borderopacity="1.0"
     inkscape:pageopacity="0.0"
     inkscape:pageshadow="2"
     inkscape:zoom="2"
     inkscape:cx="115.75"
     inkscape:cy="150"
     inkscape:document-units="px"
     inkscape:current-layer="layer1"
     inkscape:document-rotation="0"
     showgrid="false"
     units="px"
     inkscape:window-width="2560"
     inkscape:window-height="1377"
     inkscape:window-x="2552"
     inkscape:window-y="-8"
     inkscape:window-maximized="1" />
  <metadata
     id="metadata5">
    <rdf:RDF>
      <cc:Work
         rdf:about="">
        <dc:format>image/svg+xml</dc:format>
        <dc:type
           rdf:resource="http://purl.org/dc/dcmitype/StillImage" />
        <dc:title />
      </cc:Work>
    </rdf:RDF>
  </metadata>
  <g
     inkscape:label="Ebene 1"
     inkscape:groupmode="layer"
     id="layer1">
    <g
       id="g998">
      <path
         id="path830"
         style="fill:#000000;fill-opacity:1;stroke:none;stroke-width:21.0341;stroke-miterlimit:4;stroke-dasharray:none;stroke-opacity:1;stop-color:#000000"
         d="M 150 0 A 150 150.00002 0 0 0 0 150 A 150 150.00002 0 0 0 150 300 A 150 150.00002 0 0 0 300 150 A 150 150.00002 0 0 0 150 0 z M 149.96289 25 A 125 125 0 0 1 150 25 A 125 125 0 0 1 275 150 A 125 125 0 0 1 150 275 A 125 125 0 0 1 25 150 A 125 125 0 0 1 149.96289 25 z " />
      <path
         id="path832-5"
         style="fill:#000000;fill-opacity:1;stroke:none;stroke-width:5.39678;stroke-miterlimit:4;stroke-dasharray:none;stroke-opacity:1;stop-color:#000000"
         d="m 213.8693,83.737043 a 17.499995,17.5 0 0 1 -17.50001,17.499997 17.499995,17.5 0 0 1 -17.49999,-17.499997 17.499995,17.5 0 0 1 17.49999,-17.5 17.499995,17.5 0 0 1 17.50001,17.5 z" />
      <path
         id="path832-9"
         style="fill:#000000;fill-opacity:1;stroke:none;stroke-width:4.62581;stroke-miterlimit:4;stroke-dasharray:none;stroke-opacity:1;stop-color:#000000"
         d="m 85.756388,154.50473 a 15,15.000002 0 0 1 -15,15 15,15.000002 0 0 1 -15,-15 15,15.000002 0 0 1 15,-15 15,15.000002 0 0 1 15,15 z" />
      <path
         id="path832-6"
         style="fill:#000000;fill-opacity:1;stroke:none;stroke-width:4.62581;stroke-miterlimit:4;stroke-dasharray:none;stroke-opacity:1;stop-color:#000000"
         d="m 167.51956,151.8056 a 15.000004,15 0 0 1 -15,15 15.000004,15 0 0 1 -15,-15 15.000004,15 0 0 1 15,-15 15.000004,15 0 0 1 15,15 z" />
      <path
         id="path832-7-01"
         style="fill:#000000;fill-opacity:1;stroke:none;stroke-width:4.62581;stroke-miterlimit:4;stroke-dasharray:none;stroke-opacity:1;stop-color:#000000"
         d="m 210.57512,219.90516 a 14.999996,14.999995 0 0 1 -14.99999,15 14.999996,14.999995 0 0 1 -15.00001,-15 14.999996,14.999995 0 0 1 15.00001,-15 14.999996,14.999995 0 0 1 14.99999,15 z" />
      <path
         id="path832-5-4"
         style="fill:#000000;fill-opacity:1;stroke:none;stroke-width:6.93887;stroke-miterlimit:4;stroke-dasharray:none;stroke-opacity:1;stop-color:#000000"
         d="m 138.21614,85.502173 a 22.499997,22.499999 0 0 1 -22.5,22.499997 22.499997,22.499999 0 0 1 -22.499999,-22.499997 22.499997,22.499999 0 0 1 22.499999,-22.499999 22.499997,22.499999 0 0 1 22.5,22.499999 z" />
      <path
         id="path832-5-4-5"
         style="fill:#000000;fill-opacity:1;stroke:none;stroke-width:6.93871;stroke-miterlimit:4;stroke-dasharray:none;stroke-opacity:1;stop-color:#000000"
         d="m 251.33554,157.00194 a 22.499997,22.500002 0 0 1 -22.5,22.49999 22.499997,22.500002 0 0 1 -22.5,-22.49999 22.499997,22.500002 0 0 1 22.5,-22.50001 22.499997,22.500002 0 0 1 22.5,22.50001 z" />
      <path
         id="path832-5-4-5-2"
         style="fill:#000000;fill-opacity:1;stroke:none;stroke-width:6.93871;stroke-miterlimit:4;stroke-dasharray:none;stroke-opacity:1;stop-color:#000000"
         d="m 139.83554,218.00217 a 22.499997,22.499997 0 0 1 -22.5,22.5 22.499997,22.499997 0 0 1 -22.499999,-22.5 22.499997,22.499997 0 0 1 22.499999,-22.5 22.499997,22.499997 0 0 1 22.5,22.5 z" />
    </g>
  </g>
</svg>
