<?xml version="1.0" encoding="UTF-8" standalone="no"?>
<svg
   xmlns:dc="http://purl.org/dc/elements/1.1/"
   xmlns:cc="http://creativecommons.org/ns#"
   xmlns:rdf="http://www.w3.org/1999/02/22-rdf-syntax-ns#"
   xmlns:svg="http://www.w3.org/2000/svg"
   xmlns="http://www.w3.org/2000/svg"
   xmlns:sodipodi="http://sodipodi.sourceforge.net/DTD/sodipodi-0.dtd"
   xmlns:inkscape="http://www.inkscape.org/namespaces/inkscape"
   width="300"
   height="300"
   viewBox="0 0 300 300"
   version="1.1"
   id="svg8"
   inkscape:version="1.0.1 (3bc2e813f5, 2020-09-07)"
   sodipodi:docname="disk-download.svg">
  <defs
     id="defs2" />
  <sodipodi:namedview
     id="base"
     pagecolor="#ffffff"
     bordercolor="#666666"
     borderopacity="1.0"
     inkscape:pageopacity="0.0"
     inkscape:pageshadow="2"
     inkscape:zoom="0.70710678"
     inkscape:cx="684.8044"
     inkscape:cy="394.13168"
     inkscape:document-units="px"
     inkscape:current-layer="layer1"
     inkscape:document-rotation="0"
     showgrid="false"
     units="px"
     inkscape:window-width="2560"
     inkscape:window-height="1377"
     inkscape:window-x="2552"
     inkscape:window-y="-8"
     inkscape:window-maximized="1" />
  <metadata
     id="metadata5">
    <rdf:RDF>
      <cc:Work
         rdf:about="">
        <dc:format>image/svg+xml</dc:format>
        <dc:type
           rdf:resource="http://purl.org/dc/dcmitype/StillImage" />
        <dc:title></dc:title>
      </cc:Work>
    </rdf:RDF>
  </metadata>
  <g
     inkscape:label="Ebene 1"
     inkscape:groupmode="layer"
     id="layer1">
    <path
       id="path839"
       style="fill:#000000;stroke-width:40.9467;stop-color:#000000"
       d="M 130.00362,13.323949 V 127.7894 c -15.761,0.84311 -34.647603,2.69694 -40.055203,5.79799 -3.0555,8.47952 45.590303,107.22555 60.020303,120.41261 7.3053,-0.87607 58.4506,-97.93478 60.2206,-120.41261 -1.6744,-2.99559 -21.8757,-5.05258 -40.2138,-5.90208 V 13.323949 c 0,-7.35862 -5.9653,-13.32395 -13.324,-13.32395 h -13.324 c -7.3586,0 -13.3239,5.96533 -13.3239,13.32395 z M 14.999999,200 C 6.6899993,200 -7.7000001e-7,206.69 -7.7000001e-7,215 v 70 c 0,8.31 6.69000007000001,15 14.99999977000001,15 H 285 c 8.31,0 15,-6.69 15,-15 v -70 c 0,-8.31 -6.69,-15 -15,-15 h -85.10547 c -1.45008,2.92228 -2.91035,5.84562 -4.38867,8.73242 -7.09818,13.86099 -14.34318,26.99999 -20.49414,37.06641 -3.07548,5.03321 -5.83517,9.26199 -8.46094,12.73828 -1.31288,1.73814 -2.54591,3.27421 -4.19727,4.90039 -1.65135,1.62618 -2.52886,4.48721 -10.59961,5.45508 a 15.0015,15.0015 0 0 1 -11.90429,-3.82031 C 132.45863,258.31791 127.88886,250.01338 121.10742,238.35742 114.53845,227.06667 107.35242,213.51375 100.62305,200 Z m 244.886721,35 a 15,15 0 0 1 0.11328,0 15,15 0 0 1 15,15 15,15 0 0 1 -15,15 15,15 0 0 1 -15,-15 15,15 0 0 1 14.88672,-15 z" />
  </g>
</svg>
