<?xml version="1.0" encoding="UTF-8" standalone="no"?>
<svg
   xmlns:dc="http://purl.org/dc/elements/1.1/"
   xmlns:cc="http://creativecommons.org/ns#"
   xmlns:rdf="http://www.w3.org/1999/02/22-rdf-syntax-ns#"
   xmlns:svg="http://www.w3.org/2000/svg"
   xmlns="http://www.w3.org/2000/svg"
   xmlns:sodipodi="http://sodipodi.sourceforge.net/DTD/sodipodi-0.dtd"
   xmlns:inkscape="http://www.inkscape.org/namespaces/inkscape"
   width="300"
   height="300"
   viewBox="0 0 300 300"
   version="1.1"
   id="svg8"
   inkscape:version="1.0.1 (3bc2e813f5, 2020-09-07)"
   sodipodi:docname="disk-upload-alt.svg">
  <defs
     id="defs2" />
  <sodipodi:namedview
     id="base"
     pagecolor="#ffffff"
     bordercolor="#666666"
     borderopacity="1.0"
     inkscape:pageopacity="0.0"
     inkscape:pageshadow="2"
     inkscape:zoom="2"
     inkscape:cx="150"
     inkscape:cy="150"
     inkscape:document-units="px"
     inkscape:current-layer="layer1"
     inkscape:document-rotation="0"
     showgrid="false"
     units="px"
     inkscape:window-width="2560"
     inkscape:window-height="1377"
     inkscape:window-x="2552"
     inkscape:window-y="-8"
     inkscape:window-maximized="1" />
  <metadata
     id="metadata5">
    <rdf:RDF>
      <cc:Work
         rdf:about="">
        <dc:format>image/svg+xml</dc:format>
        <dc:type
           rdf:resource="http://purl.org/dc/dcmitype/StillImage" />
        <dc:title></dc:title>
      </cc:Work>
    </rdf:RDF>
  </metadata>
  <g
     inkscape:label="Ebene 1"
     inkscape:groupmode="layer"
     id="layer1">
    <path
       id="rect836-3-5"
       style="fill:#000000;fill-opacity:1;stroke-width:21.9585;stop-color:#000000"
       d="m 252.40036,132.07951 h -42.26937 a 4.6813457,4.6813379 0 0 0 -4.68134,4.68133 v 103.19447 a 14.044037,14.044013 0 0 1 -14.04404,14.044 h -82.81132 a 14.044037,14.044013 0 0 1 -14.04403,-14.044 V 136.76084 a 4.6813457,4.6813379 0 0 0 -4.681347,-4.68133 h -42.26927 a 6.5443297,6.5443187 0 0 1 -5.01101,-10.75358 L 140.96692,4.2090254 a 11.79699,11.79697 0 0 1 18.06606,-10e-6 L 257.41137,121.32594 a 6.5443263,6.5443153 0 0 1 -5.01101,10.75357 z M 15,199.99991 c -8.310001,0 -15,6.68999 -15,14.99998 v 69.99988 c 0,8.30999 6.689999,14.99998 15,14.99998 h 270 c 8.31,0 15,-6.68999 15,-14.99998 v -69.99988 c 0,-8.30999 -6.69,-14.99998 -15,-14.99998 h -64.55078 v 39.95502 c 9.5e-4,15.20726 -13.83372,29.04387 -29.04102,29.04487 a 15.0015,15.001475 0 0 0 -0.002,0 h -82.8125 a 15.0015,15.001475 0 0 0 -0.002,0 C 93.3844,268.9988 79.549679,255.16219 79.550681,239.95493 v -39.95502 z m 244.88672,34.99995 a 15,14.999975 0 0 1 0.11328,0 15,14.999975 0 0 1 15,14.99997 15,14.999975 0 0 1 -15,14.99998 15,14.999975 0 0 1 -15,-14.99998 15,14.999975 0 0 1 14.88672,-14.99997 z" />
  </g>
</svg>
