<?xml version="1.0" encoding="UTF-8" standalone="no"?>
<svg
   xmlns:dc="http://purl.org/dc/elements/1.1/"
   xmlns:cc="http://creativecommons.org/ns#"
   xmlns:rdf="http://www.w3.org/1999/02/22-rdf-syntax-ns#"
   xmlns:svg="http://www.w3.org/2000/svg"
   xmlns="http://www.w3.org/2000/svg"
   xmlns:sodipodi="http://sodipodi.sourceforge.net/DTD/sodipodi-0.dtd"
   xmlns:inkscape="http://www.inkscape.org/namespaces/inkscape"
   width="300"
   height="300"
   viewBox="0 0 300 300"
   version="1.1"
   id="svg8"
   inkscape:version="1.0.1 (3bc2e813f5, 2020-09-07)"
   sodipodi:docname="envelope-closed.svg">
  <defs
     id="defs2" />
  <sodipodi:namedview
     id="base"
     pagecolor="#ffffff"
     bordercolor="#666666"
     borderopacity="1.0"
     inkscape:pageopacity="0.0"
     inkscape:pageshadow="2"
     inkscape:zoom="2"
     inkscape:cx="150"
     inkscape:cy="150"
     inkscape:document-units="px"
     inkscape:current-layer="layer1"
     inkscape:document-rotation="0"
     showgrid="false"
     units="px"
     inkscape:window-width="2560"
     inkscape:window-height="1377"
     inkscape:window-x="2552"
     inkscape:window-y="-8"
     inkscape:window-maximized="1" />
  <metadata
     id="metadata5">
    <rdf:RDF>
      <cc:Work
         rdf:about="">
        <dc:format>image/svg+xml</dc:format>
        <dc:type
           rdf:resource="http://purl.org/dc/dcmitype/StillImage" />
        <dc:title></dc:title>
      </cc:Work>
    </rdf:RDF>
  </metadata>
  <g
     inkscape:label="Ebene 1"
     inkscape:groupmode="layer"
     id="layer1">
    <path
       id="path834-8"
       style="fill:#000000;stroke-width:19.656;stop-color:#000000"
       inkscape:transform-center-y="20.155644"
       d="m 295.93511,72.36287 -137.78015,97.78337 a 14.090347,14.090347 0 0 1 -16.30992,0 L 4.06489,72.36287 A 9.5637053,9.5637053 0 0 1 9.6,55 h 280.8 a 9.5637054,9.5637054 0 0 1 5.53511,17.36287 z m 0,0 -137.78015,97.78337 a 14.090347,14.090347 0 0 1 -16.30992,0 L 4.06489,72.36287 A 9.5637054,9.5637054 0 0 1 9.6,55 h 280.8 a 9.5637054,9.5637054 0 0 1 5.53511,17.36287 z M 300,87.87109 166.83594,182.37891 c -9.7609,6.92652 -23.91098,6.92652 -33.67188,0 L 0,87.87305 V 230 c 0,8.31 6.69,15 15,15 h 270 c 8.31,0 15,-6.69 15,-15 z" />
  </g>
</svg>
