<?xml version="1.0" encoding="UTF-8" standalone="no"?>
<svg
   xmlns:dc="http://purl.org/dc/elements/1.1/"
   xmlns:cc="http://creativecommons.org/ns#"
   xmlns:rdf="http://www.w3.org/1999/02/22-rdf-syntax-ns#"
   xmlns:svg="http://www.w3.org/2000/svg"
   xmlns="http://www.w3.org/2000/svg"
   xmlns:sodipodi="http://sodipodi.sourceforge.net/DTD/sodipodi-0.dtd"
   xmlns:inkscape="http://www.inkscape.org/namespaces/inkscape"
   width="300"
   height="300"
   viewBox="0 0 300 300"
   version="1.1"
   id="svg8"
   inkscape:version="1.0.1 (3bc2e813f5, 2020-09-07)"
   sodipodi:docname="envelope-open.svg">
  <defs
     id="defs2" />
  <sodipodi:namedview
     id="base"
     pagecolor="#ffffff"
     bordercolor="#666666"
     borderopacity="1.0"
     inkscape:pageopacity="0.0"
     inkscape:pageshadow="2"
     inkscape:zoom="2"
     inkscape:cx="150"
     inkscape:cy="150"
     inkscape:document-units="px"
     inkscape:current-layer="layer1"
     inkscape:document-rotation="0"
     showgrid="false"
     units="px"
     inkscape:window-width="2560"
     inkscape:window-height="1377"
     inkscape:window-x="2552"
     inkscape:window-y="-8"
     inkscape:window-maximized="1" />
  <metadata
     id="metadata5">
    <rdf:RDF>
      <cc:Work
         rdf:about="">
        <dc:format>image/svg+xml</dc:format>
        <dc:type
           rdf:resource="http://purl.org/dc/dcmitype/StillImage" />
        <dc:title></dc:title>
      </cc:Work>
    </rdf:RDF>
  </metadata>
  <g
     inkscape:label="Ebene 1"
     inkscape:groupmode="layer"
     id="layer1">
    <path
       id="rect830-7"
       style="fill:#000000;stroke-width:25.0755;stop-color:#000000"
       d="M 149.93359,1.6147052e-4 C 147.10128,0.01496147 144.35408,0.95780147 142.12305,2.6806115 L 11.816406,103.28414 A 30.770942,30.381074 0 0 0 0,127.21725 v 157.9728 A 15,14.80995 0 0 0 15,300 h 270 a 15,14.80995 0 0 0 15,-14.80995 V 127.21725 A 30.770942,30.381074 0 0 0 288.18359,103.28414 L 157.87695,2.6806115 C 155.61007,0.93012147 152.81143,-0.01426853 149.93359,1.6147052e-4 Z M 149.98439,19.723621 h 0.002 c 0.62633,-0.003 1.25087,0.20727 1.74414,0.58816 l 0.002,0.002 115.375,89.075679 a 4.0576543,4.0062438 0 0 1 0.11524,6.22095 l -115.49024,96.0082 -0.002,0.002 c -0.49332,0.41016 -1.11781,0.63547 -1.74414,0.6325 h -0.002 c -0.61661,-0.004 -1.22915,-0.22865 -1.71485,-0.6325 l -0.002,-0.002 -115.490236,-96.0082 a 4.0576517,4.0062412 0 0 1 0.115234,-6.22095 l 115.375002,-89.075679 0.002,-0.002 c 0.4857,-0.37506 1.09824,-0.5845 1.71485,-0.58816 z" />
  </g>
</svg>
