<?xml version="1.0" encoding="UTF-8" standalone="no"?>
<svg
   xmlns:dc="http://purl.org/dc/elements/1.1/"
   xmlns:cc="http://creativecommons.org/ns#"
   xmlns:rdf="http://www.w3.org/1999/02/22-rdf-syntax-ns#"
   xmlns:svg="http://www.w3.org/2000/svg"
   xmlns="http://www.w3.org/2000/svg"
   xmlns:sodipodi="http://sodipodi.sourceforge.net/DTD/sodipodi-0.dtd"
   xmlns:inkscape="http://www.inkscape.org/namespaces/inkscape"
   width="300"
   height="300"
   viewBox="0 0 300 300"
   version="1.1"
   id="svg8"
   inkscape:version="1.0.1 (3bc2e813f5, 2020-09-07)"
   sodipodi:docname="file-certificate.svg">
  <defs
     id="defs2" />
  <sodipodi:namedview
     id="base"
     pagecolor="#ffffff"
     bordercolor="#666666"
     borderopacity="1.0"
     inkscape:pageopacity="0.0"
     inkscape:pageshadow="2"
     inkscape:zoom="2"
     inkscape:cx="150"
     inkscape:cy="150"
     inkscape:document-units="px"
     inkscape:current-layer="layer1"
     inkscape:document-rotation="0"
     showgrid="false"
     units="px"
     inkscape:window-width="2560"
     inkscape:window-height="1377"
     inkscape:window-x="2552"
     inkscape:window-y="-8"
     inkscape:window-maximized="1" />
  <metadata
     id="metadata5">
    <rdf:RDF>
      <cc:Work
         rdf:about="">
        <dc:format>image/svg+xml</dc:format>
        <dc:type
           rdf:resource="http://purl.org/dc/dcmitype/StillImage" />
        <dc:title></dc:title>
      </cc:Work>
    </rdf:RDF>
  </metadata>
  <g
     inkscape:label="Ebene 1"
     inkscape:groupmode="layer"
     id="layer1">
    <path
       id="path1396-2"
       style="fill:#000000;stroke-width:27.3;stop-color:#000000"
       d="m 88.63279,99.999957 c -4.1156,0.008 -8.0244,1.438523 -11.1276,3.941403 -2.84913,2.29795 -6.9188,3.38848 -10.53513,2.82292 -3.95006,-0.61775 -8.06193,0.10298 -11.63673,2.16667 -3.57493,2.06386 -6.25633,5.26493 -7.6966,8.99479 -1.31853,3.41461 -4.29767,6.39365 -7.71227,7.71223 -3.7294,1.44018 -6.92966,4.12092 -8.99346,7.69532 -2.06387,3.57466 -2.78553,7.6866 -2.168,11.63673 0.5654,3.6164 -0.52513,7.68587 -2.82287,10.53513 -2.50966,3.112 -3.94006,7.034 -3.94013,11.16147 1.3e-4,4.12767 1.43147,8.04946 3.9414,11.16146 2.29793,2.84914 3.38847,6.9188 2.82293,10.53514 -0.61773,3.95006 0.103,8.06193 2.16667,11.63673 2.06387,3.57493 5.26493,6.25633 8.9948,7.6966 3.4146,1.31853 6.39366,4.29766 7.7122,7.71225 1.4402,3.7294 4.12093,6.92967 7.69533,8.99347 3.57467,2.06387 7.6866,2.78553 11.63673,2.168 3.6164,-0.5654 7.68587,0.52513 10.53513,2.82287 3.112,2.50966 7.034,3.94006 11.16147,3.94014 4.1276,-1.4e-4 8.04947,-1.43147 11.16147,-3.9414 2.84913,-2.29793 6.91879,-3.38847 10.53513,-2.82293 3.95006,0.61772 8.06193,-0.10294 11.63673,-2.16668 3.57493,-2.06387 6.25633,-5.26493 7.6966,-8.9948 1.31853,-3.4146 4.29767,-6.39359 7.71227,-7.71219 3.7294,-1.4402 6.92966,-4.12093 8.99346,-7.69534 2.06387,-3.57466 2.78554,-7.6866 2.168,-11.63673 -0.5654,-3.61639 0.52514,-7.68586 2.82287,-10.53513 2.50966,-3.112 3.94006,-7.03399 3.94013,-11.16146 -1.3e-4,-4.1276 -1.43147,-8.04947 -3.9414,-11.16147 -2.29793,-2.84913 -3.38846,-6.9188 -2.82293,-10.53513 0.61773,-3.95007 -0.10293,-8.06193 -2.16667,-11.63673 -2.06386,-3.57494 -5.26493,-6.25634 -8.9948,-7.69662 -3.4146,-1.31852 -6.39366,-4.29766 -7.7122,-7.71223 -1.4402,-3.72942 -4.12093,-6.92967 -7.69533,-8.99349 -3.57467,-2.06386 -7.6866,-2.78552 -11.63673,-2.16797 -3.6164,0.56538 -7.68587,-0.52514 -10.53513,-2.82292 -3.112,-2.50966 -7.034,-3.940062 -11.16147,-3.940102 z m -0.0167,39.999993 a 26.666664,26.666664 0 0 1 0.0507,0 26.666664,26.666664 0 0 1 26.66667,26.66667 26.666664,26.666664 0 0 1 -26.66667,26.66666 26.666664,26.666664 0 0 1 -26.66666,-26.66666 26.666664,26.666664 0 0 1 26.61593,-26.66667 z m 33.58853,95.24672 c -4.31786,1.49513 -8.92093,1.90147 -13.38673,1.20307 -0.546,-0.0854 -2.28173,0.37933 -2.7122,0.72653 -4.8616,3.921 -10.99966,6.15713 -17.4388,6.1574 -6.4378,-7e-5 -12.57626,-2.2348 -17.43879,-6.15607 -0.43094,-0.34753 -2.16707,-0.812 -2.71354,-0.7266 -4.46633,0.69827 -9.0686,0.29214 -13.38546,-1.20306 L 40.98916,294.4722 a 4.4859796,4.4859796 0 0 0 6.4866,4.9934 l 38.2548,-20.55507 a 6.2036304,6.2036304 0 0 1 5.8726,0 l 38.2548,20.55507 a 4.4860051,4.4860051 0 0 0 6.48673,-4.9934 z M 81,-4.25e-5 c -8.31,0 -15,6.69 -15,14.9999995 v 76.57227 c 0.83504,0.0466 1.66971,0.12145 2.5,0.23046 -0.0761,0.0491 -0.12795,0.124771 -0.46484,0.39649 0.18038,-0.14549 0.39089,-0.24713 0.57421,-0.38867 0.22949,0.0309 0.4625,0.013 0.69141,0.0488 -0.4262,-0.0667 -0.50925,-0.10478 -0.59961,-0.10938 5.62975,-4.3166 12.58637,-6.82172 19.90235,-6.83594 a 15.086912,15.086912 0 0 1 0.0293,0 h 0.0332 c 7.33465,8.1e-5 14.31692,2.502591 19.96679,6.83399 -0.0904,0.005 -0.17259,0.0446 -0.59961,0.11133 0.22951,-0.0359 0.46328,-0.0179 0.69336,-0.0488 0.1826,0.140991 0.39258,0.24181 0.57227,0.38671 -0.3344,-0.269669 -0.38747,-0.34532 -0.46289,-0.39453 7.05517,-0.92562 14.3529,0.39586 20.70703,4.064461 6.35209,3.667629 11.14685,9.326922 13.87305,15.900392 -0.0804,-0.0408 -0.17148,-0.0476 -0.57422,-0.20313 0.21596,0.0834 0.40903,0.21484 0.62304,0.30274 0.0879,0.21402 0.21934,0.40708 0.30274,0.62304 -0.15553,-0.40265 -0.16233,-0.49391 -0.20313,-0.57421 6.57536,2.72672 12.23403,7.52088 15.90235,13.875 3.66974,6.3567 4.9881,13.65515 4.0625,20.70703 -0.0493,-0.0756 -0.12458,-0.12819 -0.39453,-0.46289 0.14491,0.17968 0.2457,0.38966 0.38671,0.57226 -0.031,0.23007 -0.0129,0.46389 -0.0488,0.69336 0.0668,-0.42728 0.10632,-0.50911 0.11132,-0.59961 4.32853,5.64546 6.83571,12.62685 6.83594,19.96485 -1.2e-4,7.33901 -2.50641,14.31967 -6.83594,19.96679 -0.005,-0.0902 -0.0428,-0.1736 -0.10937,-0.59961 0.0358,0.22887 0.0179,0.46197 0.0488,0.69141 -0.13919,0.18029 -0.23981,0.387 -0.38282,0.56444 0.2632,-0.32434 0.34263,-0.38222 0.39063,-0.45702 0.92661,7.0563 -0.39514,14.3556 -4.06445,20.71093 -3.66935,6.35512 -9.32904,11.1475 -15.90039,13.87305 0.0413,-0.0804 0.048,-0.17246 0.20312,-0.57422 -0.0832,0.21541 -0.21503,0.40761 -0.30273,0.62109 -0.21478,0.0882 -0.40828,0.22099 -0.625,0.30469 0.40475,-0.15628 0.49752,-0.16348 0.57812,-0.20508 -1.5426,3.72077 -3.79071,7.09516 -6.58008,10.02734 a 15.086912,15.086912 0 0 1 0.0391,0.1543 l 14.13867,59.22656 a 15.086912,15.086912 0 0 1 0,0.004 c 0.70609,2.96244 0.63418,6.06998 -0.084,9.02539 H 263 c 8.31,0 15,-6.69 15,-15 V 84.999957 h -70 a 15,15 0 0 1 -15,-15 V -4.25e-5 Z m 132,0 V 49.999957 a 15,15 0 0 0 15,15 h 50 z" />
  </g>
</svg>
