<?xml version="1.0" encoding="UTF-8" standalone="no"?>
<svg
   xmlns:dc="http://purl.org/dc/elements/1.1/"
   xmlns:cc="http://creativecommons.org/ns#"
   xmlns:rdf="http://www.w3.org/1999/02/22-rdf-syntax-ns#"
   xmlns:svg="http://www.w3.org/2000/svg"
   xmlns="http://www.w3.org/2000/svg"
   xmlns:sodipodi="http://sodipodi.sourceforge.net/DTD/sodipodi-0.dtd"
   xmlns:inkscape="http://www.inkscape.org/namespaces/inkscape"
   width="300"
   height="300"
   viewBox="0 0 300 300"
   version="1.1"
   id="svg8"
   inkscape:version="1.0.1 (3bc2e813f5, 2020-09-07)"
   sodipodi:docname="floppy-disk.svg">
  <defs
     id="defs2">
    <inkscape:path-effect
       effect="fillet_chamfer"
       id="path-effect867"
       is_visible="true"
       lpeversion="1"
       satellites_param="F,0,0,1,0,15,0,1 @ F,0,0,1,0,15,0,1 @ F,0,0,1,0,15,0,1 @ F,0,0,1,0,15,0,1 @ F,0,0,1,0,15,0,1"
       unit="px"
       method="auto"
       mode="F"
       radius="15"
       chamfer_steps="1"
       flexible="false"
       use_knot_distance="true"
       apply_no_radius="true"
       apply_with_radius="true"
       only_selected="false"
       hide_knots="false" />
  </defs>
  <sodipodi:namedview
     id="base"
     pagecolor="#ffffff"
     bordercolor="#666666"
     borderopacity="1.0"
     inkscape:pageopacity="0.0"
     inkscape:pageshadow="2"
     inkscape:zoom="1.4142136"
     inkscape:cx="-22.878816"
     inkscape:cy="154.43788"
     inkscape:document-units="px"
     inkscape:current-layer="layer1"
     inkscape:document-rotation="0"
     showgrid="true"
     units="px"
     inkscape:window-width="2560"
     inkscape:window-height="1377"
     inkscape:window-x="2552"
     inkscape:window-y="-8"
     inkscape:window-maximized="1">
    <inkscape:grid
       type="xygrid"
       id="grid842" />
  </sodipodi:namedview>
  <metadata
     id="metadata5">
    <rdf:RDF>
      <cc:Work
         rdf:about="">
        <dc:format>image/svg+xml</dc:format>
        <dc:type
           rdf:resource="http://purl.org/dc/dcmitype/StillImage" />
        <dc:title></dc:title>
      </cc:Work>
    </rdf:RDF>
  </metadata>
  <g
     inkscape:label="Ebene 1"
     inkscape:groupmode="layer"
     id="layer1">
    <path
       id="rect837"
       style="fill:#000000;fill-opacity:1;stroke-width:19.656;stop-color:#000000"
       d="M 15 0 A 15 15 0 0 0 0 15 L 0 285 A 15 15 0 0 0 15 300 L 285 300 A 15 15 0 0 0 300 285 L 300 65 A 36.213203 36.213203 0 0 0 289.39258 39.392578 L 260.60742 10.607422 A 36.213203 36.213203 0 0 0 235 0 L 15 0 z M 85.384766 20 L 214.61523 20 C 220.58138 20 225.38477 24.46 225.38477 30 L 225.38477 90 C 225.38477 95.54 220.58138 100 214.61523 100 L 85.384766 100 C 79.418612 100 74.615234 95.54 74.615234 90 L 74.615234 30 C 74.615234 24.46 79.418612 20 85.384766 20 z M 187.69141 30 C 184.70834 30 182.30859 32.23 182.30859 35 L 182.30859 85 C 182.30859 87.77 184.70834 90 187.69141 90 L 209.23047 90 C 212.21355 90 214.61523 87.77 214.61523 85 L 214.61523 35 C 214.61523 32.23 212.21355 30 209.23047 30 L 187.69141 30 z M 55 130 L 245 130 C 253.31 130 260 136.69 260 145 L 260 255 C 260 263.31 253.31 270 245 270 L 55 270 C 46.69 270 40 263.31 40 255 L 40 145 C 40 136.69 46.69 130 55 130 z " />
  </g>
</svg>
