<?xml version="1.0" encoding="UTF-8" standalone="no"?>
<svg
   xmlns:dc="http://purl.org/dc/elements/1.1/"
   xmlns:cc="http://creativecommons.org/ns#"
   xmlns:rdf="http://www.w3.org/1999/02/22-rdf-syntax-ns#"
   xmlns:svg="http://www.w3.org/2000/svg"
   xmlns="http://www.w3.org/2000/svg"
   xmlns:sodipodi="http://sodipodi.sourceforge.net/DTD/sodipodi-0.dtd"
   xmlns:inkscape="http://www.inkscape.org/namespaces/inkscape"
   width="300"
   height="300"
   viewBox="0 0 300 300"
   version="1.1"
   id="svg8"
   inkscape:version="1.0.1 (3bc2e813f5, 2020-09-07)"
   sodipodi:docname="folder-exclamation-mark.svg">
  <defs
     id="defs2">
    <inkscape:path-effect
       effect="fillet_chamfer"
       id="path-effect975"
       is_visible="true"
       lpeversion="1"
       satellites_param="F,0,0,1,0,5,0,1 @ F,0,0,1,0,5,0,1 @ F,0,0,1,0,15,0,1 @ F,0,0,1,0,15,0,1 @ F,0,0,1,0,15,0,1 @ F,0,0,1,0,5,0,1 @ F,0,0,1,0,5,0,1"
       unit="px"
       method="auto"
       mode="F"
       radius="0"
       chamfer_steps="1"
       flexible="false"
       use_knot_distance="true"
       apply_no_radius="true"
       apply_with_radius="true"
       only_selected="false"
       hide_knots="false" />
  </defs>
  <sodipodi:namedview
     id="base"
     pagecolor="#ffffff"
     bordercolor="#666666"
     borderopacity="1.0"
     inkscape:pageopacity="0.0"
     inkscape:pageshadow="2"
     inkscape:zoom="2"
     inkscape:cx="150"
     inkscape:cy="150"
     inkscape:document-units="px"
     inkscape:current-layer="layer1"
     inkscape:document-rotation="0"
     showgrid="false"
     units="px"
     inkscape:window-width="2560"
     inkscape:window-height="1377"
     inkscape:window-x="2552"
     inkscape:window-y="-8"
     inkscape:window-maximized="1" />
  <metadata
     id="metadata5">
    <rdf:RDF>
      <cc:Work
         rdf:about="">
        <dc:format>image/svg+xml</dc:format>
        <dc:type
           rdf:resource="http://purl.org/dc/dcmitype/StillImage" />
        <dc:title></dc:title>
      </cc:Work>
    </rdf:RDF>
  </metadata>
  <g
     inkscape:label="Ebene 1"
     inkscape:groupmode="layer"
     id="layer1">
    <path
       id="rect830-57-2"
       style="fill:#000000;stroke-width:28.8541;stop-color:#000000"
       d="M 20 25 A 8.0901699 8.0901699 0 0 0 12.763672 29.472656 L 2.2363281 50.527344 A 21.18034 21.18034 0 0 0 0 60 L 0 260 A 15 15 0 0 0 15 275 L 285 275 A 15 15 0 0 0 300 260 L 300 70 A 15 15 0 0 0 285 55 L 155 55 A 8.0901699 8.0901699 0 0 1 147.76367 50.527344 L 137.23633 29.472656 A 8.0901699 8.0901699 0 0 0 130 25 L 20 25 z M 138.56445 83.716797 L 161.43555 83.716797 C 164.89469 83.716797 167.78944 86.279782 167.67969 89.458984 L 164.18359 190.66211 C 164.07372 193.84133 161.39853 196.4043 157.93945 196.4043 L 142.06055 196.4043 C 138.60142 196.4043 135.92617 193.84133 135.81641 190.66211 L 132.32031 89.458984 C 132.21045 86.279782 135.10525 83.716797 138.56445 83.716797 z M 150 211.51758 A 17.3826 17.3826 0 0 1 167.38281 228.90039 A 17.3826 17.3826 0 0 1 150 246.2832 A 17.3826 17.3826 0 0 1 132.61719 228.90039 A 17.3826 17.3826 0 0 1 150 211.51758 z " />
  </g>
</svg>
