<?xml version="1.0" encoding="UTF-8" standalone="no"?>
<svg
   xmlns:dc="http://purl.org/dc/elements/1.1/"
   xmlns:cc="http://creativecommons.org/ns#"
   xmlns:rdf="http://www.w3.org/1999/02/22-rdf-syntax-ns#"
   xmlns:svg="http://www.w3.org/2000/svg"
   xmlns="http://www.w3.org/2000/svg"
   xmlns:sodipodi="http://sodipodi.sourceforge.net/DTD/sodipodi-0.dtd"
   xmlns:inkscape="http://www.inkscape.org/namespaces/inkscape"
   width="300"
   height="300"
   viewBox="0 0 300 300"
   version="1.1"
   id="svg8"
   inkscape:version="1.0.1 (3bc2e813f5, 2020-09-07)"
   sodipodi:docname="folder-open.svg">
  <defs
     id="defs2" />
  <sodipodi:namedview
     id="base"
     pagecolor="#ffffff"
     bordercolor="#666666"
     borderopacity="1.0"
     inkscape:pageopacity="0.0"
     inkscape:pageshadow="2"
     inkscape:zoom="2"
     inkscape:cx="150"
     inkscape:cy="150"
     inkscape:document-units="px"
     inkscape:current-layer="layer1"
     inkscape:document-rotation="0"
     showgrid="false"
     units="px"
     inkscape:window-width="2560"
     inkscape:window-height="1377"
     inkscape:window-x="2552"
     inkscape:window-y="-8"
     inkscape:window-maximized="1" />
  <metadata
     id="metadata5">
    <rdf:RDF>
      <cc:Work
         rdf:about="">
        <dc:format>image/svg+xml</dc:format>
        <dc:type
           rdf:resource="http://purl.org/dc/dcmitype/StillImage" />
        <dc:title></dc:title>
      </cc:Work>
    </rdf:RDF>
  </metadata>
  <g
     inkscape:label="Ebene 1"
     inkscape:groupmode="layer"
     id="layer1">
    <path
       id="rect830-5-8"
       style="fill:#000000;stroke-width:24.8728;stop-color:#000000"
       d="m 57.75531,114.6572 h 232.74528 a 9.4994047,9.4994047 0 0 1 9.06505,12.33906 l -37.09453,118.41713 a 17.600312,17.600312 0 0 1 -16.79554,12.33906 H 3.3145338e-7 L 40.95977,126.99626 A 17.600312,17.600312 0 0 1 57.75531,114.6572 Z M 17.24039,42.24755 a 6.9738847,6.9738847 0 0 0 -6.23785,3.85552 L 1.9277603,64.25262 A 18.257867,18.257867 0 0 0 3.3145338e-7,72.418235 V 217.38064 L 29.44336,123.38852 c 3.74105,-11.94337 15.74589,-20.77822 28.26144,-20.7996 a 12.069481,12.069481 0 0 1 0.0101,0 c 0.017,-1e-5 0.0335,-1e-5 0.0505,0 H 258.60587 V 81.03843 A 12.930293,12.930293 0 0 0 245.67557,68.108137 H 133.61303 A 6.9738847,6.9738847 0 0 1 127.37517,64.25262 L 118.3004,46.10307 a 6.9738847,6.9738847 0 0 0 -6.23786,-3.85552 z" />
  </g>
</svg>
