<?xml version="1.0" encoding="UTF-8" standalone="no"?>
<svg
   xmlns:dc="http://purl.org/dc/elements/1.1/"
   xmlns:cc="http://creativecommons.org/ns#"
   xmlns:rdf="http://www.w3.org/1999/02/22-rdf-syntax-ns#"
   xmlns:svg="http://www.w3.org/2000/svg"
   xmlns="http://www.w3.org/2000/svg"
   xmlns:sodipodi="http://sodipodi.sourceforge.net/DTD/sodipodi-0.dtd"
   xmlns:inkscape="http://www.inkscape.org/namespaces/inkscape"
   width="300"
   height="300"
   viewBox="0 0 300 300"
   version="1.1"
   id="svg8"
   inkscape:version="1.0.1 (3bc2e813f5, 2020-09-07)"
   sodipodi:docname="folder-users.svg">
  <defs
     id="defs2">
    <inkscape:path-effect
       effect="fillet_chamfer"
       id="path-effect975"
       is_visible="true"
       lpeversion="1"
       satellites_param="F,0,0,1,0,5,0,1 @ F,0,0,1,0,5,0,1 @ F,0,0,1,0,15,0,1 @ F,0,0,1,0,15,0,1 @ F,0,0,1,0,15,0,1 @ F,0,0,1,0,5,0,1 @ F,0,0,1,0,5,0,1"
       unit="px"
       method="auto"
       mode="F"
       radius="0"
       chamfer_steps="1"
       flexible="false"
       use_knot_distance="true"
       apply_no_radius="true"
       apply_with_radius="true"
       only_selected="false"
       hide_knots="false" />
  </defs>
  <sodipodi:namedview
     id="base"
     pagecolor="#ffffff"
     bordercolor="#666666"
     borderopacity="1.0"
     inkscape:pageopacity="0.0"
     inkscape:pageshadow="2"
     inkscape:zoom="2"
     inkscape:cx="150"
     inkscape:cy="150"
     inkscape:document-units="px"
     inkscape:current-layer="layer1"
     inkscape:document-rotation="0"
     showgrid="false"
     units="px"
     inkscape:window-width="2560"
     inkscape:window-height="1377"
     inkscape:window-x="2552"
     inkscape:window-y="-8"
     inkscape:window-maximized="1" />
  <metadata
     id="metadata5">
    <rdf:RDF>
      <cc:Work
         rdf:about="">
        <dc:format>image/svg+xml</dc:format>
        <dc:type
           rdf:resource="http://purl.org/dc/dcmitype/StillImage" />
        <dc:title></dc:title>
      </cc:Work>
    </rdf:RDF>
  </metadata>
  <g
     inkscape:label="Ebene 1"
     inkscape:groupmode="layer"
     id="layer1">
    <path
       id="rect830-57-2"
       style="fill:#000000;stroke-width:28.8541;stop-color:#000000"
       d="M 20 25 A 8.0901699 8.0901699 0 0 0 12.763672 29.472656 L 2.2363281 50.527344 A 21.18034 21.18034 0 0 0 0 60 L 0 260 A 15 15 0 0 0 15 275 L 285 275 A 15 15 0 0 0 300 260 L 300 70 A 15 15 0 0 0 285 55 L 155 55 A 8.0901699 8.0901699 0 0 1 147.76367 50.527344 L 137.23633 29.472656 A 8.0901699 8.0901699 0 0 0 130 25 L 20 25 z M 97.199219 109.56055 A 19.816296 19.816296 0 0 1 117.01562 129.37695 A 19.816296 19.816296 0 0 1 97.199219 149.19141 A 19.816296 19.816296 0 0 1 77.384766 129.37695 A 19.816296 19.816296 0 0 1 97.199219 109.56055 z M 202.80078 109.56055 A 19.816296 19.816296 0 0 1 222.61523 129.37695 A 19.816296 19.816296 0 0 1 202.80078 149.19141 A 19.816296 19.816296 0 0 1 182.98438 129.37695 A 19.816296 19.816296 0 0 1 202.80078 109.56055 z M 149.91016 114.83984 L 149.92188 114.84375 A 26.752001 26.752001 0 0 1 150.01172 114.84375 A 26.752001 26.752001 0 0 1 150.28125 114.8457 A 26.752001 26.752001 0 0 1 150.33398 114.8457 A 26.752001 26.752001 0 0 1 150.35938 114.8457 A 26.752001 26.752001 0 0 1 150.65625 114.85156 A 26.752001 26.752001 0 0 1 150.69141 114.85156 A 26.752001 26.752001 0 0 1 150.91406 114.85742 A 26.752001 26.752001 0 0 1 150.97852 114.85938 A 26.752001 26.752001 0 0 1 151 114.86133 A 26.752001 26.752001 0 0 1 151.27539 114.87305 A 26.752001 26.752001 0 0 1 151.30078 114.875 A 26.752001 26.752001 0 0 1 151.31445 114.875 A 26.752001 26.752001 0 0 1 151.62305 114.89062 A 26.752001 26.752001 0 0 1 151.64844 114.89258 A 26.752001 26.752001 0 0 1 151.91211 114.91016 A 26.752001 26.752001 0 0 1 151.94531 114.91211 A 26.752001 26.752001 0 0 1 151.95508 114.91406 A 26.752001 26.752001 0 0 1 152.24805 114.9375 A 26.752001 26.752001 0 0 1 152.26758 114.9375 A 26.752001 26.752001 0 0 1 152.27734 114.93945 A 26.752001 26.752001 0 0 1 152.58789 114.9668 A 26.752001 26.752001 0 0 1 152.61328 114.96875 A 26.752001 26.752001 0 0 1 152.87305 114.99609 A 26.752001 26.752001 0 0 1 152.91016 115 A 26.752001 26.752001 0 0 1 152.92773 115.00195 A 26.752001 26.752001 0 0 1 153.23047 115.03711 A 26.752001 26.752001 0 0 1 153.25586 115.03906 A 26.752001 26.752001 0 0 1 153.50586 115.07227 A 26.752001 26.752001 0 0 1 153.54883 115.07812 A 26.752001 26.752001 0 0 1 153.57031 115.08008 A 26.752001 26.752001 0 0 1 153.86914 115.12109 A 26.752001 26.752001 0 0 1 153.89648 115.125 A 26.752001 26.752001 0 0 1 154.04883 115.14844 A 26.752001 26.752001 0 0 1 154.27734 115.18359 A 26.752001 26.752001 0 0 1 154.50586 115.22266 A 26.752001 26.752001 0 0 1 154.5332 115.22656 A 26.752001 26.752001 0 0 1 154.82422 115.27734 A 26.752001 26.752001 0 0 1 154.85156 115.2832 A 26.752001 26.752001 0 0 1 155.14062 115.33789 A 26.752001 26.752001 0 0 1 155.16406 115.3418 A 26.752001 26.752001 0 0 1 155.30078 115.36914 A 26.752001 26.752001 0 0 1 155.54492 115.41992 A 26.752001 26.752001 0 0 1 155.77344 115.46875 A 26.752001 26.752001 0 0 1 155.80469 115.47656 A 26.752001 26.752001 0 0 1 156.05273 115.5332 A 26.752001 26.752001 0 0 1 156.08789 115.53906 A 26.752001 26.752001 0 0 1 156.10938 115.54492 A 26.752001 26.752001 0 0 1 156.40039 115.61523 A 26.752001 26.752001 0 0 1 156.44336 115.62695 A 26.752001 26.752001 0 0 1 156.71289 115.69336 A 26.752001 26.752001 0 0 1 156.75195 115.70508 A 26.752001 26.752001 0 0 1 157.02539 115.77734 A 26.752001 26.752001 0 0 1 157.04492 115.78125 A 26.752001 26.752001 0 0 1 157.33008 115.86133 A 26.752001 26.752001 0 0 1 157.33594 115.86328 A 26.752001 26.752001 0 0 1 157.33984 115.86523 A 26.752001 26.752001 0 0 1 157.45703 115.89844 A 26.752001 26.752001 0 0 1 157.73242 115.97852 A 26.752001 26.752001 0 0 1 157.95312 116.04688 A 26.752001 26.752001 0 0 1 157.99805 116.06055 A 26.752001 26.752001 0 0 1 158.26172 116.14453 A 26.752001 26.752001 0 0 1 158.29688 116.15625 A 26.752001 26.752001 0 0 1 158.56641 116.24609 A 26.752001 26.752001 0 0 1 158.59766 116.25586 A 26.752001 26.752001 0 0 1 158.87305 116.35156 A 26.752001 26.752001 0 0 1 158.92773 116.37109 A 26.752001 26.752001 0 0 1 159.17578 116.45898 A 26.752001 26.752001 0 0 1 159.21875 116.47656 A 26.752001 26.752001 0 0 1 159.47852 116.57227 A 26.752001 26.752001 0 0 1 159.7793 116.6875 A 26.752001 26.752001 0 0 1 160.03516 116.79102 A 26.752001 26.752001 0 0 1 160.07812 116.80664 A 26.752001 26.752001 0 0 1 160.16211 116.8418 A 26.752001 26.752001 0 0 1 160.44727 116.96094 A 26.752001 26.752001 0 0 1 160.67383 117.05859 A 26.752001 26.752001 0 0 1 160.93555 117.17383 A 26.752001 26.752001 0 0 1 160.96875 117.1875 A 26.752001 26.752001 0 0 1 160.98828 117.19727 A 26.752001 26.752001 0 0 1 161.12695 117.25977 A 26.752001 26.752001 0 0 1 161.34375 117.35938 A 26.752001 26.752001 0 0 1 161.63477 117.49805 A 26.752001 26.752001 0 0 1 161.8457 117.60156 A 26.752001 26.752001 0 0 1 161.87695 117.61719 A 26.752001 26.752001 0 0 1 162.13281 117.74414 A 26.752001 26.752001 0 0 1 162.15039 117.75391 A 26.752001 26.752001 0 0 1 162.35742 117.86133 A 26.752001 26.752001 0 0 1 162.41992 117.89258 A 26.752001 26.752001 0 0 1 162.45703 117.91211 A 26.752001 26.752001 0 0 1 162.70508 118.04492 A 26.752001 26.752001 0 0 1 162.98828 118.19922 A 26.752001 26.752001 0 0 1 163.22266 118.33203 A 26.752001 26.752001 0 0 1 163.26758 118.35742 A 26.752001 26.752001 0 0 1 163.3457 118.40234 A 26.752001 26.752001 0 0 1 163.36719 118.41406 A 26.752001 26.752001 0 0 1 163.625 118.56445 A 26.752001 26.752001 0 0 1 163.82422 118.68359 A 26.752001 26.752001 0 0 0 163.82422 118.68555 A 26.752001 26.752001 0 0 1 164.01953 118.80469 A 26.752001 26.752001 0 0 1 164.09766 118.85156 A 26.752001 26.752001 0 0 1 164.17383 118.90039 A 26.752001 26.752001 0 0 1 164.37109 119.02344 A 26.752001 26.752001 0 0 1 164.42578 119.05859 A 26.752001 26.752001 0 0 1 164.64258 119.19922 A 26.752001 26.752001 0 0 1 164.69336 119.23242 A 26.752001 26.752001 0 0 1 164.91016 119.375 A 26.752001 26.752001 0 0 1 164.94922 119.40234 A 26.752001 26.752001 0 0 1 165.17773 119.55664 A 26.752001 26.752001 0 0 1 165.23242 119.5957 A 26.752001 26.752001 0 0 1 165.44336 119.74219 A 26.752001 26.752001 0 0 1 165.70508 119.92969 A 26.752001 26.752001 0 0 1 165.96484 120.12109 A 26.752001 26.752001 0 0 1 166.22266 120.31445 A 26.752001 26.752001 0 0 1 166.47852 120.51172 A 26.752001 26.752001 0 0 1 166.54883 120.56641 A 26.752001 26.752001 0 0 1 166.55469 120.56836 A 26.752001 26.752001 0 0 1 166.80469 120.76758 A 26.752001 26.752001 0 0 1 167.12109 121.02734 A 26.752001 26.752001 0 0 1 167.30273 121.17969 A 26.752001 26.752001 0 0 1 167.47852 121.33008 A 26.752001 26.752001 0 0 1 167.5 121.34961 A 26.752001 26.752001 0 0 1 167.5957 121.42969 A 26.752001 26.752001 0 0 1 167.78906 121.60156 A 26.752001 26.752001 0 0 1 167.96289 121.75781 A 26.752001 26.752001 0 0 1 167.98633 121.7793 A 26.752001 26.752001 0 0 1 168.08398 121.86719 A 26.752001 26.752001 0 0 1 168.26562 122.03711 A 26.752001 26.752001 0 0 1 168.43555 122.19531 A 26.752001 26.752001 0 0 1 168.46484 122.22461 A 26.752001 26.752001 0 0 1 168.66797 122.41797 A 26.752001 26.752001 0 0 1 168.73242 122.48242 A 26.752001 26.752001 0 0 1 168.89648 122.64648 A 26.752001 26.752001 0 0 1 169.05859 122.80664 A 26.752001 26.752001 0 0 1 169.125 122.875 A 26.752001 26.752001 0 0 1 169.1875 122.93945 A 26.752001 26.752001 0 0 1 169.34961 123.10742 A 26.752001 26.752001 0 0 1 169.39258 123.15234 A 26.752001 26.752001 0 0 1 169.57031 123.33984 A 26.752001 26.752001 0 0 1 169.58789 123.35938 A 26.752001 26.752001 0 0 1 169.78906 123.57812 A 26.752001 26.752001 0 0 1 169.97656 123.78711 A 26.752001 26.752001 0 0 1 170.00391 123.81836 A 26.752001 26.752001 0 0 1 170.02344 123.83789 A 26.752001 26.752001 0 0 1 170.2168 124.05859 A 26.752001 26.752001 0 0 1 170.27734 124.12891 A 26.752001 26.752001 0 0 1 170.48633 124.37305 A 26.752001 26.752001 0 0 1 170.63477 124.55273 A 26.752001 26.752001 0 0 1 170.69141 124.62305 A 26.752001 26.752001 0 0 1 170.83789 124.80078 A 26.752001 26.752001 0 0 1 170.86914 124.83984 A 26.752001 26.752001 0 0 1 171.03906 125.05469 A 26.752001 26.752001 0 0 1 171.05664 125.07812 A 26.752001 26.752001 0 0 1 171.23828 125.30859 A 26.752001 26.752001 0 0 1 171.27148 125.35352 A 26.752001 26.752001 0 0 1 171.43164 125.56641 A 26.752001 26.752001 0 0 1 171.44922 125.58984 A 26.752001 26.752001 0 0 1 171.62305 125.82617 A 26.752001 26.752001 0 0 1 171.76562 126.02344 A 26.752001 26.752001 0 0 1 171.81055 126.08789 A 26.752001 26.752001 0 0 1 171.8457 126.13477 A 26.752001 26.752001 0 0 1 171.99609 126.34961 A 26.752001 26.752001 0 0 1 172.04883 126.42578 A 26.752001 26.752001 0 0 1 172.17969 126.61719 A 26.752001 26.752001 0 0 1 172.2168 126.67383 A 26.752001 26.752001 0 0 1 172.35742 126.88477 A 26.752001 26.752001 0 0 1 172.37695 126.91602 A 26.752001 26.752001 0 0 1 172.5332 127.15625 A 26.752001 26.752001 0 0 1 172.58203 127.23242 A 26.752001 26.752001 0 0 1 172.70703 127.42969 A 26.752001 26.752001 0 0 1 172.74023 127.48438 A 26.752001 26.752001 0 0 1 172.875 127.70312 A 26.752001 26.752001 0 0 1 172.88477 127.7168 A 26.752001 26.752001 0 0 1 173.04297 127.98047 A 26.752001 26.752001 0 0 1 173.08594 128.05469 A 26.752001 26.752001 0 0 1 173.0918 128.06055 A 26.752001 26.752001 0 0 1 173.25195 128.33594 A 26.752001 26.752001 0 0 1 173.40234 128.60156 A 26.752001 26.752001 0 0 1 173.52148 128.82031 A 26.752001 26.752001 0 0 1 173.54688 128.86719 A 26.752001 26.752001 0 0 1 173.67383 129.10547 A 26.752001 26.752001 0 0 1 173.6875 129.13281 A 26.752001 26.752001 0 0 1 173.9668 129.67969 A 26.752001 26.752001 0 0 1 174.06055 129.86719 A 26.752001 26.752001 0 0 1 174.14453 130.04297 A 26.752001 26.752001 0 0 1 174.24805 130.25977 A 26.752001 26.752001 0 0 1 174.28711 130.34375 A 26.752001 26.752001 0 0 1 174.31836 130.41016 A 26.752001 26.752001 0 0 1 174.41992 130.63672 A 26.752001 26.752001 0 0 1 174.51367 130.84766 A 26.752001 26.752001 0 0 1 174.52344 130.86914 A 26.752001 26.752001 0 0 1 174.62109 131.09766 A 26.752001 26.752001 0 0 1 174.64258 131.14453 A 26.752001 26.752001 0 0 1 174.67773 131.22852 A 26.752001 26.752001 0 0 1 174.69727 131.27734 A 26.752001 26.752001 0 0 1 174.80078 131.52539 A 26.752001 26.752001 0 0 1 174.88672 131.74219 A 26.752001 26.752001 0 0 1 174.89844 131.76953 A 26.752001 26.752001 0 0 1 175.00391 132.04297 A 26.752001 26.752001 0 0 1 175.00977 132.05078 A 26.752001 26.752001 0 0 1 175.10938 132.31445 A 26.752001 26.752001 0 0 1 175.11914 132.34375 A 26.752001 26.752001 0 0 1 175.15039 132.42969 A 26.752001 26.752001 0 0 1 175.22852 132.64844 A 26.752001 26.752001 0 0 1 175.24023 132.68164 A 26.752001 26.752001 0 0 1 175.33398 132.95312 A 26.752001 26.752001 0 0 1 175.34375 132.98047 A 26.752001 26.752001 0 0 1 175.4375 133.25781 A 26.752001 26.752001 0 0 1 175.45312 133.30859 A 26.752001 26.752001 0 0 1 175.53516 133.56445 A 26.752001 26.752001 0 0 1 175.55469 133.625 A 26.752001 26.752001 0 0 1 175.57617 133.69531 A 26.752001 26.752001 0 0 1 175.6543 133.95117 A 26.752001 26.752001 0 0 1 175.6582 133.96094 A 26.752001 26.752001 0 0 1 175.72461 134.18359 A 26.752001 26.752001 0 0 1 175.74023 134.24219 A 26.752001 26.752001 0 0 1 175.81055 134.49414 A 26.752001 26.752001 0 0 1 175.82617 134.55078 A 26.752001 26.752001 0 0 1 175.84766 134.63281 A 26.752001 26.752001 0 0 1 175.91211 134.87891 A 26.752001 26.752001 0 0 1 175.91992 134.89258 A 26.752001 26.752001 0 0 1 175.97656 135.11719 A 26.752001 26.752001 0 0 1 175.99805 135.20508 A 26.752001 26.752001 0 0 1 176.00391 135.22461 A 26.752001 26.752001 0 0 1 176.07422 135.51953 A 26.752001 26.752001 0 0 1 176.14258 135.81836 A 26.752001 26.752001 0 0 1 176.19531 136.06055 A 26.752001 26.752001 0 0 1 176.20703 136.12109 A 26.752001 26.752001 0 0 1 176.25977 136.37695 A 26.752001 26.752001 0 0 1 176.27344 136.44141 A 26.752001 26.752001 0 0 1 176.32031 136.69336 A 26.752001 26.752001 0 0 1 176.33203 136.75391 A 26.752001 26.752001 0 0 1 176.37891 137.00977 A 26.752001 26.752001 0 0 1 176.39258 137.0957 A 26.752001 26.752001 0 0 1 176.43164 137.33008 A 26.752001 26.752001 0 0 1 176.43945 137.39062 A 26.752001 26.752001 0 0 1 176.48047 137.64648 A 26.752001 26.752001 0 0 1 176.48828 137.70898 A 26.752001 26.752001 0 0 1 176.52539 137.9668 A 26.752001 26.752001 0 0 1 176.53711 138.05664 A 26.752001 26.752001 0 0 0 176.53711 138.05859 A 26.752001 26.752001 0 0 1 176.57617 138.36328 A 26.752001 26.752001 0 0 1 176.57617 138.37695 A 26.752001 26.752001 0 0 1 176.60156 138.60742 A 26.752001 26.752001 0 0 1 176.62891 138.85938 A 26.752001 26.752001 0 0 1 176.63672 138.92773 A 26.752001 26.752001 0 0 1 176.64648 139.01758 A 26.752001 26.752001 0 0 1 176.65039 139.06055 A 26.752001 26.752001 0 0 1 176.67578 139.33984 A 26.752001 26.752001 0 0 1 176.70117 139.64648 A 26.752001 26.752001 0 0 1 176.70508 139.69922 A 26.752001 26.752001 0 0 1 176.72266 139.95703 A 26.752001 26.752001 0 0 1 176.72266 139.98242 A 26.752001 26.752001 0 0 1 176.73633 140.21289 A 26.752001 26.752001 0 0 1 176.74219 140.29102 A 26.752001 26.752001 0 0 1 176.74219 140.33008 A 26.752001 26.752001 0 0 1 176.75195 140.60352 A 26.752001 26.752001 0 0 1 176.76172 140.85938 A 26.752001 26.752001 0 0 1 176.76172 140.94922 A 26.752001 26.752001 0 0 1 176.76758 141.18164 A 26.752001 26.752001 0 0 1 176.76758 141.27148 A 26.752001 26.752001 0 0 1 176.76758 141.32227 A 26.752001 26.752001 0 0 1 176.76758 141.59375 A 26.752001 26.752001 0 0 1 176.76758 141.86328 A 26.752001 26.752001 0 0 1 176.76758 141.94141 A 26.752001 26.752001 0 0 1 176.76172 142.13477 A 26.752001 26.752001 0 0 1 176.75586 142.27344 A 26.752001 26.752001 0 0 1 176.74805 142.49609 A 26.752001 26.752001 0 0 1 176.74805 142.56055 A 26.752001 26.752001 0 0 1 176.74805 142.58203 A 26.752001 26.752001 0 0 1 176.73828 142.85742 A 26.752001 26.752001 0 0 1 176.73828 142.88281 A 26.752001 26.752001 0 0 1 176.73828 142.89648 A 26.752001 26.752001 0 0 1 176.72656 143.12695 A 26.752001 26.752001 0 0 1 176.71875 143.23047 A 26.752001 26.752001 0 0 1 176.70312 143.47656 A 26.752001 26.752001 0 0 1 176.69727 143.54492 A 26.752001 26.752001 0 0 1 176.67383 143.83008 A 26.752001 26.752001 0 0 1 176.66406 143.9375 A 26.752001 26.752001 0 0 1 176.64844 144.0957 A 26.752001 26.752001 0 0 1 176.63477 144.25977 A 26.752001 26.752001 0 0 1 176.62891 144.31055 A 26.752001 26.752001 0 0 1 176.59961 144.58008 A 26.752001 26.752001 0 0 1 176.57031 144.83789 A 26.752001 26.752001 0 0 1 176.53711 145.08789 A 26.752001 26.752001 0 0 1 176.5293 145.15234 A 26.752001 26.752001 0 0 1 176.48828 145.44922 A 26.752001 26.752001 0 0 1 176.48242 145.47852 A 26.752001 26.752001 0 0 1 176.45898 145.63086 A 26.752001 26.752001 0 0 1 176.42383 145.85742 A 26.752001 26.752001 0 0 1 176.37891 146.13086 A 26.752001 26.752001 0 0 1 176.3457 146.32031 A 26.752001 26.752001 0 0 1 176.33008 146.4043 A 26.752001 26.752001 0 0 1 176.32617 146.43359 A 26.752001 26.752001 0 0 1 176.31445 146.49414 A 26.752001 26.752001 0 0 1 176.27148 146.72266 A 26.752001 26.752001 0 0 1 176.26562 146.74609 A 26.752001 26.752001 0 0 1 176.24219 146.86719 A 26.752001 26.752001 0 0 1 176.1875 147.125 A 26.752001 26.752001 0 0 1 176.11914 147.44141 A 26.752001 26.752001 0 0 1 176.10547 147.50781 A 26.752001 26.752001 0 0 1 176.04688 147.75586 A 26.752001 26.752001 0 0 1 175.9707 148.06836 A 26.752001 26.752001 0 0 1 175.90234 148.33398 A 26.752001 26.752001 0 0 1 175.83203 148.60547 A 26.752001 26.752001 0 0 1 175.82031 148.63867 A 26.752001 26.752001 0 0 1 175.79492 148.74023 A 26.752001 26.752001 0 0 1 175.62695 149.3125 A 26.752001 26.752001 0 0 1 175.56055 149.53516 A 26.752001 26.752001 0 0 1 175.54688 149.58008 A 26.752001 26.752001 0 0 1 175.46289 149.8418 A 26.752001 26.752001 0 0 1 175.43359 149.92773 A 26.752001 26.752001 0 0 1 175.41211 149.99609 A 26.752001 26.752001 0 0 1 175.3418 150.20508 A 26.752001 26.752001 0 0 1 175.25586 150.45312 A 26.752001 26.752001 0 0 1 175.22656 150.53906 A 26.752001 26.752001 0 0 1 175.20508 150.59766 A 26.752001 26.752001 0 0 1 175.12305 150.82617 A 26.752001 26.752001 0 0 1 175.10547 150.87305 A 26.752001 26.752001 0 0 1 175.00781 151.13672 A 26.752001 26.752001 0 0 1 175.00195 151.14453 A 26.752001 26.752001 0 0 1 174.99219 151.16992 A 26.752001 26.752001 0 0 1 174.88477 151.44531 A 26.752001 26.752001 0 0 1 174.85742 151.51172 A 26.752001 26.752001 0 0 1 174.76367 151.74414 A 26.752001 26.752001 0 0 1 174.63867 152.04102 A 26.752001 26.752001 0 0 1 174.51758 152.32422 A 26.752001 26.752001 0 0 1 174.46484 152.44336 A 26.752001 26.752001 0 0 1 174.38086 152.63281 A 26.752001 26.752001 0 0 1 174.3457 152.70898 A 26.752001 26.752001 0 0 1 174.24609 152.92578 A 26.752001 26.752001 0 0 1 174.10742 153.2168 A 26.752001 26.752001 0 0 1 173.96484 153.50586 A 26.752001 26.752001 0 0 1 173.86133 153.71289 A 26.752001 26.752001 0 0 1 173.84766 153.73828 A 26.752001 26.752001 0 0 1 173.79102 153.84961 A 26.752001 26.752001 0 0 1 173.66992 154.08008 A 26.752001 26.752001 0 0 1 173.5625 154.28516 A 26.752001 26.752001 0 0 1 173.51953 154.36523 A 26.752001 26.752001 0 0 1 173.48242 154.43164 A 26.752001 26.752001 0 0 1 173.36328 154.64648 A 26.752001 26.752001 0 0 1 173.33984 154.68945 A 26.752001 26.752001 0 0 1 173.20312 154.92773 A 26.752001 26.752001 0 0 1 173.04102 155.20508 A 26.752001 26.752001 0 0 1 172.87695 155.48242 A 26.752001 26.752001 0 0 1 172.70703 155.75781 A 26.752001 26.752001 0 0 1 172.53516 156.0293 A 26.752001 26.752001 0 0 1 172.35938 156.30078 A 26.752001 26.752001 0 0 1 172.18164 156.56836 A 26.752001 26.752001 0 0 1 172.17578 156.57422 A 26.752001 26.752001 0 0 1 171.99609 156.83398 A 26.752001 26.752001 0 0 1 171.86328 157.02539 A 26.752001 26.752001 0 0 1 171.75586 157.17578 A 26.752001 26.752001 0 0 1 171.62305 157.35938 A 26.752001 26.752001 0 0 1 171.43164 157.62109 A 26.752001 26.752001 0 0 1 171.37305 157.69727 A 26.752001 26.752001 0 0 1 171.29102 157.80664 A 26.752001 26.752001 0 0 1 171.09375 158.06055 A 26.752001 26.752001 0 0 1 171.03906 158.13086 A 26.752001 26.752001 0 0 1 171.0332 158.13281 A 26.752001 26.752001 0 0 1 170.83398 158.38281 A 26.752001 26.752001 0 0 1 170.63086 158.63086 A 26.752001 26.752001 0 0 1 170.63086 158.63477 A 26.752001 26.752001 0 0 1 170.62695 158.63672 A 26.752001 26.752001 0 0 1 170.42188 158.88086 A 26.752001 26.752001 0 0 1 170.21289 159.125 A 26.752001 26.752001 0 0 1 170 159.36719 A 26.752001 26.752001 0 0 1 169.78516 159.60742 A 26.752001 26.752001 0 0 1 169.56445 159.84375 A 26.752001 26.752001 0 0 1 169.34375 160.08008 A 26.752001 26.752001 0 0 1 169.30859 160.11719 A 26.752001 26.752001 0 0 1 168.89258 160.54102 A 26.752001 26.752001 0 0 1 168.66406 160.76562 A 26.752001 26.752001 0 0 1 168.43164 160.99023 A 26.752001 26.752001 0 0 1 168.23047 161.17773 A 26.752001 26.752001 0 0 1 168.16016 161.24414 A 26.752001 26.752001 0 0 1 167.95703 161.42773 A 26.752001 26.752001 0 0 1 167.78516 161.58398 A 26.752001 26.752001 0 0 1 167.75195 161.61133 A 26.752001 26.752001 0 0 1 167.69336 161.66406 A 26.752001 26.752001 0 0 1 167.47461 161.85547 A 26.752001 26.752001 0 0 1 167.22852 162.06445 A 26.752001 26.752001 0 0 1 166.98047 162.27148 A 26.752001 26.752001 0 0 1 166.72852 162.47461 A 26.752001 26.752001 0 0 1 166.47656 162.67383 A 26.752001 26.752001 0 0 1 166.2207 162.87109 A 26.752001 26.752001 0 0 1 166.18359 162.90039 A 26.752001 26.752001 0 0 1 165.96289 163.06445 A 26.752001 26.752001 0 0 1 165.7168 163.24609 A 26.752001 26.752001 0 0 1 165.64453 163.29883 A 26.752001 26.752001 0 0 1 165.44141 163.44336 A 26.752001 26.752001 0 0 1 165.17578 163.62695 A 26.752001 26.752001 0 0 1 164.91016 163.80859 A 26.752001 26.752001 0 0 1 164.8457 163.85156 A 26.752001 26.752001 0 0 1 164.64062 163.98828 A 26.752001 26.752001 0 0 1 164.52148 164.06445 A 26.752001 26.752001 0 0 1 164.36914 164.16211 A 26.752001 26.752001 0 0 1 164.09766 164.33398 A 26.752001 26.752001 0 0 1 163.82227 164.50195 A 26.752001 26.752001 0 0 1 163.71875 164.5625 A 26.752001 26.752001 0 0 1 163.54688 164.66602 A 26.752001 26.752001 0 0 1 163.53906 164.66797 A 26.752001 26.752001 0 0 1 163.26562 164.82617 A 26.752001 26.752001 0 0 1 163 164.97656 A 26.752001 26.752001 0 0 1 162.98242 164.98633 A 26.752001 26.752001 0 0 1 162.92578 165.01758 A 26.752001 26.752001 0 0 1 162.70117 165.14062 A 26.752001 26.752001 0 0 1 162.60156 165.19336 A 26.752001 26.752001 0 0 1 162.41602 165.29297 A 26.752001 26.752001 0 0 1 162.30078 165.35156 A 26.752001 26.752001 0 0 1 162.20898 165.39844 A 26.752001 26.752001 0 0 1 162.12891 165.43945 A 26.752001 26.752001 0 0 1 161.83984 165.58398 A 26.752001 26.752001 0 0 1 161.55078 165.72461 A 26.752001 26.752001 0 0 1 161.25781 165.86328 A 26.752001 26.752001 0 0 1 160.96484 165.99609 A 26.752001 26.752001 0 0 1 160.73242 166.09961 A 26.752001 26.752001 0 0 1 160.50391 166.19727 A 26.752001 26.752001 0 0 1 160.37305 166.25391 A 26.752001 26.752001 0 0 1 160.32422 166.27344 A 26.752001 26.752001 0 0 1 160.07617 166.37695 A 26.752001 26.752001 0 0 1 159.77539 166.49609 A 26.752001 26.752001 0 0 1 159.66211 166.54102 A 26.752001 26.752001 0 0 1 159.47461 166.61328 A 26.752001 26.752001 0 0 1 159.44922 166.62305 A 26.752001 26.752001 0 0 1 158.86914 166.83398 A 26.752001 26.752001 0 0 1 158.57031 166.93555 A 26.752001 26.752001 0 0 1 158.55469 166.94141 A 26.752001 26.752001 0 0 1 157.95117 167.13672 A 26.752001 26.752001 0 0 1 157.65039 167.22852 A 26.752001 26.752001 0 0 1 157.64062 167.23047 A 26.752001 26.752001 0 0 1 157.61133 167.24023 A 26.752001 26.752001 0 0 1 157.33203 167.32227 A 26.752001 26.752001 0 0 1 157.23828 167.34766 A 26.752001 26.752001 0 0 1 157.05078 167.39844 A 26.752001 26.752001 0 0 1 156.96875 167.42188 A 26.752001 26.752001 0 0 1 156.70898 167.49023 A 26.752001 26.752001 0 0 1 155.76758 167.7168 A 26.752001 26.752001 0 0 1 155.47852 167.7793 A 26.752001 26.752001 0 0 1 155.36914 167.80078 A 26.752001 26.752001 0 0 1 155.16016 167.8418 A 26.752001 26.752001 0 0 1 155.08789 167.85742 A 26.752001 26.752001 0 0 1 154.84766 167.90234 A 26.752001 26.752001 0 0 1 154.74805 167.91992 A 26.752001 26.752001 0 0 1 154.5918 167.94727 A 26.752001 26.752001 0 0 1 154.50195 167.96289 A 26.752001 26.752001 0 0 1 154.19922 168.01367 A 26.752001 26.752001 0 0 1 154.13867 168.02344 A 26.752001 26.752001 0 0 1 153.89258 168.06055 A 26.752001 26.752001 0 0 1 153.79102 168.07422 A 26.752001 26.752001 0 0 1 153.54492 168.10938 A 26.752001 26.752001 0 0 1 153.22656 168.14844 A 26.752001 26.752001 0 0 1 152.92969 168.18555 A 26.752001 26.752001 0 0 1 152.90625 168.1875 A 26.752001 26.752001 0 0 1 152.81445 168.19727 A 26.752001 26.752001 0 0 1 152.58594 168.21875 A 26.752001 26.752001 0 0 1 151.95703 168.27344 A 26.752001 26.752001 0 0 1 151.9043 168.27539 A 26.752001 26.752001 0 0 1 151.64648 168.29297 A 26.752001 26.752001 0 0 1 151.54883 168.29883 A 26.752001 26.752001 0 0 1 151.3125 168.31055 A 26.752001 26.752001 0 0 1 151.27344 168.3125 A 26.752001 26.752001 0 0 1 151 168.32422 A 26.752001 26.752001 0 0 1 150.91602 168.32812 A 26.752001 26.752001 0 0 1 150.6875 168.33398 A 26.752001 26.752001 0 0 1 150.55273 168.33594 A 26.752001 26.752001 0 0 1 150.33203 168.33984 A 26.752001 26.752001 0 0 1 150.28125 168.33984 A 26.752001 26.752001 0 0 1 150.00977 168.3418 A 26.752001 26.752001 0 0 1 149.87695 168.3418 A 26.752001 26.752001 0 0 1 149.59766 168.33789 A 26.752001 26.752001 0 0 1 149.36523 168.33398 A 26.752001 26.752001 0 0 1 149.32812 168.33398 A 26.752001 26.752001 0 0 1 149.04297 168.32422 A 26.752001 26.752001 0 0 1 149.01758 168.32422 A 26.752001 26.752001 0 0 1 148.76172 168.3125 A 26.752001 26.752001 0 0 1 148.70117 168.31055 A 26.752001 26.752001 0 0 1 148.49414 168.29883 A 26.752001 26.752001 0 0 1 148.36719 168.29297 A 26.752001 26.752001 0 0 1 148.14844 168.2793 A 26.752001 26.752001 0 0 1 148.03711 168.26953 A 26.752001 26.752001 0 0 1 147.93945 168.26172 A 26.752001 26.752001 0 0 1 147.3457 168.20898 A 26.752001 26.752001 0 0 1 146.70508 168.13672 A 26.752001 26.752001 0 0 1 146.38477 168.0957 A 26.752001 26.752001 0 0 1 146.1543 168.0625 A 26.752001 26.752001 0 0 1 146.11133 168.05664 A 26.752001 26.752001 0 0 1 145.92969 168.0293 A 26.752001 26.752001 0 0 1 145.80469 168.00977 A 26.752001 26.752001 0 0 1 145.56445 167.96875 A 26.752001 26.752001 0 0 1 145.49219 167.95703 A 26.752001 26.752001 0 0 1 145.29883 167.92383 A 26.752001 26.752001 0 0 1 145.16797 167.90039 A 26.752001 26.752001 0 0 1 144.96094 167.86133 A 26.752001 26.752001 0 0 1 144.83594 167.83594 A 26.752001 26.752001 0 0 1 144.69336 167.80859 A 26.752001 26.752001 0 0 1 144.5332 167.77539 A 26.752001 26.752001 0 0 1 144.33008 167.73242 A 26.752001 26.752001 0 0 1 144.20117 167.70508 A 26.752001 26.752001 0 0 1 144.125 167.6875 A 26.752001 26.752001 0 0 1 143.84766 167.62305 A 26.752001 26.752001 0 0 1 143.24609 167.47266 A 26.752001 26.752001 0 0 1 143.14844 167.44727 A 26.752001 26.752001 0 0 1 142.92188 167.38672 A 26.752001 26.752001 0 0 1 142.89453 167.37891 A 26.752001 26.752001 0 0 1 142.60547 167.29688 A 26.752001 26.752001 0 0 1 142.58789 167.29102 A 26.752001 26.752001 0 0 1 142.29102 167.20508 A 26.752001 26.752001 0 0 1 141.69922 167.01953 A 26.752001 26.752001 0 0 1 141.57422 166.97656 A 26.752001 26.752001 0 0 1 141.37109 166.9082 A 26.752001 26.752001 0 0 1 141.07422 166.80664 A 26.752001 26.752001 0 0 1 141.03125 166.79102 A 26.752001 26.752001 0 0 1 140.76172 166.69336 A 26.752001 26.752001 0 0 1 140.46094 166.58008 A 26.752001 26.752001 0 0 1 140.16016 166.46289 A 26.752001 26.752001 0 0 1 139.86133 166.3418 A 26.752001 26.752001 0 0 1 139.5625 166.2168 A 26.752001 26.752001 0 0 1 139.26758 166.08984 A 26.752001 26.752001 0 0 1 138.97266 165.95898 A 26.752001 26.752001 0 0 1 138.75977 165.86133 A 26.752001 26.752001 0 0 1 138.70312 165.83594 A 26.752001 26.752001 0 0 1 138.62109 165.79688 A 26.752001 26.752001 0 0 1 138.38867 165.68555 A 26.752001 26.752001 0 0 1 138.11914 165.55469 A 26.752001 26.752001 0 0 1 138.01953 165.50391 A 26.752001 26.752001 0 0 1 137.81055 165.39844 A 26.752001 26.752001 0 0 1 137.52539 165.25 A 26.752001 26.752001 0 0 1 137.24023 165.09766 A 26.752001 26.752001 0 0 1 136.95703 164.94141 A 26.752001 26.752001 0 0 1 136.67773 164.7832 A 26.752001 26.752001 0 0 1 136.47461 164.66602 A 26.752001 26.752001 0 0 1 136.45898 164.65625 A 26.752001 26.752001 0 0 1 136.32422 164.57422 A 26.752001 26.752001 0 0 1 136.12109 164.45312 A 26.752001 26.752001 0 0 1 135.84766 164.28516 A 26.752001 26.752001 0 0 1 135.57422 164.11133 A 26.752001 26.752001 0 0 1 135.30469 163.9375 A 26.752001 26.752001 0 0 1 135.03516 163.75781 A 26.752001 26.752001 0 0 1 134.8418 163.62695 A 26.752001 26.752001 0 0 1 134.79102 163.58984 A 26.752001 26.752001 0 0 1 134.73438 163.55078 A 26.752001 26.752001 0 0 1 134.50586 163.39062 A 26.752001 26.752001 0 0 1 134.31641 163.25391 A 26.752001 26.752001 0 0 1 134.25 163.20703 A 26.752001 26.752001 0 0 1 134.23242 163.19336 A 26.752001 26.752001 0 0 1 133.98438 163.00977 A 26.752001 26.752001 0 0 1 133.73047 162.81641 A 26.752001 26.752001 0 0 1 133.71875 162.80859 A 26.752001 26.752001 0 0 1 133.49219 162.63477 A 26.752001 26.752001 0 0 1 133.43945 162.5918 A 26.752001 26.752001 0 0 1 133.2207 162.41797 A 26.752001 26.752001 0 0 1 133.03906 162.26953 A 26.752001 26.752001 0 0 1 132.98242 162.22461 A 26.752001 26.752001 0 0 1 132.94336 162.19141 A 26.752001 26.752001 0 0 1 132.72266 162.00586 A 26.752001 26.752001 0 0 1 132.48047 161.79883 A 26.752001 26.752001 0 0 1 132.4668 161.78711 A 26.752001 26.752001 0 0 1 132.25781 161.60352 A 26.752001 26.752001 0 0 1 132.18945 161.54297 A 26.752001 26.752001 0 0 1 131.99805 161.36914 A 26.752001 26.752001 0 0 1 131.98828 161.36133 A 26.752001 26.752001 0 0 1 131.76758 161.15625 A 26.752001 26.752001 0 0 1 131.74609 161.13672 A 26.752001 26.752001 0 0 1 131.52344 160.92773 A 26.752001 26.752001 0 0 1 131.29102 160.70312 A 26.752001 26.752001 0 0 1 131.12695 160.53906 A 26.752001 26.752001 0 0 1 131.08398 160.49805 A 26.752001 26.752001 0 0 1 131.03125 160.44336 A 26.752001 26.752001 0 0 1 130.83594 160.24609 A 26.752001 26.752001 0 0 1 130.61328 160.01367 A 26.752001 26.752001 0 0 1 130.39258 159.77734 A 26.752001 26.752001 0 0 1 130.23438 159.60742 A 26.752001 26.752001 0 0 1 130.18164 159.54688 A 26.752001 26.752001 0 0 1 130.16211 159.52539 A 26.752001 26.752001 0 0 1 129.95898 159.29883 A 26.752001 26.752001 0 0 1 129.80664 159.125 A 26.752001 26.752001 0 0 1 129.79492 159.11133 A 26.752001 26.752001 0 0 1 129.68555 158.98438 A 26.752001 26.752001 0 0 1 129.53906 158.81055 A 26.752001 26.752001 0 0 1 129.33203 158.5625 A 26.752001 26.752001 0 0 1 129.18555 158.38281 A 26.752001 26.752001 0 0 1 129.14648 158.33203 A 26.752001 26.752001 0 0 1 128.98438 158.12891 A 26.752001 26.752001 0 0 1 128.83984 157.94336 A 26.752001 26.752001 0 0 1 128.73242 157.80469 A 26.752001 26.752001 0 0 1 128.72852 157.80273 A 26.752001 26.752001 0 0 1 128.53711 157.54688 A 26.752001 26.752001 0 0 1 128.39844 157.35938 A 26.752001 26.752001 0 0 1 128.37891 157.33203 A 26.752001 26.752001 0 0 1 128.29492 157.21484 A 26.752001 26.752001 0 0 1 128.16797 157.03906 A 26.752001 26.752001 0 0 1 128.13867 156.99609 A 26.752001 26.752001 0 0 1 127.97266 156.75977 A 26.752001 26.752001 0 0 1 127.8418 156.56641 A 26.752001 26.752001 0 0 1 127.79297 156.49219 A 26.752001 26.752001 0 0 1 127.66211 156.29883 A 26.752001 26.752001 0 0 1 127.625 156.23828 A 26.752001 26.752001 0 0 1 127.58984 156.18555 A 26.752001 26.752001 0 0 1 127.43945 155.95312 A 26.752001 26.752001 0 0 1 127.26953 155.67969 A 26.752001 26.752001 0 0 1 127.14648 155.48047 A 26.752001 26.752001 0 0 1 127.11328 155.42383 A 26.752001 26.752001 0 0 1 127.08203 155.37305 A 26.752001 26.752001 0 0 1 126.94336 155.13867 A 26.752001 26.752001 0 0 1 126.9043 155.07617 A 26.752001 26.752001 0 0 1 126.78516 154.86719 A 26.752001 26.752001 0 0 1 126.75586 154.81641 A 26.752001 26.752001 0 0 1 126.61523 154.56641 A 26.752001 26.752001 0 0 1 126.46094 154.28516 A 26.752001 26.752001 0 0 1 126.31055 153.99805 A 26.752001 26.752001 0 0 1 126.20312 153.79297 A 26.752001 26.752001 0 0 1 126.18359 153.75586 A 26.752001 26.752001 0 0 1 126.13672 153.66211 A 26.752001 26.752001 0 0 1 126.01758 153.42383 A 26.752001 26.752001 0 0 1 125.87695 153.13477 A 26.752001 26.752001 0 0 1 125.74023 152.8418 A 26.752001 26.752001 0 0 1 125.61133 152.5625 A 26.752001 26.752001 0 0 1 125.58398 152.50195 A 26.752001 26.752001 0 0 1 125.48633 152.27734 A 26.752001 26.752001 0 0 1 125.45508 152.20508 A 26.752001 26.752001 0 0 1 125.34766 151.95703 A 26.752001 26.752001 0 0 1 125.22461 151.6582 A 26.752001 26.752001 0 0 1 125.10547 151.35938 A 26.752001 26.752001 0 0 1 124.99023 151.05859 A 26.752001 26.752001 0 0 1 124.9082 150.83984 A 26.752001 26.752001 0 0 1 124.88867 150.78711 A 26.752001 26.752001 0 0 1 124.86133 150.70898 A 26.752001 26.752001 0 0 1 124.76758 150.45312 A 26.752001 26.752001 0 0 1 124.69141 150.23242 A 26.752001 26.752001 0 0 1 124.67969 150.19727 A 26.752001 26.752001 0 0 1 124.64453 150.08789 A 26.752001 26.752001 0 0 1 124.5625 149.8418 A 26.752001 26.752001 0 0 1 124.49219 149.61914 A 26.752001 26.752001 0 0 1 124.48633 149.60156 A 26.752001 26.752001 0 0 1 124.44531 149.4668 A 26.752001 26.752001 0 0 1 124.37109 149.22461 A 26.752001 26.752001 0 0 1 124.28125 148.91602 A 26.752001 26.752001 0 0 1 124.21875 148.69141 A 26.752001 26.752001 0 0 1 124.20703 148.65039 A 26.752001 26.752001 0 0 1 124.16406 148.48633 A 26.752001 26.752001 0 0 1 124.11719 148.3125 A 26.752001 26.752001 0 0 1 124.10547 148.27344 A 26.752001 26.752001 0 0 1 124.0332 147.98047 A 26.752001 26.752001 0 0 1 123.95898 147.66602 A 26.752001 26.752001 0 0 1 123.88867 147.36133 A 26.752001 26.752001 0 0 1 123.87891 147.32422 A 26.752001 26.752001 0 0 1 123.82422 147.06641 A 26.752001 26.752001 0 0 1 123.79297 146.9082 A 26.752001 26.752001 0 0 1 123.76367 146.76758 A 26.752001 26.752001 0 0 1 123.74219 146.65234 A 26.752001 26.752001 0 0 1 123.69727 146.41797 A 26.752001 26.752001 0 0 1 123.68359 146.34961 A 26.752001 26.752001 0 0 1 123.64258 146.10742 A 26.752001 26.752001 0 0 1 123.63086 146.03906 A 26.752001 26.752001 0 0 1 123.58984 145.79688 A 26.752001 26.752001 0 0 1 123.57227 145.67188 A 26.752001 26.752001 0 0 1 123.54297 145.49219 A 26.752001 26.752001 0 0 1 123.52148 145.33594 A 26.752001 26.752001 0 0 1 123.49609 145.15039 A 26.752001 26.752001 0 0 1 123.48633 145.08398 A 26.752001 26.752001 0 0 1 123.45117 144.80859 A 26.752001 26.752001 0 0 1 123.38281 144.18164 A 26.752001 26.752001 0 0 1 123.37891 144.125 A 26.752001 26.752001 0 0 1 123.35352 143.8457 A 26.752001 26.752001 0 0 1 123.32812 143.54297 A 26.752001 26.752001 0 0 1 123.32422 143.47266 A 26.752001 26.752001 0 0 1 123.30859 143.22852 A 26.752001 26.752001 0 0 1 123.30078 143.12109 A 26.752001 26.752001 0 0 1 123.28906 142.90234 A 26.752001 26.752001 0 0 1 123.28516 142.83984 A 26.752001 26.752001 0 0 1 123.27344 142.58398 A 26.752001 26.752001 0 0 1 123.26758 142.48633 A 26.752001 26.752001 0 0 1 123.25977 142.23633 A 26.752001 26.752001 0 0 1 123.25977 142.13281 A 26.752001 26.752001 0 0 1 123.25586 141.93945 A 26.752001 26.752001 0 0 1 123.25586 141.86133 A 26.752001 26.752001 0 0 1 123.25586 141.5918 A 26.752001 26.752001 0 0 1 123.32422 139.6582 A 26.752001 26.752001 0 0 0 123.32422 139.65625 A 26.752001 26.752001 0 0 1 123.32422 139.63477 A 26.752001 26.752001 0 0 1 123.37695 139.01367 A 26.752001 26.752001 0 0 1 123.41016 138.69336 A 26.752001 26.752001 0 0 1 123.44727 138.37305 A 26.752001 26.752001 0 0 1 123.5332 137.73438 A 26.752001 26.752001 0 0 1 123.88086 135.83008 A 26.752001 26.752001 0 0 1 124.10547 134.88867 A 26.752001 26.752001 0 0 1 124.27539 134.26758 A 26.752001 26.752001 0 0 0 124.27539 134.26562 A 26.752001 26.752001 0 0 1 124.45898 133.64844 A 26.752001 26.752001 0 0 1 124.6582 133.03516 A 26.752001 26.752001 0 0 1 125.09961 131.82422 A 26.752001 26.752001 0 0 0 125.09961 131.82227 A 26.752001 26.752001 0 0 1 125.59961 130.63477 A 26.752001 26.752001 0 0 0 125.59961 130.63281 A 26.752001 26.752001 0 0 1 125.87109 130.04883 A 26.752001 26.752001 0 0 1 125.93945 129.9082 A 26.752001 26.752001 0 0 1 126.01172 129.75781 A 26.752001 26.752001 0 0 1 126.15625 129.4707 A 26.752001 26.752001 0 0 1 126.45508 128.89844 A 26.752001 26.752001 0 0 1 126.60938 128.61719 A 26.752001 26.752001 0 0 0 126.60938 128.61523 A 26.752001 26.752001 0 0 1 126.92969 128.05469 A 26.752001 26.752001 0 0 1 127.19922 127.60742 A 26.752001 26.752001 0 0 1 127.26172 127.50391 A 26.752001 26.752001 0 0 0 127.26172 127.50195 A 26.752001 26.752001 0 0 1 127.43359 127.23047 A 26.752001 26.752001 0 0 1 127.71484 126.79688 A 26.752001 26.752001 0 0 1 127.78711 126.68945 A 26.752001 26.752001 0 0 1 128.15234 126.1582 A 26.752001 26.752001 0 0 1 128.44922 125.74609 A 26.752001 26.752001 0 0 1 128.53125 125.63672 A 26.752001 26.752001 0 0 0 128.53125 125.63477 A 26.752001 26.752001 0 0 1 128.61523 125.52539 A 26.752001 26.752001 0 0 1 128.92188 125.12305 A 26.752001 26.752001 0 0 1 129.12109 124.87109 A 26.752001 26.752001 0 0 0 129.12109 124.86914 A 26.752001 26.752001 0 0 1 129.74023 124.12695 A 26.752001 26.752001 0 0 0 129.74023 124.125 A 26.752001 26.752001 0 0 1 129.95117 123.88281 A 26.752001 26.752001 0 0 1 130.14453 123.66797 A 26.752001 26.752001 0 0 1 130.16797 123.64258 A 26.752001 26.752001 0 0 1 130.83008 122.9375 A 26.752001 26.752001 0 0 0 130.83008 122.93555 A 26.752001 26.752001 0 0 1 130.94141 122.82422 A 26.752001 26.752001 0 0 1 131.05664 122.70703 A 26.752001 26.752001 0 0 1 131.28516 122.48047 A 26.752001 26.752001 0 0 1 131.51562 122.25586 A 26.752001 26.752001 0 0 1 131.98633 121.81641 A 26.752001 26.752001 0 0 1 132.22656 121.59961 A 26.752001 26.752001 0 0 1 132.96094 120.9707 A 26.752001 26.752001 0 0 0 132.96094 120.96875 A 26.752001 26.752001 0 0 1 133.46289 120.56641 A 26.752001 26.752001 0 0 1 133.86328 120.25586 A 26.752001 26.752001 0 0 1 134.23438 119.98047 A 26.752001 26.752001 0 0 1 134.49414 119.79297 A 26.752001 26.752001 0 0 1 134.60352 119.7168 A 26.752001 26.752001 0 0 1 135.02539 119.42578 A 26.752001 26.752001 0 0 1 135.56445 119.07031 A 26.752001 26.752001 0 0 1 135.83594 118.89648 A 26.752001 26.752001 0 0 1 136.11133 118.72852 A 26.752001 26.752001 0 0 1 136.66602 118.40039 A 26.752001 26.752001 0 0 1 137.23047 118.08594 A 26.752001 26.752001 0 0 1 137.80078 117.78516 A 26.752001 26.752001 0 0 1 138.08789 117.63867 A 26.752001 26.752001 0 0 1 138.66797 117.35938 A 26.752001 26.752001 0 0 1 140.14844 116.7207 A 26.752001 26.752001 0 0 1 140.83203 116.46094 A 26.752001 26.752001 0 0 1 141.28125 116.30078 A 26.752001 26.752001 0 0 1 141.43555 116.24805 A 26.752001 26.752001 0 0 1 141.97266 116.07422 A 26.752001 26.752001 0 0 1 142.90039 115.79883 A 26.752001 26.752001 0 0 1 144.15234 115.48633 A 26.752001 26.752001 0 0 1 144.7832 115.35352 A 26.752001 26.752001 0 0 1 145.41797 115.23633 A 26.752001 26.752001 0 0 1 146.05469 115.13281 A 26.752001 26.752001 0 0 1 148.29883 114.89453 A 26.752001 26.752001 0 0 1 148.62109 114.875 A 26.752001 26.752001 0 0 1 149.25391 114.84961 A 26.752001 26.752001 0 0 1 149.91016 114.83984 z M 82.214844 153.36328 L 85.335938 153.36328 C 86.693393 154.37732 91.114954 155.68274 97.199219 155.71094 C 103.28349 155.68276 107.70699 154.37732 109.06445 153.36328 L 112.18555 153.36328 C 114.27714 153.36328 116.26151 153.717 118.11523 154.33594 C 119.83948 158.64505 122.40885 162.61782 125.69141 165.90039 C 125.91801 166.12696 126.17132 166.32513 126.4043 166.54492 C 117.54617 167.46218 110.00906 171.89157 104.65234 177.51172 C 101.68261 180.62747 99.263762 184.0969 97.570312 187.7832 L 97.199219 187.7832 L 83.058594 187.7832 L 68.916016 187.7832 C 65.309721 187.77497 62.011 184.09797 62 181.24219 L 62 176.83008 L 62 172.41992 C 62 164.38857 70.458154 153.36328 82.214844 153.36328 z M 187.81445 153.36328 L 190.93555 153.36328 C 192.293 154.37732 196.71652 155.68274 202.80078 155.71094 C 208.88505 155.68276 213.3066 154.37732 214.66406 153.36328 L 217.78711 153.36328 C 229.5438 153.36328 238 164.38857 238 172.41992 L 238 176.83008 L 238 181.24219 C 237.98895 184.09797 234.69027 187.7752 231.08398 187.7832 L 216.94141 187.7832 L 202.80078 187.7832 L 202.43164 187.7832 C 200.73819 184.0969 198.31933 180.62747 195.34961 177.51172 C 189.99288 171.89157 182.45384 167.46218 173.5957 166.54492 C 173.82868 166.32513 174.08205 166.12696 174.30859 165.90039 C 177.59116 162.61782 180.16052 158.64505 181.88477 154.33594 C 183.73849 153.717 185.72285 153.36328 187.81445 153.36328 z M 133.98633 173.97461 C 134.21541 174.14573 134.50864 174.32271 134.86328 174.50195 C 135.39524 174.77081 136.06372 175.04471 136.85742 175.30859 C 137.12203 175.39655 137.40159 175.48501 137.69336 175.57031 C 138.27697 175.741 138.9145 175.90457 139.60156 176.05859 C 140.6321 176.28963 141.77518 176.49766 143.01758 176.66797 C 143.84582 176.7815 144.71764 176.87888 145.63086 176.95508 C 146.52483 177.02974 147.4574 177.08228 148.42578 177.11328 C 148.44638 177.11328 148.46738 177.11664 148.48828 177.11719 C 148.984 177.13249 149.48825 177.14058 150.00195 177.14258 C 150.51532 177.14028 151.02024 177.13249 151.51562 177.11719 C 152.50634 177.08655 153.45983 177.02933 154.37305 176.95312 C 155.28589 176.87692 156.15831 176.78146 156.98633 176.66797 C 158.22884 176.49766 159.37175 176.28963 160.40234 176.05859 C 161.08945 175.90457 161.72683 175.74099 162.31055 175.57031 C 162.60238 175.48496 162.87992 175.39659 163.14453 175.30859 C 163.93834 175.0447 164.60666 174.7708 165.13867 174.50195 C 165.49337 174.32271 165.7885 174.14573 166.01758 173.97461 L 170.23242 173.97461 C 174.20029 173.97461 177.88916 174.90591 181.19141 176.4707 C 185.31889 178.42671 188.84169 181.37324 191.54688 184.73438 C 192.08796 185.40662 192.59632 186.09614 193.07031 186.79688 C 193.78124 187.84802 194.4144 188.92637 194.96484 190.01562 C 195.3318 190.74179 195.66173 191.47159 195.95312 192.20312 C 196.09893 192.56922 196.23511 192.93508 196.36133 193.30078 C 196.73979 194.39694 197.02964 195.48863 197.22461 196.56055 C 197.4197 197.63282 197.51953 198.68438 197.51953 199.70117 L 197.51953 205.65625 L 197.51953 211.60938 C 197.51843 211.85033 197.49944 212.09561 197.46484 212.34375 C 197.39559 212.8397 197.26037 213.34858 197.06836 213.85547 C 195.91507 216.89885 192.69047 219.92595 189.08984 220.38086 C 188.78981 220.41876 188.48785 220.4389 188.18359 220.43945 L 169.0918 220.43945 L 150 220.43945 L 130.9082 220.43945 L 111.81641 220.43945 C 111.66461 220.43915 111.51219 220.43383 111.36133 220.42383 C 108.79107 220.25664 106.37472 218.74558 104.71289 216.79883 C 104.51759 216.56998 104.33167 216.3351 104.1582 216.0957 C 104.1582 216.0957 104.1582 216.09375 104.1582 216.09375 C 103.63763 215.37511 103.21995 214.61601 102.93164 213.85547 C 102.73963 213.34857 102.60436 212.83971 102.53516 212.34375 C 102.50046 212.09562 102.48047 211.85034 102.48047 211.60938 L 102.48047 205.65625 L 102.48047 199.70117 C 102.48047 199.02318 102.52568 198.32996 102.61328 197.625 C 102.65701 197.27305 102.71049 196.91945 102.77539 196.5625 C 102.77539 196.5625 102.77539 196.56055 102.77539 196.56055 C 102.97036 195.48864 103.26021 194.3989 103.63867 193.30273 C 103.76489 192.93703 103.90108 192.56921 104.04688 192.20312 C 104.19257 191.83735 104.34694 191.47242 104.51172 191.10742 C 105.17089 189.64737 105.98177 188.19841 106.92969 186.79688 C 107.40368 186.09614 107.91204 185.40662 108.45312 184.73438 C 108.99432 184.0619 109.56888 183.40619 110.17383 182.77148 C 110.47622 182.45422 110.78584 182.14398 111.10352 181.83789 C 112.37402 180.61367 113.76569 179.48185 115.26367 178.48242 C 115.63828 178.23254 116.0185 177.99271 116.40625 177.75977 C 117.18142 177.29404 117.98331 176.8618 118.80859 176.4707 C 119.22136 176.27511 119.64176 176.08924 120.06641 175.91406 C 123.03911 174.68771 126.29766 173.97656 129.76953 173.97656 L 133.98633 173.97461 z " />
  </g>
</svg>
