<?xml version="1.0" encoding="UTF-8" standalone="no"?>
<svg
   xmlns:dc="http://purl.org/dc/elements/1.1/"
   xmlns:cc="http://creativecommons.org/ns#"
   xmlns:rdf="http://www.w3.org/1999/02/22-rdf-syntax-ns#"
   xmlns:svg="http://www.w3.org/2000/svg"
   xmlns="http://www.w3.org/2000/svg"
   xmlns:sodipodi="http://sodipodi.sourceforge.net/DTD/sodipodi-0.dtd"
   xmlns:inkscape="http://www.inkscape.org/namespaces/inkscape"
   width="300"
   height="300"
   viewBox="0 0 300 300"
   version="1.1"
   id="svg8"
   inkscape:version="1.0.1 (3bc2e813f5, 2020-09-07)"
   sodipodi:docname="folder-share.svg">
  <defs
     id="defs2">
    <inkscape:path-effect
       effect="fillet_chamfer"
       id="path-effect975"
       is_visible="true"
       lpeversion="1"
       satellites_param="F,0,0,1,0,5,0,1 @ F,0,0,1,0,5,0,1 @ F,0,0,1,0,15,0,1 @ F,0,0,1,0,15,0,1 @ F,0,0,1,0,15,0,1 @ F,0,0,1,0,5,0,1 @ F,0,0,1,0,5,0,1"
       unit="px"
       method="auto"
       mode="F"
       radius="0"
       chamfer_steps="1"
       flexible="false"
       use_knot_distance="true"
       apply_no_radius="true"
       apply_with_radius="true"
       only_selected="false"
       hide_knots="false" />
  </defs>
  <sodipodi:namedview
     id="base"
     pagecolor="#ffffff"
     bordercolor="#666666"
     borderopacity="1.0"
     inkscape:pageopacity="0.0"
     inkscape:pageshadow="2"
     inkscape:zoom="2"
     inkscape:cx="150"
     inkscape:cy="150"
     inkscape:document-units="px"
     inkscape:current-layer="layer1"
     inkscape:document-rotation="0"
     showgrid="false"
     units="px"
     inkscape:window-width="2560"
     inkscape:window-height="1377"
     inkscape:window-x="2552"
     inkscape:window-y="-8"
     inkscape:window-maximized="1" />
  <metadata
     id="metadata5">
    <rdf:RDF>
      <cc:Work
         rdf:about="">
        <dc:format>image/svg+xml</dc:format>
        <dc:type
           rdf:resource="http://purl.org/dc/dcmitype/StillImage" />
        <dc:title></dc:title>
      </cc:Work>
    </rdf:RDF>
  </metadata>
  <g
     inkscape:label="Ebene 1"
     inkscape:groupmode="layer"
     id="layer1">
    <path
       id="rect830-57-2"
       style="fill:#000000;stroke-width:28.8541;stop-color:#000000"
       d="M 20 25 A 8.0901699 8.0901699 0 0 0 12.763672 29.472656 L 2.2363281 50.527344 A 21.18034 21.18034 0 0 0 0 60 L 0 260 A 15 15 0 0 0 15 275 L 285 275 A 15 15 0 0 0 300 260 L 300 70 A 15 15 0 0 0 285 55 L 155 55 A 8.0901699 8.0901699 0 0 1 147.76367 50.527344 L 137.23633 29.472656 A 8.0901699 8.0901699 0 0 0 130 25 L 20 25 z M 188.0918 97.5 L 188.08008 97.503906 A 23.364082 23.364082 0 0 1 208.44922 109.1875 A 23.364082 23.364082 0 0 1 199.89844 141.10156 A 23.364082 23.364082 0 0 1 174.11719 139.5 L 134.96094 162.10547 A 23.364082 23.364082 0 0 1 134.97266 162.20703 A 23.364082 23.364082 0 0 1 134.97852 162.23633 A 23.364082 23.364082 0 0 1 135.00586 162.4707 A 23.364082 23.364082 0 0 1 135.01172 162.52734 A 23.364082 23.364082 0 0 1 135.02344 162.63477 A 23.364082 23.364082 0 0 1 135.02734 162.68359 A 23.364082 23.364082 0 0 1 135.05078 162.92578 A 23.364082 23.364082 0 0 1 135.07227 163.19141 A 23.364082 23.364082 0 0 1 135.07812 163.2168 A 23.364082 23.364082 0 0 1 135.0918 163.40234 A 23.364082 23.364082 0 0 1 135.09766 163.50977 A 23.364082 23.364082 0 0 1 135.10938 163.69531 A 23.364082 23.364082 0 0 1 135.10938 163.71484 A 23.364082 23.364082 0 0 1 135.12305 163.98828 A 23.364082 23.364082 0 0 1 135.13086 164.23633 A 23.364082 23.364082 0 0 1 135.13672 164.28125 A 23.364082 23.364082 0 0 1 135.14062 164.38867 A 23.364082 23.364082 0 0 1 135.14648 164.57422 A 23.364082 23.364082 0 0 1 135.14648 164.60156 A 23.364082 23.364082 0 0 1 135.15234 164.75977 A 23.364082 23.364082 0 0 1 135.15234 164.97266 A 23.364082 23.364082 0 0 1 135.15234 165.2207 A 23.364082 23.364082 0 0 1 135.15234 165.26562 A 23.364082 23.364082 0 0 1 135.14648 165.45117 A 23.364082 23.364082 0 0 1 135.14648 165.4668 A 23.364082 23.364082 0 0 1 135.13867 165.74414 A 23.364082 23.364082 0 0 1 135.12695 166.03711 A 23.364082 23.364082 0 0 1 135.11328 166.30664 A 23.364082 23.364082 0 0 1 135.11328 166.33008 A 23.364082 23.364082 0 0 1 135.10938 166.35352 A 23.364082 23.364082 0 0 1 135.09766 166.51953 A 23.364082 23.364082 0 0 1 135.08398 166.72461 A 23.364082 23.364082 0 0 1 135.08398 166.73047 A 23.364082 23.364082 0 0 1 135.08398 166.73633 A 23.364082 23.364082 0 0 1 135.06445 166.97656 A 23.364082 23.364082 0 0 1 135.05859 167.02148 A 23.364082 23.364082 0 0 1 135.04297 167.20703 A 23.364082 23.364082 0 0 1 135.04297 167.22852 A 23.364082 23.364082 0 0 1 135.01562 167.49219 A 23.364082 23.364082 0 0 1 135.01562 167.49805 A 23.364082 23.364082 0 0 1 135.01562 167.50391 A 23.364082 23.364082 0 0 1 134.99219 167.70898 A 23.364082 23.364082 0 0 1 134.97656 167.8418 A 23.364082 23.364082 0 0 1 134.9707 167.89648 L 174.12695 190.50391 A 23.364082 23.364082 0 0 1 199.90625 188.90039 A 23.364082 23.364082 0 0 1 208.45898 220.81641 A 23.364082 23.364082 0 0 1 176.54297 229.36914 A 23.364082 23.364082 0 0 1 165.04102 206.24023 L 125.88477 183.63281 A 23.364082 23.364082 0 0 1 125.7793 183.71289 A 23.364082 23.364082 0 0 1 125.72656 183.75 A 23.364082 23.364082 0 0 1 125.58789 183.85352 A 23.364082 23.364082 0 0 1 125.54297 183.88672 A 23.364082 23.364082 0 0 1 125.43359 183.96484 A 23.364082 23.364082 0 0 1 125.19531 184.13477 A 23.364082 23.364082 0 0 1 124.95508 184.30078 A 23.364082 23.364082 0 0 1 124.82422 184.39062 A 23.364082 23.364082 0 0 1 124.71289 184.46484 A 23.364082 23.364082 0 0 1 124.66406 184.49805 A 23.364082 23.364082 0 0 1 124.4668 184.625 A 23.364082 23.364082 0 0 1 124.22461 184.7793 A 23.364082 23.364082 0 0 1 124.21875 184.78516 A 23.364082 23.364082 0 0 1 124.21094 184.78906 A 23.364082 23.364082 0 0 1 123.9707 184.9375 A 23.364082 23.364082 0 0 1 123.7207 185.08984 A 23.364082 23.364082 0 0 1 123.46875 185.23633 A 23.364082 23.364082 0 0 1 123.39062 185.28125 A 23.364082 23.364082 0 0 1 123.33203 185.31445 A 23.364082 23.364082 0 0 1 123.30078 185.33203 A 23.364082 23.364082 0 0 1 123.07617 185.45898 A 23.364082 23.364082 0 0 1 123.04883 185.47266 A 23.364082 23.364082 0 0 1 122.87891 185.56641 A 23.364082 23.364082 0 0 1 122.63867 185.69336 A 23.364082 23.364082 0 0 1 122.61914 185.70508 A 23.364082 23.364082 0 0 1 122.55859 185.73633 A 23.364082 23.364082 0 0 1 122.35938 185.83789 A 23.364082 23.364082 0 0 1 122.09766 185.96875 A 23.364082 23.364082 0 0 1 121.83398 186.09766 A 23.364082 23.364082 0 0 1 121.77344 186.125 A 23.364082 23.364082 0 0 1 121.56836 186.2207 A 23.364082 23.364082 0 0 1 121.50586 186.25 A 23.364082 23.364082 0 0 1 121.30273 186.3418 A 23.364082 23.364082 0 0 1 121.24023 186.36914 A 23.364082 23.364082 0 0 1 121.0332 186.45898 A 23.364082 23.364082 0 0 1 120.76367 186.57227 A 23.364082 23.364082 0 0 1 120.53516 186.66797 A 23.364082 23.364082 0 0 1 120.49219 186.68359 A 23.364082 23.364082 0 0 1 120.42969 186.70898 A 23.364082 23.364082 0 0 1 120.2207 186.79102 A 23.364082 23.364082 0 0 1 120.15625 186.81641 A 23.364082 23.364082 0 0 1 119.94531 186.89453 A 23.364082 23.364082 0 0 1 119.67188 186.99609 A 23.364082 23.364082 0 0 1 119.39453 187.09375 A 23.364082 23.364082 0 0 1 118.83984 187.27734 A 23.364082 23.364082 0 0 1 118.55859 187.36328 A 23.364082 23.364082 0 0 1 118.27734 187.44727 A 23.364082 23.364082 0 0 1 117.99609 187.52539 A 23.364082 23.364082 0 0 1 117.42969 187.67578 A 23.364082 23.364082 0 0 1 117.36523 187.69141 A 23.364082 23.364082 0 0 1 117.14453 187.74414 A 23.364082 23.364082 0 0 1 117.08008 187.75977 A 23.364082 23.364082 0 0 1 116.85938 187.80859 A 23.364082 23.364082 0 0 1 116.57422 187.87109 A 23.364082 23.364082 0 0 1 116.3125 187.92383 A 23.364082 23.364082 0 0 1 116.28711 187.92969 A 23.364082 23.364082 0 0 1 116.2793 187.92969 A 23.364082 23.364082 0 0 1 116.03516 187.97656 A 23.364082 23.364082 0 0 1 115.99805 187.98242 A 23.364082 23.364082 0 0 1 115.93359 187.99414 A 23.364082 23.364082 0 0 1 115.71094 188.0332 A 23.364082 23.364082 0 0 1 115.64453 188.04492 A 23.364082 23.364082 0 0 1 115.60938 188.04883 A 23.364082 23.364082 0 0 1 115.36133 188.08984 A 23.364082 23.364082 0 0 1 115.35547 188.08984 A 23.364082 23.364082 0 0 1 115.33203 188.0957 A 23.364082 23.364082 0 0 1 115.06445 188.13477 A 23.364082 23.364082 0 0 1 114.8418 188.16406 A 23.364082 23.364082 0 0 1 114.5957 188.19727 A 23.364082 23.364082 0 0 1 114.55078 188.20117 A 23.364082 23.364082 0 0 1 114.48438 188.20898 A 23.364082 23.364082 0 0 1 114.39648 188.21875 A 23.364082 23.364082 0 0 1 114.19336 188.24219 A 23.364082 23.364082 0 0 1 113.67578 188.28906 A 23.364082 23.364082 0 0 1 113.38477 188.31055 A 23.364082 23.364082 0 0 1 113.0918 188.33008 A 23.364082 23.364082 0 0 1 112.80469 188.34375 A 23.364082 23.364082 0 0 1 112.79883 188.34375 A 23.364082 23.364082 0 0 1 112.73047 188.34766 A 23.364082 23.364082 0 0 1 112.50586 188.35547 A 23.364082 23.364082 0 0 1 112.43945 188.35547 A 23.364082 23.364082 0 0 1 112.21289 188.36328 A 23.364082 23.364082 0 0 1 111.98828 188.36719 A 23.364082 23.364082 0 0 1 111.92188 188.36719 A 23.364082 23.364082 0 0 1 111.62891 188.36719 A 23.364082 23.364082 0 0 1 111.35547 188.36328 A 23.364082 23.364082 0 0 1 111.33008 188.36328 A 23.364082 23.364082 0 0 1 111.04102 188.35352 A 23.364082 23.364082 0 0 1 110.50391 188.33008 A 23.364082 23.364082 0 0 1 110.42383 188.32617 A 23.364082 23.364082 0 0 1 110.16406 188.30859 A 23.364082 23.364082 0 0 1 109.97852 188.29492 A 23.364082 23.364082 0 0 1 109.80469 188.28125 A 23.364082 23.364082 0 0 1 109.57617 188.26172 A 23.364082 23.364082 0 0 1 109.31836 188.23438 A 23.364082 23.364082 0 0 1 109.2793 188.22852 A 23.364082 23.364082 0 0 1 108.70703 188.16016 A 23.364082 23.364082 0 0 1 108.41797 188.11914 A 23.364082 23.364082 0 0 1 108.12891 188.07617 A 23.364082 23.364082 0 0 1 107.83984 188.0293 A 23.364082 23.364082 0 0 1 107.55078 187.97656 A 23.364082 23.364082 0 0 1 107.48438 187.96484 A 23.364082 23.364082 0 0 1 107.35156 187.93945 A 23.364082 23.364082 0 0 1 107.26367 187.92383 A 23.364082 23.364082 0 0 1 107.17188 187.9043 A 23.364082 23.364082 0 0 1 106.93164 187.85547 A 23.364082 23.364082 0 0 1 106.69141 187.80273 A 23.364082 23.364082 0 0 1 106.51758 187.76367 A 23.364082 23.364082 0 0 1 106.33984 187.7207 A 23.364082 23.364082 0 0 1 106.12109 187.66797 A 23.364082 23.364082 0 0 1 106.05664 187.65234 A 23.364082 23.364082 0 0 1 105.91797 187.61523 A 23.364082 23.364082 0 0 1 105.81836 187.5918 A 23.364082 23.364082 0 0 1 105.55469 187.51953 A 23.364082 23.364082 0 0 1 105.27344 187.43945 A 23.364082 23.364082 0 0 1 105.00391 187.35938 A 23.364082 23.364082 0 0 1 104.98633 187.35352 A 23.364082 23.364082 0 0 1 104.75195 187.2793 A 23.364082 23.364082 0 0 1 104.69727 187.26367 A 23.364082 23.364082 0 0 1 104.51953 187.20508 A 23.364082 23.364082 0 0 1 104.39258 187.16406 A 23.364082 23.364082 0 0 1 104.32812 187.14258 A 23.364082 23.364082 0 0 1 104.10938 187.06836 A 23.364082 23.364082 0 0 1 104.02734 187.03906 A 23.364082 23.364082 0 0 1 103.83789 186.9707 A 23.364082 23.364082 0 0 1 103.60547 186.88672 A 23.364082 23.364082 0 0 1 103.33789 186.7832 A 23.364082 23.364082 0 0 1 103.32812 186.7793 A 23.364082 23.364082 0 0 1 103.18555 186.72266 A 23.364082 23.364082 0 0 1 102.99609 186.64844 A 23.364082 23.364082 0 0 1 102.72656 186.53711 A 23.364082 23.364082 0 0 1 102.45703 186.41992 A 23.364082 23.364082 0 0 1 102.18945 186.30273 A 23.364082 23.364082 0 0 1 101.98438 186.20898 A 23.364082 23.364082 0 0 1 101.93945 186.1875 A 23.364082 23.364082 0 0 1 101.71875 186.08398 A 23.364082 23.364082 0 0 1 101.45508 185.95703 A 23.364082 23.364082 0 0 1 101.24023 185.84961 A 23.364082 23.364082 0 0 1 101.17578 185.81641 A 23.364082 23.364082 0 0 1 100.96484 185.70703 A 23.364082 23.364082 0 0 1 100.92188 185.68359 A 23.364082 23.364082 0 0 1 100.67383 185.55273 A 23.364082 23.364082 0 0 1 100.41797 185.41211 A 23.364082 23.364082 0 0 1 100.35938 185.37891 A 23.364082 23.364082 0 0 1 100.24805 185.31641 A 23.364082 23.364082 0 0 1 100.11914 185.24414 A 23.364082 23.364082 0 0 1 100.10352 185.23438 A 23.364082 23.364082 0 0 1 99.964844 185.1543 A 23.364082 23.364082 0 0 1 99.773438 185.03906 A 23.364082 23.364082 0 0 1 99.541016 184.89844 A 23.364082 23.364082 0 0 1 99.496094 184.87109 A 23.364082 23.364082 0 0 1 99.322266 184.76172 A 23.364082 23.364082 0 0 1 99.246094 184.71484 A 23.364082 23.364082 0 0 1 99.078125 184.60547 A 23.364082 23.364082 0 0 1 98.951172 184.52344 A 23.364082 23.364082 0 0 1 98.880859 184.47852 A 23.364082 23.364082 0 0 1 98.722656 184.37109 A 23.364082 23.364082 0 0 1 98.621094 184.30273 A 23.364082 23.364082 0 0 1 98.460938 184.19336 A 23.364082 23.364082 0 0 1 98.382812 184.13672 A 23.364082 23.364082 0 0 1 98.220703 184.02344 A 23.364082 23.364082 0 0 1 98.164062 183.98047 A 23.364082 23.364082 0 0 1 98.013672 183.87305 A 23.364082 23.364082 0 0 1 97.851562 183.75586 A 23.364082 23.364082 0 0 1 97.798828 183.71484 A 23.364082 23.364082 0 0 1 97.664062 183.61328 A 23.364082 23.364082 0 0 1 97.529297 183.51172 A 23.364082 23.364082 0 0 1 97.419922 183.42578 A 23.364082 23.364082 0 0 1 97.304688 183.33594 A 23.364082 23.364082 0 0 1 97.226562 183.27344 A 23.364082 23.364082 0 0 1 97.041016 183.12305 A 23.364082 23.364082 0 0 1 97.009766 183.09961 A 23.364082 23.364082 0 0 1 96.835938 182.95312 A 23.364082 23.364082 0 0 1 96.716797 182.85547 A 23.364082 23.364082 0 0 1 96.669922 182.81641 A 23.364082 23.364082 0 0 1 96.509766 182.67773 A 23.364082 23.364082 0 0 1 96.392578 182.57617 A 23.364082 23.364082 0 0 1 96.308594 182.50195 A 23.364082 23.364082 0 0 1 96.175781 182.38477 A 23.364082 23.364082 0 0 1 96.101562 182.31641 A 23.364082 23.364082 0 0 1 95.96875 182.19531 A 23.364082 23.364082 0 0 1 95.855469 182.0918 A 23.364082 23.364082 0 0 1 95.783203 182.02344 A 23.364082 23.364082 0 0 1 95.595703 181.84375 A 23.364082 23.364082 0 0 1 95.412109 181.66797 A 23.364082 23.364082 0 0 1 95.34375 181.60156 A 23.364082 23.364082 0 0 1 95.251953 181.50781 A 23.364082 23.364082 0 0 1 95.123047 181.37695 A 23.364082 23.364082 0 0 1 95.005859 181.25586 A 23.364082 23.364082 0 0 1 94.908203 181.15625 A 23.364082 23.364082 0 0 1 94.865234 181.11328 A 23.364082 23.364082 0 0 1 94.724609 180.96289 A 23.364082 23.364082 0 0 1 94.617188 180.8457 A 23.364082 23.364082 0 0 1 94.507812 180.72656 A 23.364082 23.364082 0 0 1 94.455078 180.66992 A 23.364082 23.364082 0 0 1 94.335938 180.53711 A 23.364082 23.364082 0 0 1 94.181641 180.36133 A 23.364082 23.364082 0 0 1 93.990234 180.13867 A 23.364082 23.364082 0 0 1 93.837891 179.95703 A 23.364082 23.364082 0 0 1 93.746094 179.84766 A 23.364082 23.364082 0 0 1 93.695312 179.78516 A 23.364082 23.364082 0 0 1 93.542969 179.59766 A 23.364082 23.364082 0 0 1 93.513672 179.5625 A 23.364082 23.364082 0 0 1 93.380859 179.39453 A 23.364082 23.364082 0 0 1 93.300781 179.28906 A 23.364082 23.364082 0 0 1 93.207031 179.16602 A 23.364082 23.364082 0 0 1 93.148438 179.0918 A 23.364082 23.364082 0 0 1 93.019531 178.91797 A 23.364082 23.364082 0 0 1 92.914062 178.77539 A 23.364082 23.364082 0 0 1 92.894531 178.75 A 23.364082 23.364082 0 0 1 92.787109 178.60156 A 23.364082 23.364082 0 0 1 92.660156 178.42188 A 23.364082 23.364082 0 0 1 92.564453 178.28125 A 23.364082 23.364082 0 0 1 92.421875 178.07422 A 23.364082 23.364082 0 0 1 92.353516 177.97266 A 23.364082 23.364082 0 0 1 92.298828 177.89062 A 23.364082 23.364082 0 0 1 92.199219 177.73828 A 23.364082 23.364082 0 0 1 92.091797 177.57227 A 23.364082 23.364082 0 0 1 92.054688 177.51367 A 23.364082 23.364082 0 0 1 91.976562 177.38867 A 23.364082 23.364082 0 0 1 91.902344 177.26758 A 23.364082 23.364082 0 0 1 91.769531 177.05078 A 23.364082 23.364082 0 0 1 91.644531 176.8418 A 23.364082 23.364082 0 0 1 91.595703 176.75781 A 23.364082 23.364082 0 0 1 91.552734 176.68359 A 23.364082 23.364082 0 0 1 91.482422 176.56055 A 23.364082 23.364082 0 0 1 91.46875 176.53711 A 23.364082 23.364082 0 0 1 91.347656 176.31836 A 23.364082 23.364082 0 0 1 91.306641 176.24414 A 23.364082 23.364082 0 0 1 91.228516 176.09961 A 23.364082 23.364082 0 0 1 91.164062 175.98242 A 23.364082 23.364082 0 0 1 91.099609 175.85938 A 23.364082 23.364082 0 0 1 91.011719 175.68945 A 23.364082 23.364082 0 0 1 90.921875 175.51367 A 23.364082 23.364082 0 0 1 90.880859 175.43359 A 23.364082 23.364082 0 0 1 90.845703 175.36133 A 23.364082 23.364082 0 0 1 90.755859 175.17578 A 23.364082 23.364082 0 0 1 90.666016 174.99023 A 23.364082 23.364082 0 0 1 90.666016 174.98438 A 23.364082 23.364082 0 0 1 90.570312 174.78125 A 23.364082 23.364082 0 0 1 90.509766 174.64844 A 23.364082 23.364082 0 0 1 90.431641 174.4707 A 23.364082 23.364082 0 0 1 90.419922 174.44727 A 23.364082 23.364082 0 0 1 90.306641 174.18555 A 23.364082 23.364082 0 0 1 90.193359 173.91602 A 23.364082 23.364082 0 0 1 90.097656 173.67969 A 23.364082 23.364082 0 0 1 90.064453 173.59961 A 23.364082 23.364082 0 0 1 90.001953 173.43555 A 23.364082 23.364082 0 0 1 89.939453 173.27539 A 23.364082 23.364082 0 0 1 89.916016 173.21289 A 23.364082 23.364082 0 0 1 89.853516 173.04297 A 23.364082 23.364082 0 0 1 89.792969 172.87695 A 23.364082 23.364082 0 0 1 89.738281 172.72656 A 23.364082 23.364082 0 0 1 89.716797 172.66211 A 23.364082 23.364082 0 0 1 89.650391 172.4668 A 23.364082 23.364082 0 0 1 89.617188 172.36719 A 23.364082 23.364082 0 0 1 89.554688 172.18164 A 23.364082 23.364082 0 0 1 89.527344 172.0957 A 23.364082 23.364082 0 0 1 89.455078 171.86523 A 23.364082 23.364082 0 0 1 89.449219 171.8457 A 23.364082 23.364082 0 0 1 89.376953 171.60156 A 23.364082 23.364082 0 0 1 89.365234 171.56445 A 23.364082 23.364082 0 0 1 89.296875 171.33008 A 23.364082 23.364082 0 0 1 89.246094 171.14453 A 23.364082 23.364082 0 0 1 89.169922 170.86133 A 23.364082 23.364082 0 0 1 89.099609 170.57812 A 23.364082 23.364082 0 0 1 89.03125 170.29297 A 23.364082 23.364082 0 0 1 89 170.16016 A 23.364082 23.364082 0 0 1 88.988281 170.10938 A 23.364082 23.364082 0 0 1 88.943359 169.9043 A 23.364082 23.364082 0 0 1 88.923828 169.81055 A 23.364082 23.364082 0 0 1 88.894531 169.67578 A 23.364082 23.364082 0 0 1 88.859375 169.5 A 23.364082 23.364082 0 0 1 88.835938 169.37305 A 23.364082 23.364082 0 0 1 88.806641 169.2207 A 23.364082 23.364082 0 0 1 88.779297 169.07031 A 23.364082 23.364082 0 0 1 88.751953 168.91406 A 23.364082 23.364082 0 0 1 88.738281 168.82617 A 23.364082 23.364082 0 0 1 88.703125 168.61328 A 23.364082 23.364082 0 0 1 88.6875 168.51953 A 23.364082 23.364082 0 0 1 88.652344 168.2793 A 23.364082 23.364082 0 0 1 88.617188 168.00977 A 23.364082 23.364082 0 0 1 88.611328 167.9668 A 23.364082 23.364082 0 0 1 88.582031 167.74023 A 23.364082 23.364082 0 0 1 88.568359 167.61328 A 23.364082 23.364082 0 0 1 88.558594 167.53711 A 23.364082 23.364082 0 0 1 88.533203 167.28125 A 23.364082 23.364082 0 0 1 88.527344 167.25195 A 23.364082 23.364082 0 0 1 88.511719 167.06836 A 23.364082 23.364082 0 0 1 88.494141 166.85742 A 23.364082 23.364082 0 0 1 88.486328 166.75977 A 23.364082 23.364082 0 0 1 88.478516 166.64844 A 23.364082 23.364082 0 0 1 88.462891 166.41797 A 23.364082 23.364082 0 0 1 88.457031 166.35156 A 23.364082 23.364082 0 0 1 88.449219 166.20117 A 23.364082 23.364082 0 0 1 88.4375 165.94727 A 23.364082 23.364082 0 0 1 88.425781 165.6543 A 23.364082 23.364082 0 0 1 88.421875 165.44336 A 23.364082 23.364082 0 0 1 88.416016 165.23633 A 23.364082 23.364082 0 0 1 88.416016 165.20312 A 23.364082 23.364082 0 0 1 88.416016 165 A 23.364082 23.364082 0 0 1 88.416016 164.79688 A 23.364082 23.364082 0 0 1 88.416016 164.76562 A 23.364082 23.364082 0 0 1 88.421875 164.55664 A 23.364082 23.364082 0 0 1 88.425781 164.37109 A 23.364082 23.364082 0 0 1 88.431641 164.18945 A 23.364082 23.364082 0 0 1 88.441406 163.94727 A 23.364082 23.364082 0 0 1 88.447266 163.82227 A 23.364082 23.364082 0 0 1 88.457031 163.64453 A 23.364082 23.364082 0 0 1 88.462891 163.58203 A 23.364082 23.364082 0 0 1 88.478516 163.35547 A 23.364082 23.364082 0 0 1 88.484375 163.26758 A 23.364082 23.364082 0 0 1 88.503906 163.01953 A 23.364082 23.364082 0 0 1 88.53125 162.73242 A 23.364082 23.364082 0 0 1 88.53125 162.72461 A 23.364082 23.364082 0 0 1 88.558594 162.47461 A 23.364082 23.364082 0 0 1 88.570312 162.35547 A 23.364082 23.364082 0 0 1 88.580078 162.27734 A 23.364082 23.364082 0 0 1 88.611328 162.02148 A 23.364082 23.364082 0 0 1 88.617188 161.99023 A 23.364082 23.364082 0 0 1 88.640625 161.81055 A 23.364082 23.364082 0 0 1 88.671875 161.58789 A 23.364082 23.364082 0 0 1 88.681641 161.52734 A 23.364082 23.364082 0 0 1 88.705078 161.37695 A 23.364082 23.364082 0 0 1 88.738281 161.17578 A 23.364082 23.364082 0 0 1 88.753906 161.07617 A 23.364082 23.364082 0 0 1 88.775391 160.94727 A 23.364082 23.364082 0 0 1 88.810547 160.75195 A 23.364082 23.364082 0 0 1 88.830078 160.64648 A 23.364082 23.364082 0 0 1 88.861328 160.49219 A 23.364082 23.364082 0 0 1 88.894531 160.32422 A 23.364082 23.364082 0 0 1 88.919922 160.20508 A 23.364082 23.364082 0 0 1 88.947266 160.07617 A 23.364082 23.364082 0 0 1 88.984375 159.91016 A 23.364082 23.364082 0 0 1 89.025391 159.72266 A 23.364082 23.364082 0 0 1 89.03125 159.69727 A 23.364082 23.364082 0 0 1 89.087891 159.45898 A 23.364082 23.364082 0 0 1 89.136719 159.26953 A 23.364082 23.364082 0 0 1 89.201172 159.01562 A 23.364082 23.364082 0 0 1 89.234375 158.89453 A 23.364082 23.364082 0 0 1 89.251953 158.82422 A 23.364082 23.364082 0 0 1 89.298828 158.65625 A 23.364082 23.364082 0 0 1 89.363281 158.4375 A 23.364082 23.364082 0 0 1 89.375 158.39258 A 23.364082 23.364082 0 0 1 89.429688 158.2168 A 23.364082 23.364082 0 0 1 89.464844 158.09961 A 23.364082 23.364082 0 0 1 89.523438 157.91211 A 23.364082 23.364082 0 0 1 89.554688 157.8125 A 23.364082 23.364082 0 0 1 89.601562 157.66602 A 23.364082 23.364082 0 0 1 89.658203 157.50195 A 23.364082 23.364082 0 0 1 89.710938 157.34961 A 23.364082 23.364082 0 0 1 89.730469 157.28906 A 23.364082 23.364082 0 0 1 89.824219 157.03125 A 23.364082 23.364082 0 0 1 89.925781 156.75586 A 23.364082 23.364082 0 0 1 89.972656 156.62891 A 23.364082 23.364082 0 0 1 90.003906 156.55078 A 23.364082 23.364082 0 0 1 90.056641 156.41406 A 23.364082 23.364082 0 0 1 90.107422 156.28711 A 23.364082 23.364082 0 0 1 90.164062 156.14648 A 23.364082 23.364082 0 0 1 90.234375 155.98047 A 23.364082 23.364082 0 0 1 90.267578 155.90039 A 23.364082 23.364082 0 0 1 90.330078 155.75391 A 23.364082 23.364082 0 0 1 90.396484 155.60156 A 23.364082 23.364082 0 0 1 90.462891 155.45117 A 23.364082 23.364082 0 0 1 90.494141 155.38086 A 23.364082 23.364082 0 0 1 90.607422 155.13672 A 23.364082 23.364082 0 0 1 90.716797 154.9043 A 23.364082 23.364082 0 0 1 90.751953 154.83203 A 23.364082 23.364082 0 0 1 90.822266 154.68555 A 23.364082 23.364082 0 0 1 90.908203 154.51367 A 23.364082 23.364082 0 0 1 90.945312 154.4375 A 23.364082 23.364082 0 0 1 91.015625 154.30273 A 23.364082 23.364082 0 0 1 91.085938 154.16797 A 23.364082 23.364082 0 0 1 91.162109 154.02148 A 23.364082 23.364082 0 0 1 91.25 153.85938 A 23.364082 23.364082 0 0 1 91.279297 153.80664 A 23.364082 23.364082 0 0 1 91.398438 153.58789 A 23.364082 23.364082 0 0 1 91.417969 153.55664 A 23.364082 23.364082 0 0 1 91.509766 153.39258 A 23.364082 23.364082 0 0 1 91.552734 153.31836 A 23.364082 23.364082 0 0 1 91.685547 153.08789 A 23.364082 23.364082 0 0 1 91.716797 153.03711 A 23.364082 23.364082 0 0 1 91.841797 152.83008 A 23.364082 23.364082 0 0 1 91.857422 152.80469 A 23.364082 23.364082 0 0 1 92.005859 152.56641 A 23.364082 23.364082 0 0 1 92.078125 152.45117 A 23.364082 23.364082 0 0 1 92.154297 152.33398 A 23.364082 23.364082 0 0 1 92.169922 152.30859 A 23.364082 23.364082 0 0 1 92.291016 152.12109 A 23.364082 23.364082 0 0 1 92.363281 152.01172 A 23.364082 23.364082 0 0 1 92.488281 151.83008 A 23.364082 23.364082 0 0 1 92.564453 151.71875 A 23.364082 23.364082 0 0 1 92.619141 151.63867 A 23.364082 23.364082 0 0 1 92.685547 151.54492 A 23.364082 23.364082 0 0 1 92.794922 151.39062 A 23.364082 23.364082 0 0 1 92.847656 151.31836 A 23.364082 23.364082 0 0 1 92.953125 151.17188 A 23.364082 23.364082 0 0 1 93.056641 151.03516 A 23.364082 23.364082 0 0 1 93.107422 150.9668 A 23.364082 23.364082 0 0 1 93.208984 150.83203 A 23.364082 23.364082 0 0 1 93.324219 150.68164 A 23.364082 23.364082 0 0 1 93.369141 150.62305 A 23.364082 23.364082 0 0 1 93.515625 150.4375 A 23.364082 23.364082 0 0 1 93.542969 150.4043 A 23.364082 23.364082 0 0 1 93.716797 150.18945 A 23.364082 23.364082 0 0 1 93.904297 149.96484 A 23.364082 23.364082 0 0 1 94.09375 149.74219 A 23.364082 23.364082 0 0 1 94.253906 149.55664 A 23.364082 23.364082 0 0 1 94.333984 149.4668 A 23.364082 23.364082 0 0 1 94.402344 149.38867 A 23.364082 23.364082 0 0 1 94.541016 149.23828 A 23.364082 23.364082 0 0 1 94.679688 149.08789 A 23.364082 23.364082 0 0 1 94.873047 148.88086 A 23.364082 23.364082 0 0 1 94.888672 148.86328 A 23.364082 23.364082 0 0 1 95.083984 148.66406 A 23.364082 23.364082 0 0 1 95.177734 148.56641 A 23.364082 23.364082 0 0 1 95.220703 148.52539 A 23.364082 23.364082 0 0 1 95.341797 148.4043 A 23.364082 23.364082 0 0 1 95.498047 148.25 A 23.364082 23.364082 0 0 1 95.708984 148.04688 A 23.364082 23.364082 0 0 1 95.923828 147.8457 A 23.364082 23.364082 0 0 1 96.138672 147.65039 A 23.364082 23.364082 0 0 1 96.240234 147.55859 A 23.364082 23.364082 0 0 1 96.28125 147.52344 A 23.364082 23.364082 0 0 1 96.435547 147.38672 A 23.364082 23.364082 0 0 1 96.496094 147.33594 A 23.364082 23.364082 0 0 1 96.634766 147.21484 A 23.364082 23.364082 0 0 1 96.755859 147.11328 A 23.364082 23.364082 0 0 1 96.833984 147.04688 A 23.364082 23.364082 0 0 1 97.009766 146.90234 A 23.364082 23.364082 0 0 1 97.041016 146.87695 A 23.364082 23.364082 0 0 1 97.255859 146.70312 A 23.364082 23.364082 0 0 1 97.486328 146.52344 A 23.364082 23.364082 0 0 1 97.720703 146.34375 A 23.364082 23.364082 0 0 1 97.929688 146.1875 A 23.364082 23.364082 0 0 1 97.990234 146.14453 A 23.364082 23.364082 0 0 1 98.126953 146.04492 A 23.364082 23.364082 0 0 1 98.228516 145.9707 A 23.364082 23.364082 0 0 1 98.431641 145.83008 A 23.364082 23.364082 0 0 1 98.621094 145.69727 A 23.364082 23.364082 0 0 1 98.753906 145.60938 A 23.364082 23.364082 0 0 1 98.802734 145.57617 A 23.364082 23.364082 0 0 1 99.027344 145.42773 A 23.364082 23.364082 0 0 1 99.160156 145.33984 A 23.364082 23.364082 0 0 1 99.195312 145.32031 A 23.364082 23.364082 0 0 1 99.355469 145.21875 A 23.364082 23.364082 0 0 1 99.462891 145.15039 A 23.364082 23.364082 0 0 1 99.623047 145.05273 A 23.364082 23.364082 0 0 1 99.679688 145.01758 A 23.364082 23.364082 0 0 1 99.910156 144.88086 A 23.364082 23.364082 0 0 1 100.02539 144.81055 A 23.364082 23.364082 0 0 1 100.09375 144.77344 A 23.364082 23.364082 0 0 1 100.10547 144.76758 A 23.364082 23.364082 0 0 1 100.16406 144.73242 A 23.364082 23.364082 0 0 1 100.1875 144.71875 A 23.364082 23.364082 0 0 1 100.29102 144.66016 A 23.364082 23.364082 0 0 1 100.47461 144.55859 A 23.364082 23.364082 0 0 1 100.73047 144.41797 A 23.364082 23.364082 0 0 1 100.93359 144.31055 A 23.364082 23.364082 0 0 1 100.94336 144.30664 A 23.364082 23.364082 0 0 1 101.12891 144.20898 A 23.364082 23.364082 0 0 1 101.21289 144.16797 A 23.364082 23.364082 0 0 1 101.45508 144.04492 A 23.364082 23.364082 0 0 1 101.71875 143.91797 A 23.364082 23.364082 0 0 1 101.77734 143.89062 A 23.364082 23.364082 0 0 1 101.88672 143.83789 A 23.364082 23.364082 0 0 1 102.04297 143.76562 A 23.364082 23.364082 0 0 1 102.30664 143.64844 A 23.364082 23.364082 0 0 1 102.51953 143.55273 A 23.364082 23.364082 0 0 1 102.57812 143.5293 A 23.364082 23.364082 0 0 1 102.70898 143.47266 A 23.364082 23.364082 0 0 1 102.81836 143.42773 A 23.364082 23.364082 0 0 1 102.84766 143.41602 A 23.364082 23.364082 0 0 1 103.25977 143.25 A 23.364082 23.364082 0 0 1 103.38281 143.20117 A 23.364082 23.364082 0 0 1 103.60547 143.11719 A 23.364082 23.364082 0 0 1 103.66406 143.09375 A 23.364082 23.364082 0 0 1 103.78516 143.05078 A 23.364082 23.364082 0 0 1 103.91992 143.00195 A 23.364082 23.364082 0 0 1 104.00977 142.9707 A 23.364082 23.364082 0 0 1 104.2168 142.89844 A 23.364082 23.364082 0 0 1 104.49414 142.80469 A 23.364082 23.364082 0 0 1 104.71289 142.73438 A 23.364082 23.364082 0 0 1 104.71875 142.72852 A 23.364082 23.364082 0 0 1 105.23828 142.57031 A 23.364082 23.364082 0 0 1 105.29688 142.55273 A 23.364082 23.364082 0 0 1 105.55469 142.48242 A 23.364082 23.364082 0 0 1 105.80078 142.41406 A 23.364082 23.364082 0 0 1 105.84961 142.40234 A 23.364082 23.364082 0 0 1 106.06055 142.34766 A 23.364082 23.364082 0 0 1 106.14062 142.32812 A 23.364082 23.364082 0 0 1 106.31836 142.2832 A 23.364082 23.364082 0 0 1 106.44922 142.25195 A 23.364082 23.364082 0 0 1 106.49609 142.24219 A 23.364082 23.364082 0 0 1 106.75391 142.18359 A 23.364082 23.364082 0 0 1 106.97656 142.13477 A 23.364082 23.364082 0 0 1 106.99023 142.12891 A 23.364082 23.364082 0 0 1 107.49609 142.03125 A 23.364082 23.364082 0 0 1 107.58789 142.01367 A 23.364082 23.364082 0 0 1 107.83984 141.96875 A 23.364082 23.364082 0 0 1 108.12695 141.92188 A 23.364082 23.364082 0 0 1 108.34961 141.88867 A 23.364082 23.364082 0 0 1 108.43359 141.875 A 23.364082 23.364082 0 0 1 108.91406 141.81055 A 23.364082 23.364082 0 0 1 109.05469 141.79297 A 23.364082 23.364082 0 0 1 109.29102 141.76758 A 23.364082 23.364082 0 0 1 109.57422 141.73828 A 23.364082 23.364082 0 0 1 109.58203 141.73828 A 23.364082 23.364082 0 0 1 109.75586 141.72266 A 23.364082 23.364082 0 0 1 109.87305 141.71289 A 23.364082 23.364082 0 0 1 110.00781 141.70117 A 23.364082 23.364082 0 0 1 110.22266 141.68555 A 23.364082 23.364082 0 0 1 110.25195 141.68555 A 23.364082 23.364082 0 0 1 110.52148 141.66992 A 23.364082 23.364082 0 0 1 110.75195 141.6582 A 23.364082 23.364082 0 0 1 111.29102 141.64062 A 23.364082 23.364082 0 0 1 111.4375 141.64062 A 23.364082 23.364082 0 0 1 111.69141 141.63477 A 23.364082 23.364082 0 0 1 111.98438 141.63477 A 23.364082 23.364082 0 0 1 112.21484 141.64062 A 23.364082 23.364082 0 0 1 112.22852 141.64062 A 23.364082 23.364082 0 0 1 112.27734 141.64062 A 23.364082 23.364082 0 0 1 112.50781 141.64648 A 23.364082 23.364082 0 0 1 112.57031 141.64648 A 23.364082 23.364082 0 0 1 112.79883 141.65625 A 23.364082 23.364082 0 0 1 113.09375 141.67188 A 23.364082 23.364082 0 0 1 113.38477 141.68945 A 23.364082 23.364082 0 0 1 113.44727 141.69531 A 23.364082 23.364082 0 0 1 113.67773 141.71094 A 23.364082 23.364082 0 0 1 113.69727 141.71094 A 23.364082 23.364082 0 0 1 114.18555 141.75781 A 23.364082 23.364082 0 0 1 114.25977 141.76367 A 23.364082 23.364082 0 0 1 114.32227 141.77148 A 23.364082 23.364082 0 0 1 114.55078 141.79688 A 23.364082 23.364082 0 0 1 114.81445 141.83008 A 23.364082 23.364082 0 0 1 114.8418 141.83594 A 23.364082 23.364082 0 0 1 114.9043 141.84375 A 23.364082 23.364082 0 0 1 115.13281 141.875 A 23.364082 23.364082 0 0 1 115.19336 141.88477 A 23.364082 23.364082 0 0 1 115.42188 141.91797 A 23.364082 23.364082 0 0 1 115.48438 141.92969 A 23.364082 23.364082 0 0 1 115.71094 141.9668 A 23.364082 23.364082 0 0 1 115.98828 142.01562 A 23.364082 23.364082 0 0 1 116 142.01562 A 23.364082 23.364082 0 0 1 116.00391 142.01562 A 23.364082 23.364082 0 0 1 116.24609 142.06055 A 23.364082 23.364082 0 0 1 116.28711 142.06836 A 23.364082 23.364082 0 0 1 116.34961 142.08008 A 23.364082 23.364082 0 0 1 116.57422 142.12695 A 23.364082 23.364082 0 0 1 116.86133 142.18945 A 23.364082 23.364082 0 0 1 117.14648 142.25391 A 23.364082 23.364082 0 0 1 117.38281 142.31055 A 23.364082 23.364082 0 0 1 117.45117 142.32812 A 23.364082 23.364082 0 0 1 117.49219 142.33789 A 23.364082 23.364082 0 0 1 117.71484 142.39648 A 23.364082 23.364082 0 0 1 117.99805 142.47266 A 23.364082 23.364082 0 0 1 118.24219 142.54102 A 23.364082 23.364082 0 0 1 118.2793 142.55078 A 23.364082 23.364082 0 0 1 118.33984 142.56836 A 23.364082 23.364082 0 0 1 118.56055 142.63477 A 23.364082 23.364082 0 0 1 118.62109 142.65234 A 23.364082 23.364082 0 0 1 119.04492 142.78711 A 23.364082 23.364082 0 0 1 119.11914 142.81055 A 23.364082 23.364082 0 0 1 119.17773 142.83203 A 23.364082 23.364082 0 0 1 119.39648 142.90625 A 23.364082 23.364082 0 0 1 119.94922 143.10352 A 23.364082 23.364082 0 0 1 120.13086 143.17188 A 23.364082 23.364082 0 0 1 120.22266 143.20703 A 23.364082 23.364082 0 0 1 120.28125 143.23047 A 23.364082 23.364082 0 0 1 120.49414 143.31445 A 23.364082 23.364082 0 0 1 120.49805 143.31445 A 23.364082 23.364082 0 0 1 120.76562 143.42383 A 23.364082 23.364082 0 0 1 121.01172 143.52734 A 23.364082 23.364082 0 0 1 121.03516 143.53711 A 23.364082 23.364082 0 0 1 121.09375 143.5625 A 23.364082 23.364082 0 0 1 121.30469 143.6543 A 23.364082 23.364082 0 0 1 121.57031 143.77539 A 23.364082 23.364082 0 0 1 121.83594 143.90039 A 23.364082 23.364082 0 0 1 122.0957 144.02539 A 23.364082 23.364082 0 0 1 122.09961 144.0293 A 23.364082 23.364082 0 0 1 122.15625 144.05859 A 23.364082 23.364082 0 0 1 122.36133 144.16016 A 23.364082 23.364082 0 0 1 122.41797 144.18945 A 23.364082 23.364082 0 0 1 122.62305 144.29492 A 23.364082 23.364082 0 0 1 122.67773 144.32422 A 23.364082 23.364082 0 0 1 122.88086 144.43359 A 23.364082 23.364082 0 0 1 122.93555 144.46289 A 23.364082 23.364082 0 0 1 123.13672 144.57227 A 23.364082 23.364082 0 0 1 123.19141 144.60352 A 23.364082 23.364082 0 0 1 123.39258 144.7168 A 23.364082 23.364082 0 0 1 123.44727 144.74805 A 23.364082 23.364082 0 0 1 123.4707 144.76367 A 23.364082 23.364082 0 0 1 123.58398 144.82812 A 23.364082 23.364082 0 0 1 123.80273 144.95898 A 23.364082 23.364082 0 0 1 123.83594 144.97852 A 23.364082 23.364082 0 0 1 123.85742 144.99023 A 23.364082 23.364082 0 0 1 124.33398 145.28711 A 23.364082 23.364082 0 0 1 124.58008 145.44531 A 23.364082 23.364082 0 0 1 124.82422 145.60742 A 23.364082 23.364082 0 0 1 125.06641 145.77148 A 23.364082 23.364082 0 0 1 125.30664 145.94141 A 23.364082 23.364082 0 0 1 125.54492 146.11133 A 23.364082 23.364082 0 0 1 125.7793 146.28516 A 23.364082 23.364082 0 0 1 125.88867 146.36523 L 165.04492 123.75781 A 23.364082 23.364082 0 0 1 176.54492 100.63086 A 23.364082 23.364082 0 0 1 188.0918 97.5 z " />
  </g>
</svg>
