<?xml version="1.0" encoding="UTF-8" standalone="no"?>
<svg
   xmlns:dc="http://purl.org/dc/elements/1.1/"
   xmlns:cc="http://creativecommons.org/ns#"
   xmlns:rdf="http://www.w3.org/1999/02/22-rdf-syntax-ns#"
   xmlns:svg="http://www.w3.org/2000/svg"
   xmlns="http://www.w3.org/2000/svg"
   xmlns:sodipodi="http://sodipodi.sourceforge.net/DTD/sodipodi-0.dtd"
   xmlns:inkscape="http://www.inkscape.org/namespaces/inkscape"
   width="300"
   height="300"
   viewBox="0 0 300 300"
   version="1.1"
   id="svg8"
   inkscape:version="1.0.1 (3bc2e813f5, 2020-09-07)"
   sodipodi:docname="folder-gear.svg">
  <defs
     id="defs2">
    <inkscape:path-effect
       effect="fillet_chamfer"
       id="path-effect975"
       is_visible="true"
       lpeversion="1"
       satellites_param="F,0,0,1,0,5,0,1 @ F,0,0,1,0,5,0,1 @ F,0,0,1,0,15,0,1 @ F,0,0,1,0,15,0,1 @ F,0,0,1,0,15,0,1 @ F,0,0,1,0,5,0,1 @ F,0,0,1,0,5,0,1"
       unit="px"
       method="auto"
       mode="F"
       radius="0"
       chamfer_steps="1"
       flexible="false"
       use_knot_distance="true"
       apply_no_radius="true"
       apply_with_radius="true"
       only_selected="false"
       hide_knots="false" />
  </defs>
  <sodipodi:namedview
     id="base"
     pagecolor="#ffffff"
     bordercolor="#666666"
     borderopacity="1.0"
     inkscape:pageopacity="0.0"
     inkscape:pageshadow="2"
     inkscape:zoom="2"
     inkscape:cx="150"
     inkscape:cy="150"
     inkscape:document-units="px"
     inkscape:current-layer="layer1"
     inkscape:document-rotation="0"
     showgrid="false"
     units="px"
     inkscape:window-width="2560"
     inkscape:window-height="1377"
     inkscape:window-x="2552"
     inkscape:window-y="-8"
     inkscape:window-maximized="1" />
  <metadata
     id="metadata5">
    <rdf:RDF>
      <cc:Work
         rdf:about="">
        <dc:format>image/svg+xml</dc:format>
        <dc:type
           rdf:resource="http://purl.org/dc/dcmitype/StillImage" />
        <dc:title></dc:title>
      </cc:Work>
    </rdf:RDF>
  </metadata>
  <g
     inkscape:label="Ebene 1"
     inkscape:groupmode="layer"
     id="layer1">
    <path
       id="rect830-57-2"
       style="fill:#000000;stroke-width:28.8541;stop-color:#000000"
       d="M 20 25 A 8.0901699 8.0901699 0 0 0 12.763672 29.472656 L 2.2363281 50.527344 A 21.18034 21.18034 0 0 0 0 60 L 0 260 A 15 15 0 0 0 15 275 L 285 275 A 15 15 0 0 0 300 260 L 300 70 A 15 15 0 0 0 285 55 L 155 55 A 8.0901699 8.0901699 0 0 1 147.76367 50.527344 L 137.23633 29.472656 A 8.0901699 8.0901699 0 0 0 130 25 L 20 25 z M 137.3125 97.5 L 162.6875 97.5 C 165.49915 97.5 167.76367 99.762568 167.76367 102.57422 L 167.76367 117.45898 A 50.75188 50.75188 0 0 1 175.375 121.04688 A 50.75188 50.75188 0 0 1 182.29102 125.8457 L 195.17969 118.4043 C 197.61464 116.99847 200.70743 117.82676 202.11328 120.26172 L 214.80078 142.23828 C 216.20663 144.67325 215.37836 147.76409 212.94336 149.16992 L 200.05469 156.61133 A 50.75188 50.75188 0 0 1 200.05469 173.38867 L 212.94336 180.83008 C 215.37836 182.23591 216.20663 185.32676 214.80078 187.76172 L 202.11328 209.73828 C 200.70743 212.17325 197.61464 213.00153 195.17969 211.5957 L 182.28906 204.15234 A 50.75188 50.75188 0 0 1 167.76367 212.54102 L 167.76367 227.42578 C 167.76367 230.23743 165.49915 232.5 162.6875 232.5 L 137.3125 232.5 C 134.50085 232.5 132.23633 230.23743 132.23633 227.42578 L 132.23633 212.54102 A 50.75188 50.75188 0 0 1 124.62305 208.95312 A 50.75188 50.75188 0 0 1 117.70898 204.1543 L 104.82031 211.5957 C 102.38536 213.00153 99.292569 212.17325 97.886719 209.73828 L 85.199219 187.76172 C 83.793419 185.32676 84.621691 182.23591 87.056641 180.83008 L 99.945312 173.38867 A 50.75188 50.75188 0 0 1 99.945312 156.61133 L 87.056641 149.16992 C 84.621691 147.76409 83.793419 144.67325 85.199219 142.23828 L 97.886719 120.26172 C 99.292569 117.82676 102.38536 116.99848 104.82031 118.4043 L 117.71094 125.84766 A 50.75188 50.75188 0 0 1 132.23633 117.45898 L 132.23633 102.57422 C 132.23633 99.762568 134.50085 97.5 137.3125 97.5 z M 149.89062 142.16211 A 22.838347 22.838347 0 0 0 127.16211 165 A 22.838347 22.838347 0 0 0 150 187.83789 A 22.838347 22.838347 0 0 0 172.83789 165 A 22.838347 22.838347 0 0 0 150 142.16211 A 22.838347 22.838347 0 0 0 149.91211 142.16211 A 22.838347 22.838347 0 0 0 149.89062 142.16211 z " />
  </g>
</svg>
