<?xml version="1.0" encoding="UTF-8" standalone="no"?>
<svg
   xmlns:dc="http://purl.org/dc/elements/1.1/"
   xmlns:cc="http://creativecommons.org/ns#"
   xmlns:rdf="http://www.w3.org/1999/02/22-rdf-syntax-ns#"
   xmlns:svg="http://www.w3.org/2000/svg"
   xmlns="http://www.w3.org/2000/svg"
   xmlns:sodipodi="http://sodipodi.sourceforge.net/DTD/sodipodi-0.dtd"
   xmlns:inkscape="http://www.inkscape.org/namespaces/inkscape"
   width="300"
   height="300"
   viewBox="0 0 300 300"
   version="1.1"
   id="svg8"
   inkscape:version="1.0.1 (3bc2e813f5, 2020-09-07)"
   sodipodi:docname="folder-pen.svg">
  <defs
     id="defs2">
    <inkscape:path-effect
       effect="fillet_chamfer"
       id="path-effect975"
       is_visible="true"
       lpeversion="1"
       satellites_param="F,0,0,1,0,5,0,1 @ F,0,0,1,0,5,0,1 @ F,0,0,1,0,15,0,1 @ F,0,0,1,0,15,0,1 @ F,0,0,1,0,15,0,1 @ F,0,0,1,0,5,0,1 @ F,0,0,1,0,5,0,1"
       unit="px"
       method="auto"
       mode="F"
       radius="0"
       chamfer_steps="1"
       flexible="false"
       use_knot_distance="true"
       apply_no_radius="true"
       apply_with_radius="true"
       only_selected="false"
       hide_knots="false" />
  </defs>
  <sodipodi:namedview
     id="base"
     pagecolor="#ffffff"
     bordercolor="#666666"
     borderopacity="1.0"
     inkscape:pageopacity="0.0"
     inkscape:pageshadow="2"
     inkscape:zoom="2"
     inkscape:cx="150"
     inkscape:cy="150"
     inkscape:document-units="px"
     inkscape:current-layer="layer1"
     inkscape:document-rotation="0"
     showgrid="false"
     units="px"
     inkscape:window-width="2560"
     inkscape:window-height="1377"
     inkscape:window-x="2552"
     inkscape:window-y="-8"
     inkscape:window-maximized="1" />
  <metadata
     id="metadata5">
    <rdf:RDF>
      <cc:Work
         rdf:about="">
        <dc:format>image/svg+xml</dc:format>
        <dc:type
           rdf:resource="http://purl.org/dc/dcmitype/StillImage" />
        <dc:title></dc:title>
      </cc:Work>
    </rdf:RDF>
  </metadata>
  <g
     inkscape:label="Ebene 1"
     inkscape:groupmode="layer"
     id="layer1">
    <path
       id="rect830-57-2"
       style="fill:#000000;stroke-width:28.8541;stop-color:#000000"
       d="M 20 25 A 8.0901699 8.0901699 0 0 0 12.763672 29.472656 L 2.2363281 50.527344 A 21.18034 21.18034 0 0 0 0 60 L 0 260 A 15 15 0 0 0 15 275 L 285 275 A 15 15 0 0 0 300 260 L 300 70 A 15 15 0 0 0 285 55 L 155 55 A 8.0901699 8.0901699 0 0 1 147.76367 50.527344 L 137.23633 29.472656 A 8.0901699 8.0901699 0 0 0 130 25 L 20 25 z M 193.16406 97.5 A 6.7946525 6.7946525 0 0 1 197.89258 99.490234 L 215.50977 117.10742 A 6.7946505 6.7946505 0 0 1 215.50977 126.7168 L 201.0957 141.12891 L 173.87109 113.9043 L 188.2832 99.490234 A 6.7946525 6.7946525 0 0 1 193.16406 97.5 z M 167.46484 120.31055 L 194.68945 147.53516 L 116.2168 226.00977 A 7.115853 7.115853 0 0 1 112.38281 227.99219 L 86.248047 232.45508 A 3.2085832 3.2085833 0 0 1 82.544922 228.75195 L 87.007812 202.61719 A 7.1158575 7.1158575 0 0 1 88.990234 198.7832 L 167.46484 120.31055 z " />
  </g>
</svg>
