<?xml version="1.0" encoding="UTF-8" standalone="no"?>
<svg
   xmlns:dc="http://purl.org/dc/elements/1.1/"
   xmlns:cc="http://creativecommons.org/ns#"
   xmlns:rdf="http://www.w3.org/1999/02/22-rdf-syntax-ns#"
   xmlns:svg="http://www.w3.org/2000/svg"
   xmlns="http://www.w3.org/2000/svg"
   xmlns:sodipodi="http://sodipodi.sourceforge.net/DTD/sodipodi-0.dtd"
   xmlns:inkscape="http://www.inkscape.org/namespaces/inkscape"
   width="300"
   height="300"
   viewBox="0 0 300 300"
   version="1.1"
   id="svg8"
   inkscape:version="1.0.1 (3bc2e813f5, 2020-09-07)"
   sodipodi:docname="folder-music.svg">
  <defs
     id="defs2">
    <inkscape:path-effect
       effect="fillet_chamfer"
       id="path-effect975"
       is_visible="true"
       lpeversion="1"
       satellites_param="F,0,0,1,0,5,0,1 @ F,0,0,1,0,5,0,1 @ F,0,0,1,0,15,0,1 @ F,0,0,1,0,15,0,1 @ F,0,0,1,0,15,0,1 @ F,0,0,1,0,5,0,1 @ F,0,0,1,0,5,0,1"
       unit="px"
       method="auto"
       mode="F"
       radius="0"
       chamfer_steps="1"
       flexible="false"
       use_knot_distance="true"
       apply_no_radius="true"
       apply_with_radius="true"
       only_selected="false"
       hide_knots="false" />
  </defs>
  <sodipodi:namedview
     id="base"
     pagecolor="#ffffff"
     bordercolor="#666666"
     borderopacity="1.0"
     inkscape:pageopacity="0.0"
     inkscape:pageshadow="2"
     inkscape:zoom="2"
     inkscape:cx="150"
     inkscape:cy="150"
     inkscape:document-units="px"
     inkscape:current-layer="layer1"
     inkscape:document-rotation="0"
     showgrid="false"
     units="px"
     inkscape:window-width="2560"
     inkscape:window-height="1377"
     inkscape:window-x="2552"
     inkscape:window-y="-8"
     inkscape:window-maximized="1" />
  <metadata
     id="metadata5">
    <rdf:RDF>
      <cc:Work
         rdf:about="">
        <dc:format>image/svg+xml</dc:format>
        <dc:type
           rdf:resource="http://purl.org/dc/dcmitype/StillImage" />
        <dc:title></dc:title>
      </cc:Work>
    </rdf:RDF>
  </metadata>
  <g
     inkscape:label="Ebene 1"
     inkscape:groupmode="layer"
     id="layer1">
    <path
       id="rect830-57-2"
       style="fill:#000000;stroke-width:28.8541;stop-color:#000000"
       d="M 20 25 A 8.0901699 8.0901699 0 0 0 12.763672 29.472656 L 2.2363281 50.527344 A 21.18034 21.18034 0 0 0 0 60 L 0 260 A 15 15 0 0 0 15 275 L 285 275 A 15 15 0 0 0 300 260 L 300 70 A 15 15 0 0 0 285 55 L 155 55 A 8.0901699 8.0901699 0 0 1 147.76367 50.527344 L 137.23633 29.472656 A 8.0901699 8.0901699 0 0 0 130 25 L 20 25 z M 211.79883 97.892578 C 213.19285 97.923608 214.55421 98.878121 214.54297 100.27539 L 214.44336 112.7832 C 214.44328 112.79246 214.44153 112.8013 214.44141 112.81055 L 214.44141 189.4082 A 20.376349 27.820609 61.7235 0 1 196.44727 214.79102 A 20.376349 27.820609 61.7235 0 1 163.15039 208.3418 A 20.376349 27.820609 61.7235 0 1 179.83203 177.52344 A 20.376349 27.820609 61.7235 0 1 199.02539 174.20703 L 199.02539 118.49219 L 138.0918 129.5332 L 138.0918 203.0957 A 20.376349 27.820609 61.7235 0 1 120.09766 228.47852 A 20.376349 27.820609 61.7235 0 1 86.800781 222.0293 A 20.376349 27.820609 61.7235 0 1 103.48242 191.20898 A 20.376349 27.820609 61.7235 0 1 122.67578 187.89258 L 122.67578 116.04688 C 122.67578 115.10786 123.19336 114.30245 123.95508 113.875 C 124.36192 113.45828 124.89386 113.15617 125.51367 113.04688 L 211.20508 97.9375 C 211.40167 97.902836 211.59968 97.888145 211.79883 97.892578 z " />
  </g>
</svg>
