<?xml version="1.0" encoding="UTF-8" standalone="no"?>
<svg
   xmlns:dc="http://purl.org/dc/elements/1.1/"
   xmlns:cc="http://creativecommons.org/ns#"
   xmlns:rdf="http://www.w3.org/1999/02/22-rdf-syntax-ns#"
   xmlns:svg="http://www.w3.org/2000/svg"
   xmlns="http://www.w3.org/2000/svg"
   xmlns:sodipodi="http://sodipodi.sourceforge.net/DTD/sodipodi-0.dtd"
   xmlns:inkscape="http://www.inkscape.org/namespaces/inkscape"
   width="291.04501"
   height="300"
   viewBox="0 0 291.04501 300.00001"
   version="1.1"
   id="svg8"
   inkscape:version="1.0.1 (3bc2e813f5, 2020-09-07)"
   sodipodi:docname="gear.svg">
  <defs
     id="defs2" />
  <sodipodi:namedview
     id="base"
     pagecolor="#ffffff"
     bordercolor="#666666"
     borderopacity="1.0"
     inkscape:pageopacity="0.0"
     inkscape:pageshadow="2"
     inkscape:zoom="2.8"
     inkscape:cx="32.349756"
     inkscape:cy="132.36094"
     inkscape:document-units="px"
     inkscape:current-layer="layer1"
     inkscape:document-rotation="0"
     showgrid="true"
     inkscape:window-width="2560"
     inkscape:window-height="1377"
     inkscape:window-x="2552"
     inkscape:window-y="-8"
     inkscape:window-maximized="1"
     units="px">
    <inkscape:grid
       type="xygrid"
       id="grid839" />
  </sodipodi:namedview>
  <metadata
     id="metadata5">
    <rdf:RDF>
      <cc:Work
         rdf:about="">
        <dc:format>image/svg+xml</dc:format>
        <dc:type
           rdf:resource="http://purl.org/dc/dcmitype/StillImage" />
        <dc:title></dc:title>
      </cc:Work>
    </rdf:RDF>
  </metadata>
  <g
     inkscape:label="Ebene 1"
     inkscape:groupmode="layer"
     id="layer1">
    <g
       id="g972"
       transform="rotate(60,150,150)">
      <g
         id="g963"
         transform="rotate(60,150,150)">
        <g
           id="g957" />
      </g>
    </g>
    <path
       id="rect835-7-3"
       style="fill:#000000;stroke:none;stroke-width:8.82643"
       d="m 117.32703,0 c -6.24813,0 -11.2782,5.030075 -11.2782,11.278195 V 44.352826 A 112.78195,112.78195 0 0 0 73.767191,62.992687 L 45.122337,46.45427 C 39.711307,43.33021 32.840205,45.171235 29.716145,50.582266 L 1.5206558,99.41773 c -3.12406,5.41103 -1.28303295,12.28214 4.1279973,15.4062 l 28.6426509,16.53621 a 112.78195,112.78195 0 0 0 0,37.27972 L 5.6486531,185.17607 c -5.41103025,3.12406 -7.2520573,9.99517 -4.1279973,15.4062 l 28.1954892,48.83546 c 3.12406,5.41103 9.995162,7.25206 15.406192,4.128 l 28.642651,-16.53621 a 112.78195,112.78195 0 0 0 15.366545,10.66362 112.78195,112.78195 0 0 0 16.917297,7.97404 v 33.07462 c 0,6.24812 5.03007,11.2782 11.2782,11.2782 H 173.718 c 6.24812,0 11.2782,-5.03008 11.2782,-11.2782 v -33.07462 a 112.78195,112.78195 0 0 0 32.28163,-18.63987 l 28.64485,16.53842 c 5.41104,3.12406 12.28213,1.28303 15.40619,-4.128 l 28.19549,-48.83546 c 3.12406,-5.41103 1.28304,-12.28214 -4.128,-15.4062 l -28.64264,-16.53621 a 112.78195,112.78195 0 0 0 0,-37.27972 l 28.64264,-16.53621 c 5.41104,-3.12406 7.25206,-9.99517 4.128,-15.4062 L 261.32887,50.582266 C 258.20481,45.171235 251.33372,43.33021 245.92268,46.45427 L 217.28003,62.990483 A 112.78195,112.78195 0 0 0 201.91349,52.326862 112.78195,112.78195 0 0 0 184.9962,44.352826 V 11.278195 C 184.9962,5.030075 179.96612,0 173.718,0 Z m 27.99944,99.24812 a 50.75188,50.75188 0 0 1 0.19604,0 A 50.75188,50.75188 0 0 1 196.27439,150 50.75188,50.75188 0 0 1 145.52251,200.75188 50.75188,50.75188 0 0 1 94.770623,150 50.75188,50.75188 0 0 1 145.32647,99.24812 Z" />
  </g>
</svg>
