<?xml version="1.0" encoding="UTF-8" standalone="no"?>
<svg
   xmlns:dc="http://purl.org/dc/elements/1.1/"
   xmlns:cc="http://creativecommons.org/ns#"
   xmlns:rdf="http://www.w3.org/1999/02/22-rdf-syntax-ns#"
   xmlns:svg="http://www.w3.org/2000/svg"
   xmlns="http://www.w3.org/2000/svg"
   xmlns:sodipodi="http://sodipodi.sourceforge.net/DTD/sodipodi-0.dtd"
   xmlns:inkscape="http://www.inkscape.org/namespaces/inkscape"
   width="300"
   height="300"
   viewBox="0 0 300 300"
   version="1.1"
   id="svg8"
   inkscape:version="1.0.1 (3bc2e813f5, 2020-09-07)"
   sodipodi:docname="house.svg">
  <defs
     id="defs2" />
  <sodipodi:namedview
     id="base"
     pagecolor="#ffffff"
     bordercolor="#666666"
     borderopacity="1.0"
     inkscape:pageopacity="0.0"
     inkscape:pageshadow="2"
     inkscape:zoom="2"
     inkscape:cx="150"
     inkscape:cy="150"
     inkscape:document-units="px"
     inkscape:current-layer="layer1"
     inkscape:document-rotation="0"
     showgrid="false"
     units="px"
     inkscape:window-width="2560"
     inkscape:window-height="1377"
     inkscape:window-x="2552"
     inkscape:window-y="-8"
     inkscape:window-maximized="1" />
  <metadata
     id="metadata5">
    <rdf:RDF>
      <cc:Work
         rdf:about="">
        <dc:format>image/svg+xml</dc:format>
        <dc:type
           rdf:resource="http://purl.org/dc/dcmitype/StillImage" />
        <dc:title></dc:title>
      </cc:Work>
    </rdf:RDF>
  </metadata>
  <g
     inkscape:label="Ebene 1"
     inkscape:groupmode="layer"
     id="layer1">
    <path
       id="rect830"
       style="fill:#000000;stroke-width:22.6209;stop-color:#000000"
       d="m 150.01074,13.547851 a 17.99848,17.44644 0 0 0 -12.38867,4.78125 L 4.243162,140.81348 a 13.589097,13.172299 0 0 0 9.345704,22.73437 h 20.65039 v 107.9043 c 0,8.31 6.69,15 15,15 H 99.4541 a 15,15 0 0 0 15,-15 v -55 c 0,-8.28427 6.71573,-15 15,-15 h 40.00001 c 8.28427,0 15,6.71573 15,15 v 55 a 15,15 0 0 0 15,15 h 49.78516 c 8.31,0 15,-6.69 15,-15 v -107.9043 h 22.17187 a 13.589097,13.172299 0 0 0 9.3457,-22.73437 L 162.37793,18.329101 a 17.99848,17.44644 0 0 0 -12.36719,-4.78125 z" />
  </g>
</svg>
