<?xml version="1.0" encoding="UTF-8" standalone="no"?>
<svg
   xmlns:dc="http://purl.org/dc/elements/1.1/"
   xmlns:cc="http://creativecommons.org/ns#"
   xmlns:rdf="http://www.w3.org/1999/02/22-rdf-syntax-ns#"
   xmlns:svg="http://www.w3.org/2000/svg"
   xmlns="http://www.w3.org/2000/svg"
   xmlns:sodipodi="http://sodipodi.sourceforge.net/DTD/sodipodi-0.dtd"
   xmlns:inkscape="http://www.inkscape.org/namespaces/inkscape"
   width="300"
   height="300"
   viewBox="0 0 300 300"
   version="1.1"
   id="svg8"
   inkscape:version="1.0.1 (3bc2e813f5, 2020-09-07)"
   sodipodi:docname="image.svg">
  <defs
     id="defs2" />
  <sodipodi:namedview
     id="base"
     pagecolor="#ffffff"
     bordercolor="#666666"
     borderopacity="1.0"
     inkscape:pageopacity="0.0"
     inkscape:pageshadow="2"
     inkscape:zoom="2"
     inkscape:cx="150"
     inkscape:cy="150"
     inkscape:document-units="px"
     inkscape:current-layer="layer1"
     inkscape:document-rotation="0"
     showgrid="false"
     units="px"
     inkscape:window-width="2560"
     inkscape:window-height="1377"
     inkscape:window-x="2552"
     inkscape:window-y="-8"
     inkscape:window-maximized="1" />
  <metadata
     id="metadata5">
    <rdf:RDF>
      <cc:Work
         rdf:about="">
        <dc:format>image/svg+xml</dc:format>
        <dc:type
           rdf:resource="http://purl.org/dc/dcmitype/StillImage" />
        <dc:title></dc:title>
      </cc:Work>
    </rdf:RDF>
  </metadata>
  <g
     inkscape:label="Ebene 1"
     inkscape:groupmode="layer"
     id="layer1">
    <path
       id="rect830"
       style="fill:#000000;stroke-width:23.2695;stop-color:#000000"
       d="M 15,0 C 6.69,0 0,6.69 0,15 v 270 c 0,8.31 6.69,15 15,15 h 270 c 8.31,0 15,-6.69 15,-15 V 15 C 300,6.69 293.31,0 285,0 Z M 58.832031,34 A 25,25 0 0 1 59,34 25,25 0 0 1 84,59 25,25 0 0 1 59,84 25,25 0 0 1 34,59 25,25 0 0 1 58.832031,34 Z M 224.88672,57.421875 a 3.9534764,3.9534764 0 0 1 3.21484,1.5 L 270,111.91211 V 270 H 55 L 221.89844,58.921875 a 3.9534764,3.9534764 0 0 1 2.98828,-1.5 z M 68.585938,167.75195 a 3.1646761,3.1646761 0 0 1 2.630859,1.47266 L 93.208984,203.9707 41,270 H 30 v -44.10547 l 35.869141,-56.66992 a 3.1646761,3.1646761 0 0 1 2.568359,-1.4707 3.1646761,3.1646761 0 0 1 0.148438,-0.002 z" />
  </g>
</svg>
