<?xml version="1.0" encoding="UTF-8" standalone="no"?>
<svg
   xmlns:dc="http://purl.org/dc/elements/1.1/"
   xmlns:cc="http://creativecommons.org/ns#"
   xmlns:rdf="http://www.w3.org/1999/02/22-rdf-syntax-ns#"
   xmlns:svg="http://www.w3.org/2000/svg"
   xmlns="http://www.w3.org/2000/svg"
   xmlns:sodipodi="http://sodipodi.sourceforge.net/DTD/sodipodi-0.dtd"
   xmlns:inkscape="http://www.inkscape.org/namespaces/inkscape"
   width="300"
   height="300"
   viewBox="0 0 300 300.00001"
   version="1.1"
   id="svg8"
   inkscape:version="1.0.1 (3bc2e813f5, 2020-09-07)"
   sodipodi:docname="lens.svg">
  <defs
     id="defs2" />
  <sodipodi:namedview
     id="base"
     pagecolor="#ffffff"
     bordercolor="#666666"
     borderopacity="1.0"
     inkscape:pageopacity="0.0"
     inkscape:pageshadow="2"
     inkscape:zoom="1.979899"
     inkscape:cx="64.166412"
     inkscape:cy="244.61082"
     inkscape:document-units="px"
     inkscape:current-layer="layer1"
     inkscape:document-rotation="0"
     showgrid="true"
     units="px"
     inkscape:window-width="2560"
     inkscape:window-height="1377"
     inkscape:window-x="2552"
     inkscape:window-y="-8"
     inkscape:window-maximized="1">
    <inkscape:grid
       type="xygrid"
       id="grid833" />
  </sodipodi:namedview>
  <metadata
     id="metadata5">
    <rdf:RDF>
      <cc:Work
         rdf:about="">
        <dc:format>image/svg+xml</dc:format>
        <dc:type
           rdf:resource="http://purl.org/dc/dcmitype/StillImage" />
        <dc:title />
      </cc:Work>
    </rdf:RDF>
  </metadata>
  <g
     inkscape:label="Ebene 1"
     inkscape:groupmode="layer"
     id="layer1">
    <path
       id="path835"
       style="fill:#000000;fill-opacity:1;stroke-width:10.2802;stop-color:#000000"
       d="M 110 0 A 110 110 0 0 0 0 110 A 110 110 0 0 0 110 220 A 110 110 0 0 0 178.84766 195.78906 C 179.29005 205.09787 182.0969 217.45238 186.82227 222.17773 L 259.0918 294.44727 C 266.4947 301.85016 278.41544 301.85016 285.81836 294.44727 L 294.44727 285.81836 C 301.85016 278.41544 301.85016 266.4947 294.44727 259.0918 L 222.17773 186.82227 C 217.45238 182.0969 205.09787 179.29005 195.78906 178.84766 A 110 110 0 0 0 220 110 A 110 110 0 0 0 110 0 z M 109.97852 36.607422 A 73.392853 73.392853 0 0 1 110 36.607422 A 73.392853 73.392853 0 0 1 183.39258 110 A 73.392853 73.392853 0 0 1 110 183.39258 A 73.392853 73.392853 0 0 1 36.607422 110 A 73.392853 73.392853 0 0 1 109.97852 36.607422 z " />
  </g>
</svg>
