<?xml version="1.0" encoding="UTF-8" standalone="no"?>
<svg
   xmlns:dc="http://purl.org/dc/elements/1.1/"
   xmlns:cc="http://creativecommons.org/ns#"
   xmlns:rdf="http://www.w3.org/1999/02/22-rdf-syntax-ns#"
   xmlns:svg="http://www.w3.org/2000/svg"
   xmlns="http://www.w3.org/2000/svg"
   xmlns:sodipodi="http://sodipodi.sourceforge.net/DTD/sodipodi-0.dtd"
   xmlns:inkscape="http://www.inkscape.org/namespaces/inkscape"
   width="300"
   height="300"
   viewBox="0 0 300 300"
   version="1.1"
   id="svg8"
   inkscape:version="1.0.1 (3bc2e813f5, 2020-09-07)"
   sodipodi:docname="lightbulb-outline.svg">
  <defs
     id="defs2" />
  <sodipodi:namedview
     id="base"
     pagecolor="#ffffff"
     bordercolor="#666666"
     borderopacity="1.0"
     inkscape:pageopacity="0.0"
     inkscape:pageshadow="2"
     inkscape:zoom="2"
     inkscape:cx="150"
     inkscape:cy="150"
     inkscape:document-units="px"
     inkscape:current-layer="layer1"
     inkscape:document-rotation="0"
     showgrid="false"
     units="px"
     inkscape:window-width="2560"
     inkscape:window-height="1377"
     inkscape:window-x="2552"
     inkscape:window-y="-8"
     inkscape:window-maximized="1" />
  <metadata
     id="metadata5">
    <rdf:RDF>
      <cc:Work
         rdf:about="">
        <dc:format>image/svg+xml</dc:format>
        <dc:type
           rdf:resource="http://purl.org/dc/dcmitype/StillImage" />
        <dc:title></dc:title>
      </cc:Work>
    </rdf:RDF>
  </metadata>
  <g
     inkscape:label="Ebene 1"
     inkscape:groupmode="layer"
     id="layer1">
    <path
       id="path1005"
       style="fill:#000000;stroke-width:32.3986;stop-color:#000000"
       d="m 105,255 v 28 a 4.8284271,4.8284271 0 0 0 1.41421,3.41421 l 12.17158,12.17158 A 4.8284271,4.8284271 0 0 0 122,300 h 56 a 4.8284271,4.8284271 0 0 0 3.41421,-1.41421 l 12.17158,-12.17158 A 4.8284271,4.8284271 0 0 0 195,283 V 255 Z M 150,0 C 86.278138,3.7224e-4 34.62146,51.657048 34.62109,115.37891 c -2.2e-5,38.43017 19.066738,73.76913 49.916015,95.01757 C 95.152439,217.70814 105,232.08808 105,245 h 90 c 0,-12.91192 9.84755,-27.29186 20.46289,-34.60352 30.84928,-21.24844 49.91604,-56.58741 49.91602,-95.01757 C 265.37854,51.657047 213.72186,3.7003e-4 150,0 Z m 0,19.974609 c 52.92689,3.08e-4 95.40399,42.477396 95.4043,95.404301 1e-5,31.82336 -15.77624,61.00768 -41.27149,78.56836 -10.90451,7.51084 -20.39758,17.91293 -25.3789,31.07812 H 121.24609 C 116.26476,211.8602 106.7717,201.4581 95.867184,193.94727 70.371937,176.38659 54.595681,147.20228 54.595699,115.37891 54.596006,62.452005 97.073103,19.974919 150,19.974609 Z" />
  </g>
</svg>
