<?xml version="1.0" encoding="UTF-8" standalone="no"?>
<svg
   xmlns:dc="http://purl.org/dc/elements/1.1/"
   xmlns:cc="http://creativecommons.org/ns#"
   xmlns:rdf="http://www.w3.org/1999/02/22-rdf-syntax-ns#"
   xmlns:svg="http://www.w3.org/2000/svg"
   xmlns="http://www.w3.org/2000/svg"
   xmlns:sodipodi="http://sodipodi.sourceforge.net/DTD/sodipodi-0.dtd"
   xmlns:inkscape="http://www.inkscape.org/namespaces/inkscape"
   width="300"
   height="300"
   viewBox="0 0 300 300"
   version="1.1"
   id="svg8"
   inkscape:version="1.0.1 (3bc2e813f5, 2020-09-07)"
   sodipodi:docname="lightbulb.svg">
  <defs
     id="defs2" />
  <sodipodi:namedview
     id="base"
     pagecolor="#ffffff"
     bordercolor="#666666"
     borderopacity="1.0"
     inkscape:pageopacity="0.0"
     inkscape:pageshadow="2"
     inkscape:zoom="2"
     inkscape:cx="150"
     inkscape:cy="150"
     inkscape:document-units="px"
     inkscape:current-layer="layer1"
     inkscape:document-rotation="0"
     showgrid="false"
     units="px"
     inkscape:window-width="2560"
     inkscape:window-height="1377"
     inkscape:window-x="2552"
     inkscape:window-y="-8"
     inkscape:window-maximized="1" />
  <metadata
     id="metadata5">
    <rdf:RDF>
      <cc:Work
         rdf:about="">
        <dc:format>image/svg+xml</dc:format>
        <dc:type
           rdf:resource="http://purl.org/dc/dcmitype/StillImage" />
        <dc:title></dc:title>
      </cc:Work>
    </rdf:RDF>
  </metadata>
  <g
     inkscape:label="Ebene 1"
     inkscape:groupmode="layer"
     id="layer1">
    <path
       id="path865"
       style="fill:#000000;stroke-width:32.3986;stop-color:#000000"
       d="M 150,0 C 86.278138,3.7e-4 34.62146,51.657052 34.62109,115.37891 c -2.2e-5,38.43017 19.067413,73.76856 49.91669,95.017 C 95.153114,217.70757 105,232.08808 105,245 h 90 c 0,-12.91192 9.84688,-27.29243 20.46222,-34.60409 30.84928,-21.24844 49.91671,-56.58684 49.91669,-95.017 C 265.37854,51.657051 213.72186,3.7e-4 150,0 Z m -45,255 v 28 a 4.8284271,4.8284271 0 0 0 1.41421,3.41421 l 12.17158,12.17158 A 4.8284271,4.8284271 0 0 0 122,300 h 56 a 4.8284271,4.8284271 0 0 0 3.41421,-1.41421 l 12.17158,-12.17158 A 4.8284271,4.8284271 0 0 0 195,283 v -28 z" />
  </g>
</svg>
