<?xml version="1.0" encoding="UTF-8" standalone="no"?>
<svg
   xmlns:dc="http://purl.org/dc/elements/1.1/"
   xmlns:cc="http://creativecommons.org/ns#"
   xmlns:rdf="http://www.w3.org/1999/02/22-rdf-syntax-ns#"
   xmlns:svg="http://www.w3.org/2000/svg"
   xmlns="http://www.w3.org/2000/svg"
   xmlns:sodipodi="http://sodipodi.sourceforge.net/DTD/sodipodi-0.dtd"
   xmlns:inkscape="http://www.inkscape.org/namespaces/inkscape"
   width="300"
   height="300"
   viewBox="0 0 300 300"
   version="1.1"
   id="svg8"
   inkscape:version="1.0.1 (3bc2e813f5, 2020-09-07)"
   sodipodi:docname="link-external.svg">
  <defs
     id="defs2">
    <inkscape:path-effect
       effect="fillet_chamfer"
       id="path-effect864"
       is_visible="true"
       lpeversion="1"
       satellites_param="F,0,0,1,0,0,0,1 @ F,0,0,1,0,0,0,1 @ F,0,0,1,0,0,0,1 @ F,0,0,1,0,0,0,1 @ F,0,0,1,0,0,0,1 @ F,0,0,1,0,0,0,1 @ F,0,0,1,0,10,0,1 @ F,0,0,1,0,10,0,1 @ F,0,0,1,0,0,0,1 @ F,0,0,1,0,0,0,1 @ F,0,0,1,0,0,0,1 @ F,0,0,1,0,0,0,1 @ F,0,0,1,0,0,0,1 @ F,0,0,1,0,0,0,1 @ F,0,0,1,0,10,0,1 @ F,0,0,1,0,10,0,1 | F,0,0,1,0,10,0,1 @ F,0,0,1,0,10,0,1 @ F,0,0,1,0,0,0,1 @ F,0,0,1,0,0,0,1 @ F,0,0,1,0,10,0,1 @ F,0,0,1,0,10,0,1 @ F,0,0,1,0,0,0,1 @ F,0,0,1,0,0,0,1"
       unit="px"
       method="auto"
       mode="F"
       radius="0"
       chamfer_steps="1"
       flexible="false"
       use_knot_distance="true"
       apply_no_radius="true"
       apply_with_radius="true"
       only_selected="false"
       hide_knots="false" />
    <inkscape:path-effect
       effect="fillet_chamfer"
       id="path-effect844"
       is_visible="true"
       lpeversion="1"
       satellites_param="F,0,0,1,0,0,0,1 @ F,0,0,1,0,0,0,1 @ F,0,0,1,0,0,0,1 @ F,0,0,1,0,0,0,1"
       unit="px"
       method="auto"
       mode="F"
       radius="10"
       chamfer_steps="1"
       flexible="false"
       use_knot_distance="true"
       apply_no_radius="true"
       apply_with_radius="true"
       only_selected="false"
       hide_knots="false" />
  </defs>
  <sodipodi:namedview
     id="base"
     pagecolor="#ffffff"
     bordercolor="#666666"
     borderopacity="1.0"
     inkscape:pageopacity="0.0"
     inkscape:pageshadow="2"
     inkscape:zoom="2"
     inkscape:cx="34.635215"
     inkscape:cy="191.14619"
     inkscape:document-units="px"
     inkscape:current-layer="layer1"
     inkscape:document-rotation="0"
     showgrid="true"
     units="px"
     inkscape:window-width="2560"
     inkscape:window-height="1377"
     inkscape:window-x="2552"
     inkscape:window-y="-8"
     inkscape:window-maximized="1">
    <inkscape:grid
       type="xygrid"
       id="grid835" />
  </sodipodi:namedview>
  <metadata
     id="metadata5">
    <rdf:RDF>
      <cc:Work
         rdf:about="">
        <dc:format>image/svg+xml</dc:format>
        <dc:type
           rdf:resource="http://purl.org/dc/dcmitype/StillImage" />
        <dc:title></dc:title>
      </cc:Work>
    </rdf:RDF>
  </metadata>
  <g
     inkscape:label="Ebene 1"
     inkscape:groupmode="layer"
     id="layer1">
    <path
       id="path838"
       style="fill:#000000;stroke-width:19.656;stop-color:#000000"
       d="M 15,0 C 6.69,0 0,6.69 0,15 v 270 c 0,8.31 6.69,15 15,15 h 270 c 8.31,0 15,-6.69 15,-15 V 115 a 10,10 45 0 0 -10,-10 h -10 a 10,10 135 0 0 -10,10 v 150 c 0,2.77 -2.23,5 -5,5 H 35 c -2.77,0 -5,-2.23 -5,-5 V 35 c 0,-2.77 2.23,-5 5,-5 H 185 A 10,10 135 0 0 195,20 V 10 A 10,10 45 0 0 185,0 Z m 210,0 a 10,10 135 0 0 -10,10 v 10 a 10,10 45 0 0 10,10 h 40 c 2.77,0 5,2.23 5,5 v 40 a 10,10 45 0 0 10,10 h 10 A 10,10 135 0 0 300,75 V 15 C 300,6.69 293.31,0 285,0 Z" />
    <path
       id="rect866"
       style="fill:#000000;stroke-width:28.4225;stop-color:#000000"
       transform="rotate(45)"
       d="m 207.13203,-202.97702 h 10 c 5.54,0 10,4.46 10,10 V 17.022981 c 0,5.539999 -4.46,9.999999 -10,9.999999 h -10 c -5.54,0 -10,-4.46 -10,-9.999999 V -192.97702 c 0,-5.54 4.46,-10 10,-10 z M 10.606602,-10.606602 c -5.8760576,5.8760576 -5.8760576,15.3371464 0,21.213204 L 201.52543,201.52543 c 5.87606,5.87606 15.33715,5.87606 21.21321,0 L 413.65747,10.606602 c 5.87605,-5.8760576 5.87605,-15.3371464 0,-21.213204 L 293.44931,-130.81475 a 10,10 0 0 0 -14.14213,0 l -7.07107,7.07106 a 10,10 0 0 0 0,14.14214 L 378.30213,-3.5355339 c 1.95868,1.9586858 1.95868,5.112382 0,7.0710678 L 215.66757,166.17009 c -1.95869,1.95869 -5.11238,1.95869 -7.07107,0 L 45.961941,3.5355339 c -1.958686,-1.9586858 -1.958686,-5.112382 0,-7.0710678 L 152.02796,-109.60155 a 10,10 0 0 0 0,-14.14214 l -7.07107,-7.07106 a 10,10 0 0 0 -14.14214,0 z m 148.492428,-134.350288 7.07106,7.07107 a 10,10 0 0 0 14.14214,0 l 28.28427,-28.28427 c 1.95869,-1.95869 5.11238,-1.95869 7.07107,0 l 28.28427,28.28427 a 10,10 0 0 0 14.14214,0 l 7.07106,-7.07107 a 10,10 0 0 0 0,-14.14214 l -42.4264,-42.4264 c -5.87606,-5.87606 -15.33715,-5.87606 -21.21321,0 l -42.4264,42.4264 a 10,10 0 0 0 0,14.14214 z" />
  </g>
</svg>
