<?xml version="1.0" encoding="UTF-8" standalone="no"?>
<svg
   xmlns:dc="http://purl.org/dc/elements/1.1/"
   xmlns:cc="http://creativecommons.org/ns#"
   xmlns:rdf="http://www.w3.org/1999/02/22-rdf-syntax-ns#"
   xmlns:svg="http://www.w3.org/2000/svg"
   xmlns="http://www.w3.org/2000/svg"
   xmlns:sodipodi="http://sodipodi.sourceforge.net/DTD/sodipodi-0.dtd"
   xmlns:inkscape="http://www.inkscape.org/namespaces/inkscape"
   width="300"
   height="300"
   viewBox="0 0 79.374998 79.375002"
   version="1.1"
   id="svg8"
   inkscape:version="1.0.1 (3bc2e813f5, 2020-09-07)"
   sodipodi:docname="lock_keyhole.svg">
  <defs
     id="defs2" />
  <sodipodi:namedview
     id="base"
     pagecolor="#ffffff"
     bordercolor="#666666"
     borderopacity="1.0"
     inkscape:pageopacity="0.0"
     inkscape:pageshadow="2"
     inkscape:zoom="2.8"
     inkscape:cx="213.01563"
     inkscape:cy="188.89654"
     inkscape:document-units="mm"
     inkscape:current-layer="layer1"
     inkscape:document-rotation="0"
     showgrid="true"
     units="px"
     inkscape:window-width="2560"
     inkscape:window-height="1377"
     inkscape:window-x="2552"
     inkscape:window-y="-8"
     inkscape:window-maximized="1">
    <inkscape:grid
       type="xygrid"
       id="grid850" />
  </sodipodi:namedview>
  <metadata
     id="metadata5">
    <rdf:RDF>
      <cc:Work
         rdf:about="">
        <dc:format>image/svg+xml</dc:format>
        <dc:type
           rdf:resource="http://purl.org/dc/dcmitype/StillImage" />
        <dc:title />
      </cc:Work>
    </rdf:RDF>
  </metadata>
  <g
     inkscape:label="Ebene 1"
     inkscape:groupmode="layer"
     id="layer1">
    <path
       id="rect847"
       style="fill:#000000;stroke:none;stroke-width:9.86468"
       d="M 150 0 C 75 0 40 33.485477 40 78.539062 C 39.999996 104.9997 40 160 40 160 L 36.378906 160 C 27.305522 160 20 168.42914 20 178.89844 L 20 281.10156 C 20 291.57085 27.305522 300 36.378906 300 L 263.62109 300 C 272.69448 300 280 291.57085 280 281.10156 L 280 178.89844 C 280 168.42914 272.69448 160 263.62109 160 L 260 160 L 260 78.539062 C 260 33.485477 225 1.8947806e-14 150 0 z M 150 32.330078 C 197.72727 32.330078 220 59.050321 220 95 L 220 160 L 80 160 C 80 160 79.999992 116.11377 80 95 C 80 59.050321 102.27273 32.330078 150 32.330078 z M 150 195 C 161.08 195 170 203.92 170 215 L 170 245 C 170 256.08 161.08 265 150 265 C 138.92 265 130 256.08 130 245 L 130 215 C 130 203.92 138.92 195 150 195 z "
       transform="scale(0.26458333)" />
  </g>
</svg>
