<?xml version="1.0" encoding="UTF-8" standalone="no"?>
<svg
   xmlns:dc="http://purl.org/dc/elements/1.1/"
   xmlns:cc="http://creativecommons.org/ns#"
   xmlns:rdf="http://www.w3.org/1999/02/22-rdf-syntax-ns#"
   xmlns:svg="http://www.w3.org/2000/svg"
   xmlns="http://www.w3.org/2000/svg"
   xmlns:sodipodi="http://sodipodi.sourceforge.net/DTD/sodipodi-0.dtd"
   xmlns:inkscape="http://www.inkscape.org/namespaces/inkscape"
   width="300"
   height="300"
   viewBox="0 0 300 300"
   version="1.1"
   id="svg8"
   inkscape:version="1.0.1 (3bc2e813f5, 2020-09-07)"
   sodipodi:docname="ribbon.svg">
  <defs
     id="defs2" />
  <sodipodi:namedview
     id="base"
     pagecolor="#ffffff"
     bordercolor="#666666"
     borderopacity="1.0"
     inkscape:pageopacity="0.0"
     inkscape:pageshadow="2"
     inkscape:zoom="2"
     inkscape:cx="150"
     inkscape:cy="150"
     inkscape:document-units="px"
     inkscape:current-layer="layer1"
     inkscape:document-rotation="0"
     showgrid="false"
     units="px"
     inkscape:window-width="2560"
     inkscape:window-height="1377"
     inkscape:window-x="2552"
     inkscape:window-y="-8"
     inkscape:window-maximized="1" />
  <metadata
     id="metadata5">
    <rdf:RDF>
      <cc:Work
         rdf:about="">
        <dc:format>image/svg+xml</dc:format>
        <dc:type
           rdf:resource="http://purl.org/dc/dcmitype/StillImage" />
        <dc:title></dc:title>
      </cc:Work>
    </rdf:RDF>
  </metadata>
  <g
     inkscape:label="Ebene 1"
     inkscape:groupmode="layer"
     id="layer1">
    <path
       id="path1396"
       style="fill:#000000;stroke-width:40.95;stop-color:#000000"
       d="M 149.94922,6.6391726e-7 C 143.77576,0.01200066 137.91264,2.1577807 133.25781,5.9121107 c -4.27369,3.44692 -10.37818,5.0827203 -15.80273,4.2343803 -5.92511,-0.9266303 -12.0929,0.15446 -17.45508,3.25 -5.36238,3.09579 -9.384529,7.89739 -11.544922,13.49218 -1.977795,5.12192 -6.446503,9.59048 -11.568359,11.56836 -5.59413,2.16026 -10.394497,6.18138 -13.490235,11.54297 -3.095783,5.36201 -4.178276,11.52994 -3.251953,17.45508 0.848072,5.42462 -0.787717,11.52886 -4.234375,15.80273 C 52.145655,87.925811 50.000073,93.808801 50,100 c 2.44e-4,6.19145 2.147206,12.07422 5.912109,16.74219 3.446907,4.2737 5.082716,10.37818 4.234375,15.80273 -0.926624,5.92511 0.154469,12.0929 3.25,17.45508 3.095792,5.36238 7.897396,9.38453 13.492188,11.54492 5.121917,1.9778 9.590479,6.4465 11.568359,11.56836 2.160257,5.59413 6.181378,10.3945 11.542969,13.49024 5.36201,3.09578 11.52994,4.17827 17.45508,3.25195 5.42462,-0.84807 11.52886,0.78771 15.80273,4.23437 4.66799,3.7645 10.55099,5.91009 16.74219,5.91016 6.19145,-2.4e-4 12.07422,-2.14721 16.74219,-5.91211 4.2737,-3.44691 10.37818,-5.08271 15.80273,-4.23437 5.92511,0.92662 12.0929,-0.15447 17.45508,-3.25 5.36238,-3.09579 9.38452,-7.8974 11.54492,-13.49219 1.97779,-5.12192 6.4465,-9.59048 11.56836,-11.56836 5.59413,-2.16026 10.3945,-6.18138 13.49024,-11.54297 3.09578,-5.36201 4.17827,-11.52994 3.25195,-17.45508 -0.84807,-5.42462 0.78771,-11.52886 4.23437,-15.80273 C 247.85434,112.0742 249.99993,106.1912 250,100 c -2.4e-4,-6.191449 -2.14721,-12.074209 -5.91211,-16.742189 -3.44691,-4.2737 -5.08271,-10.37818 -4.23437,-15.80273 0.92662,-5.92511 -0.15447,-12.0929 -3.25,-17.45508 -3.09579,-5.36238 -7.8974,-9.38453 -13.49219,-11.54492 -5.12192,-1.97779 -9.59048,-6.4465 -11.56836,-11.56836 C 209.38271,21.292591 205.36159,16.492221 200,13.396491 194.63799,10.300701 188.47006,9.2182107 182.54492,10.144531 177.1203,10.992601 171.01606,9.3568207 166.74219,5.9101607 162.0742,2.1456607 156.1912,7.0663917e-5 150,6.6391726e-7 Z M 149.92382,60.000001 a 40,40 0 0 1 0.0762,0 40,40 0 0 1 40,39.999999 40,40 0 0 1 -40,40 40,40 0 0 1 -40,-40 40,40 0 0 1 39.92383,-39.999999 z m 50.38281,142.870049 c -6.47682,2.24278 -13.38138,2.85222 -20.08008,1.80464 -0.81907,-0.12809 -3.42262,0.56902 -4.06836,1.08982 -7.29241,5.88147 -16.49948,9.23573 -26.1582,9.2361 -9.65664,-1.1e-4 -18.86438,-3.35218 -26.1582,-9.23415 -0.64637,-0.52124 -3.25056,-1.21797 -4.07032,-1.08982 -6.69949,1.04737 -13.6029,0.43818 -20.078121,-1.80464 l -21.209968,88.83638 a 6.72897,6.72897 0 0 0 9.729968,7.49013 l 57.382191,-30.83258 a 9.3054464,9.3054464 0 0 1 8.8089,0 l 57.38219,30.83258 a 6.7290083,6.7290083 0 0 0 9.73003,-7.49014 z" />
  </g>
</svg>
