<?xml version="1.0" encoding="UTF-8" standalone="no"?>
<svg
   xmlns:dc="http://purl.org/dc/elements/1.1/"
   xmlns:cc="http://creativecommons.org/ns#"
   xmlns:rdf="http://www.w3.org/1999/02/22-rdf-syntax-ns#"
   xmlns:svg="http://www.w3.org/2000/svg"
   xmlns="http://www.w3.org/2000/svg"
   xmlns:sodipodi="http://sodipodi.sourceforge.net/DTD/sodipodi-0.dtd"
   xmlns:inkscape="http://www.inkscape.org/namespaces/inkscape"
   width="300"
   height="300"
   viewBox="0 0 300 300"
   version="1.1"
   id="svg8"
   inkscape:version="1.0.1 (3bc2e813f5, 2020-09-07)"
   sodipodi:docname="scissors.svg">
  <defs
     id="defs2" />
  <sodipodi:namedview
     id="base"
     pagecolor="#ffffff"
     bordercolor="#666666"
     borderopacity="1.0"
     inkscape:pageopacity="0.0"
     inkscape:pageshadow="2"
     inkscape:zoom="2"
     inkscape:cx="150"
     inkscape:cy="150"
     inkscape:document-units="px"
     inkscape:current-layer="layer1"
     inkscape:document-rotation="0"
     showgrid="false"
     units="px"
     inkscape:window-width="2560"
     inkscape:window-height="1377"
     inkscape:window-x="2552"
     inkscape:window-y="-8"
     inkscape:window-maximized="1" />
  <metadata
     id="metadata5">
    <rdf:RDF>
      <cc:Work
         rdf:about="">
        <dc:format>image/svg+xml</dc:format>
        <dc:type
           rdf:resource="http://purl.org/dc/dcmitype/StillImage" />
        <dc:title></dc:title>
      </cc:Work>
    </rdf:RDF>
  </metadata>
  <g
     inkscape:label="Ebene 1"
     inkscape:groupmode="layer"
     id="layer1">
    <path
       id="path835"
       style="fill:#000000;stroke-width:17.91;stop-color:#000000"
       d="M 206.65696,3.8705998 C 195.48119,8.7050798 186.36232,17.73573 181.54006,29.3784 l -48.08547,116.08863 -13.31512,5.51531 c -15.3543,6.01247 -45.823105,-7.50739 -45.823105,-7.50739 l 0.0074,0.0179 c -9.646093,-5.22255 -22.616039,-6.88116 -36.060151,-3.65264 -3.082859,0.74032 -6.044174,1.70212 -8.858818,2.85513 -19.7024863,8.0711 -32.2137086,25.51621 -28.86334119,42.01949 3.82898129,18.86091 26.92606819,29.34951 51.58891719,23.4269 4.1824,-1.0044 8.134565,-2.42504 11.806674,-4.16928 l -0.0609,0.11136 31.519397,-13.05577 -0.006,-0.0143 23.174827,-9.59931 -9.60751,23.19469 -0.0141,-0.005 -13.055518,31.51885 0.11026,-0.0597 c -1.744216,3.67209 -3.164884,7.62347 -4.169546,11.80575 -5.922634,24.66286 4.567079,47.76026 23.427974,51.58923 16.50327,3.35034 33.94745,-9.16047 42.01858,-28.86302 1.15298,-2.81465 2.11632,-5.77576 2.85666,-8.85859 3.22849,-13.44412 1.56949,-26.41482 -3.65306,-36.06091 l 0.0178,0.008 c 0,0 -13.52043,-30.46813 -7.50798,-45.82242 l 5.52458,-13.33701 116.10861,-48.09375 c 16.93473,-7.01343 28.34644,-23.11782 29.35087,-41.42022 l 0.028,-0.528 L 169.40266,130.57756 223.4895,2.9984167e-4 222.96138,0.02829984 c -5.71972,0.3147 -11.22454,1.64620996 -16.30442,3.84371996 z M 36.785249,160.70993 c 1.896324,-0.77716 3.912344,-1.43227 6.025063,-1.93963 8.452586,-2.02983 16.168078,-0.98483 21.011855,1.21479 4.843777,2.19958 6.415438,4.51469 6.951469,7.15506 0.536068,2.6406 -0.139273,6.29565 -4.00029,10.88881 -3.86103,4.59313 -10.73723,9.15274 -19.189755,11.18256 -8.452579,2.02986 -16.168071,0.98485 -21.011849,-1.21475 -4.84378,-2.19959 -6.415444,-4.5147 -6.951469,-7.15508 -0.93816,-4.62116 3.893008,-14.69498 17.164976,-20.13176 z m 105.466531,-8.94538 a 4.5718685,4.5718685 0 0 1 0.0121,-0.005 4.5718685,4.5718685 0 0 1 5.97351,2.47429 4.5718685,4.5718685 0 0 1 -2.47429,5.97351 4.5718685,4.5718685 0 0 1 -5.97355,-2.47431 4.5718685,4.5718685 0 0 1 2.4627,-5.96845 z m -15.54207,78.35891 c 2.42424,-1.09339 4.47122,-1.23281 6.12159,-0.89774 2.64035,0.53602 4.95416,2.1088 7.15376,6.95263 2.1996,4.84377 3.24565,12.55756 1.21582,21.01016 -0.50735,2.11271 -1.16322,4.13055 -1.94037,6.02686 -5.43679,13.27196 -15.51112,18.1019 -20.13232,17.16373 -2.64038,-0.536 -4.95532,-2.10602 -7.15493,-6.9498 -2.19962,-4.84379 -3.24447,-12.5604 -1.21466,-21.01298 2.02982,-8.45255 6.58973,-15.32838 11.18285,-19.18943 1.72243,-1.44787 3.31368,-2.44742 4.76826,-3.10343 z" />
  </g>
</svg>
