<?xml version="1.0" encoding="UTF-8" standalone="no"?>
<svg
   xmlns:dc="http://purl.org/dc/elements/1.1/"
   xmlns:cc="http://creativecommons.org/ns#"
   xmlns:rdf="http://www.w3.org/1999/02/22-rdf-syntax-ns#"
   xmlns:svg="http://www.w3.org/2000/svg"
   xmlns="http://www.w3.org/2000/svg"
   xmlns:sodipodi="http://sodipodi.sourceforge.net/DTD/sodipodi-0.dtd"
   xmlns:inkscape="http://www.inkscape.org/namespaces/inkscape"
   width="300"
   height="300"
   viewBox="0 0 300.00001 300.00001"
   version="1.1"
   id="svg8"
   inkscape:version="1.0.1 (3bc2e813f5, 2020-09-07)"
   sodipodi:docname="settings-slider.svg">
  <defs
     id="defs2" />
  <sodipodi:namedview
     id="base"
     pagecolor="#ffffff"
     bordercolor="#666666"
     borderopacity="1.0"
     inkscape:pageopacity="0.0"
     inkscape:pageshadow="2"
     inkscape:zoom="1.4"
     inkscape:cx="-11.12819"
     inkscape:cy="136.72415"
     inkscape:document-units="px"
     inkscape:current-layer="layer1"
     inkscape:document-rotation="0"
     showgrid="false"
     units="px"
     inkscape:window-width="2560"
     inkscape:window-height="1377"
     inkscape:window-x="2552"
     inkscape:window-y="-8"
     inkscape:window-maximized="1" />
  <metadata
     id="metadata5">
    <rdf:RDF>
      <cc:Work
         rdf:about="">
        <dc:format>image/svg+xml</dc:format>
        <dc:type
           rdf:resource="http://purl.org/dc/dcmitype/StillImage" />
        <dc:title></dc:title>
      </cc:Work>
    </rdf:RDF>
  </metadata>
  <g
     inkscape:label="Ebene 1"
     inkscape:groupmode="layer"
     id="layer1">
    <path
       id="rect842"
       style="fill:#000000;fill-opacity:1;stroke-width:7.72815;stop-color:#000000"
       d="M 37.794922 0 C 16.856326 0 0 16.856326 0 37.794922 L 0 262.20508 C 0 283.14368 16.856326 300 37.794922 300 L 262.20508 300 C 283.14368 300 300 283.14368 300 262.20508 L 300 37.794922 C 300 16.856326 283.14368 0 262.20508 0 L 37.794922 0 z M 92.558594 35 L 117.44141 35 C 121.62913 35 125 38.370877 125 42.558594 L 125 70 L 242.44141 70 C 246.62912 70 250 73.370877 250 77.558594 L 250 102.44141 C 250 106.62913 246.62912 110 242.44141 110 L 125 110 L 125 137.44141 C 125 141.62912 121.62913 145 117.44141 145 L 92.558594 145 C 88.370877 145 85 141.62912 85 137.44141 L 85 110 L 57.558594 110 C 53.370877 110 50 106.62913 50 102.44141 L 50 77.558594 C 50 73.370877 53.370877 70 57.558594 70 L 85 70 L 85 42.558594 C 85 38.370877 88.370877 35 92.558594 35 z M 182.55859 155 L 207.44141 155 C 211.62913 155 215 158.37088 215 162.55859 L 215 190 L 242.44141 190 C 246.62912 190 250 193.37087 250 197.55859 L 250 222.44141 C 250 226.62913 246.62912 230 242.44141 230 L 215 230 L 215 257.44141 C 215 261.62912 211.62913 265 207.44141 265 L 182.55859 265 C 178.37087 265 175 261.62912 175 257.44141 L 175 230 L 57.558594 230 C 53.370877 230 50 226.62913 50 222.44141 L 50 197.55859 C 50 193.37087 53.370877 190 57.558594 190 L 175 190 L 175 162.55859 C 175 158.37088 178.37087 155 182.55859 155 z " />
  </g>
</svg>
