<?xml version="1.0" encoding="UTF-8" standalone="no"?>
<svg
   xmlns:dc="http://purl.org/dc/elements/1.1/"
   xmlns:cc="http://creativecommons.org/ns#"
   xmlns:rdf="http://www.w3.org/1999/02/22-rdf-syntax-ns#"
   xmlns:svg="http://www.w3.org/2000/svg"
   xmlns="http://www.w3.org/2000/svg"
   xmlns:sodipodi="http://sodipodi.sourceforge.net/DTD/sodipodi-0.dtd"
   xmlns:inkscape="http://www.inkscape.org/namespaces/inkscape"
   width="300"
   height="300"
   viewBox="0 0 300 300"
   version="1.1"
   id="svg8"
   inkscape:version="1.0.1 (3bc2e813f5, 2020-09-07)"
   sodipodi:docname="share.svg">
  <defs
     id="defs2" />
  <sodipodi:namedview
     id="base"
     pagecolor="#ffffff"
     bordercolor="#666666"
     borderopacity="1.0"
     inkscape:pageopacity="0.0"
     inkscape:pageshadow="2"
     inkscape:zoom="2"
     inkscape:cx="150"
     inkscape:cy="150"
     inkscape:document-units="px"
     inkscape:current-layer="layer1"
     inkscape:document-rotation="0"
     showgrid="false"
     units="px"
     inkscape:window-width="2560"
     inkscape:window-height="1377"
     inkscape:window-x="-8"
     inkscape:window-y="-8"
     inkscape:window-maximized="1" />
  <metadata
     id="metadata5">
    <rdf:RDF>
      <cc:Work
         rdf:about="">
        <dc:format>image/svg+xml</dc:format>
        <dc:type
           rdf:resource="http://purl.org/dc/dcmitype/StillImage" />
        <dc:title />
      </cc:Work>
    </rdf:RDF>
  </metadata>
  <g
     inkscape:label="Ebene 1"
     inkscape:groupmode="layer"
     id="layer1">
    <path
       id="rect956-1-61-7"
       style="fill:#000000;fill-opacity:1;stroke-width:13.5724;stop-color:#000000"
       d="M 234.63552,0.00168069 A 51.922862,51.922862 0 0 0 208.97382,6.9585331 51.922862,51.922862 0 0 0 183.41352,58.354053 L 96.395409,108.59572 a 51.922862,51.922862 0 0 0 -0.241141,-0.17802 51.922862,51.922862 0 0 0 -0.522829,-0.38762 51.922862,51.922862 0 0 0 -0.52734,-0.3786 51.922862,51.922862 0 0 0 -0.534102,-0.3741 51.922862,51.922862 0 0 0 -0.538613,-0.36734 51.922862,51.922862 0 0 0 -0.540863,-0.35832 51.922862,51.922862 0 0 0 -0.547625,-0.35382 51.922862,51.922862 0 0 0 -1.061441,-0.65805 51.922862,51.922862 0 0 0 -0.04507,-0.027 51.922862,51.922862 0 0 0 -0.07438,-0.0428 51.922862,51.922862 0 0 0 -0.486771,-0.28846 51.922862,51.922862 0 0 0 -0.250153,-0.14648 51.922862,51.922862 0 0 0 -0.05183,-0.0316 51.922862,51.922862 0 0 0 -0.121695,-0.0699 51.922862,51.922862 0 0 0 -0.446214,-0.2524 51.922862,51.922862 0 0 0 -0.121695,-0.0676 51.922862,51.922862 0 0 0 -0.448464,-0.24564 51.922862,51.922862 0 0 0 -0.121696,-0.0654 51.922862,51.922862 0 0 0 -0.450713,-0.24113 51.922862,51.922862 0 0 0 -0.123946,-0.0654 51.922862,51.922862 0 0 0 -0.455225,-0.23438 51.922862,51.922862 0 0 0 -0.123957,-0.0631 51.922862,51.922862 0 0 0 -0.457475,-0.22986 51.922862,51.922862 0 0 0 -0.123946,-0.0609 51.922862,51.922862 0 0 0 -0.01131,-0.007 51.922862,51.922862 0 0 0 -0.574671,-0.27719 51.922862,51.922862 0 0 0 -0.590432,-0.2772 51.922862,51.922862 0 0 0 -0.592705,-0.26817 51.922862,51.922862 0 0 0 -0.466487,-0.20507 51.922862,51.922862 0 0 0 -0.130707,-0.0563 51.922862,51.922862 0 0 0 -0.05409,-0.0225 51.922862,51.922862 0 0 0 -0.543113,-0.22987 51.922862,51.922862 0 0 0 -0.594955,-0.24339 51.922862,51.922862 0 0 0 -0.009,-0.005 51.922862,51.922862 0 0 0 -0.473237,-0.18701 51.922862,51.922862 0 0 0 -0.130707,-0.0518 51.922862,51.922862 0 0 0 -0.200572,-0.0766 51.922862,51.922862 0 0 0 -0.407895,-0.15325 51.922862,51.922862 0 0 0 -1.225956,-0.43946 51.922862,51.922862 0 0 0 -0.484521,-0.1645 51.922862,51.922862 0 0 0 -0.132969,-0.0451 51.922862,51.922862 0 0 0 -0.164515,-0.0518 51.922862,51.922862 0 0 0 -0.941996,-0.29972 51.922862,51.922862 0 0 0 -0.132969,-0.0406 51.922862,51.922862 0 0 0 -0.491282,-0.14648 51.922862,51.922862 0 0 0 -0.132957,-0.0383 51.922862,51.922862 0 0 0 -0.08339,-0.0248 51.922862,51.922862 0 0 0 -0.543113,-0.150996 51.922862,51.922862 0 0 0 -0.628752,-0.16901 51.922862,51.922862 0 0 0 -0.495794,-0.12846 51.922862,51.922862 0 0 0 -0.09014,-0.0225 51.922862,51.922862 0 0 0 -0.153253,-0.0383 51.922862,51.922862 0 0 0 -0.52509,-0.126197 51.922862,51.922862 0 0 0 -0.633251,-0.14423 51.922862,51.922862 0 0 0 -0.637775,-0.137469 51.922862,51.922862 0 0 0 -0.500294,-0.103672 51.922862,51.922862 0 0 0 -0.137469,-0.02703 51.922862,51.922862 0 0 0 -0.0924,-0.01803 51.922862,51.922862 0 0 0 -0.536352,-0.101412 51.922862,51.922862 0 0 0 -0.009,-0.0023 51.922862,51.922862 0 0 0 -0.02478,-0.0045 51.922862,51.922862 0 0 0 -0.61749,-0.108173 51.922862,51.922862 0 0 0 -0.502544,-0.08338 51.922862,51.922862 0 0 0 -0.13973,-0.02254 51.922862,51.922862 0 0 0 -0.504806,-0.07663 51.922862,51.922862 0 0 0 -0.137469,-0.02028 51.922862,51.922862 0 0 0 -0.507055,-0.06986 51.922862,51.922862 0 0 0 -0.137469,-0.01802 51.922862,51.922862 0 0 0 -0.0631,-0.0068 51.922862,51.922862 0 0 0 -0.583683,-0.07437 51.922862,51.922862 0 0 0 -0.507055,-0.0586 51.922862,51.922862 0 0 0 -0.13973,-0.01577 51.922862,51.922862 0 0 0 -0.166765,-0.01577 51.922862,51.922862 0 0 0 -1.086226,-0.101411 51.922862,51.922862 0 0 0 -0.04282,-0.0045 51.922862,51.922862 0 0 0 -0.509317,-0.03831 51.922862,51.922862 0 0 0 -0.139719,-0.009 51.922862,51.922862 0 0 0 -0.649036,-0.04057 51.922862,51.922862 0 0 0 -0.651297,-0.03155 51.922862,51.922862 0 0 0 -0.509306,-0.02028 51.922862,51.922862 0 0 0 -0.13973,-0.0045 51.922862,51.922862 0 0 0 -0.511567,-0.01351 51.922862,51.922862 0 0 0 -0.108173,-0.0023 51.922862,51.922862 0 0 0 -0.03155,0 51.922862,51.922862 0 0 0 -0.511567,-0.0068 51.922862,51.922862 0 0 0 -0.651286,-0.0022 51.922862,51.922862 0 0 0 -0.565659,0.0068 51.922862,51.922862 0 0 0 -0.324518,0.0045 51.922862,51.922862 0 0 0 -1.19891,0.04056 51.922862,51.922862 0 0 0 -0.511567,0.0248 51.922862,51.922862 0 0 0 -0.597205,0.03606 51.922862,51.922862 0 0 0 -0.0676,0.0045 51.922862,51.922862 0 0 0 -0.47551,0.03381 51.922862,51.922862 0 0 0 -0.299733,0.02254 51.922862,51.922862 0 0 0 -0.259153,0.02253 51.922862,51.922862 0 0 0 -0.387621,0.03606 51.922862,51.922862 0 0 0 -0.01804,0.0022 51.922862,51.922862 0 0 0 -0.631001,0.0631 51.922862,51.922862 0 0 0 -0.52509,0.05859 51.922862,51.922862 0 0 0 -0.310995,0.03832 51.922862,51.922862 0 0 0 -1.068203,0.141969 51.922862,51.922862 0 0 0 -0.18705,0.0293 51.922862,51.922862 0 0 0 -0.493544,0.07438 51.922862,51.922862 0 0 0 -0.637762,0.105911 51.922862,51.922862 0 0 0 -0.558898,0.09916 51.922862,51.922862 0 0 0 -0.205072,0.03831 51.922862,51.922862 0 0 0 -1.124546,0.220857 51.922862,51.922862 0 0 0 -0.0293,0.0068 51.922862,51.922862 0 0 0 -0.498044,0.108172 51.922862,51.922862 0 0 0 -0.572409,0.130707 51.922862,51.922862 0 0 0 -0.101411,0.02253 51.922862,51.922862 0 0 0 -0.290722,0.06987 51.922862,51.922862 0 0 0 -0.396633,0.0969 51.922862,51.922862 0 0 0 -0.178026,0.0428 51.922862,51.922862 0 0 0 -0.47101,0.1217 51.922862,51.922862 0 0 0 -0.105911,0.0293 51.922862,51.922862 0 0 0 -0.547624,0.14874 51.922862,51.922862 0 0 0 -0.572421,0.160004 51.922862,51.922862 0 0 0 -0.130707,0.0383 51.922862,51.922862 0 0 0 -1.153842,0.35156 51.922862,51.922862 0 0 0 -0.01352,0.005 51.922862,51.922862 0 0 0 -0.486771,0.15776 51.922862,51.922862 0 0 0 -0.61524,0.20732 51.922862,51.922862 0 0 0 -0.459725,0.16001 51.922862,51.922862 0 0 0 -0.202822,0.0699 51.922862,51.922862 0 0 0 -0.297483,0.11043 51.922862,51.922862 0 0 0 -0.268176,0.0969 51.922862,51.922862 0 0 0 -0.130707,0.0496 51.922862,51.922862 0 0 0 -0.493544,0.18705 51.922862,51.922862 0 0 0 -0.277188,0.10817 51.922862,51.922862 0 0 0 -0.914961,0.36734 51.922862,51.922862 0 0 0 -0.06535,0.0271 51.922862,51.922862 0 0 0 -0.243391,0.10141 51.922862,51.922862 0 0 0 -0.29071,0.12394 51.922862,51.922862 0 0 0 -0.128458,0.0563 51.922862,51.922862 0 0 0 -0.475509,0.20959 51.922862,51.922862 0 0 0 -0.585932,0.26366 51.922862,51.922862 0 0 0 -0.347053,0.16001 51.922862,51.922862 0 0 0 -0.243391,0.11493 51.922862,51.922862 0 0 0 -0.126196,0.0609 51.922862,51.922862 0 0 0 -0.585943,0.28395 51.922862,51.922862 0 0 0 -0.540863,0.27044 51.922862,51.922862 0 0 0 -0.184788,0.0947 51.922862,51.922862 0 0 0 -0.412406,0.21408 51.922862,51.922862 0 0 0 -0.02253,0.0113 51.922862,51.922862 0 0 0 -0.450725,0.23888 51.922862,51.922862 0 0 0 -0.570159,0.311 51.922862,51.922862 0 0 0 -0.405644,0.22536 51.922862,51.922862 0 0 0 -0.232119,0.13296 51.922862,51.922862 0 0 0 -0.05184,0.0293 51.922862,51.922862 0 0 0 -0.130707,0.0766 51.922862,51.922862 0 0 0 -0.02253,0.0135 51.922862,51.922862 0 0 0 -0.150992,0.0856 51.922862,51.922862 0 0 0 -0.259164,0.15326 51.922862,51.922862 0 0 0 -0.509306,0.30423 51.922862,51.922862 0 0 0 -0.128457,0.0789 51.922862,51.922862 0 0 0 -0.356076,0.21634 51.922862,51.922862 0 0 0 -0.238879,0.15099 51.922862,51.922862 0 0 0 -0.356064,0.22536 51.922862,51.922862 0 0 0 -0.07437,0.0473 51.922862,51.922862 0 0 0 -0.295222,0.19155 51.922862,51.922862 0 0 0 -0.500306,0.33128 51.922862,51.922862 0 0 0 -0.110422,0.0721 51.922862,51.922862 0 0 0 -0.292972,0.19833 51.922862,51.922862 0 0 0 -0.423668,0.29296 51.922862,51.922862 0 0 0 -0.448475,0.3155 51.922862,51.922862 0 0 0 -0.225357,0.16226 51.922862,51.922862 0 0 0 -0.306483,0.22085 51.922862,51.922862 0 0 0 -0.135219,0.0992 51.922862,51.922862 0 0 0 -0.464236,0.34706 51.922862,51.922862 0 0 0 -0.518329,0.39663 51.922862,51.922862 0 0 0 -0.511567,0.40114 51.922862,51.922862 0 0 0 -0.480021,0.38761 51.922862,51.922862 0 0 0 -0.0676,0.0541 51.922862,51.922862 0 0 0 -0.389871,0.32226 51.922862,51.922862 0 0 0 -0.175788,0.14648 51.922862,51.922862 0 0 0 -0.270426,0.22761 51.922862,51.922862 0 0 0 -0.306494,0.26593 51.922862,51.922862 0 0 0 -0.132958,0.11268 51.922862,51.922862 0 0 0 -0.344802,0.30423 51.922862,51.922862 0 0 0 -0.0924,0.0811 51.922862,51.922862 0 0 0 -0.223106,0.20057 51.922862,51.922862 0 0 0 -0.48001,0.4372 51.922862,51.922862 0 0 0 -0.47551,0.44622 51.922862,51.922862 0 0 0 -0.468748,0.45071 51.922862,51.922862 0 0 0 -0.349314,0.34255 51.922862,51.922862 0 0 0 -0.268175,0.26818 51.922862,51.922862 0 0 0 -0.09465,0.0947 51.922862,51.922862 0 0 0 -0.209584,0.21409 51.922862,51.922862 0 0 0 -0.43269,0.44396 51.922862,51.922862 0 0 0 -0.03606,0.0383 51.922862,51.922862 0 0 0 -0.43044,0.45974 51.922862,51.922862 0 0 0 -0.306484,0.33353 51.922862,51.922862 0 0 0 -0.308745,0.33804 51.922862,51.922862 0 0 0 -0.153241,0.17353 51.922862,51.922862 0 0 0 -0.175788,0.19832 51.922862,51.922862 0 0 0 -0.358314,0.41016 51.922862,51.922862 0 0 0 -0.421429,0.49579 51.922862,51.922862 0 0 0 -0.416917,0.50029 51.922862,51.922862 0 0 0 -0.38536,0.47551 51.922862,51.922862 0 0 0 -0.05859,0.0744 51.922862,51.922862 0 0 0 -0.326768,0.41466 51.922862,51.922862 0 0 0 -0.09916,0.12846 51.922862,51.922862 0 0 0 -0.256915,0.33353 51.922862,51.922862 0 0 0 -0.227606,0.30198 51.922862,51.922862 0 0 0 -0.112685,0.151 51.922862,51.922862 0 0 0 -0.227618,0.30423 51.922862,51.922862 0 0 0 -0.236618,0.32452 51.922862,51.922862 0 0 0 -0.114934,0.16 51.922862,51.922862 0 0 0 -0.245642,0.3448 51.922862,51.922862 0 0 0 -0.14423,0.20732 51.922862,51.922862 0 0 0 -0.123957,0.17804 51.922862,51.922862 0 0 0 -0.169015,0.24791 51.922862,51.922862 0 0 0 -0.274937,0.40339 51.922862,51.922862 0 0 0 -0.162265,0.24338 51.922862,51.922862 0 0 0 -0.270426,0.41692 51.922862,51.922862 0 0 0 -0.03381,0.0541 51.922862,51.922862 0 0 0 -0.169014,0.26142 51.922862,51.922862 0 0 0 -0.160004,0.25465 51.922862,51.922862 0 0 0 -0.329029,0.53185 51.922862,51.922862 0 0 0 -0.03381,0.0541 51.922862,51.922862 0 0 0 -0.279437,0.46198 51.922862,51.922862 0 0 0 -0.06761,0.11273 51.922862,51.922862 0 0 0 -0.297495,0.51145 51.922862,51.922862 0 0 0 -0.0023,0 51.922862,51.922862 0 0 0 -0.09466,0.16677 51.922862,51.922862 0 0 0 -0.205072,0.36509 51.922862,51.922862 0 0 0 -0.04057,0.0676 51.922862,51.922862 0 0 0 -0.265926,0.48452 51.922862,51.922862 0 0 0 -0.06535,0.11945 51.922862,51.922862 0 0 0 -0.193799,0.36057 51.922862,51.922862 0 0 0 -0.171277,0.32227 51.922862,51.922862 0 0 0 -0.155503,0.30197 51.922862,51.922862 0 0 0 -0.153242,0.29749 51.922862,51.922862 0 0 0 -0.08339,0.16901 51.922862,51.922862 0 0 0 -0.191549,0.38311 51.922862,51.922862 0 0 0 -0.157753,0.32452 51.922862,51.922862 0 0 0 -0.07888,0.16226 51.922862,51.922862 0 0 0 -0.243391,0.51607 51.922862,51.922862 0 0 0 -0.247892,0.54086 51.922862,51.922862 0 0 0 -0.07212,0.16002 51.922862,51.922862 0 0 0 -0.148741,0.33353 51.922862,51.922862 0 0 0 -0.14648,0.33804 51.922862,51.922862 0 0 0 -0.137469,0.32452 51.922862,51.922862 0 0 0 -0.07437,0.17802 51.922862,51.922862 0 0 0 -0.155503,0.3696 51.922862,51.922862 0 0 0 -0.126196,0.31325 51.922862,51.922862 0 0 0 -0.112684,0.2817 51.922862,51.922862 0 0 0 -0.119446,0.30423 51.922862,51.922862 0 0 0 -0.0676,0.17352 51.922862,51.922862 0 0 0 -0.105922,0.2817 51.922862,51.922862 0 0 0 -0.225357,0.61073 51.922862,51.922862 0 0 0 -0.205072,0.57241 51.922862,51.922862 0 0 0 -0.04508,0.13522 51.922862,51.922862 0 0 0 -0.117184,0.33804 51.922862,51.922862 0 0 0 -0.123946,0.36734 51.922862,51.922862 0 0 0 -0.105923,0.32452 51.922862,51.922862 0 0 0 -0.06985,0.22085 51.922862,51.922862 0 0 0 -0.130718,0.41466 51.922862,51.922862 0 0 0 -0.07888,0.26141 51.922862,51.922862 0 0 0 -0.117184,0.38987 51.922862,51.922862 0 0 0 -0.0293,0.10143 51.922862,51.922862 0 0 0 -0.141981,0.48677 51.922862,51.922862 0 0 0 -0.103661,0.37185 51.922862,51.922862 0 0 0 -0.04057,0.15774 51.922862,51.922862 0 0 0 -0.07437,0.27044 51.922862,51.922862 0 0 0 -0.14423,0.56114 51.922862,51.922862 0 0 0 -0.105911,0.42142 51.922862,51.922862 0 0 0 -0.126207,0.5296 51.922862,51.922862 0 0 0 -0.01352,0.0586 51.922862,51.922862 0 0 0 -0.0924,0.41465 51.922862,51.922862 0 0 0 -0.08113,0.36959 51.922862,51.922862 0 0 0 -0.0631,0.28621 51.922862,51.922862 0 0 0 -0.05408,0.26368 51.922862,51.922862 0 0 0 -0.07437,0.37409 51.922862,51.922862 0 0 0 -0.06761,0.3448 51.922862,51.922862 0 0 0 -0.04282,0.23438 51.922862,51.922862 0 0 0 -0.07888,0.43269 51.922862,51.922862 0 0 0 -0.04958,0.28621 51.922862,51.922862 0 0 0 -0.03606,0.2231 51.922862,51.922862 0 0 0 -0.07212,0.4462 51.922862,51.922862 0 0 0 -0.05183,0.33355 51.922862,51.922862 0 0 0 -0.02028,0.1352 51.922862,51.922862 0 0 0 -0.07211,0.4958 51.922862,51.922862 0 0 0 -0.05183,0.39663 51.922862,51.922862 0 0 0 -0.009,0.0721 51.922862,51.922862 0 0 0 -0.06987,0.56565 51.922862,51.922862 0 0 0 -0.02028,0.17353 51.922862,51.922862 0 0 0 -0.0293,0.26818 51.922862,51.922862 0 0 0 -0.05859,0.55438 51.922862,51.922862 0 0 0 0,0.018 51.922862,51.922862 0 0 0 -0.05859,0.63778 51.922862,51.922862 0 0 0 -0.04507,0.55212 51.922862,51.922862 0 0 0 -0.01352,0.19381 51.922862,51.922862 0 0 0 -0.03381,0.50481 51.922862,51.922862 0 0 0 -0.0068,0.13972 51.922862,51.922862 0 0 0 -0.02253,0.39213 51.922862,51.922862 0 0 0 -0.01352,0.27945 51.922862,51.922862 0 0 0 -0.02027,0.53635 51.922862,51.922862 0 0 0 -0.01352,0.40564 51.922862,51.922862 0 0 0 -0.009,0.41016 51.922862,51.922862 0 0 0 -0.0068,0.46425 51.922862,51.922862 0 0 0 0,0.0698 51.922862,51.922862 0 0 0 -0.0023,0.45297 51.922862,51.922862 0 0 0 0.0023,0.45071 51.922862,51.922862 0 0 0 0,0.0744 51.922862,51.922862 0 0 0 0.0068,0.45747 51.922862,51.922862 0 0 0 0.01127,0.46875 51.922862,51.922862 0 0 0 0.02253,0.6513 51.922862,51.922862 0 0 0 0.0248,0.56565 51.922862,51.922862 0 0 0 0.02027,0.33579 51.922862,51.922862 0 0 0 0.0068,0.14648 51.922862,51.922862 0 0 0 0.03381,0.51156 51.922862,51.922862 0 0 0 0.01802,0.24789 51.922862,51.922862 0 0 0 0.01804,0.21635 51.922862,51.922862 0 0 0 0.03831,0.46875 51.922862,51.922862 0 0 0 0.03832,0.4079 51.922862,51.922862 0 0 0 0.0068,0.0676 51.922862,51.922862 0 0 0 0.05859,0.56791 51.922862,51.922862 0 0 0 0.02028,0.16676 51.922862,51.922862 0 0 0 0.03155,0.28395 51.922862,51.922862 0 0 0 0.06084,0.50481 51.922862,51.922862 0 0 0 0.01352,0.0924 51.922862,51.922862 0 0 0 0.08113,0.59946 51.922862,51.922862 0 0 0 0.07888,0.5341 51.922862,51.922862 0 0 0 0.03156,0.20733 51.922862,51.922862 0 0 0 0.07662,0.47551 51.922862,51.922862 0 0 0 0.03381,0.19606 51.922862,51.922862 0 0 0 0.05859,0.34705 51.922862,51.922862 0 0 0 0.06085,0.33354 51.922862,51.922862 0 0 0 0.06309,0.3403 51.922862,51.922862 0 0 0 0.05409,0.27944 51.922862,51.922862 0 0 0 0.07888,0.39213 51.922862,51.922862 0 0 0 0.0631,0.29747 51.922862,51.922862 0 0 0 0.04281,0.20958 51.922862,51.922862 0 0 0 0.101423,0.45749 51.922862,51.922862 0 0 0 0.02478,0.11261 51.922862,51.922862 0 0 0 0.0676,0.29297 51.922862,51.922862 0 0 0 0.150991,0.63327 51.922862,51.922862 0 0 0 0.160003,0.631 51.922862,51.922862 0 0 0 0.166777,0.62875 51.922862,51.922862 0 0 0 0.114934,0.41467 51.922862,51.922862 0 0 0 0.14873,0.52058 51.922862,51.922862 0 0 0 0.0248,0.0811 51.922862,51.922862 0 0 0 0.162253,0.54313 51.922862,51.922862 0 0 0 0.01352,0.0405 51.922862,51.922862 0 0 0 0.160003,0.51156 51.922862,51.922862 0 0 0 0.06085,0.19381 51.922862,51.922862 0 0 0 0.135208,0.41016 51.922862,51.922862 0 0 0 0.07438,0.22086 51.922862,51.922862 0 0 0 0.14873,0.43719 51.922862,51.922862 0 0 0 0.04958,0.13973 51.922862,51.922862 0 0 0 0.119445,0.33578 51.922862,51.922862 0 0 0 0.132957,0.36958 51.922862,51.922862 0 0 0 0.141981,0.37861 51.922862,51.922862 0 0 0 0.05183,0.13747 51.922862,51.922862 0 0 0 0.135218,0.35607 51.922862,51.922862 0 0 0 0.141981,0.36508 51.922862,51.922862 0 0 0 0.07212,0.17804 51.922862,51.922862 0 0 0 0.211833,0.52283 51.922862,51.922862 0 0 0 0.252403,0.59945 51.922862,51.922862 0 0 0 0.252403,0.58144 51.922862,51.922862 0 0 0 0.02478,0.0563 51.922862,51.922862 0 0 0 0.175788,0.39213 51.922862,51.922862 0 0 0 0.135207,0.29747 51.922862,51.922862 0 0 0 0.209583,0.45072 51.922862,51.922862 0 0 0 0.0045,0.009 51.922862,51.922862 0 0 0 0.200573,0.41467 51.922862,51.922862 0 0 0 0.200572,0.41241 51.922862,51.922862 0 0 0 0.07888,0.15775 51.922862,51.922862 0 0 0 0.09014,0.18029 51.922862,51.922862 0 0 0 0.198322,0.38987 51.922862,51.922862 0 0 0 0.196061,0.37635 51.922862,51.922862 0 0 0 0.14423,0.27268 51.922862,51.922862 0 0 0 0.14198,0.26142 51.922862,51.922862 0 0 0 0.173526,0.32227 51.922862,51.922862 0 0 0 0.09239,0.16676 51.922862,51.922862 0 0 0 0.270438,0.48452 51.922862,51.922862 0 0 0 0.0293,0.0518 51.922862,51.922862 0 0 0 0.155503,0.27261 51.922862,51.922862 0 0 0 0.0969,0.16451 51.922862,51.922862 0 0 0 0.110423,0.18705 51.922862,51.922862 0 0 0 0.277198,0.46649 51.922862,51.922862 0 0 0 0.292961,0.48227 51.922862,51.922862 0 0 0 0.166776,0.26592 51.922862,51.922862 0 0 0 0.173526,0.2772 51.922862,51.922862 0 0 0 0.08338,0.13071 51.922862,51.922862 0 0 0 0.23888,0.36959 51.922862,51.922862 0 0 0 0.220857,0.33804 51.922862,51.922862 0 0 0 0.121696,0.18254 51.922862,51.922862 0 0 0 0.150991,0.22535 51.922862,51.922862 0 0 0 0.315495,0.46199 51.922862,51.922862 0 0 0 0.216345,0.31101 51.922862,51.922862 0 0 0 0.281711,0.39888 51.922862,51.922862 0 0 0 0.238879,0.33128 51.922862,51.922862 0 0 0 0.04282,0.0563 51.922862,51.922862 0 0 0 0.234369,0.31776 51.922862,51.922862 0 0 0 0.28621,0.38536 51.922862,51.922862 0 0 0 0.128457,0.16677 51.922862,51.922862 0 0 0 0.209584,0.27268 51.922862,51.922862 0 0 0 0.178026,0.23212 51.922862,51.922862 0 0 0 0.295222,0.3741 51.922862,51.922862 0 0 0 0.0631,0.0789 51.922862,51.922862 0 0 0 0.34029,0.41917 51.922862,51.922862 0 0 0 0.112685,0.13747 51.922862,51.922862 0 0 0 0.202822,0.24339 51.922862,51.922862 0 0 0 0.338041,0.40339 51.922862,51.922862 0 0 0 0.425929,0.49354 51.922862,51.922862 0 0 0 0.342541,0.38988 51.922862,51.922862 0 0 0 0.263676,0.29521 51.922862,51.922862 0 0 0 0.117184,0.12621 51.922862,51.922862 0 0 0 0.243391,0.26592 51.922862,51.922862 0 0 0 0.23888,0.25917 51.922862,51.922862 0 0 0 0.315506,0.33353 51.922862,51.922862 0 0 0 0.09465,0.0969 51.922862,51.922862 0 0 0 0.216345,0.22311 51.922862,51.922862 0 0 0 0.259164,0.26818 51.922862,51.922862 0 0 0 0.288461,0.29071 51.922862,51.922862 0 0 0 0.205072,0.20734 51.922862,51.922862 0 0 0 0.150992,0.14648 51.922862,51.922862 0 0 0 0.405644,0.39438 51.922862,51.922862 0 0 0 0.416918,0.39888 51.922862,51.922862 0 0 0 0.162264,0.14875 51.922862,51.922862 0 0 0 0.250153,0.23211 51.922862,51.922862 0 0 0 0.297472,0.27043 51.922862,51.922862 0 0 0 0.162253,0.14874 51.922862,51.922862 0 0 0 0.295222,0.26367 51.922862,51.922862 0 0 0 0.187049,0.16226 51.922862,51.922862 0 0 0 0.261414,0.22762 51.922862,51.922862 0 0 0 0.356076,0.30648 51.922862,51.922862 0 0 0 0.103661,0.0856 51.922862,51.922862 0 0 0 0.263676,0.22084 51.922862,51.922862 0 0 0 0.389871,0.32227 51.922862,51.922862 0 0 0 0.0676,0.0541 51.922862,51.922862 0 0 0 0.412406,0.33353 51.922862,51.922862 0 0 0 0.173526,0.13746 51.922862,51.922862 0 0 0 0.256914,0.20283 51.922862,51.922862 0 0 0 0.243392,0.18705 51.922862,51.922862 0 0 0 0.297472,0.22761 51.922862,51.922862 0 0 0 0.301983,0.22761 51.922862,51.922862 0 0 0 0.117184,0.0879 51.922862,51.922862 0 0 0 0.358325,0.26368 51.922862,51.922862 0 0 0 0.33353,0.23888 51.922862,51.922862 0 0 0 0.128457,0.0924 51.922862,51.922862 0 0 0 0.358325,0.25465 51.922862,51.922862 0 0 0 0.175777,0.12395 51.922862,51.922862 0 0 0 0.356064,0.24564 51.922862,51.922862 0 0 0 0.225368,0.15099 51.922862,51.922862 0 0 0 0.351552,0.23663 51.922862,51.922862 0 0 0 0.153253,0.0991 51.922862,51.922862 0 0 0 0.281699,0.1848 51.922862,51.922862 0 0 0 0.374099,0.24113 51.922862,51.922862 0 0 0 0.171264,0.10592 51.922862,51.922862 0 0 0 0.385372,0.24113 51.922862,51.922862 0 0 0 0.09915,0.0608 51.922862,51.922862 0 0 0 0.518328,0.31549 51.922862,51.922862 0 0 0 0.425929,0.2524 51.922862,51.922862 0 0 0 0.308745,0.18029 51.922862,51.922862 0 0 0 0.03381,0.0203 51.922862,51.922862 0 0 0 0.283948,0.16226 51.922862,51.922862 0 0 0 0.247903,0.13972 51.922862,51.922862 0 0 0 0.130707,0.0721 51.922862,51.922862 0 0 0 0.57016,0.31324 51.922862,51.922862 0 0 0 0.547624,0.29297 51.922862,51.922862 0 0 0 0.09465,0.0496 51.922862,51.922862 0 0 0 0.470998,0.24339 51.922862,51.922862 0 0 0 0.14423,0.0721 51.922862,51.922862 0 0 0 0.47776,0.23888 51.922862,51.922862 0 0 0 0.583682,0.28394 51.922862,51.922862 0 0 0 0.489032,0.22987 51.922862,51.922862 0 0 0 0.101411,0.0473 51.922862,51.922862 0 0 0 0.455226,0.20732 51.922862,51.922862 0 0 0 0.594955,0.26368 51.922862,51.922862 0 0 0 0.599455,0.25691 51.922862,51.922862 0 0 0 0.601705,0.24789 51.922862,51.922862 0 0 0 0.416918,0.16677 51.922862,51.922862 0 0 0 0.317756,0.12394 51.922862,51.922862 0 0 0 0.02254,0.009 51.922862,51.922862 0 0 0 0.594955,0.22761 51.922862,51.922862 0 0 0 0.513817,0.1893 51.922862,51.922862 0 0 0 0.423679,0.15099 51.922862,51.922862 0 0 0 0.182538,0.0653 51.922862,51.922862 0 0 0 0.484521,0.16452 51.922862,51.922862 0 0 0 0.14198,0.0473 51.922862,51.922862 0 0 0 0.283949,0.0924 51.922862,51.922862 0 0 0 0.394383,0.12845 51.922862,51.922862 0 0 0 0.121695,0.0383 51.922862,51.922862 0 0 0 0.52284,0.16225 51.922862,51.922862 0 0 0 0.03831,0.0115 51.922862,51.922862 0 0 0 0.597205,0.17803 51.922862,51.922862 0 0 0 0.626502,0.17804 51.922862,51.922862 0 0 0 0.585932,0.16 51.922862,51.922862 0 0 0 0.223106,0.0563 51.922862,51.922862 0 0 0 0.304234,0.0789 51.922862,51.922862 0 0 0 0.14648,0.036 51.922862,51.922862 0 0 0 0.484521,0.11945 51.922862,51.922862 0 0 0 0.0023,0 51.922862,51.922862 0 0 0 0.394371,0.0924 51.922862,51.922862 0 0 0 0.385372,0.0879 51.922862,51.922862 0 0 0 0.534101,0.11719 51.922862,51.922862 0 0 0 0.534102,0.11042 51.922862,51.922862 0 0 0 0.205072,0.0406 51.922862,51.922862 0 0 0 0.196072,0.0383 51.922862,51.922862 0 0 0 0.295222,0.0563 51.922862,51.922862 0 0 0 0.14873,0.027 51.922862,51.922862 0 0 0 0.640025,0.11492 51.922862,51.922862 0 0 0 0.642274,0.10592 51.922862,51.922862 0 0 0 0.642274,0.0969 51.922862,51.922862 0 0 0 0.644524,0.0901 51.922862,51.922862 0 0 0 1.271038,0.15324 51.922862,51.922862 0 0 0 0.08789,0.009 51.922862,51.922862 0 0 0 0.572409,0.0586 51.922862,51.922862 0 0 0 0.509317,0.0451 51.922862,51.922862 0 0 0 0.38536,0.0315 51.922862,51.922862 0 0 0 0.412406,0.0293 51.922862,51.922862 0 0 0 0.576921,0.0383 51.922862,51.922862 0 0 0 0.178037,0.009 51.922862,51.922862 0 0 0 1.194411,0.0518 51.922862,51.922862 0 0 0 0.640024,0.018 51.922862,51.922862 0 0 0 0.05859,0 51.922862,51.922862 0 0 0 0.603955,0.007 51.922862,51.922862 0 0 0 0.651298,0.002 51.922862,51.922862 0 0 0 0.150991,-0.002 51.922862,51.922862 0 0 0 0.498044,-0.007 51.922862,51.922862 0 0 0 0.502544,-0.0115 51.922862,51.922862 0 0 0 0.148742,-0.005 51.922862,51.922862 0 0 0 0.500294,-0.018 51.922862,51.922862 0 0 0 0.150992,-0.007 51.922862,51.922862 0 0 0 0.009,0 51.922862,51.922862 0 0 0 0.640013,-0.0315 51.922862,51.922862 0 0 0 0.649035,-0.0406 51.922862,51.922862 0 0 0 0.649036,-0.0496 51.922862,51.922862 0 0 0 1.14708,-0.10362 51.922862,51.922862 0 0 0 0.455237,-0.0518 51.922862,51.922862 0 0 0 0.191549,-0.0203 51.922862,51.922862 0 0 0 0.150991,-0.018 51.922862,51.922862 0 0 0 0.09916,-0.0115 51.922862,51.922862 0 0 0 0.545363,-0.0699 51.922862,51.922862 0 0 0 0.495794,-0.0676 51.922862,51.922862 0 0 0 0.594955,-0.0879 51.922862,51.922862 0 0 0 0.04958,-0.007 51.922862,51.922862 0 0 0 0.01577,-0.002 51.922862,51.922862 0 0 0 0.552124,-0.0901 51.922862,51.922862 0 0 0 0.07438,-0.0115 51.922862,51.922862 0 0 0 0.14873,-0.0248 51.922862,51.922862 0 0 0 0.493544,-0.0856 51.922862,51.922862 0 0 0 0.14648,-0.027 51.922862,51.922862 0 0 0 0.08339,-0.0158 51.922862,51.922862 0 0 0 0.538602,-0.10143 51.922862,51.922862 0 0 0 0.01804,-0.005 51.922862,51.922862 0 0 0 0.05859,-0.0115 51.922862,51.922862 0 0 0 0.57917,-0.11945 51.922862,51.922862 0 0 0 0.635513,-0.13746 51.922862,51.922862 0 0 0 0.489033,-0.11043 51.922862,51.922862 0 0 0 0.14648,-0.0338 51.922862,51.922862 0 0 0 0.486782,-0.11719 51.922862,51.922862 0 0 0 0.144231,-0.036 51.922862,51.922862 0 0 0 1.259764,-0.33128 51.922862,51.922862 0 0 0 0.626489,-0.17577 51.922862,51.922862 0 0 0 0.624252,-0.1848 51.922862,51.922862 0 0 0 0.621989,-0.19381 51.922862,51.922862 0 0 0 1.23498,-0.4079 51.922862,51.922862 0 0 0 0.615228,-0.21634 51.922862,51.922862 0 0 0 0.610728,-0.22311 51.922862,51.922862 0 0 0 0.468748,-0.17579 51.922862,51.922862 0 0 0 0.139719,-0.0541 51.922862,51.922862 0 0 0 0.466498,-0.18255 51.922862,51.922862 0 0 0 0.139719,-0.0563 51.922862,51.922862 0 0 0 0.0924,-0.0383 51.922862,51.922862 0 0 0 0.509306,-0.20958 51.922862,51.922862 0 0 0 0.599467,-0.2524 51.922862,51.922862 0 0 0 0.459725,-0.20058 51.922862,51.922862 0 0 0 0.137468,-0.0608 51.922862,51.922862 0 0 0 0.455237,-0.20508 51.922862,51.922862 0 0 0 0.137469,-0.0631 51.922862,51.922862 0 0 0 0.452963,-0.21185 51.922862,51.922862 0 0 0 0.135219,-0.0653 51.922862,51.922862 0 0 0 0.585932,-0.28395 51.922862,51.922862 0 0 0 0.581432,-0.29071 51.922862,51.922862 0 0 0 0.446214,-0.22762 51.922862,51.922862 0 0 0 0.132957,-0.0698 51.922862,51.922862 0 0 0 0.04282,-0.0225 51.922862,51.922862 0 0 0 0.531852,-0.28395 51.922862,51.922862 0 0 0 0.38086,-0.20733 51.922862,51.922862 0 0 0 0.05859,-0.0315 51.922862,51.922862 0 0 0 0.500294,-0.27945 51.922862,51.922862 0 0 0 0.06762,-0.0383 51.922862,51.922862 0 0 0 0.130707,-0.0744 51.922862,51.922862 0 0 0 0.175776,-0.10142 51.922862,51.922862 0 0 0 0.0045,-0.002 51.922862,51.922862 0 0 0 0.556636,-0.32677 51.922862,51.922862 0 0 0 0.556636,-0.33579 51.922862,51.922862 0 0 0 0.534102,-0.33128 51.922862,51.922862 0 0 0 0.02029,-0.0115 51.922862,51.922862 0 0 0 0.009,-0.007 51.922862,51.922862 0 0 0 0.538613,-0.34255 51.922862,51.922862 0 0 0 0.437202,-0.28395 51.922862,51.922862 0 0 0 0.108172,-0.0721 51.922862,51.922862 0 0 0 0.247892,-0.16676 51.922862,51.922862 0 0 0 0.29071,-0.19832 51.922862,51.922862 0 0 0 0.536363,-0.36959 51.922862,51.922862 0 0 0 0.52959,-0.37635 51.922862,51.922862 0 0 0 0.243392,-0.17579 51.922862,51.922862 0 0 0 0.09916,-0.0721 51.922862,51.922862 0 0 0 0.306483,-0.22761 51.922862,51.922862 0 0 0 0.117184,-0.0856 51.922862,51.922862 0 0 0 0.23438,-0.17578 l 87.018112,50.24167 a 51.922862,51.922862 0 0 0 25.5603,51.39663 51.922862,51.922862 0 0 0 70.92969,-19.00458 51.922862,51.922862 0 0 0 -19.00683,-70.92743 51.922862,51.922862 0 0 0 -57.29094,3.56067 l -87.01811,-50.23942 a 51.922862,51.922862 0 0 0 0.0135,-0.12169 51.922862,51.922862 0 0 0 0.0361,-0.29748 51.922862,51.922862 0 0 0 0.0518,-0.45522 51.922862,51.922862 0 0 0 0,-0.009 51.922862,51.922862 0 0 0 0.002,-0.0158 51.922862,51.922862 0 0 0 0.0586,-0.58368 51.922862,51.922862 0 0 0 0.004,-0.0473 51.922862,51.922862 0 0 0 0.0383,-0.41242 51.922862,51.922862 0 0 0 0.009,-0.10361 51.922862,51.922862 0 0 0 0.0428,-0.53185 51.922862,51.922862 0 0 0 0,-0.0135 51.922862,51.922862 0 0 0 0,-0.007 51.922862,51.922862 0 0 0 0.0316,-0.45973 51.922862,51.922862 0 0 0 0.0225,-0.36509 51.922862,51.922862 0 0 0 0.005,-0.0541 51.922862,51.922862 0 0 0 0.002,-0.0518 51.922862,51.922862 0 0 0 0.0293,-0.59946 51.922862,51.922862 0 0 0 0.0248,-0.64903 51.922862,51.922862 0 0 0 0.018,-0.61523 51.922862,51.922862 0 0 0 0,-0.036 51.922862,51.922862 0 0 0 0.007,-0.41241 51.922862,51.922862 0 0 0 0,-0.10142 51.922862,51.922862 0 0 0 0.002,-0.54988 51.922862,51.922862 0 0 0 -0.002,-0.4755 51.922862,51.922862 0 0 0 -0.007,-0.35157 51.922862,51.922862 0 0 0 0,-0.0608 51.922862,51.922862 0 0 0 -0.009,-0.4124 51.922862,51.922862 0 0 0 -0.007,-0.23888 51.922862,51.922862 0 0 0 -0.005,-0.0991 51.922862,51.922862 0 0 0 -0.0203,-0.55212 51.922862,51.922862 0 0 0 -0.0293,-0.60622 51.922862,51.922862 0 0 0 -0.002,-0.0428 51.922862,51.922862 0 0 0 -0.0248,-0.4124 51.922862,51.922862 0 0 0 -0.0158,-0.23888 51.922862,51.922862 0 0 0 -0.0293,-0.41016 51.922862,51.922862 0 0 0 -0.005,-0.0586 51.922862,51.922862 0 0 0 -0.0496,-0.59043 51.922862,51.922862 0 0 0 -0.0496,-0.53637 51.922862,51.922862 0 0 0 -0.0113,-0.11042 51.922862,51.922862 0 0 0 -0.0248,-0.23888 51.922862,51.922862 0 0 0 -0.0135,-0.12621 51.922862,51.922862 0 0 0 -0.0608,-0.52058 51.922862,51.922862 0 0 0 -0.007,-0.0653 51.922862,51.922862 0 0 0 -0.0271,-0.22311 l 87.02,-50.237903 a 51.922862,51.922862 0 0 0 57.29094,3.560672 51.922862,51.922862 0 0 0 19.00683,-70.927438 51.922862,51.922862 0 0 0 -45.26799,-25.96143031 z" />
  </g>
</svg>
