<?xml version="1.0" encoding="UTF-8" standalone="no"?>
<svg
   xmlns:dc="http://purl.org/dc/elements/1.1/"
   xmlns:cc="http://creativecommons.org/ns#"
   xmlns:rdf="http://www.w3.org/1999/02/22-rdf-syntax-ns#"
   xmlns:svg="http://www.w3.org/2000/svg"
   xmlns="http://www.w3.org/2000/svg"
   xmlns:sodipodi="http://sodipodi.sourceforge.net/DTD/sodipodi-0.dtd"
   xmlns:inkscape="http://www.inkscape.org/namespaces/inkscape"
   width="282.854"
   height="300"
   viewBox="0 0 74.838453 79.375002"
   version="1.1"
   id="svg868"
   inkscape:version="1.0.1 (3bc2e813f5, 2020-09-07)"
   sodipodi:docname="shield-quad-alt.svg">
  <defs
     id="defs862" />
  <sodipodi:namedview
     id="base"
     pagecolor="#ffffff"
     bordercolor="#666666"
     borderopacity="1.0"
     inkscape:pageopacity="0.0"
     inkscape:pageshadow="2"
     inkscape:zoom="1.8101934"
     inkscape:cx="252.66593"
     inkscape:cy="141.10579"
     inkscape:document-units="px"
     inkscape:current-layer="layer1"
     inkscape:document-rotation="0"
     showgrid="false"
     units="px"
     inkscape:window-width="2560"
     inkscape:window-height="1377"
     inkscape:window-x="2552"
     inkscape:window-y="-8"
     inkscape:window-maximized="1" />
  <metadata
     id="metadata865">
    <rdf:RDF>
      <cc:Work
         rdf:about="">
        <dc:format>image/svg+xml</dc:format>
        <dc:type
           rdf:resource="http://purl.org/dc/dcmitype/StillImage" />
        <dc:title></dc:title>
      </cc:Work>
    </rdf:RDF>
  </metadata>
  <g
     inkscape:label="Ebene 1"
     inkscape:groupmode="layer"
     id="layer1">
    <path
       id="rect900-8-5"
       style="fill:#000000;fill-opacity:1;stroke:#eb0000;stroke-width:0;stroke-miterlimit:4;stroke-dasharray:none;stroke-opacity:1"
       d="M 141.42773 0 C 137.64677 0 134.04555 0.70705763 130.20703 2.3066406 L 18.085938 49.029297 C 8.7336704 52.926579 2.3684758e-15 59.947636 0 68.351562 C 0 88.892796 6.3671875 131.25 6.3671875 131.25 C 6.3671875 131.25 17.98518 234.94472 123.30664 294.39844 C 133.35304 300.06962 139.77893 300 141.42773 300 C 143.07653 300 149.50044 300.06951 159.54688 294.39844 C 264.86831 234.94472 276.48633 131.25 276.48633 131.25 C 276.48633 131.25 282.85352 88.892796 282.85352 68.351562 C 282.85352 59.947636 274.11985 52.926579 264.76758 49.029297 L 152.64648 2.3066406 C 148.80794 0.70703873 145.20867 5.9211895e-16 141.42773 0 z M 141.42578 36.287109 L 141.42578 135.78516 L 243.8125 135.78516 C 243.8125 135.78516 235.00575 214.3944 155.16406 259.46484 C 147.54811 263.76404 142.67569 263.71289 141.42578 263.71289 L 141.42578 135.78516 L 39.041016 135.78516 C 39.041016 135.78516 34.214844 103.67728 34.214844 88.105469 C 34.214844 81.734656 40.836053 76.411458 47.925781 73.457031 L 132.91992 38.039062 C 135.82982 36.826449 138.55953 36.287109 141.42578 36.287109 z "
       transform="scale(0.26458333)" />
  </g>
</svg>
