<?xml version="1.0" encoding="UTF-8" standalone="no"?>
<svg
   xmlns:dc="http://purl.org/dc/elements/1.1/"
   xmlns:cc="http://creativecommons.org/ns#"
   xmlns:rdf="http://www.w3.org/1999/02/22-rdf-syntax-ns#"
   xmlns:svg="http://www.w3.org/2000/svg"
   xmlns="http://www.w3.org/2000/svg"
   xmlns:sodipodi="http://sodipodi.sourceforge.net/DTD/sodipodi-0.dtd"
   xmlns:inkscape="http://www.inkscape.org/namespaces/inkscape"
   width="282.854"
   height="300"
   viewBox="0 0 74.838453 79.375002"
   version="1.1"
   id="svg868"
   inkscape:version="1.0.1 (3bc2e813f5, 2020-09-07)"
   sodipodi:docname="shield-double-alt.svg">
  <defs
     id="defs862" />
  <sodipodi:namedview
     id="base"
     pagecolor="#ffffff"
     bordercolor="#666666"
     borderopacity="1.0"
     inkscape:pageopacity="0.0"
     inkscape:pageshadow="2"
     inkscape:zoom="0.90509668"
     inkscape:cx="730.49353"
     inkscape:cy="316.535"
     inkscape:document-units="px"
     inkscape:current-layer="layer1"
     inkscape:document-rotation="0"
     showgrid="false"
     units="px"
     inkscape:window-width="2560"
     inkscape:window-height="1377"
     inkscape:window-x="2552"
     inkscape:window-y="-8"
     inkscape:window-maximized="1" />
  <metadata
     id="metadata865">
    <rdf:RDF>
      <cc:Work
         rdf:about="">
        <dc:format>image/svg+xml</dc:format>
        <dc:type
           rdf:resource="http://purl.org/dc/dcmitype/StillImage" />
        <dc:title></dc:title>
      </cc:Work>
    </rdf:RDF>
  </metadata>
  <g
     inkscape:label="Ebene 1"
     inkscape:groupmode="layer"
     id="layer1">
    <path
       id="rect900-8-5"
       style="fill:#000000;fill-opacity:1;stroke:#eb0000;stroke-width:0;stroke-miterlimit:4;stroke-dasharray:none;stroke-opacity:1"
       d="m 37.419629,2.9842173e-6 c -1.00038,0 -1.953486,0.1868389957827 -2.969095,0.6100619957827 L 4.7852089,12.972575 c -2.474454,1.031156 -4.78538499268,2.888775 -4.78538499268,5.112314 0,5.434868 1.68487499268,16.641472 1.68487499268,16.641472 0,0 3.073629,27.436293 30.9399321,43.166755 2.658111,1.5005 4.358751,1.48187 4.794998,1.48187 0.436244,0 2.135819,0.0186 4.793937,-1.48187 27.866295,-15.730462 30.939926,-43.166755 30.939926,-43.166755 0,0 1.684873,-11.206604 1.684873,-16.641472 0,-2.223539 -2.310932,-4.081158 -4.785386,-5.112314 L 40.387656,0.61006498 C 39.372042,0.18683698 38.420002,2.9842173e-6 37.419629,2.9842173e-6 Z m 0,8.4008700157827 c 0.758359,0 1.480146,0.141788 2.250059,0.462617 l 22.488851,9.372044 c 1.875824,0.781691 3.627234,2.189498 3.627234,3.875108 0,4.120036 -1.276741,12.615719 -1.276741,12.615719 0,0 -2.330993,20.79822 -23.455758,32.723097 -2.015047,1.137497 -3.302938,1.123963 -3.633645,1.123963 v -33.84706 z" />
  </g>
</svg>
