<?xml version="1.0" encoding="UTF-8" standalone="no"?>
<svg
   xmlns:dc="http://purl.org/dc/elements/1.1/"
   xmlns:cc="http://creativecommons.org/ns#"
   xmlns:rdf="http://www.w3.org/1999/02/22-rdf-syntax-ns#"
   xmlns:svg="http://www.w3.org/2000/svg"
   xmlns="http://www.w3.org/2000/svg"
   xmlns:sodipodi="http://sodipodi.sourceforge.net/DTD/sodipodi-0.dtd"
   xmlns:inkscape="http://www.inkscape.org/namespaces/inkscape"
   width="300"
   height="300"
   viewBox="0 0 300 300"
   version="1.1"
   id="svg8"
   inkscape:version="1.0.1 (3bc2e813f5, 2020-09-07)"
   sodipodi:docname="shopping-cart.svg">
  <defs
     id="defs2" />
  <sodipodi:namedview
     id="base"
     pagecolor="#ffffff"
     bordercolor="#666666"
     borderopacity="1.0"
     inkscape:pageopacity="0.0"
     inkscape:pageshadow="2"
     inkscape:zoom="2"
     inkscape:cx="150"
     inkscape:cy="150"
     inkscape:document-units="px"
     inkscape:current-layer="layer1"
     inkscape:document-rotation="0"
     showgrid="false"
     units="px"
     inkscape:window-width="2560"
     inkscape:window-height="1377"
     inkscape:window-x="-8"
     inkscape:window-y="-8"
     inkscape:window-maximized="1" />
  <metadata
     id="metadata5">
    <rdf:RDF>
      <cc:Work
         rdf:about="">
        <dc:format>image/svg+xml</dc:format>
        <dc:type
           rdf:resource="http://purl.org/dc/dcmitype/StillImage" />
        <dc:title></dc:title>
      </cc:Work>
    </rdf:RDF>
  </metadata>
  <g
     inkscape:label="Ebene 1"
     inkscape:groupmode="layer"
     id="layer1">
    <path
       id="path853-1"
       style="fill:#000000;stroke-width:24.7667;stop-color:#000000"
       d="m 280.46201,248.28085 a 25.20022,25.20022 0 0 1 -25.20021,25.20023 25.20022,25.20022 0 0 1 -25.20022,-25.20023 25.20022,25.20022 0 0 1 25.20022,-25.20022 25.20022,25.20022 0 0 1 25.20021,25.20022 z m -161.51699,0 A 25.20022,25.20022 0 0 1 93.744805,273.48108 25.20022,25.20022 0 0 1 68.544586,248.28085 25.20022,25.20022 0 0 1 93.744805,223.08063 25.20022,25.20022 0 0 1 118.94502,248.28085 Z M 1.5743254e-6,36.599013 A 10.080088,10.080088 0 0 0 10.080089,46.679101 h 23.936273 a 6.0122271,6.0122271 0 0 1 5.919904,4.962649 l 26.848614,151.4335 a 12.024454,12.024454 0 0 0 11.839809,9.9253 H 270.38261 A 10.080088,10.080088 0 0 0 280.4627,202.92046 10.080088,10.080088 0 0 0 270.38261,192.84037 H 90.370354 a 5.9905714,5.9905714 0 0 1 -5.902261,-4.96574 L 80.079607,162.60011 H 267.12233 a 17.976677,17.976677 0 0 0 17.71083,-14.89654 L 299.81193,61.575632 A 12.717501,12.717501 0 0 0 287.2825,46.679101 H 64.989007 A 5.9905712,5.9905712 0 0 1 59.086746,41.713355 18.330244,18.330244 0 0 0 41.026722,26.518925 H 10.080089 A 10.080088,10.080088 0 0 0 1.5743254e-6,36.599013 Z" />
  </g>
</svg>
