<?xml version="1.0" encoding="UTF-8" standalone="no"?>
<svg
   xmlns:dc="http://purl.org/dc/elements/1.1/"
   xmlns:cc="http://creativecommons.org/ns#"
   xmlns:rdf="http://www.w3.org/1999/02/22-rdf-syntax-ns#"
   xmlns:svg="http://www.w3.org/2000/svg"
   xmlns="http://www.w3.org/2000/svg"
   xmlns:sodipodi="http://sodipodi.sourceforge.net/DTD/sodipodi-0.dtd"
   xmlns:inkscape="http://www.inkscape.org/namespaces/inkscape"
   width="300"
   height="300"
   viewBox="0 0 300 300"
   version="1.1"
   id="svg8"
   inkscape:version="1.0.1 (3bc2e813f5, 2020-09-07)"
   sodipodi:docname="sign-out.svg">
  <defs
     id="defs2" />
  <sodipodi:namedview
     id="base"
     pagecolor="#ffffff"
     bordercolor="#666666"
     borderopacity="1.0"
     inkscape:pageopacity="0.0"
     inkscape:pageshadow="2"
     inkscape:zoom="1.9492577"
     inkscape:cx="139.83169"
     inkscape:cy="144.20378"
     inkscape:document-units="px"
     inkscape:current-layer="layer1"
     inkscape:document-rotation="0"
     showgrid="true"
     units="px"
     inkscape:window-width="2560"
     inkscape:window-height="1377"
     inkscape:window-x="2552"
     inkscape:window-y="-8"
     inkscape:window-maximized="1">
    <inkscape:grid
       type="xygrid"
       id="grid830" />
  </sodipodi:namedview>
  <metadata
     id="metadata5">
    <rdf:RDF>
      <cc:Work
         rdf:about="">
        <dc:format>image/svg+xml</dc:format>
        <dc:type
           rdf:resource="http://purl.org/dc/dcmitype/StillImage" />
        <dc:title />
      </cc:Work>
    </rdf:RDF>
  </metadata>
  <g
     inkscape:label="Ebene 1"
     inkscape:groupmode="layer"
     id="layer1">
    <path
       id="rect883"
       style="fill:#000000;stroke-width:10.1938;stop-color:#000000"
       d="m 218.96425,106.2248 c -2.01092,1.33816 -3.39154,13.22519 -3.96176,27.88172 H 71.51389 C 67.90519,134.10652 65,137.1055 65,140.8307 v 18.33914 c 0,3.72521 2.90519,6.72419 6.51389,6.72419 h 143.55732 c 0.56599,12.59674 1.81131,23.43648 3.89304,27.75823 5.69224,2.44221 71.97818,-32.17938 80.83067,-43.71239 -0.58814,-5.83867 -65.74143,-42.30044 -80.83067,-43.71507 z M 5,20 C 2.2299998,20 0,22.229999 0,25 V 38.636719 275 c 0,2.77 2.2299998,5 5,5 H 18.636719 207.33569 c 0.6925,0 1.35258,-0.14023 1.95117,-0.39258 1.79493,-0.75741 3.04883,-2.53054 3.04883,-4.60742 v -13.63672 -46.81836 c 0,-2.77 -2.23,-5 -5,-5 h -25.06421 c -2.77,0 -5,2.23 -5,5 V 245 H 35 V 55 h 142.27148 v 30.455078 c 0,2.770001 2.23,5 5,5 h 25.06421 c 2.77,0 5,-2.229999 5,-5 V 38.636719 25 c 0,-2.076885 -1.2539,-3.850012 -3.04883,-4.607422 -5.6e-4,-2.39e-4 -10e-4,2.39e-4 -0.002,0 C 208.68632,20.140234 208.02819,20 207.33569,20 h -25.06421 z" />
  </g>
</svg>
