<?xml version="1.0" encoding="UTF-8" standalone="no"?>
<svg
   xmlns:dc="http://purl.org/dc/elements/1.1/"
   xmlns:cc="http://creativecommons.org/ns#"
   xmlns:rdf="http://www.w3.org/1999/02/22-rdf-syntax-ns#"
   xmlns:svg="http://www.w3.org/2000/svg"
   xmlns="http://www.w3.org/2000/svg"
   xmlns:sodipodi="http://sodipodi.sourceforge.net/DTD/sodipodi-0.dtd"
   xmlns:inkscape="http://www.inkscape.org/namespaces/inkscape"
   width="300"
   height="300"
   viewBox="0 0 300 300"
   version="1.1"
   id="svg8"
   inkscape:version="1.0.1 (3bc2e813f5, 2020-09-07)"
   sodipodi:docname="smilie-love.svg">
  <defs
     id="defs2" />
  <sodipodi:namedview
     id="base"
     pagecolor="#ffffff"
     bordercolor="#666666"
     borderopacity="1.0"
     inkscape:pageopacity="0.0"
     inkscape:pageshadow="2"
     inkscape:zoom="2"
     inkscape:cx="150"
     inkscape:cy="150"
     inkscape:document-units="px"
     inkscape:current-layer="layer1"
     inkscape:document-rotation="0"
     showgrid="false"
     units="px"
     inkscape:window-width="2560"
     inkscape:window-height="1377"
     inkscape:window-x="2552"
     inkscape:window-y="-8"
     inkscape:window-maximized="1" />
  <metadata
     id="metadata5">
    <rdf:RDF>
      <cc:Work
         rdf:about="">
        <dc:format>image/svg+xml</dc:format>
        <dc:type
           rdf:resource="http://purl.org/dc/dcmitype/StillImage" />
        <dc:title></dc:title>
      </cc:Work>
    </rdf:RDF>
  </metadata>
  <g
     inkscape:label="Ebene 1"
     inkscape:groupmode="layer"
     id="layer1">
    <path
       id="path830-3-1-5-3"
       style="fill:#000000;fill-opacity:1;stroke-width:33.0355;stop-color:#000000"
       d="M 150,0 A 150,150 0 0 0 0,150 150,150 0 0 0 150,300 150,150 0 0 0 300,150 150,150 0 0 0 150,0 Z m -41.25586,77.75586 c 7.02069,0 13.50725,3.74608 17.01758,9.82617 3.51035,6.0801 3.51025,13.57226 0,19.65235 l -18.03516,31.23828 a 3.2304645,3.2304645 0 0 1 -4.41406,1.18164 L 72.07422,121.61914 c -6.08009,-3.51035 -9.82617,-9.99689 -9.82617,-17.01758 1e-5,-7.02069 3.74607,-13.50918 9.82617,-17.01953 6.0801,-3.51036 13.57031,-3.51026 19.65039,0 3.51035,-6.08008 9.99885,-9.82618 17.01953,-9.82617 z m 82.51172,0.002 c 7.0207,-10e-6 13.50916,3.74421 17.01953,9.82422 6.0801,-3.51033 13.57031,-3.51035 19.65039,0 6.0801,3.51035 9.82619,9.99885 9.82617,17.01953 2e-5,7.02069 -3.74617,13.5072 -9.82617,17.01758 L 196.6875,139.6563 a 3.2304645,3.2304645 0 0 1 -4.41406,-1.18359 l -18.03516,-31.23828 c -3.51033,-6.0801 -3.51034,-13.57226 0,-19.65235 3.51036,-6.08009 9.99689,-9.82422 17.01758,-9.82422 z M 87.5,192 h 62.5 62.5 c 0.0864,0 0.16996,0.01 0.25586,0.0117 2.6439,-0.0535 5.20191,0.7271 7.25391,2.46484 4.2623,3.60964 4.74732,10.43798 0.79882,16.10156 -0.1864,0.27764 -0.38505,0.54592 -0.59765,0.80274 -0.3701,0.46896 -0.76267,0.93037 -1.19727,1.37695 -8.3232,8.55281 -17.69369,16.43879 -28.40039,22.83594 -11.8998,7.13907 -25.84838,11.72875 -40.61328,11.91016 -14.7649,-0.18141 -28.71348,-4.77109 -40.61328,-11.91016 -10.7067,-6.39715 -20.07719,-14.28313 -28.40039,-22.83594 -0.4346,-0.44658 -0.82717,-0.90799 -1.19727,-1.37695 -0.2126,-0.25682 -0.41125,-0.52509 -0.59765,-0.80274 -3.9485,-5.66359 -3.46348,-12.49192 0.79882,-16.10156 2.052,-1.73774 4.61011,-2.51834 7.25391,-2.46484 C 87.33004,192.01002 87.414,192 87.5,192 Z" />
  </g>
</svg>
