<?xml version="1.0" encoding="UTF-8" standalone="no"?>
<svg
   xmlns:dc="http://purl.org/dc/elements/1.1/"
   xmlns:cc="http://creativecommons.org/ns#"
   xmlns:rdf="http://www.w3.org/1999/02/22-rdf-syntax-ns#"
   xmlns:svg="http://www.w3.org/2000/svg"
   xmlns="http://www.w3.org/2000/svg"
   xmlns:sodipodi="http://sodipodi.sourceforge.net/DTD/sodipodi-0.dtd"
   xmlns:inkscape="http://www.inkscape.org/namespaces/inkscape"
   width="300"
   height="300"
   viewBox="0 0 300 300"
   version="1.1"
   id="svg8"
   inkscape:version="1.0.1 (3bc2e813f5, 2020-09-07)"
   sodipodi:docname="smilie-hearts.svg">
  <defs
     id="defs2" />
  <sodipodi:namedview
     id="base"
     pagecolor="#ffffff"
     bordercolor="#666666"
     borderopacity="1.0"
     inkscape:pageopacity="0.0"
     inkscape:pageshadow="2"
     inkscape:zoom="2"
     inkscape:cx="150"
     inkscape:cy="150"
     inkscape:document-units="px"
     inkscape:current-layer="layer1"
     inkscape:document-rotation="0"
     showgrid="false"
     units="px"
     inkscape:window-width="2560"
     inkscape:window-height="1377"
     inkscape:window-x="2552"
     inkscape:window-y="-8"
     inkscape:window-maximized="1" />
  <metadata
     id="metadata5">
    <rdf:RDF>
      <cc:Work
         rdf:about="">
        <dc:format>image/svg+xml</dc:format>
        <dc:type
           rdf:resource="http://purl.org/dc/dcmitype/StillImage" />
        <dc:title />
      </cc:Work>
    </rdf:RDF>
  </metadata>
  <g
     inkscape:label="Ebene 1"
     inkscape:groupmode="layer"
     id="layer1">
    <path
       id="path1242-7-0-2-8"
       style="fill:#000000;fill-opacity:1;stroke-width:3.4629;stop-color:#000000"
       d="m 6.8965569,268.44028 c -5.91929,-5.91929 -8.23103,-14.54684 -6.06442,-22.63274 2.16661,-8.0859 8.48243,-14.40171 16.5683301,-16.56832 8.085903,-2.16661 16.713453,0.14514 22.632743,6.06442 m 0,0 c 5.91929,-5.91928 14.54684,-8.23103 22.63274,-6.06442 8.0859,2.16661 14.40172,8.48242 16.56833,16.56832 2.16661,8.0859 -0.14513,16.71345 -6.06441,22.63274 m -66.2733131,0 33.1366531,-33.13664 33.13666,33.13664 -30.41299,30.41298 a 3.8518523,3.8518523 0 0 1 -5.44734,0 z m 219.9999931,0 c -5.91929,-5.91929 -8.23103,-14.54684 -6.06442,-22.63274 2.16661,-8.0859 8.48243,-14.40171 16.56833,-16.56832 8.0859,-2.16661 16.71345,0.14514 22.63274,6.06442 m 0,0 c 5.91929,-5.91928 14.54684,-8.23103 22.63274,-6.06442 8.0859,2.16661 14.40172,8.48242 16.56833,16.56832 2.16661,8.0859 -0.14513,16.71345 -6.06441,22.63274 m -66.27331,0 33.13665,-33.13664 33.13666,33.13664 -30.41299,30.41298 a 3.8518523,3.8518523 0 0 1 -5.44734,0 z M 217.11026,39.98144 c -5.91929,-5.91929 -8.23103,-14.54684 -6.06442,-22.63274 2.16661,-8.0859002 8.48243,-14.4017102 16.56833,-16.56832017 8.0859,-2.16661003 16.71345,0.14514 22.63274,6.06441997 m 0,0 c 5.91929,-5.91927997 14.54684,-8.23103 22.63274,-6.06441997 8.0859,2.16660997 14.40172,8.48241997 16.56833,16.56832017 2.16661,8.0859 -0.14513,16.71345 -6.06441,22.63274 m -66.27331,0 33.13665,-33.1366402 33.13666,33.1366402 -30.41299,30.41298 a 3.8518523,3.8518523 0 0 1 -5.44734,0 z M 149.96679,0.01855983 A 150,150 0 0 0 -0.0332011,150.01855 150,150 0 0 0 15.58008,216.64941 c 2.640345,-0.58866 5.31224,-0.89261 7.96485,-0.88672 5.72845,0.0127 11.29853,1.54181 16.38086,4.14648 7.9224,-4.10888 17.19952,-5.28482 26.05469,-2.91211 12.48503,3.34538 22.27769,13.13801 25.62304,25.62305 3.34536,12.48506 -0.23924,25.86229 -9.3789,35.00195 l -4.08203,4.08204 a 150,150 0 0 0 71.8242,18.31445 150,150 0 0 0 71.91016,-18.36133 l -4.03516,-4.03516 c -9.13968,-9.13967 -12.72426,-22.5169 -9.3789,-35.00195 3.34535,-12.48504 13.138,-22.27767 25.62304,-25.62305 3.12145,-0.83638 6.30544,-1.24137 9.45899,-1.23437 5.72845,0.0127 11.29853,1.54181 16.38086,4.14648 7.44464,-3.86109 16.0863,-5.13229 24.44922,-3.30273 a 150,150 0 0 0 15.59179,-66.58789 150,150 0 0 0 -25.18945,-83.1953 l -12.74805,12.74804 c -6.16634,6.1707 -17.39401,6.1719 -23.5625,0.004 L 208.05468,49.16318 c -9.13968,-9.13968 -12.72426,-22.5169 -9.3789,-35.00195 0.49472,-1.84633 1.14753,-3.62537 1.91211,-5.3418002 A 150,150 0 0 0 149.96679,0.01864983 Z M 102.61523,93.73731 c 3.81787,-0.0202 7.39975,0.75058 10.57617,2.1582 3.61894,1.62464 6.64799,3.6998 9.11133,5.94921 3.99018,3.64654 7.25954,7.63373 10.01367,11.68945 3.28556,4.8383 1.10601,10.6918 -3.67578,13.32422 -4.85211,2.67114 -10.60006,1.44565 -12.97656,-2.16015 -2.04847,-3.1081 -4.19203,-5.82989 -6.63672,-7.89453 -1.40226,-1.18144 -2.65477,-2.12476 -3.7793,-2.55274 -0.87721,-0.34649 -1.70043,-0.56942 -2.29882,-0.51562 -0.61424,-0.039 -1.46885,0.22675 -2.41211,0.62109 -1.18944,0.49452 -2.48513,1.49203 -3.92187,2.72656 -2.35339,2.02914 -4.44527,4.62305 -6.44531,7.56055 -2.43335,3.57389 -8.18602,4.71114 -13.00195,1.9707 -4.75206,-2.70409 -6.82548,-8.58539 -3.47657,-13.36914 2.67569,-3.82208 5.80304,-7.5733 9.54883,-11.03125 2.42931,-2.24351 5.39242,-4.33729 8.92578,-6.01952 3.08946,-1.46435 6.62362,-2.34362 10.44921,-2.45703 z m 94.70508,0 c 3.8256,0.11341 7.35779,0.99268 10.44727,2.45703 3.53336,1.68223 6.49842,3.77601 8.92773,6.01952 3.74579,3.45795 6.87314,7.20917 9.54883,11.03125 3.34891,4.78375 1.27547,10.66505 -3.47656,13.36914 -4.81595,2.74044 -10.56861,1.60319 -13.00196,-1.9707 -2.00004,-2.9375 -4.09387,-5.53141 -6.44726,-7.56055 -1.43674,-1.23453 -2.73243,-2.23204 -3.92188,-2.72656 -0.94327,-0.39434 -1.79787,-0.66007 -2.41211,-0.62109 -0.59839,-0.0538 -1.42162,0.16913 -2.29883,0.51562 -1.12452,0.42798 -2.37508,1.3713 -3.77734,2.55274 -2.44469,2.06464 -4.58825,4.78643 -6.63672,7.89453 -2.37649,3.6058 -8.1264,4.83129 -12.97851,2.16015 -4.7818,-2.63242 -6.96135,-8.48592 -3.67579,-13.32422 2.75414,-4.05572 6.02545,-8.04291 10.01563,-11.68945 2.46334,-2.24941 5.49044,-4.32457 9.10937,-5.94921 3.17643,-1.40762 6.76026,-2.17845 10.57813,-2.1582 z M 88.96485,186.46582 c 2.66632,0.0299 5.38385,0.89237 7.70313,2.57226 7.22766,5.23512 14.79401,9.72911 22.7285,13.03906 9.81564,4.10828 20.25906,6.53041 30.52734,6.49805 10.27206,0.0544 20.72272,-2.34734 30.54102,-6.44531 7.90152,-3.28607 15.43686,-7.7528 22.63477,-12.95899 5.30095,-3.83413 12.67766,-3.39548 16.7832,1.47657 4.08411,4.84662 3.01002,12.64132 -3.30664,17.19336 -8.36524,6.02834 -17.42029,11.33738 -27.19141,15.48828 -12.31418,5.21579 -25.74604,8.21789 -39.48633,8.24609 -13.73261,-0.0585 -27.14868,-3.08464 -39.44531,-8.30859 -9.80261,-4.1758 -18.88453,-9.5137 -27.27538,-15.57032 -6.30915,-4.55402 -7.37979,-12.34587 -3.29492,-17.1914 2.30977,-2.73988 5.65391,-4.07758 9.08203,-4.03906 z" />
  </g>
</svg>
