<?xml version="1.0" encoding="UTF-8" standalone="no"?>
<svg
   xmlns:dc="http://purl.org/dc/elements/1.1/"
   xmlns:cc="http://creativecommons.org/ns#"
   xmlns:rdf="http://www.w3.org/1999/02/22-rdf-syntax-ns#"
   xmlns:svg="http://www.w3.org/2000/svg"
   xmlns="http://www.w3.org/2000/svg"
   xmlns:sodipodi="http://sodipodi.sourceforge.net/DTD/sodipodi-0.dtd"
   xmlns:inkscape="http://www.inkscape.org/namespaces/inkscape"
   width="300"
   height="300"
   viewBox="0 0 300 300"
   version="1.1"
   id="svg8"
   inkscape:version="1.0.1 (3bc2e813f5, 2020-09-07)"
   sodipodi:docname="smilie-laugh-sweat.svg">
  <defs
     id="defs2">
    <inkscape:path-effect
       effect="bend_path"
       id="path-effect1467"
       is_visible="true"
       lpeversion="1"
       bendpath="m 102.89338,93.08338 c 17.2313,-31.23982 34.387,-30.08909 51.4753,0"
       prop_scale="1"
       scale_y_rel="false"
       vertical="false"
       hide_knot="false"
       bendpath-nodetypes="cc" />
    <inkscape:path-effect
       effect="bend_path"
       id="path-effect1469"
       is_visible="true"
       lpeversion="1"
       bendpath="m 62.10661,93.21629 c -17.2313,-31.23982 -34.386996,-30.08909 -51.475296,0"
       prop_scale="1"
       scale_y_rel="false"
       vertical="false"
       hide_knot="false"
       bendpath-nodetypes="cc" />
  </defs>
  <sodipodi:namedview
     id="base"
     pagecolor="#ffffff"
     bordercolor="#666666"
     borderopacity="1.0"
     inkscape:pageopacity="0.0"
     inkscape:pageshadow="2"
     inkscape:zoom="2"
     inkscape:cx="150"
     inkscape:cy="150"
     inkscape:document-units="px"
     inkscape:current-layer="layer1"
     inkscape:document-rotation="0"
     showgrid="false"
     units="px"
     inkscape:window-width="2560"
     inkscape:window-height="1377"
     inkscape:window-x="2552"
     inkscape:window-y="-8"
     inkscape:window-maximized="1" />
  <metadata
     id="metadata5">
    <rdf:RDF>
      <cc:Work
         rdf:about="">
        <dc:format>image/svg+xml</dc:format>
        <dc:type
           rdf:resource="http://purl.org/dc/dcmitype/StillImage" />
        <dc:title></dc:title>
      </cc:Work>
    </rdf:RDF>
  </metadata>
  <g
     inkscape:label="Ebene 1"
     inkscape:groupmode="layer"
     id="layer1">
    <path
       id="path1471-4-1"
       style="fill:#000000;stroke-width:6.16892;stop-color:#000000"
       inkscape:transform-center-x="-1.0052308e-06"
       inkscape:transform-center-y="-7.1049532"
       d="M 235,-1.245e-4 V 67.241876 c -9.4874,0 -15.80259,-5.36794 -18.75196,-13.23247 -2.23812,-5.96799 0.3443,-16.053751 3.14047,-21.819361 z m 0,0 V 67.241876 c 9.48741,0 15.8026,-5.36794 18.75196,-13.23247 2.23813,-5.96799 -0.34429,-16.053751 -3.14046,-21.819361 z m -85,2.49e-4 A 150,150 0 0 0 0,150.00012 a 150,150 0 0 0 150,150 150,150 0 0 0 150,-150 150,150 0 0 0 -31.68945,-92.20898 c -0.15675,0.489873 -0.32544,0.984388 -0.51367,1.486328 C 263.16352,71.632405 250.14532,82.242312 235,82.242312 c -15.14532,0 -28.1635,-10.60992 -32.79688,-22.964844 -2.76075,-7.361608 -2.02433,-13.398511 -1.0371,-18.902344 0.98722,-5.503832 2.62101,-10.388901 4.72656,-14.730468 L 211.85547,13.34778 A 150,150 0 0 0 150,1.245e-4 Z m 45.35156,93.5859375 c 3.8256,0.113414 7.35976,0.990725 10.44922,2.455078 3.53337,1.682234 6.49843,3.777959 8.92774,6.02148 3.74579,3.45795 6.87119,7.20722 9.54687,11.0293 3.34891,4.78375 1.2755,10.66505 -3.47656,13.36914 -4.81594,2.74044 -10.56666,1.60319 -13,-1.9707 -2.00005,-2.9375 -4.09388,-5.52945 -6.44727,-7.55859 -1.43673,-1.23454 -2.73243,-2.23205 -3.92187,-2.72657 -0.94327,-0.39434 -1.79788,-0.66006 -2.41211,-0.62109 -0.5984,-0.0538 -1.42162,0.16914 -2.29883,0.51562 -1.12453,0.42798 -2.37508,1.3713 -3.77734,2.55274 -2.44469,2.06464 -4.59021,4.78643 -6.63868,7.89453 -2.37649,3.60581 -8.12445,4.82934 -12.97656,2.1582 -4.78179,-2.63242 -6.96134,-8.48396 -3.67578,-13.32226 2.75414,-4.05573 6.02349,-8.04291 10.01367,-11.68946 2.46334,-2.249413 5.4924,-4.324579 9.11133,-5.949215 3.17643,-1.407619 6.75831,-2.17846 10.57617,-2.158203 z m -92.70312,0.132812 c 3.81786,-0.02025 7.39975,0.750585 10.57617,2.158203 3.61893,1.624636 6.64799,3.699801 9.11133,5.949223 3.99018,3.64654 7.25953,7.63372 10.01367,11.68945 3.28556,4.8383 1.10601,10.6918 -3.67578,13.32422 -4.85211,2.67113 -10.60007,1.44565 -12.97656,-2.16016 -2.04847,-3.1081 -4.19399,-5.82989 -6.63868,-7.89453 -1.40226,-1.18144 -2.65281,-2.12476 -3.77734,-2.55273 -0.87721,-0.34649 -1.70043,-0.56942 -2.29883,-0.51563 -0.61423,-0.039 -1.46884,0.22676 -2.41211,0.6211 -1.189442,0.49451 -2.485137,1.49202 -3.921872,2.72656 -2.353394,2.02914 -4.447221,4.62109 -6.447266,7.55859 -2.433345,3.57389 -8.184065,4.71114 -13,1.9707 -4.752058,-2.70409 -6.827428,-8.58539 -3.478516,-13.36914 2.675685,-3.82207 5.803038,-7.57134 9.548828,-11.02929 2.429306,-2.243527 5.39437,-4.339253 8.927735,-6.021488 3.089462,-1.464353 6.623619,-2.341662 10.449221,-2.455078 z M 87.5,192.00012 h 62.5 62.5 c 0.0864,0 0.16986,0.01 0.25586,0.0117 2.6439,-0.0535 5.20191,0.7271 7.25391,2.46484 4.2623,3.60964 4.74732,10.43798 0.79882,16.10156 -0.1863,0.27764 -0.38505,0.54592 -0.59765,0.80274 -0.3701,0.46896 -0.76267,0.93037 -1.19727,1.37695 -8.3232,8.55281 -17.69369,16.43879 -28.40039,22.83594 -11.8998,7.13909 -25.84838,11.72877 -40.61328,11.91018 -14.7649,-0.18141 -28.71348,-4.77109 -40.61328,-11.91016 -10.706696,-6.39715 -20.077192,-14.28313 -28.400392,-22.83594 -0.4346,-0.44658 -0.827165,-0.90799 -1.197266,-1.37695 -0.2126,-0.25682 -0.411356,-0.5251 -0.597656,-0.80274 -3.9485,-5.66358 -3.463471,-12.49192 0.798828,-16.10156 2.052,-1.73774 4.610107,-2.51834 7.253907,-2.46484 0.0859,-0.002 0.169859,-0.0117 0.255859,-0.0117 z" />
  </g>
</svg>
