<?xml version="1.0" encoding="UTF-8" standalone="no"?>
<svg
   xmlns:dc="http://purl.org/dc/elements/1.1/"
   xmlns:cc="http://creativecommons.org/ns#"
   xmlns:rdf="http://www.w3.org/1999/02/22-rdf-syntax-ns#"
   xmlns:svg="http://www.w3.org/2000/svg"
   xmlns="http://www.w3.org/2000/svg"
   xmlns:sodipodi="http://sodipodi.sourceforge.net/DTD/sodipodi-0.dtd"
   xmlns:inkscape="http://www.inkscape.org/namespaces/inkscape"
   width="300"
   height="300"
   viewBox="0 0 300 300"
   version="1.1"
   id="svg8"
   inkscape:version="1.0.1 (3bc2e813f5, 2020-09-07)"
   sodipodi:docname="smilie-star-struck.svg">
  <defs
     id="defs2" />
  <sodipodi:namedview
     id="base"
     pagecolor="#ffffff"
     bordercolor="#666666"
     borderopacity="1.0"
     inkscape:pageopacity="0.0"
     inkscape:pageshadow="2"
     inkscape:zoom="2"
     inkscape:cx="150"
     inkscape:cy="150"
     inkscape:document-units="px"
     inkscape:current-layer="layer1"
     inkscape:document-rotation="0"
     showgrid="false"
     units="px"
     inkscape:window-width="2560"
     inkscape:window-height="1377"
     inkscape:window-x="2552"
     inkscape:window-y="-8"
     inkscape:window-maximized="1" />
  <metadata
     id="metadata5">
    <rdf:RDF>
      <cc:Work
         rdf:about="">
        <dc:format>image/svg+xml</dc:format>
        <dc:type
           rdf:resource="http://purl.org/dc/dcmitype/StillImage" />
        <dc:title></dc:title>
      </cc:Work>
    </rdf:RDF>
  </metadata>
  <g
     inkscape:label="Ebene 1"
     inkscape:groupmode="layer"
     id="layer1">
    <path
       id="path830-3-1-5-3-3"
       style="fill:#000000;fill-opacity:1;stroke-width:33.0355;stop-color:#000000"
       d="M 150,0 A 150,150 0 0 0 0,150 150,150 0 0 0 150,300 150,150 0 0 0 300,150 150,150 0 0 0 150,0 Z M 93.31836,71.92188 a 2.4500169,2.4500169 0 0 1 2.31641,1.64648 l 7.43945,21.39844 a 2.0258009,2.0258009 0 0 0 1.87109,1.35937 l 22.65039,0.46094 a 2.450015,2.450015 0 0 1 1.42969,4.40039 l -18.05078,13.6875 a 2.0258001,2.0258001 0 0 0 -0.71484,2.20117 l 6.56054,21.6836 a 2.4500148,2.4500148 0 0 1 -3.74414,2.7207 l -18.5957,-12.9375 a 2.0258008,2.0258008 0 0 0 -2.31445,0 l -18.59571,12.93945 a 2.4500141,2.4500141 0 0 1 -3.74414,-2.71875 l 6.5586,-21.68555 a 2.0257993,2.0257993 0 0 0 -0.71485,-2.20117 L 57.61719,101.19141 a 2.4500147,2.4500147 0 0 1 1.42969,-4.40039 l 22.65039,-0.4629 a 2.0258006,2.0258006 0 0 0 1.87109,-1.36132 l 7.4375,-21.39844 a 2.4500169,2.4500169 0 0 1 2.3125,-1.64648 z m 113.35742,0 a 2.4500169,2.4500169 0 0 1 2.31445,1.64648 l 7.43946,21.39844 a 2.0258009,2.0258009 0 0 0 1.87304,1.35937 l 22.65039,0.46094 a 2.450015,2.450015 0 0 1 1.42969,4.40039 l -18.05273,13.68945 a 2.0258001,2.0258001 0 0 0 -0.71485,2.19922 l 6.5625,21.6836 a 2.4500148,2.4500148 0 0 1 -3.74414,2.7207 l -18.5957,-12.9375 a 2.0258008,2.0258008 0 0 0 -2.31445,0 l -18.59571,12.94141 a 2.4500141,2.4500141 0 0 1 -3.74414,-2.72071 l 6.5586,-21.68555 a 2.0257993,2.0257993 0 0 0 -0.71485,-2.19921 l -18.05273,-13.68555 a 2.4500147,2.4500147 0 0 1 1.42969,-4.40234 l 22.64843,-0.4629 a 2.0258006,2.0258006 0 0 0 1.87305,-1.36132 l 7.4375,-21.39844 a 2.4500169,2.4500169 0 0 1 2.3125,-1.64648 z M 87.5,192 h 62.5 62.5 c 0.0864,0 0.16996,0.01 0.25586,0.0117 2.6439,-0.0535 5.20191,0.7271 7.25391,2.46484 4.2623,3.60964 4.74732,10.43798 0.79882,16.10156 -0.1864,0.27765 -0.38505,0.54592 -0.59765,0.80274 -0.3701,0.46896 -0.76267,0.93037 -1.19727,1.37695 -8.3232,8.55281 -17.69369,16.43879 -28.40039,22.83594 -11.8998,7.13907 -25.84838,11.72875 -40.61328,11.91016 -14.7649,-0.18141 -28.71348,-4.77109 -40.61328,-11.91016 -10.7067,-6.39715 -20.07719,-14.28313 -28.40039,-22.83594 -0.4346,-0.44658 -0.82717,-0.90799 -1.19727,-1.37695 -0.2126,-0.25682 -0.41125,-0.52509 -0.59765,-0.80274 -3.9485,-5.66359 -3.46348,-12.49192 0.79882,-16.10156 2.052,-1.73774 4.61011,-2.51834 7.25391,-2.46484 C 87.33004,192.01002 87.414,192 87.5,192 Z" />
  </g>
</svg>
