<?xml version="1.0" encoding="UTF-8" standalone="no"?>
<svg
   xmlns:dc="http://purl.org/dc/elements/1.1/"
   xmlns:cc="http://creativecommons.org/ns#"
   xmlns:rdf="http://www.w3.org/1999/02/22-rdf-syntax-ns#"
   xmlns:svg="http://www.w3.org/2000/svg"
   xmlns="http://www.w3.org/2000/svg"
   xmlns:sodipodi="http://sodipodi.sourceforge.net/DTD/sodipodi-0.dtd"
   xmlns:inkscape="http://www.inkscape.org/namespaces/inkscape"
   width="300"
   height="300"
   viewBox="0 0 300 300"
   version="1.1"
   id="svg8"
   inkscape:version="1.0.1 (3bc2e813f5, 2020-09-07)"
   sodipodi:docname="smilie-laugh.svg">
  <defs
     id="defs2" />
  <sodipodi:namedview
     id="base"
     pagecolor="#ffffff"
     bordercolor="#666666"
     borderopacity="1.0"
     inkscape:pageopacity="0.0"
     inkscape:pageshadow="2"
     inkscape:zoom="2"
     inkscape:cx="150"
     inkscape:cy="150"
     inkscape:document-units="px"
     inkscape:current-layer="layer1"
     inkscape:document-rotation="0"
     showgrid="false"
     units="px"
     inkscape:window-width="2560"
     inkscape:window-height="1377"
     inkscape:window-x="2552"
     inkscape:window-y="-8"
     inkscape:window-maximized="1" />
  <metadata
     id="metadata5">
    <rdf:RDF>
      <cc:Work
         rdf:about="">
        <dc:format>image/svg+xml</dc:format>
        <dc:type
           rdf:resource="http://purl.org/dc/dcmitype/StillImage" />
        <dc:title></dc:title>
      </cc:Work>
    </rdf:RDF>
  </metadata>
  <g
     inkscape:label="Ebene 1"
     inkscape:groupmode="layer"
     id="layer1">
    <path
       id="path830-3-1-5"
       style="fill:#000000;fill-opacity:1;stroke-width:33.0355;stop-color:#000000"
       d="M 150,0 A 150,150 0 0 0 0,150 150,150 0 0 0 150,300 150,150 0 0 0 300,150 150,150 0 0 0 150,0 Z m -47,91 a 20,20 0 0 1 20,20 20,20 0 0 1 -20,20 20,20 0 0 1 -20,-20 20,20 0 0 1 20,-20 z m 94,0 a 20,20 0 0 1 20,20 20,20 0 0 1 -20,20 20,20 0 0 1 -20,-20 20,20 0 0 1 20,-20 z M 87.5,192 h 62.5 62.5 c 0.0864,0 0.16996,0.01 0.25586,0.0117 2.6439,-0.0535 5.20191,0.7271 7.25391,2.46484 4.2623,3.60964 4.74732,10.43798 0.79882,16.10156 -0.1864,0.27765 -0.38505,0.54592 -0.59765,0.80274 -0.3701,0.46896 -0.76267,0.93037 -1.19727,1.37695 -8.3232,8.55281 -17.69369,16.43879 -28.40039,22.83594 C 178.71348,242.73282 164.7649,247.3225 150,247.50391 135.2351,247.3225 121.28652,242.73282 109.38672,235.59375 98.680019,229.1966 89.309528,221.31062 80.986328,212.75781 c -0.4346,-0.44658 -0.827165,-0.90799 -1.197266,-1.37695 -0.212599,-0.25682 -0.411256,-0.52509 -0.597656,-0.80274 -3.9485,-5.66359 -3.463472,-12.49192 0.798828,-16.10156 2.052,-1.73774 4.610107,-2.51834 7.253907,-2.46484 C 87.330041,192.01002 87.414,192 87.5,192 Z" />
  </g>
</svg>
