<?xml version="1.0" encoding="UTF-8" standalone="no"?>
<svg
   xmlns:dc="http://purl.org/dc/elements/1.1/"
   xmlns:cc="http://creativecommons.org/ns#"
   xmlns:rdf="http://www.w3.org/1999/02/22-rdf-syntax-ns#"
   xmlns:svg="http://www.w3.org/2000/svg"
   xmlns="http://www.w3.org/2000/svg"
   xmlns:sodipodi="http://sodipodi.sourceforge.net/DTD/sodipodi-0.dtd"
   xmlns:inkscape="http://www.inkscape.org/namespaces/inkscape"
   width="300"
   height="300"
   viewBox="0 0 300 300"
   version="1.1"
   id="svg8"
   inkscape:version="1.0.1 (3bc2e813f5, 2020-09-07)"
   sodipodi:docname="smilie-laugh-happy.svg">
  <defs
     id="defs2">
    <inkscape:path-effect
       effect="bend_path"
       id="path-effect1362"
       is_visible="true"
       lpeversion="1"
       bendpath="m 92.39338,167.08363 c 17.2313,-31.23982 34.387,-30.08909 51.4753,0"
       prop_scale="1"
       scale_y_rel="false"
       vertical="false"
       hide_knot="false"
       bendpath-nodetypes="cc" />
    <inkscape:path-effect
       effect="bend_path"
       id="path-effect1385"
       is_visible="true"
       lpeversion="1"
       bendpath="m 51.60661,167.21654 c -17.2313,-31.23982 -34.386996,-30.08909 -51.475296,0"
       prop_scale="1"
       scale_y_rel="false"
       vertical="false"
       hide_knot="false"
       bendpath-nodetypes="cc" />
  </defs>
  <sodipodi:namedview
     id="base"
     pagecolor="#ffffff"
     bordercolor="#666666"
     borderopacity="1.0"
     inkscape:pageopacity="0.0"
     inkscape:pageshadow="2"
     inkscape:zoom="2"
     inkscape:cx="150"
     inkscape:cy="150"
     inkscape:document-units="px"
     inkscape:current-layer="layer1"
     inkscape:document-rotation="0"
     showgrid="false"
     units="px"
     inkscape:window-width="2560"
     inkscape:window-height="1377"
     inkscape:window-x="2552"
     inkscape:window-y="-8"
     inkscape:window-maximized="1" />
  <metadata
     id="metadata5">
    <rdf:RDF>
      <cc:Work
         rdf:about="">
        <dc:format>image/svg+xml</dc:format>
        <dc:type
           rdf:resource="http://purl.org/dc/dcmitype/StillImage" />
        <dc:title></dc:title>
      </cc:Work>
    </rdf:RDF>
  </metadata>
  <g
     inkscape:label="Ebene 1"
     inkscape:groupmode="layer"
     id="layer1">
    <path
       id="path830-3-1-3"
       style="fill:#000000;fill-opacity:1;stroke-width:33.0355;stop-color:#000000"
       d="M 150,0 A 150,150 0 0 0 0,150 150,150 0 0 0 150,300 150,150 0 0 0 300,150 150,150 0 0 0 150,0 Z m 45.35156,93.58594 c 3.8256,0.11341 7.35976,0.99268 10.44922,2.45703 3.53337,1.68223 6.49843,3.776 8.92774,6.01953 3.74579,3.45795 6.87119,7.20722 9.54687,11.0293 3.34891,4.78375 1.2755,10.66505 -3.47656,13.36914 -4.81594,2.74044 -10.56666,1.60319 -13,-1.97071 -2.00005,-2.93749 -4.09388,-5.52945 -6.44727,-7.55859 -1.43673,-1.23453 -2.73243,-2.23204 -3.92187,-2.72656 -0.94327,-0.39434 -1.79788,-0.66007 -2.41211,-0.6211 -0.5984,-0.0538 -1.42162,0.16914 -2.29883,0.51563 -1.12453,0.42798 -2.37508,1.37129 -3.77734,2.55273 -2.44469,2.06464 -4.59021,4.78644 -6.63868,7.89454 -2.37649,3.6058 -8.12445,4.83129 -12.97656,2.16015 -4.78179,-2.63242 -6.96134,-8.48592 -3.67578,-13.32422 2.75414,-4.05572 6.02349,-8.04291 10.01367,-11.68945 2.46334,-2.24942 5.4924,-4.32458 9.11133,-5.94922 3.17643,-1.40762 6.75831,-2.17846 10.57617,-2.1582 z m -92.70312,0.13281 c 3.81786,-0.0203 7.39975,0.75058 10.57617,2.1582 3.61893,1.62464 6.64799,3.6998 9.11133,5.94922 3.99018,3.64654 7.25953,7.63373 10.01367,11.68945 3.28556,4.8383 1.10601,10.6918 -3.67578,13.32422 -4.85211,2.67114 -10.60007,1.44565 -12.97656,-2.16015 -2.04847,-3.1081 -4.19399,-5.82989 -6.63868,-7.89453 -1.40226,-1.18144 -2.65281,-2.12476 -3.77734,-2.55274 -0.87721,-0.34649 -1.70043,-0.56942 -2.29883,-0.51562 -0.61423,-0.039 -1.46884,0.22675 -2.41211,0.62109 -1.189442,0.49452 -2.485137,1.49203 -3.921872,2.72656 -2.353394,2.02914 -4.447221,4.62305 -6.447266,7.56055 -2.433345,3.57389 -8.184065,4.71114 -13,1.9707 -4.752058,-2.70409 -6.827428,-8.58539 -3.478516,-13.36914 2.675685,-3.82207 5.803038,-7.5733 9.548828,-11.03125 2.429306,-2.24352 5.394369,-4.33729 8.927735,-6.01953 3.089462,-1.46435 6.623622,-2.34362 10.449221,-2.45703 z M 87.5,192 h 62.5 62.5 c 0.0864,0 0.16986,0.01 0.25586,0.0117 2.6439,-0.0535 5.20191,0.7271 7.25391,2.46484 4.2623,3.60964 4.74732,10.43798 0.79882,16.10156 -0.1863,0.27764 -0.38505,0.54592 -0.59765,0.80274 -0.3701,0.46896 -0.76267,0.93037 -1.19727,1.37695 -8.3232,8.55281 -17.69369,16.43879 -28.40039,22.83594 C 178.71348,242.73282 164.7649,247.3225 150,247.50391 135.2351,247.3225 121.28652,242.73282 109.38672,235.59375 98.680024,229.1966 89.309528,221.31062 80.986328,212.75781 c -0.4346,-0.44658 -0.827166,-0.90799 -1.197266,-1.37695 -0.212599,-0.25682 -0.411356,-0.5251 -0.597656,-0.80274 -3.9485,-5.66359 -3.463472,-12.49192 0.798828,-16.10156 2.052,-1.73774 4.610107,-2.51834 7.253907,-2.46484 C 87.330041,192.01002 87.414,192 87.5,192 Z" />
  </g>
</svg>
