<?xml version="1.0" encoding="UTF-8" standalone="no"?>
<svg
   xmlns:dc="http://purl.org/dc/elements/1.1/"
   xmlns:cc="http://creativecommons.org/ns#"
   xmlns:rdf="http://www.w3.org/1999/02/22-rdf-syntax-ns#"
   xmlns:svg="http://www.w3.org/2000/svg"
   xmlns="http://www.w3.org/2000/svg"
   xmlns:sodipodi="http://sodipodi.sourceforge.net/DTD/sodipodi-0.dtd"
   xmlns:inkscape="http://www.inkscape.org/namespaces/inkscape"
   width="300"
   height="300"
   viewBox="0 0 300 300"
   version="1.1"
   id="svg8"
   inkscape:version="1.0.1 (3bc2e813f5, 2020-09-07)"
   sodipodi:docname="speech-bubble-shield.svg">
  <defs
     id="defs2" />
  <sodipodi:namedview
     id="base"
     pagecolor="#ffffff"
     bordercolor="#666666"
     borderopacity="1.0"
     inkscape:pageopacity="0.0"
     inkscape:pageshadow="2"
     inkscape:zoom="2"
     inkscape:cx="150"
     inkscape:cy="150"
     inkscape:document-units="px"
     inkscape:current-layer="layer1"
     inkscape:document-rotation="0"
     showgrid="false"
     units="px"
     inkscape:window-width="2560"
     inkscape:window-height="1377"
     inkscape:window-x="2552"
     inkscape:window-y="-8"
     inkscape:window-maximized="1" />
  <metadata
     id="metadata5">
    <rdf:RDF>
      <cc:Work
         rdf:about="">
        <dc:format>image/svg+xml</dc:format>
        <dc:type
           rdf:resource="http://purl.org/dc/dcmitype/StillImage" />
        <dc:title></dc:title>
      </cc:Work>
    </rdf:RDF>
  </metadata>
  <g
     inkscape:label="Ebene 1"
     inkscape:groupmode="layer"
     id="layer1">
    <path
       id="path830-1-9-9-2"
       style="fill:#000000;stroke-width:25.5841;stop-color:#000000"
       d="M 167.96445,27.805352 C 95.161456,27.861052 36.179229,75.620889 36.1793,134.51628 c -1.7e-4,24.02026 10.015247,47.2929 28.335937,66.08399 1.92756,1.97706 2.455491,5.44936 0.900391,7.73047 -15.13688,22.20369 -51.912565,52.1835 -64.021485,61.76758 -2.16504999,1.71362 -1.76686299,2.53691 0.910157,1.85937 18.70156,-4.73327 86.785492,-22.20442 120.66406,-34.1582 2.6037,-0.9187 6.86357,-1.13348 9.55664,-0.52344 11.56936,2.62072 23.53424,3.95093 35.56445,3.95117 72.85176,1e-5 131.91018,-47.77611 131.91016,-106.71094 4e-5,-58.934821 -59.05839,-106.710939 -131.91016,-106.710928 z m 1.11719,52.451171 c 1.36116,0 2.65718,0.25618 4.03906,0.832032 l 40.36329,16.818359 c 3.36683,1.40301 6.51171,3.931636 6.51171,6.957026 0,7.39481 -2.29297,22.64258 -2.29297,22.64258 0,0 -4.18209,37.32919 -42.09765,58.73242 -3.61664,2.04162 -5.92988,2.01758 -6.52344,2.01758 -0.59356,0 -2.90672,0.024 -6.52344,-2.01758 -37.91552,-21.40323 -42.09765,-58.73242 -42.09765,-58.73242 0,0 -2.29297,-15.24777 -2.29297,-22.64258 0,-3.02539 3.14492,-5.554016 6.51172,-6.957026 l 40.36328,-16.818359 c 1.38184,-0.575852 2.67794,-0.832032 4.03906,-0.832032 z" />
  </g>
</svg>
