<?xml version="1.0" encoding="UTF-8" standalone="no"?>
<svg
   xmlns:dc="http://purl.org/dc/elements/1.1/"
   xmlns:cc="http://creativecommons.org/ns#"
   xmlns:rdf="http://www.w3.org/1999/02/22-rdf-syntax-ns#"
   xmlns:svg="http://www.w3.org/2000/svg"
   xmlns="http://www.w3.org/2000/svg"
   xmlns:sodipodi="http://sodipodi.sourceforge.net/DTD/sodipodi-0.dtd"
   xmlns:inkscape="http://www.inkscape.org/namespaces/inkscape"
   width="300"
   height="300"
   viewBox="0 0 300 300"
   version="1.1"
   id="svg8"
   inkscape:version="1.0.1 (3bc2e813f5, 2020-09-07)"
   sodipodi:docname="speech-bubbles.svg">
  <defs
     id="defs2" />
  <sodipodi:namedview
     id="base"
     pagecolor="#ffffff"
     bordercolor="#666666"
     borderopacity="1.0"
     inkscape:pageopacity="0.0"
     inkscape:pageshadow="2"
     inkscape:zoom="2"
     inkscape:cx="150"
     inkscape:cy="150"
     inkscape:document-units="px"
     inkscape:current-layer="layer1"
     inkscape:document-rotation="0"
     showgrid="false"
     units="px"
     inkscape:window-width="2560"
     inkscape:window-height="1377"
     inkscape:window-x="2552"
     inkscape:window-y="-8"
     inkscape:window-maximized="1" />
  <metadata
     id="metadata5">
    <rdf:RDF>
      <cc:Work
         rdf:about="">
        <dc:format>image/svg+xml</dc:format>
        <dc:type
           rdf:resource="http://purl.org/dc/dcmitype/StillImage" />
        <dc:title></dc:title>
      </cc:Work>
    </rdf:RDF>
  </metadata>
  <g
     inkscape:label="Ebene 1"
     inkscape:groupmode="layer"
     id="layer1">
    <path
       id="path830-1-9-5"
       style="fill:#000000;stroke-width:17.0766;stop-color:#000000"
       d="m 188.75696,73.518713 c 48.59396,0.0373 87.96276,31.915527 87.96273,71.226537 1.1e-4,15.50912 -6.25539,30.55041 -17.73299,42.86964 -1.9003,2.03964 -2.43283,5.54198 -0.79629,7.79779 10.07998,13.89435 31.53627,31.67482 40.40917,38.76448 2.17809,1.74036 1.77504,2.57238 -0.92725,1.88557 -14.08492,-3.57981 -55.11873,-14.18921 -77.26503,-21.81649 -2.63592,-0.90783 -6.93806,-1.11976 -9.66678,-0.54821 -7.20056,1.50821 -14.61515,2.27362 -22.06689,2.27377 -48.6265,0 -88.04607,-31.88922 -88.04606,-71.22655 -1e-5,-39.33732 39.41956,-71.226537 88.04606,-71.226537 0,0 0.0833,0 0.0833,0 z M 146.6403,43.137023 c -63.707956,0.0488 -115.322654,41.84358 -115.32259,93.381367 -1.47e-4,20.81391 8.593171,40.98344 24.327432,57.34182 1.93265,2.00931 2.467096,5.51513 0.875598,7.80347 -13.253715,19.05694 -44.123941,44.35482 -55.1153576,53.08019 -2.18358196,1.7334 -1.78180896,2.56433 0.920955,1.87937 17.1159916,-4.33768 74.8354706,-19.186 104.3026826,-29.5041 2.63119,-0.92133 6.9331,-1.13509 9.65524,-0.53246 9.91978,2.19604 20.1647,3.3109 30.46451,3.3111 11.80841,0 23.20101,-1.43871 33.92943,-4.10387 -49.49913,-3.33044 -90.147184,-37.30024 -90.147172,-81.04806 -1.2e-5,-46.082567 45.100922,-81.324127 98.141942,-81.324127 h 0.0848 a 10.098061,10.098061 0 0 1 0.008,0 c 13.88791,0.0107 27.21674,2.45695 39.34472,6.86082 -20.86839,-16.77644 -49.61719,-27.14552 -81.36181,-27.14552 z" />
  </g>
</svg>
