<?xml version="1.0" encoding="UTF-8" standalone="no"?>
<svg
   xmlns:dc="http://purl.org/dc/elements/1.1/"
   xmlns:cc="http://creativecommons.org/ns#"
   xmlns:rdf="http://www.w3.org/1999/02/22-rdf-syntax-ns#"
   xmlns:svg="http://www.w3.org/2000/svg"
   xmlns="http://www.w3.org/2000/svg"
   xmlns:sodipodi="http://sodipodi.sourceforge.net/DTD/sodipodi-0.dtd"
   xmlns:inkscape="http://www.inkscape.org/namespaces/inkscape"
   width="300"
   height="300"
   viewBox="0 0 300 300"
   version="1.1"
   id="svg8"
   inkscape:version="1.0.1 (3bc2e813f5, 2020-09-07)"
   sodipodi:docname="speech-bubble-lens.svg">
  <defs
     id="defs2" />
  <sodipodi:namedview
     id="base"
     pagecolor="#ffffff"
     bordercolor="#666666"
     borderopacity="1.0"
     inkscape:pageopacity="0.0"
     inkscape:pageshadow="2"
     inkscape:zoom="2"
     inkscape:cx="150"
     inkscape:cy="150"
     inkscape:document-units="px"
     inkscape:current-layer="layer1"
     inkscape:document-rotation="0"
     showgrid="false"
     units="px"
     inkscape:window-width="2560"
     inkscape:window-height="1377"
     inkscape:window-x="2552"
     inkscape:window-y="-8"
     inkscape:window-maximized="1" />
  <metadata
     id="metadata5">
    <rdf:RDF>
      <cc:Work
         rdf:about="">
        <dc:format>image/svg+xml</dc:format>
        <dc:type
           rdf:resource="http://purl.org/dc/dcmitype/StillImage" />
        <dc:title></dc:title>
      </cc:Work>
    </rdf:RDF>
  </metadata>
  <g
     inkscape:label="Ebene 1"
     inkscape:groupmode="layer"
     id="layer1">
    <path
       id="path830-1-9-9-2"
       style="fill:#000000;stroke-width:25.5841;stop-color:#000000"
       d="M 167.96445,27.805352 C 95.161456,27.861052 36.179229,75.620889 36.1793,134.51628 c -1.7e-4,24.02026 10.015247,47.2929 28.335937,66.08399 1.92756,1.97706 2.455491,5.44936 0.900391,7.73047 -15.13688,22.20369 -51.912565,52.1835 -64.021485,61.76758 -2.16504999,1.71362 -1.76686299,2.53691 0.910157,1.85937 18.70156,-4.73327 86.785492,-22.20442 120.66406,-34.1582 2.6037,-0.9187 6.86357,-1.13348 9.55664,-0.52344 11.56936,2.62072 23.53424,3.95093 35.56445,3.95117 72.85176,1e-5 131.91018,-47.77611 131.91016,-106.71094 4e-5,-58.934821 -59.05839,-106.710939 -131.91016,-106.710928 z m -13.2832,52.451169 a 39.600069,39.600069 0 0 1 39.59961,39.599609 39.600069,39.600069 0 0 1 -8.71484,24.78515 c 3.35116,0.15927 7.79884,1.16996 9.5,2.8711 l 26.01562,26.01758 c 2.66508,2.66505 2.66508,6.95601 0,9.62109 l -3.10547,3.10742 c -2.66504,2.66505 -6.95605,2.66505 -9.62109,0 L 182.3375,160.24089 c -1.70116,-1.70111 -2.71181,-6.14883 -2.87109,-9.5 a 39.600069,39.600069 0 0 1 -24.78516,8.71485 39.600069,39.600069 0 0 1 -39.59961,-39.59961 39.600069,39.600069 0 0 1 39.59961,-39.599609 z m -0.008,13.17774 a 26.421473,26.421473 0 0 0 -26.41406,26.421869 26.421473,26.421473 0 0 0 26.42187,26.42187 26.421473,26.421473 0 0 0 26.42188,-26.42187 26.421473,26.421473 0 0 0 -26.42188,-26.421869 26.421473,26.421473 0 0 0 -0.008,0 z" />
  </g>
</svg>
