<?xml version="1.0" encoding="UTF-8" standalone="no"?>
<svg
   xmlns:dc="http://purl.org/dc/elements/1.1/"
   xmlns:cc="http://creativecommons.org/ns#"
   xmlns:rdf="http://www.w3.org/1999/02/22-rdf-syntax-ns#"
   xmlns:svg="http://www.w3.org/2000/svg"
   xmlns="http://www.w3.org/2000/svg"
   xmlns:sodipodi="http://sodipodi.sourceforge.net/DTD/sodipodi-0.dtd"
   xmlns:inkscape="http://www.inkscape.org/namespaces/inkscape"
   width="300"
   height="300"
   viewBox="0 0 300 300"
   version="1.1"
   id="svg8"
   inkscape:version="1.0.1 (3bc2e813f5, 2020-09-07)"
   sodipodi:docname="speech-bubble-check.svg">
  <defs
     id="defs2" />
  <sodipodi:namedview
     id="base"
     pagecolor="#ffffff"
     bordercolor="#666666"
     borderopacity="1.0"
     inkscape:pageopacity="0.0"
     inkscape:pageshadow="2"
     inkscape:zoom="2"
     inkscape:cx="150"
     inkscape:cy="150"
     inkscape:document-units="px"
     inkscape:current-layer="layer1"
     inkscape:document-rotation="0"
     showgrid="false"
     units="px"
     inkscape:window-width="2560"
     inkscape:window-height="1377"
     inkscape:window-x="2552"
     inkscape:window-y="-8"
     inkscape:window-maximized="1" />
  <metadata
     id="metadata5">
    <rdf:RDF>
      <cc:Work
         rdf:about="">
        <dc:format>image/svg+xml</dc:format>
        <dc:type
           rdf:resource="http://purl.org/dc/dcmitype/StillImage" />
        <dc:title />
      </cc:Work>
    </rdf:RDF>
  </metadata>
  <g
     inkscape:label="Ebene 1"
     inkscape:groupmode="layer"
     id="layer1">
    <path
       id="path830-1-9-9-1"
       style="fill:#000000;stroke-width:25.5841;stop-color:#000000"
       d="M 167.96445,27.805352 C 95.16146,27.861052 36.17923,75.620891 36.1793,134.51628 c -1.7e-4,24.02026 10.01525,47.2929 28.33594,66.08399 1.92756,1.97706 2.45549,5.44936 0.90039,7.73047 -15.13688,22.20369 -51.912567,52.1835 -64.021487,61.76758 -2.16504999,1.71362 -1.76686299,2.53691 0.910157,1.85937 18.70156,-4.73327 86.78549,-22.20442 120.66406,-34.1582 2.6037,-0.9187 6.86357,-1.13348 9.55664,-0.52344 11.56936,2.62072 23.53424,3.95093 35.56445,3.95117 72.85176,1e-5 131.91018,-47.77611 131.91016,-106.71094 4e-5,-58.934819 -59.05839,-106.710939 -131.91016,-106.710928 z m 47.78516,56.605469 c 1.53372,0 3.06894,0.58651 4.24414,1.76172 l 11.3125,11.31445 c 2.35044,2.35043 2.35044,6.133939 0,8.484369 l -76.36719,76.36914 c -1.02831,1.02831 -2.33087,1.60584 -3.66797,1.73438 -0.57304,0.0551 -1.15201,0.0281 -1.71875,-0.082 -0.37782,-0.0734 -0.7503,-0.18513 -1.11132,-0.33203 -0.18051,-0.0734 -0.359,-0.15428 -0.53321,-0.2461 -0.17421,-0.0918 -0.34521,-0.19451 -0.51172,-0.30468 -0.1665,-0.11018 -0.32697,-0.22889 -0.48437,-0.35743 -0.1574,-0.12854 -0.31013,-0.26521 -0.45703,-0.41211 l -39.59961,-39.59961 c -2.3504,-2.35042 -2.3504,-6.13395 0,-8.48437 l 11.31445,-11.31445 c 2.35044,-2.35042 6.13589,-2.35042 8.48633,0 l 24.04102,24.04101 60.81054,-60.810539 c 1.17522,-1.17521 2.70847,-1.76172 4.24219,-1.76172 z" />
  </g>
</svg>
