<?xml version="1.0" encoding="UTF-8" standalone="no"?>
<svg
   xmlns:dc="http://purl.org/dc/elements/1.1/"
   xmlns:cc="http://creativecommons.org/ns#"
   xmlns:rdf="http://www.w3.org/1999/02/22-rdf-syntax-ns#"
   xmlns:svg="http://www.w3.org/2000/svg"
   xmlns="http://www.w3.org/2000/svg"
   xmlns:sodipodi="http://sodipodi.sourceforge.net/DTD/sodipodi-0.dtd"
   xmlns:inkscape="http://www.inkscape.org/namespaces/inkscape"
   width="300"
   height="300"
   viewBox="0 0 300 300"
   version="1.1"
   id="svg8"
   inkscape:version="1.0.1 (3bc2e813f5, 2020-09-07)"
   sodipodi:docname="speech-bubble-star.svg">
  <defs
     id="defs2" />
  <sodipodi:namedview
     id="base"
     pagecolor="#ffffff"
     bordercolor="#666666"
     borderopacity="1.0"
     inkscape:pageopacity="0.0"
     inkscape:pageshadow="2"
     inkscape:zoom="2"
     inkscape:cx="150"
     inkscape:cy="150"
     inkscape:document-units="px"
     inkscape:current-layer="layer1"
     inkscape:document-rotation="0"
     showgrid="false"
     units="px"
     inkscape:window-width="2560"
     inkscape:window-height="1377"
     inkscape:window-x="2552"
     inkscape:window-y="-8"
     inkscape:window-maximized="1" />
  <metadata
     id="metadata5">
    <rdf:RDF>
      <cc:Work
         rdf:about="">
        <dc:format>image/svg+xml</dc:format>
        <dc:type
           rdf:resource="http://purl.org/dc/dcmitype/StillImage" />
        <dc:title></dc:title>
      </cc:Work>
    </rdf:RDF>
  </metadata>
  <g
     inkscape:label="Ebene 1"
     inkscape:groupmode="layer"
     id="layer1">
    <path
       id="path830-1-9-9-2"
       style="fill:#000000;stroke-width:25.5841;stop-color:#000000"
       d="m 167.96445,27.805351 c -72.802993,0.0557 -131.78522,47.81554 -131.785149,106.710929 -1.7e-4,24.02026 10.015247,47.2929 28.335937,66.08399 1.92756,1.97706 2.455491,5.44936 0.900391,7.73047 -15.13688,22.20369 -51.912565,52.1835 -64.0214881,61.76758 -2.16504999,1.71362 -1.76685999,2.53691 0.91016,1.85937 18.7015601,-4.73327 86.7854921,-22.20442 120.6640591,-34.1582 2.6037,-0.9187 6.86357,-1.13348 9.55664,-0.52344 11.56936,2.62072 23.53424,3.95093 35.56445,3.95117 72.85176,1e-5 131.91018,-47.77611 131.91016,-106.71094 4e-5,-58.934819 -59.05839,-106.710939 -131.91016,-106.710929 z m 1.12696,54.91602 a 3.607442,3.607442 0 0 1 3.39453,2.42382 l 10.95508,31.505859 a 2.98282,2.98282 0 0 0 2.75586,2.00391 l 33.34961,0.67773 a 3.6074391,3.6074391 0 0 1 2.10742,6.48047 l -26.58008,20.1543 a 2.9828188,2.9828188 0 0 0 -1.05274,3.24023 l 9.66016,31.92774 a 3.607439,3.607439 0 0 1 -5.51172,4.00585 L 170.78672,166.0905 a 2.9828198,2.9828198 0 0 0 -3.40625,0 l -27.37891,19.05469 a 3.6074379,3.6074379 0 0 1 -5.51367,-4.00586 l 9.65625,-31.92773 a 2.9828175,2.9828175 0 0 0 -1.05273,-3.24219 l -26.58203,-20.15039 a 3.6074386,3.6074386 0 0 1 2.10546,-6.48047 l 33.34961,-0.68164 a 2.9828195,2.9828195 0 0 0 2.75782,-2.00391 l 10.94922,-31.507809 a 3.607442,3.607442 0 0 1 3.41992,-2.42382 z" />
  </g>
</svg>
