<?xml version="1.0" encoding="UTF-8" standalone="no"?>
<svg
   xmlns:dc="http://purl.org/dc/elements/1.1/"
   xmlns:cc="http://creativecommons.org/ns#"
   xmlns:rdf="http://www.w3.org/1999/02/22-rdf-syntax-ns#"
   xmlns:svg="http://www.w3.org/2000/svg"
   xmlns="http://www.w3.org/2000/svg"
   xmlns:sodipodi="http://sodipodi.sourceforge.net/DTD/sodipodi-0.dtd"
   xmlns:inkscape="http://www.inkscape.org/namespaces/inkscape"
   width="300"
   height="300"
   viewBox="0 0 300 300"
   version="1.1"
   id="svg8"
   inkscape:version="1.0.1 (3bc2e813f5, 2020-09-07)"
   sodipodi:docname="speech-bubble-exclamation-mark.svg">
  <defs
     id="defs2" />
  <sodipodi:namedview
     id="base"
     pagecolor="#ffffff"
     bordercolor="#666666"
     borderopacity="1.0"
     inkscape:pageopacity="0.0"
     inkscape:pageshadow="2"
     inkscape:zoom="2"
     inkscape:cx="150"
     inkscape:cy="150"
     inkscape:document-units="px"
     inkscape:current-layer="layer1"
     inkscape:document-rotation="0"
     showgrid="false"
     units="px"
     inkscape:window-width="2560"
     inkscape:window-height="1377"
     inkscape:window-x="2552"
     inkscape:window-y="-8"
     inkscape:window-maximized="1" />
  <metadata
     id="metadata5">
    <rdf:RDF>
      <cc:Work
         rdf:about="">
        <dc:format>image/svg+xml</dc:format>
        <dc:type
           rdf:resource="http://purl.org/dc/dcmitype/StillImage" />
        <dc:title />
      </cc:Work>
    </rdf:RDF>
  </metadata>
  <g
     inkscape:label="Ebene 1"
     inkscape:groupmode="layer"
     id="layer1">
    <path
       id="path830-1-9-9-2"
       style="fill:#000000;stroke-width:25.5841;stop-color:#000000"
       d="M 167.96445,27.805352 C 95.161461,27.861052 36.179231,75.620891 36.179301,134.51628 c -1.7e-4,24.02026 10.01525,47.2929 28.33594,66.08399 1.92756,1.97706 2.45549,5.44936 0.90039,7.73047 -15.13688,22.20369 -51.91257,52.1835 -64.0214901,61.76758 -2.16504999,1.71362 -1.76685999,2.53691 0.91016,1.85937 18.7015601,-4.73327 86.7854901,-22.20442 120.6640591,-34.1582 2.6037,-0.9187 6.86357,-1.13348 9.55664,-0.52344 11.56936,2.62072 23.53424,3.95093 35.56445,3.95117 72.85176,1e-5 131.91018,-47.77611 131.91016,-106.71094 4e-5,-58.934819 -59.05839,-106.710939 -131.91016,-106.710928 z m -6.51367,52.208989 h 15.26172 c 2.3084,0 4.23926,1.70848 4.16602,3.83007 l -2.33203,67.537109 c -0.0733,2.1216 -1.85961,3.83203 -4.16797,3.83203 h -10.59571 c -2.3084,0 -4.09277,-1.71043 -4.16601,-3.83203 l -2.33399,-67.537109 c -0.0733,-2.12159 1.85953,-3.83007 4.16797,-3.83007 z m 7.63086,85.285149 a 11.6,11.6 0 0 1 11.59961,11.59961 11.6,11.6 0 0 1 -11.59961,11.59961 11.6,11.6 0 0 1 -11.59961,-11.59961 11.6,11.6 0 0 1 11.59961,-11.59961 z" />
  </g>
</svg>
