<?xml version="1.0" encoding="UTF-8" standalone="no"?>
<svg
   xmlns:dc="http://purl.org/dc/elements/1.1/"
   xmlns:cc="http://creativecommons.org/ns#"
   xmlns:rdf="http://www.w3.org/1999/02/22-rdf-syntax-ns#"
   xmlns:svg="http://www.w3.org/2000/svg"
   xmlns="http://www.w3.org/2000/svg"
   xmlns:sodipodi="http://sodipodi.sourceforge.net/DTD/sodipodi-0.dtd"
   xmlns:inkscape="http://www.inkscape.org/namespaces/inkscape"
   width="300"
   height="300"
   viewBox="0 0 300 300"
   version="1.1"
   id="svg8"
   inkscape:version="1.0.1 (3bc2e813f5, 2020-09-07)"
   sodipodi:docname="speech-bubble-heart.svg">
  <defs
     id="defs2" />
  <sodipodi:namedview
     id="base"
     pagecolor="#ffffff"
     bordercolor="#666666"
     borderopacity="1.0"
     inkscape:pageopacity="0.0"
     inkscape:pageshadow="2"
     inkscape:zoom="2"
     inkscape:cx="150"
     inkscape:cy="150"
     inkscape:document-units="px"
     inkscape:current-layer="layer1"
     inkscape:document-rotation="0"
     showgrid="false"
     units="px"
     inkscape:window-width="2560"
     inkscape:window-height="1377"
     inkscape:window-x="2552"
     inkscape:window-y="-8"
     inkscape:window-maximized="1" />
  <metadata
     id="metadata5">
    <rdf:RDF>
      <cc:Work
         rdf:about="">
        <dc:format>image/svg+xml</dc:format>
        <dc:type
           rdf:resource="http://purl.org/dc/dcmitype/StillImage" />
        <dc:title></dc:title>
      </cc:Work>
    </rdf:RDF>
  </metadata>
  <g
     inkscape:label="Ebene 1"
     inkscape:groupmode="layer"
     id="layer1">
    <path
       id="path830-1-9-9-2"
       style="fill:#000000;stroke-width:25.5841;stop-color:#000000"
       d="M 167.96445,27.805351 C 95.161456,27.861051 36.179229,75.620891 36.1793,134.51628 c -1.7e-4,24.02026 10.015247,47.2929 28.335937,66.08399 1.92756,1.97706 2.455491,5.44936 0.900391,7.73047 -15.13688,22.20369 -51.912565,52.1835 -64.021485,61.76758 -2.16504999,1.71362 -1.76686299,2.53691 0.910157,1.85937 18.70156,-4.73327 86.785492,-22.20442 120.66406,-34.1582 2.6037,-0.9187 6.86357,-1.13348 9.55664,-0.52344 11.56936,2.62072 23.53424,3.95093 35.56445,3.95117 72.85176,1e-5 131.91018,-47.77611 131.91016,-106.71094 4e-5,-58.934819 -59.05839,-106.710939 -131.91016,-106.710929 z m -21.18164,59.77539 c 8.25553,0.0184 16.30555,3.27235 22.29883,9.26563 7.99104,-7.99104 19.63872,-11.11047 30.55469,-8.18555 10.91597,2.92492 19.44226,11.451209 22.36719,22.367179 2.92492,10.91597 -0.19647,22.56169 -8.1875,30.55274 l -35.54297,35.54297 a 13.000003,13.000003 0 0 1 -18.38477,0 l -35.54101,-35.54297 c -7.99104,-7.99105 -11.11243,-19.63677 -8.1875,-30.55274 2.92492,-10.91597 11.45121,-19.442259 22.36718,-22.367179 2.72899,-0.73123 5.50402,-1.0862 8.25586,-1.08008 z" />
  </g>
</svg>
