<?xml version="1.0" encoding="UTF-8" standalone="no"?>
<svg
   xmlns:dc="http://purl.org/dc/elements/1.1/"
   xmlns:cc="http://creativecommons.org/ns#"
   xmlns:rdf="http://www.w3.org/1999/02/22-rdf-syntax-ns#"
   xmlns:svg="http://www.w3.org/2000/svg"
   xmlns="http://www.w3.org/2000/svg"
   xmlns:sodipodi="http://sodipodi.sourceforge.net/DTD/sodipodi-0.dtd"
   xmlns:inkscape="http://www.inkscape.org/namespaces/inkscape"
   width="300"
   height="300"
   viewBox="0 0 300 300"
   version="1.1"
   id="svg8"
   inkscape:version="1.0.1 (3bc2e813f5, 2020-09-07)"
   sodipodi:docname="speech-bubble-question-mark.svg">
  <defs
     id="defs2" />
  <sodipodi:namedview
     id="base"
     pagecolor="#ffffff"
     bordercolor="#666666"
     borderopacity="1.0"
     inkscape:pageopacity="0.0"
     inkscape:pageshadow="2"
     inkscape:zoom="2"
     inkscape:cx="150"
     inkscape:cy="150"
     inkscape:document-units="px"
     inkscape:current-layer="layer1"
     inkscape:document-rotation="0"
     showgrid="false"
     units="px"
     inkscape:window-width="2560"
     inkscape:window-height="1377"
     inkscape:window-x="2552"
     inkscape:window-y="-8"
     inkscape:window-maximized="1" />
  <metadata
     id="metadata5">
    <rdf:RDF>
      <cc:Work
         rdf:about="">
        <dc:format>image/svg+xml</dc:format>
        <dc:type
           rdf:resource="http://purl.org/dc/dcmitype/StillImage" />
        <dc:title></dc:title>
      </cc:Work>
    </rdf:RDF>
  </metadata>
  <g
     inkscape:label="Ebene 1"
     inkscape:groupmode="layer"
     id="layer1">
    <path
       id="path830-1-9-9-2"
       style="fill:#000000;stroke-width:25.5841;stop-color:#000000"
       d="M 167.96445,27.805352 C 95.161457,27.861052 36.17923,75.620889 36.179301,134.51628 c -1.7e-4,24.02026 10.015247,47.2929 28.335937,66.08399 1.92756,1.97706 2.455491,5.44936 0.900391,7.73047 -15.13688,22.20369 -51.912565,52.1835 -64.0214854,61.76758 -2.16505297,1.71362 -1.76686297,2.53691 0.910157,1.85937 18.7015604,-4.73327 86.7854924,-22.20442 120.6640594,-34.1582 2.6037,-0.9187 6.86357,-1.13348 9.55664,-0.52344 11.56936,2.62072 23.53424,3.95093 35.56445,3.95117 72.85176,1e-5 131.91018,-47.77611 131.91016,-106.71094 4e-5,-58.934821 -59.05839,-106.710939 -131.91016,-106.710928 z m 1.55274,51.542968 c 11.93292,0 21.29854,2.71849 28.0957,8.15625 6.84756,5.387416 10.26953,12.83937 10.26953,22.35547 0,4.88391 -1.1069,9.2637 -3.32226,13.14062 -2.16504,3.87693 -6.24274,7.95661 -12.23438,12.23633 l -5.74023,4.15234 c -3.42376,2.46714 -5.99125,4.96104 -7.70313,7.47852 -0.88768,1.34494 -1.56118,3.58364 -2.01758,5.83789 -0.59128,2.92057 -3.11924,5.34961 -6.10156,5.34961 h -9.36523 c -2.98236,0 -5.27434,-2.4218 -4.7793,-5.36133 0.6958,-4.13147 1.92403,-8.50556 3.68359,-11.26563 2.61816,-4.02798 6.44551,-7.80365 11.48047,-11.32812 5.3874,-3.72588 9.1889,-6.99878 11.4043,-9.81836 2.21536,-2.86993 3.32227,-6.04151 3.32227,-9.51563 0,-4.43077 -1.46062,-7.93021 -4.38086,-10.49804 -2.86996,-2.567838 -6.97351,-3.85156 -12.31055,-3.85156 -5.08532,0 -9.36381,1.486393 -12.83789,4.45703 -2.10484,1.82622 -3.6776,4.01327 -4.7168,6.5625 -1.12252,2.75364 -3.74102,5.11569 -6.7207,4.99023 l -10.73438,-0.45117 c -2.97968,-0.12546 -5.1172,-2.64002 -4.38476,-5.5293 1.95468,-7.71122 5.822,-13.897565 11.60156,-18.562494 7.04896,-5.689508 16.21387,-8.535156 27.49219,-8.535156 z m -3.14453,86.93945 a 11.600004,11.438144 0 0 1 0.11523,0 11.600004,11.438144 0 0 1 11.59961,11.43945 11.600004,11.438144 0 0 1 -11.59961,11.4375 11.600004,11.438144 0 0 1 -11.59961,-11.4375 11.600004,11.438144 0 0 1 11.48438,-11.43945 z" />
  </g>
</svg>
