<?xml version="1.0" encoding="UTF-8" standalone="no"?>
<svg
   xmlns:dc="http://purl.org/dc/elements/1.1/"
   xmlns:cc="http://creativecommons.org/ns#"
   xmlns:rdf="http://www.w3.org/1999/02/22-rdf-syntax-ns#"
   xmlns:svg="http://www.w3.org/2000/svg"
   xmlns="http://www.w3.org/2000/svg"
   xmlns:sodipodi="http://sodipodi.sourceforge.net/DTD/sodipodi-0.dtd"
   xmlns:inkscape="http://www.inkscape.org/namespaces/inkscape"
   width="300"
   height="300"
   viewBox="0 0 300 300"
   version="1.1"
   id="svg8"
   inkscape:version="1.0.1 (3bc2e813f5, 2020-09-07)"
   sodipodi:docname="speech-bubble-gear.svg">
  <defs
     id="defs2" />
  <sodipodi:namedview
     id="base"
     pagecolor="#ffffff"
     bordercolor="#666666"
     borderopacity="1.0"
     inkscape:pageopacity="0.0"
     inkscape:pageshadow="2"
     inkscape:zoom="2"
     inkscape:cx="150"
     inkscape:cy="150"
     inkscape:document-units="px"
     inkscape:current-layer="layer1"
     inkscape:document-rotation="0"
     showgrid="false"
     units="px"
     inkscape:window-width="2560"
     inkscape:window-height="1377"
     inkscape:window-x="2552"
     inkscape:window-y="-8"
     inkscape:window-maximized="1" />
  <metadata
     id="metadata5">
    <rdf:RDF>
      <cc:Work
         rdf:about="">
        <dc:format>image/svg+xml</dc:format>
        <dc:type
           rdf:resource="http://purl.org/dc/dcmitype/StillImage" />
        <dc:title></dc:title>
      </cc:Work>
    </rdf:RDF>
  </metadata>
  <g
     inkscape:label="Ebene 1"
     inkscape:groupmode="layer"
     id="layer1">
    <path
       id="path830-1-9-9-2"
       style="fill:#000000;stroke-width:25.5841;stop-color:#000000"
       d="M 167.96445,27.805352 C 95.161461,27.861052 36.179231,75.620891 36.179301,134.51628 c -1.7e-4,24.02026 10.01525,47.2929 28.33594,66.08399 1.92756,1.97706 2.45549,5.44936 0.90039,7.73047 -15.13688,22.20369 -51.91257,52.1835 -64.0214901,61.76758 -2.16504999,1.71362 -1.76685999,2.53691 0.91016,1.85937 18.7015601,-4.73327 86.7854901,-22.20442 120.6640591,-34.1582 2.6037,-0.9187 6.86357,-1.13348 9.55664,-0.52344 11.56936,2.62072 23.53424,3.95093 35.56445,3.95117 72.85176,1e-5 131.91018,-47.77611 131.91016,-106.71094 4e-5,-58.934819 -59.05839,-106.710939 -131.91016,-106.710928 z m -9.0332,52.451169 h 20.30078 c 2.24932,0 4.06055,1.81123 4.06055,4.06055 v 11.90625 a 40.601504,40.601504 0 0 1 6.08984,2.87109 40.601504,40.601504 0 0 1 5.53125,3.837889 l 10.3125,-5.953119 c 1.94796,-1.12466 4.42024,-0.46164 5.54492,1.48633 l 10.1504,17.582029 c 1.12467,1.94797 0.46167,4.42026 -1.48633,5.54492 l -10.31055,5.95312 a 40.601504,40.601504 0 0 1 0,13.42188 l 10.31055,5.95312 c 1.948,1.12467 2.61101,3.59696 1.48633,5.54492 l -10.1504,17.58204 c -1.12468,1.94796 -3.59696,2.60903 -5.54492,1.48437 l -10.3125,-5.95313 a 40.601504,40.601504 0 0 1 -11.62109,6.71094 v 11.90625 c 0,2.24932 -1.81123,4.06055 -4.06055,4.06055 h -20.30078 c -2.24932,0 -4.06055,-1.81123 -4.06055,-4.06055 v -11.90625 a 40.601504,40.601504 0 0 1 -6.08984,-2.87109 40.601504,40.601504 0 0 1 -5.53125,-3.83985 l -10.3125,5.95313 c -1.94796,1.12466 -4.42219,0.46359 -5.54688,-1.48437 L 117.23984,152.4655 c -1.12464,-1.94796 -0.46163,-4.42025 1.48633,-5.54492 l 10.3125,-5.95312 a 40.601504,40.601504 0 0 1 0,-13.42188 l -10.3125,-5.95312 c -1.94796,-1.12466 -2.61097,-3.59696 -1.48633,-5.54492 l 10.15039,-17.582029 c 1.12469,-1.94797 3.59892,-2.61099 5.54688,-1.48633 l 10.3125,5.955069 a 40.601504,40.601504 0 0 1 11.62109,-6.710929 v -11.90625 c 0,-2.24932 1.81123,-4.06055 4.06055,-4.06055 z m 10.08008,35.728519 a 18.270678,18.270678 0 0 0 -18.20117,18.27148 18.270678,18.270678 0 0 0 18.27148,18.26953 18.270678,18.270678 0 0 0 18.26953,-18.26953 18.270678,18.270678 0 0 0 -18.26953,-18.27148 18.270678,18.270678 0 0 0 -0.0703,0 z" />
  </g>
</svg>
