<?xml version="1.0" encoding="UTF-8" standalone="no"?>
<svg
   xmlns:dc="http://purl.org/dc/elements/1.1/"
   xmlns:cc="http://creativecommons.org/ns#"
   xmlns:rdf="http://www.w3.org/1999/02/22-rdf-syntax-ns#"
   xmlns:svg="http://www.w3.org/2000/svg"
   xmlns="http://www.w3.org/2000/svg"
   xmlns:sodipodi="http://sodipodi.sourceforge.net/DTD/sodipodi-0.dtd"
   xmlns:inkscape="http://www.inkscape.org/namespaces/inkscape"
   width="300"
   height="300"
   viewBox="0 0 300 300"
   version="1.1"
   id="svg8"
   inkscape:version="1.0.1 (3bc2e813f5, 2020-09-07)"
   sodipodi:docname="speech-bubble-lines.svg">
  <defs
     id="defs2" />
  <sodipodi:namedview
     id="base"
     pagecolor="#ffffff"
     bordercolor="#666666"
     borderopacity="1.0"
     inkscape:pageopacity="0.0"
     inkscape:pageshadow="2"
     inkscape:zoom="2"
     inkscape:cx="150"
     inkscape:cy="150"
     inkscape:document-units="px"
     inkscape:current-layer="layer1"
     inkscape:document-rotation="0"
     showgrid="false"
     units="px"
     inkscape:window-width="2560"
     inkscape:window-height="1377"
     inkscape:window-x="2552"
     inkscape:window-y="-8"
     inkscape:window-maximized="1" />
  <metadata
     id="metadata5">
    <rdf:RDF>
      <cc:Work
         rdf:about="">
        <dc:format>image/svg+xml</dc:format>
        <dc:type
           rdf:resource="http://purl.org/dc/dcmitype/StillImage" />
        <dc:title></dc:title>
      </cc:Work>
    </rdf:RDF>
  </metadata>
  <g
     inkscape:label="Ebene 1"
     inkscape:groupmode="layer"
     id="layer1">
    <path
       id="path830-1-9-9-8"
       style="fill:#000000;stroke-width:25.5841;stop-color:#000000"
       d="m 167.96445,27.805351 c -72.803,0.0557 -131.785221,47.81554 -131.785151,106.710939 -1.7e-4,24.02025 10.017201,47.29289 28.337891,66.08398 1.92756,1.97706 2.45354,5.44936 0.89844,7.73047 -15.13688,22.20369 -51.912567,52.1835 -64.0214868,61.76758 -2.16504999,1.71362 -1.76686399,2.53691 0.910156,1.85937 18.7015598,-4.73327 86.7854908,-22.20442 120.6640608,-34.1582 2.6037,-0.9187 6.86357,-1.13348 9.55664,-0.52344 11.56936,2.62072 23.53424,3.95093 35.56445,3.95117 72.85176,1e-5 131.91018,-47.77611 131.91016,-106.71093 4e-5,-58.934829 -59.05839,-106.710949 -131.91016,-106.710939 z m -61.88281,68.95117 h 126 c 3.878,0 7,2.38955 7,5.357419 v 14.28516 c 0,2.96785 -3.122,5.35742 -7,5.35742 h -126 c -3.878,0 -7,-2.38957 -7,-5.35742 v -14.28516 c 0,-2.967869 3.122,-5.357419 7,-5.357419 z m -2.5,49.999999 h 81 c 2.493,0 4.5,2.38955 4.5,5.35742 v 14.28516 c 0,2.96785 -2.007,5.35742 -4.5,5.35742 h -81 c -2.493,0 -4.5,-2.38957 -4.5,-5.35742 v -14.28516 c 0,-2.96787 2.007,-5.35742 4.5,-5.35742 z" />
  </g>
</svg>
