<?xml version="1.0" encoding="UTF-8" standalone="no"?>
<svg
   xmlns:dc="http://purl.org/dc/elements/1.1/"
   xmlns:cc="http://creativecommons.org/ns#"
   xmlns:rdf="http://www.w3.org/1999/02/22-rdf-syntax-ns#"
   xmlns:svg="http://www.w3.org/2000/svg"
   xmlns="http://www.w3.org/2000/svg"
   xmlns:sodipodi="http://sodipodi.sourceforge.net/DTD/sodipodi-0.dtd"
   xmlns:inkscape="http://www.inkscape.org/namespaces/inkscape"
   width="300"
   height="300"
   viewBox="0 0 300 300"
   version="1.1"
   id="svg8"
   inkscape:version="1.0.1 (3bc2e813f5, 2020-09-07)"
   sodipodi:docname="times.svg">
  <defs
     id="defs2" />
  <sodipodi:namedview
     id="base"
     pagecolor="#ffffff"
     bordercolor="#666666"
     borderopacity="1.0"
     inkscape:pageopacity="0.0"
     inkscape:pageshadow="2"
     inkscape:zoom="2"
     inkscape:cx="150"
     inkscape:cy="150"
     inkscape:document-units="px"
     inkscape:current-layer="layer1"
     inkscape:document-rotation="0"
     showgrid="false"
     units="px"
     inkscape:window-width="2560"
     inkscape:window-height="1377"
     inkscape:window-x="2552"
     inkscape:window-y="-8"
     inkscape:window-maximized="1" />
  <metadata
     id="metadata5">
    <rdf:RDF>
      <cc:Work
         rdf:about="">
        <dc:format>image/svg+xml</dc:format>
        <dc:type
           rdf:resource="http://purl.org/dc/dcmitype/StillImage" />
        <dc:title></dc:title>
      </cc:Work>
    </rdf:RDF>
  </metadata>
  <g
     inkscape:label="Ebene 1"
     inkscape:groupmode="layer"
     id="layer1">
    <path
       id="rect956-4-1"
       style="fill:#000000;fill-opacity:1;stroke-width:17.8691;stop-color:#000000"
       d="M 270.20815,79.289319 79.28932,270.20815 c -5.87606,5.87606 -15.33714,5.87606 -21.2132,0 L 29.79185,241.92388 c -5.87606,-5.87606 -5.87606,-15.33714 0,-21.2132 L 220.71068,29.791849 c 5.87606,-5.87606 15.33714,-5.87606 21.2132,0 l 28.28427,28.28427 c 5.87606,5.87606 5.87606,15.33714 0,21.2132 z M 79.28932,29.791849 270.20815,220.71067 c 5.87606,5.87606 5.87606,15.33714 0,21.2132 l -28.28427,28.28427 c -5.87606,5.87606 -15.33714,5.87606 -21.2132,0 L 29.79185,79.289319 c -5.87606,-5.87606 -5.87606,-15.33714 0,-21.2132 l 28.28427,-28.28427 c 5.87606,-5.87606 15.33714,-5.87606 21.2132,0 z" />
  </g>
</svg>
