<?xml version="1.0" encoding="UTF-8" standalone="no"?>
<svg
   xmlns:dc="http://purl.org/dc/elements/1.1/"
   xmlns:cc="http://creativecommons.org/ns#"
   xmlns:rdf="http://www.w3.org/1999/02/22-rdf-syntax-ns#"
   xmlns:svg="http://www.w3.org/2000/svg"
   xmlns="http://www.w3.org/2000/svg"
   xmlns:sodipodi="http://sodipodi.sourceforge.net/DTD/sodipodi-0.dtd"
   xmlns:inkscape="http://www.inkscape.org/namespaces/inkscape"
   width="300"
   height="300"
   viewBox="0 0 300 300"
   version="1.1"
   id="svg8"
   inkscape:version="1.0.1 (3bc2e813f5, 2020-09-07)"
   sodipodi:docname="trash.svg">
  <defs
     id="defs2" />
  <sodipodi:namedview
     id="base"
     pagecolor="#ffffff"
     bordercolor="#666666"
     borderopacity="1.0"
     inkscape:pageopacity="0.0"
     inkscape:pageshadow="2"
     inkscape:zoom="1"
     inkscape:cx="264.1112"
     inkscape:cy="307.14383"
     inkscape:document-units="px"
     inkscape:current-layer="layer1"
     inkscape:document-rotation="0"
     showgrid="false"
     units="px"
     inkscape:window-width="2560"
     inkscape:window-height="1377"
     inkscape:window-x="2552"
     inkscape:window-y="-8"
     inkscape:window-maximized="1" />
  <metadata
     id="metadata5">
    <rdf:RDF>
      <cc:Work
         rdf:about="">
        <dc:format>image/svg+xml</dc:format>
        <dc:type
           rdf:resource="http://purl.org/dc/dcmitype/StillImage" />
        <dc:title />
      </cc:Work>
    </rdf:RDF>
  </metadata>
  <g
     inkscape:label="Ebene 1"
     inkscape:groupmode="layer"
     id="layer1">
    <path
       id="rect857"
       style="fill:#000000;fill-opacity:1;stroke-width:24.503;stop-color:#000000"
       d="m 37.5,80 h 225 L 251.31697,285.02226 A 15.840479,15.840479 136.56107 0 1 235.5,300 H 64.5 A 15.840479,15.840479 43.438935 0 1 48.683033,285.02226 Z M 97.499999,0 H 202.5 c 8.27479,0 8,23.5 8,23.5 H 89.499999 c 0,0 -0.274794,-23.5 8,-23.5 z M 34.000001,23.5 H 266 c 8.31,0 15,6.69 15,15 v 10 c 0,8.31 -6.69,15 -15,15 H 34.000001 C 25.69,63.5 19,56.81 19,48.5 v -10 c 0,-8.31 6.69,-15 15.000001,-15 z" />
  </g>
</svg>
