<?xml version="1.0" encoding="UTF-8" standalone="no"?>
<svg
   xmlns:dc="http://purl.org/dc/elements/1.1/"
   xmlns:cc="http://creativecommons.org/ns#"
   xmlns:rdf="http://www.w3.org/1999/02/22-rdf-syntax-ns#"
   xmlns:svg="http://www.w3.org/2000/svg"
   xmlns="http://www.w3.org/2000/svg"
   xmlns:sodipodi="http://sodipodi.sourceforge.net/DTD/sodipodi-0.dtd"
   xmlns:inkscape="http://www.inkscape.org/namespaces/inkscape"
   width="300"
   height="300"
   viewBox="0 0 300 300"
   version="1.1"
   id="svg8"
   inkscape:version="1.0.1 (3bc2e813f5, 2020-09-07)"
   sodipodi:docname="user-heart.svg">
  <defs
     id="defs2">
    <inkscape:path-effect
       effect="fillet_chamfer"
       id="path-effect858"
       is_visible="true"
       lpeversion="1"
       satellites_param="F,0,0,1,0,0,0,1 @ F,0,0,1,0,0,0,1 @ F,0,0,1,0,0,0,1 @ F,0,0,1,0,0,0,1 | F,0,0,1,0,0,0,1 @ F,0,0,1,0,0,0,1 @ F,0,0,1,0,0,0,1 @ F,0,0,1,0,0,0,1 | F,0,0,1,0,0,0,1 @ F,0,0,1,0,0,0,1 @ F,0,0,1,0,0,0,1 @ F,0,1,1,0,13,0,1"
       unit="px"
       method="auto"
       mode="F"
       radius="13"
       chamfer_steps="1"
       flexible="false"
       use_knot_distance="true"
       apply_no_radius="true"
       apply_with_radius="true"
       only_selected="true"
       hide_knots="false" />
    <inkscape:path-effect
       effect="fillet_chamfer"
       id="path-effect1263"
       is_visible="true"
       lpeversion="1"
       satellites_param="F,0,0,1,0,0,0,1 @ F,0,0,1,0,0,0,1 @ F,0,0,1,0,0,0,1 @ F,0,0,1,0,0,0,1 | F,0,0,1,0,0,0,1 @ F,0,0,1,0,0,0,1 @ F,0,0,1,0,0,0,1 @ F,0,0,1,0,0,0,1 | F,0,0,1,0,0,0,1 @ F,0,0,1,0,0,0,1 @ F,0,0,1,0,0,0,1 @ F,0,1,1,0,13,0,1"
       unit="px"
       method="auto"
       mode="F"
       radius="13"
       chamfer_steps="1"
       flexible="false"
       use_knot_distance="true"
       apply_no_radius="true"
       apply_with_radius="true"
       only_selected="true"
       hide_knots="false" />
  </defs>
  <sodipodi:namedview
     id="base"
     pagecolor="#ffffff"
     bordercolor="#666666"
     borderopacity="1.0"
     inkscape:pageopacity="0.0"
     inkscape:pageshadow="2"
     inkscape:zoom="0.70710678"
     inkscape:cx="-46.652565"
     inkscape:cy="-134.60791"
     inkscape:document-units="px"
     inkscape:current-layer="layer1"
     inkscape:document-rotation="0"
     showgrid="true"
     units="px"
     inkscape:window-width="2560"
     inkscape:window-height="1377"
     inkscape:window-x="2552"
     inkscape:window-y="-8"
     inkscape:window-maximized="1">
    <inkscape:grid
       type="xygrid"
       id="grid869" />
  </sodipodi:namedview>
  <metadata
     id="metadata5">
    <rdf:RDF>
      <cc:Work
         rdf:about="">
        <dc:format>image/svg+xml</dc:format>
        <dc:type
           rdf:resource="http://purl.org/dc/dcmitype/StillImage" />
        <dc:title />
      </cc:Work>
    </rdf:RDF>
  </metadata>
  <g
     inkscape:label="Ebene 1"
     inkscape:groupmode="layer"
     id="layer1">
    <g
       id="g876">
      <path
         id="rect843-7"
         style="fill:#000000;stroke-width:30.4271;stop-color:#000000"
         d="M 92.523438 168 C 47.433943 168 15 210.28187 15 241.08398 L 15 258 L 15 274.91602 C 15.042341 285.86859 27.692511 299.96845 41.523438 300 L 95.761719 300 L 150 300 L 204.23828 300 L 206.77344 300 L 160.62891 253.85547 C 147.15973 240.3863 141.88623 220.70239 146.81641 202.30273 C 149.53429 192.15947 155.13729 183.23368 162.69727 176.43555 C 158.72351 176.77494 154.48235 176.97924 150 177 C 126.66548 176.89191 109.70621 171.88909 104.5 168 L 92.523438 168 z " />
      <path
         id="path868"
         style="fill:#000000;stroke-width:25.984;stop-color:#000000"
         d="M 226,76 A 76,76 0 0 1 150,152 76,76 0 0 1 74,76 76,76 0 0 1 150,0 76,76 0 0 1 226,76 Z" />
      <path
         id="path1242-7"
         style="fill:#000000;fill-opacity:1;stroke-width:6.27647;stop-color:#000000"
         d="m 167.43983,245.32461 c -10.72872,-10.72872 -14.91875,-26.36616 -10.99177,-41.02186 3.92699,-14.6557 15.3744,-26.10311 30.03011,-30.03008 14.65569,-3.92697 30.29311,0.26308 41.02182,10.99178 m 0,0 c 10.72871,-10.7287 26.36614,-14.91874 41.02183,-10.99177 14.65571,3.92697 26.10313,15.37437 30.03012,30.03007 3.92698,14.6557 -0.26306,30.29315 -10.99178,41.02186 m -120.12033,0 60.06016,-60.06016 60.06017,60.06016 -50.86778,50.86778 a 12.999999,12.999999 0 0 1 -18.38478,0 z" />
    </g>
  </g>
</svg>
