<?xml version="1.0" encoding="UTF-8" standalone="no"?>
<svg
   xmlns:dc="http://purl.org/dc/elements/1.1/"
   xmlns:cc="http://creativecommons.org/ns#"
   xmlns:rdf="http://www.w3.org/1999/02/22-rdf-syntax-ns#"
   xmlns:svg="http://www.w3.org/2000/svg"
   xmlns="http://www.w3.org/2000/svg"
   xmlns:sodipodi="http://sodipodi.sourceforge.net/DTD/sodipodi-0.dtd"
   xmlns:inkscape="http://www.inkscape.org/namespaces/inkscape"
   width="300"
   height="300"
   viewBox="0 0 300 300"
   version="1.1"
   id="svg8"
   inkscape:version="1.0.1 (3bc2e813f5, 2020-09-07)"
   sodipodi:docname="user-shield.svg">
  <defs
     id="defs2" />
  <sodipodi:namedview
     id="base"
     pagecolor="#ffffff"
     bordercolor="#666666"
     borderopacity="1.0"
     inkscape:pageopacity="0.0"
     inkscape:pageshadow="2"
     inkscape:zoom="1.4142136"
     inkscape:cx="155.2573"
     inkscape:cy="182.1285"
     inkscape:document-units="px"
     inkscape:current-layer="layer1"
     inkscape:document-rotation="0"
     showgrid="false"
     units="px"
     inkscape:window-width="2560"
     inkscape:window-height="1377"
     inkscape:window-x="2552"
     inkscape:window-y="-8"
     inkscape:window-maximized="1" />
  <metadata
     id="metadata5">
    <rdf:RDF>
      <cc:Work
         rdf:about="">
        <dc:format>image/svg+xml</dc:format>
        <dc:type
           rdf:resource="http://purl.org/dc/dcmitype/StillImage" />
        <dc:title />
      </cc:Work>
    </rdf:RDF>
  </metadata>
  <g
     inkscape:label="Ebene 1"
     inkscape:groupmode="layer"
     id="layer1">
    <path
       id="rect900-8-5"
       style="fill:#000000;fill-opacity:1;stroke:#eb0000;stroke-width:0;stroke-miterlimit:4;stroke-dasharray:none;stroke-opacity:1"
       d="M 231.5957 154.89648 C 229.76693 154.89648 228.02458 155.23803 226.16797 156.01172 L 171.9375 178.61133 C 167.41401 180.49636 163.18945 183.89223 163.18945 187.95703 C 163.18945 197.89238 166.26953 218.37891 166.26953 218.37891 C 166.26953 218.37891 171.88836 268.53454 222.83008 297.29102 C 227.68931 300.03405 230.79821 300 231.5957 300 C 232.39319 300 235.50014 300.03405 240.35938 297.29102 C 291.30109 268.53454 296.91992 218.37891 296.91992 218.37891 C 296.91992 218.37891 300 197.89238 300 187.95703 C 300 183.89223 295.77544 180.49636 291.25195 178.61133 L 237.02148 156.01172 C 235.16486 155.23803 233.42446 154.89648 231.5957 154.89648 z M 231.5957 170.25391 C 232.98204 170.25391 234.30152 170.5131 235.70898 171.09961 L 276.82031 188.23242 C 280.24946 189.66141 283.45117 192.23499 283.45117 195.31641 C 283.45117 202.84815 281.11719 218.37891 281.11719 218.37891 C 281.11719 218.37891 276.85596 256.39964 238.23828 278.19922 C 234.55462 280.27865 232.20026 280.25391 231.5957 280.25391 L 231.5957 218.37891 L 231.5957 170.25391 z " />
    <path
       id="rect843-7"
       style="fill:#000000;stroke-width:30.4271;stop-color:#000000"
       d="M 77.523438 168 C 32.433944 168 0 210.28187 0 241.08398 L 0 258 L 0 274.91602 C 0.042341 285.86859 12.692512 299.96845 26.523438 300 L 80.761719 300 L 135 300 L 189.23828 300 L 208.24609 300 C 162.35314 266.65421 156.9375 218.37891 156.9375 218.37891 C 156.9375 218.37891 153.41797 194.96601 153.41797 183.61133 C 153.41797 180.14495 156.10666 177.10605 159.61914 174.89062 C 152.66014 176.12017 144.35473 176.95667 135 177 C 111.66548 176.89191 94.70621 171.88909 89.5 168 L 77.523438 168 z " />
    <circle
       style="fill:#000000;stroke-width:25.984;stop-color:#000000"
       id="path868"
       cx="135"
       cy="76"
       r="76" />
  </g>
</svg>
