<?xml version="1.0" encoding="UTF-8" standalone="no"?>
<svg
   xmlns:dc="http://purl.org/dc/elements/1.1/"
   xmlns:cc="http://creativecommons.org/ns#"
   xmlns:rdf="http://www.w3.org/1999/02/22-rdf-syntax-ns#"
   xmlns:svg="http://www.w3.org/2000/svg"
   xmlns="http://www.w3.org/2000/svg"
   xmlns:sodipodi="http://sodipodi.sourceforge.net/DTD/sodipodi-0.dtd"
   xmlns:inkscape="http://www.inkscape.org/namespaces/inkscape"
   width="300"
   height="300"
   viewBox="0 0 300 300"
   version="1.1"
   id="svg8"
   inkscape:version="1.0.1 (3bc2e813f5, 2020-09-07)"
   sodipodi:docname="user-pen.svg">
  <defs
     id="defs2">
    <inkscape:path-effect
       effect="fillet_chamfer"
       id="path-effect875"
       is_visible="true"
       lpeversion="1"
       satellites_param="F,0,0,1,0,5,0,1 @ F,0,0,1,0,10,0,1 @ F,0,0,1,0,5,0,1 @ F,0,0,1,0,0,0,1 @ F,0,0,1,0,0,0,1 | F,0,0,1,0,0,0,1 @ F,0,0,1,0,0,0,1 @ F,0,0,1,0,15,0,1 @ F,0,0,1,0,15,0,1"
       unit="px"
       method="auto"
       mode="F"
       radius="0"
       chamfer_steps="1"
       flexible="false"
       use_knot_distance="true"
       apply_no_radius="true"
       apply_with_radius="true"
       only_selected="false"
       hide_knots="false" />
    <inkscape:path-effect
       effect="fillet_chamfer"
       id="path-effect862"
       is_visible="true"
       lpeversion="1"
       satellites_param="F,0,0,1,0,5,0,1 @ F,0,0,1,0,10,0,1 @ F,0,0,1,0,5,0,1 @ F,0,0,1,0,0,0,1 @ F,0,0,1,0,0,0,1 | F,0,0,1,0,0,0,1 @ F,0,0,1,0,0,0,1 @ F,0,0,1,0,15,0,1 @ F,0,0,1,0,15,0,1"
       unit="px"
       method="auto"
       mode="F"
       radius="0"
       chamfer_steps="1"
       flexible="false"
       use_knot_distance="true"
       apply_no_radius="true"
       apply_with_radius="true"
       only_selected="false"
       hide_knots="false" />
    <inkscape:path-effect
       effect="fillet_chamfer"
       id="path-effect849"
       is_visible="true"
       lpeversion="1"
       satellites_param="F,0,0,1,0,5,0,1 @ F,0,0,1,0,10,0,1 @ F,0,0,1,0,5,0,1 @ F,0,0,1,0,0,0,1 @ F,0,0,1,0,0,0,1 | F,0,0,1,0,0,0,1 @ F,0,0,1,0,0,0,1 @ F,0,0,1,0,15,0,1 @ F,0,0,1,0,15,0,1"
       unit="px"
       method="auto"
       mode="F"
       radius="0"
       chamfer_steps="1"
       flexible="false"
       use_knot_distance="true"
       apply_no_radius="true"
       apply_with_radius="true"
       only_selected="false"
       hide_knots="false" />
  </defs>
  <sodipodi:namedview
     id="base"
     pagecolor="#ffffff"
     bordercolor="#666666"
     borderopacity="1.0"
     inkscape:pageopacity="0.0"
     inkscape:pageshadow="2"
     inkscape:zoom="1.4142136"
     inkscape:cx="138.30922"
     inkscape:cy="107.83493"
     inkscape:document-units="px"
     inkscape:current-layer="layer1"
     inkscape:document-rotation="0"
     showgrid="false"
     units="px"
     inkscape:window-width="2560"
     inkscape:window-height="1377"
     inkscape:window-x="2552"
     inkscape:window-y="-8"
     inkscape:window-maximized="1" />
  <metadata
     id="metadata5">
    <rdf:RDF>
      <cc:Work
         rdf:about="">
        <dc:format>image/svg+xml</dc:format>
        <dc:type
           rdf:resource="http://purl.org/dc/dcmitype/StillImage" />
        <dc:title></dc:title>
      </cc:Work>
    </rdf:RDF>
  </metadata>
  <g
     inkscape:label="Ebene 1"
     inkscape:groupmode="layer"
     id="layer1">
    <path
       id="rect843-7"
       style="fill:#000000;stroke-width:30.4271;stop-color:#000000"
       d="M 92.523438 168 C 47.433944 168 15 210.28187 15 241.08398 L 15 258 L 15 274.91602 C 15.042341 285.86859 27.692512 299.96845 41.523438 300 L 95.761719 300 L 150 300 L 156.89453 300 C 152.44306 297.17854 149.40896 291.89399 150.30664 286.63672 L 154.66211 261.13086 C 155.25231 257.6753 156.93913 254.41436 159.41797 251.93555 L 236.00781 175.34375 A 10.121874 10.121874 0 0 0 236.00781 175.3418 L 237 174.34961 C 228.03477 170.35286 218.10822 168 207.47656 168 L 195.5 168 C 190.29379 171.88909 173.33452 176.89191 150 177 C 126.66548 176.89191 109.70621 171.88909 104.5 168 L 92.523438 168 z M 278.33008 214.79297 L 276.89258 216.23047 L 200.30273 292.82031 C 197.82392 295.29916 194.56298 296.98597 191.10742 297.57617 L 176.91211 300 L 204.23828 300 L 258.47656 300 C 272.30749 299.9684 284.95766 285.86859 285 274.91602 L 285 258 L 285 241.08398 C 285 232.80146 282.63586 223.69036 278.33008 214.79297 z " />
    <circle
       style="fill:#000000;stroke-width:25.984;stop-color:#000000"
       id="path868"
       cx="150"
       cy="76"
       r="76" />
    <path
       id="path834-69"
       style="fill:#000000;fill-opacity:1;stroke-width:5.76381;stop-color:#000000"
       inkscape:transform-center-x="-3.5169767"
       d="m 164.63745,262.83483 -4.35478,25.5065 a 3.1316248,3.1316248 0 0 0 3.614,3.614 l 25.50648,-4.35477 a 6.9451754,6.9451754 0 0 0 3.74213,-1.93513 l 76.592,-76.59199 -26.57274,-26.57274 -76.59196,76.592 a 6.9451821,6.9451821 0 0 0 -1.93513,3.74213 z m 84.77952,-86.58653 26.57275,26.57273 14.06791,-14.06792 a 6.6316787,6.6316787 0 0 0 0,-9.37861 L 272.8635,162.18038 a 6.6316814,6.6316814 0 0 0 -9.37861,0 z"
       inkscape:transform-center-y="-3.5169782" />
  </g>
</svg>
