<?xml version="1.0" encoding="UTF-8" standalone="no"?>
<svg
   xmlns:dc="http://purl.org/dc/elements/1.1/"
   xmlns:cc="http://creativecommons.org/ns#"
   xmlns:rdf="http://www.w3.org/1999/02/22-rdf-syntax-ns#"
   xmlns:svg="http://www.w3.org/2000/svg"
   xmlns="http://www.w3.org/2000/svg"
   xmlns:sodipodi="http://sodipodi.sourceforge.net/DTD/sodipodi-0.dtd"
   xmlns:inkscape="http://www.inkscape.org/namespaces/inkscape"
   width="300"
   height="300"
   viewBox="0 0 300 300"
   version="1.1"
   id="svg8"
   inkscape:version="1.0.1 (3bc2e813f5, 2020-09-07)"
   sodipodi:docname="user-minus.svg">
  <defs
     id="defs2" />
  <sodipodi:namedview
     id="base"
     pagecolor="#ffffff"
     bordercolor="#666666"
     borderopacity="1.0"
     inkscape:pageopacity="0.0"
     inkscape:pageshadow="2"
     inkscape:zoom="2"
     inkscape:cx="191.70924"
     inkscape:cy="143.27627"
     inkscape:document-units="px"
     inkscape:current-layer="layer1"
     inkscape:document-rotation="0"
     showgrid="false"
     units="px"
     inkscape:window-width="2560"
     inkscape:window-height="1377"
     inkscape:window-x="2552"
     inkscape:window-y="-8"
     inkscape:window-maximized="1" />
  <metadata
     id="metadata5">
    <rdf:RDF>
      <cc:Work
         rdf:about="">
        <dc:format>image/svg+xml</dc:format>
        <dc:type
           rdf:resource="http://purl.org/dc/dcmitype/StillImage" />
        <dc:title />
      </cc:Work>
    </rdf:RDF>
  </metadata>
  <g
     inkscape:label="Ebene 1"
     inkscape:groupmode="layer"
     id="layer1">
    <g
       id="g874">
      <path
         id="rect843-7"
         style="fill:#000000;stroke-width:30.4271;stop-color:#000000"
         d="M 92.523438,168 C 47.433944,168 15,210.28187 15,241.08398 V 258 274.91602 C 15.042341,285.86859 27.692512,299.96845 41.523438,300 H 95.761719 150 193.79102 A 78,78 0 0 1 154,232 78,78 0 0 1 180.08203,173.78906 C 172.20011,175.60324 161.94307,176.94468 150,177 c -23.33452,-0.10809 -40.29379,-5.11091 -45.5,-9 z" />
      <path
         id="path868"
         style="fill:#000000;stroke-width:25.984;stop-color:#000000"
         d="M 226,76 A 76,76 0 0 1 150,152 76,76 0 0 1 74,76 76,76 0 0 1 150,0 76,76 0 0 1 226,76 Z" />
      <path
         id="path833"
         style="fill:#000000;stroke-width:13.5011;stop-color:#000000"
         d="m 232,164 a 68,68 0 0 0 -68,68 68,68 0 0 0 68,68 68,68 0 0 0 68,-68 68,68 0 0 0 -68,-68 z m -38.53333,57.42193 h 77.06666 c 3.7672,0 6.8,3.0328 6.8,6.8 v 7.55615 c 0,3.7672 -3.0328,6.8 -6.8,6.8 h -77.06666 c -3.7672,0 -6.8,-3.0328 -6.8,-6.8 v -7.55615 c 0,-3.7672 3.0328,-6.8 6.8,-6.8 z" />
    </g>
  </g>
</svg>
