<?xml version="1.0" encoding="UTF-8" standalone="no"?>
<svg
   xmlns:dc="http://purl.org/dc/elements/1.1/"
   xmlns:cc="http://creativecommons.org/ns#"
   xmlns:rdf="http://www.w3.org/1999/02/22-rdf-syntax-ns#"
   xmlns:svg="http://www.w3.org/2000/svg"
   xmlns="http://www.w3.org/2000/svg"
   xmlns:sodipodi="http://sodipodi.sourceforge.net/DTD/sodipodi-0.dtd"
   xmlns:inkscape="http://www.inkscape.org/namespaces/inkscape"
   width="300"
   height="300"
   viewBox="0 0 300 300"
   version="1.1"
   id="svg8"
   inkscape:version="1.0.1 (3bc2e813f5, 2020-09-07)"
   sodipodi:docname="user-trash.svg">
  <defs
     id="defs2" />
  <sodipodi:namedview
     id="base"
     pagecolor="#ffffff"
     bordercolor="#666666"
     borderopacity="1.0"
     inkscape:pageopacity="0.0"
     inkscape:pageshadow="2"
     inkscape:zoom="2"
     inkscape:cx="325.20188"
     inkscape:cy="261.17315"
     inkscape:document-units="px"
     inkscape:current-layer="layer1"
     inkscape:document-rotation="0"
     showgrid="false"
     units="px"
     inkscape:window-width="2560"
     inkscape:window-height="1377"
     inkscape:window-x="2552"
     inkscape:window-y="-8"
     inkscape:window-maximized="1" />
  <metadata
     id="metadata5">
    <rdf:RDF>
      <cc:Work
         rdf:about="">
        <dc:format>image/svg+xml</dc:format>
        <dc:type
           rdf:resource="http://purl.org/dc/dcmitype/StillImage" />
        <dc:title />
      </cc:Work>
    </rdf:RDF>
  </metadata>
  <g
     inkscape:label="Ebene 1"
     inkscape:groupmode="layer"
     id="layer1">
    <g
       id="g877">
      <path
         id="rect843-7"
         style="fill:#000000;stroke-width:30.4271;stop-color:#000000"
         d="M 92.523438 168 C 47.433944 168 15 210.28187 15 241.08398 L 15 258 L 15 274.91602 C 15.042341 285.86859 27.692512 299.96845 41.523438 300 L 95.761719 300 L 150 300 L 181.25586 300 L 175.28516 190.5625 L 173.30078 190.5625 C 168.70173 190.5625 165 186.86077 165 182.26172 L 165 176.72656 C 165 176.55253 165.01494 176.38225 165.02539 176.21094 C 160.39249 176.68185 155.37522 176.9751 150 177 C 126.66548 176.89191 109.70621 171.88909 104.5 168 L 92.523438 168 z M 195.5 168 C 195.31278 168.13985 195.07674 168.28333 194.85938 168.42578 L 204.01758 168.42578 C 204.01758 168.42578 204.02748 168.06756 204.02734 168 L 195.5 168 z " />
      <circle
         style="fill:#000000;stroke-width:25.984;stop-color:#000000"
         id="path868"
         cx="150"
         cy="76"
         r="76" />
      <path
         id="rect857"
         style="fill:#000000;fill-opacity:1;stroke-width:11.6903;stop-color:#000000"
         d="m 183.82633,195.03817 h 107.34734 l -5.33543,97.81597 A 7.5574804,7.5574804 0 0 1 278.29199,300 h -81.58398 a 7.5574804,7.5574804 0 0 1 -7.54625,-7.14586 z m 28.62596,-38.16794 h 50.09542 c 3.9479,0 3.81679,11.21183 3.81679,11.21183 h -57.729 c 0,0 -0.13111,-11.21183 3.81679,-11.21183 z m -30.2958,11.21183 h 110.68702 c 3.9647,0 7.15649,3.19179 7.15649,7.15649 v 4.77099 c 0,3.9647 -3.19179,7.15649 -7.15649,7.15649 H 182.15649 c -3.9647,0 -7.15649,-3.19179 -7.15649,-7.15649 v -4.77099 c 0,-3.9647 3.19179,-7.15649 7.15649,-7.15649 z" />
    </g>
  </g>
</svg>
