<?xml version="1.0" encoding="UTF-8" standalone="no"?>
<svg
   xmlns:dc="http://purl.org/dc/elements/1.1/"
   xmlns:cc="http://creativecommons.org/ns#"
   xmlns:rdf="http://www.w3.org/1999/02/22-rdf-syntax-ns#"
   xmlns:svg="http://www.w3.org/2000/svg"
   xmlns="http://www.w3.org/2000/svg"
   xmlns:sodipodi="http://sodipodi.sourceforge.net/DTD/sodipodi-0.dtd"
   xmlns:inkscape="http://www.inkscape.org/namespaces/inkscape"
   version="1.1"
   id="svg2"
   xml:space="preserve"
   width="300"
   height="300"
   viewBox="0 0 300.00001 300.00001"
   sodipodi:docname="facebook-circle.svg"
   inkscape:version="1.0.1 (3bc2e813f5, 2020-09-07)"><metadata
     id="metadata8"><rdf:RDF><cc:Work
         rdf:about=""><dc:format>image/svg+xml</dc:format><dc:type
           rdf:resource="http://purl.org/dc/dcmitype/StillImage" /><dc:title /></cc:Work></rdf:RDF></metadata><defs
     id="defs6" /><sodipodi:namedview
     pagecolor="#ffffff"
     bordercolor="#666666"
     borderopacity="1"
     objecttolerance="10"
     gridtolerance="10"
     guidetolerance="10"
     inkscape:pageopacity="0"
     inkscape:pageshadow="2"
     inkscape:window-width="2560"
     inkscape:window-height="1377"
     id="namedview4"
     inkscape:document-rotation="0"
     showgrid="false"
     inkscape:zoom="2.9531252"
     inkscape:cx="107.68867"
     inkscape:cy="137.64722"
     inkscape:window-x="2552"
     inkscape:window-y="-8"
     inkscape:window-maximized="1"
     inkscape:current-layer="g10" /><g
     id="g10"
     inkscape:groupmode="layer"
     inkscape:label="ink_ext_XXXXXX"
     transform="matrix(1.3333333,0,0,-1.3333333,0,1365.3333)"><path
       d="m 225.00002,910.81667 c 0,62.13209 -50.36793,112.50003 -112.50002,112.50003 -62.132087,0 -112.50001538125,-50.36794 -112.50001538125,-112.50003 0,-56.15201 41.13963138125,-102.6936 94.92189138125,-111.13334 v 78.6138 H 66.357418 v 32.51954 h 28.564458 v 24.78516 c 0,28.19532 16.795464,43.76954 42.492924,43.76954 12.30843,0 25.18287,-2.19727 25.18287,-2.19727 v -27.68555 h -14.18599 c -13.97527,0 -18.33355,-8.67195 -18.33355,-17.56868 v -21.1032 h 31.20118 l -4.9878,-32.51954 h -26.21338 v -78.6138 c 53.78226,8.43974 94.92189,54.98133 94.92189,111.13334"
       style="fill:#100f0d;fill-opacity:1;fill-rule:nonzero;stroke:none;stroke-width:0.0219727"
       id="path14" /></g></svg>
