<?xml version="1.0" encoding="UTF-8" standalone="no"?>
<svg
   xmlns:dc="http://purl.org/dc/elements/1.1/"
   xmlns:cc="http://creativecommons.org/ns#"
   xmlns:rdf="http://www.w3.org/1999/02/22-rdf-syntax-ns#"
   xmlns:svg="http://www.w3.org/2000/svg"
   xmlns="http://www.w3.org/2000/svg"
   xmlns:sodipodi="http://sodipodi.sourceforge.net/DTD/sodipodi-0.dtd"
   xmlns:inkscape="http://www.inkscape.org/namespaces/inkscape"
   version="1.1"
   id="svg2"
   xml:space="preserve"
   width="300"
   height="300"
   viewBox="0 0 300.00001 300.00001"
   sodipodi:docname="facebook-messenger.svg"
   inkscape:version="1.0.1 (3bc2e813f5, 2020-09-07)"><metadata
     id="metadata8"><rdf:RDF><cc:Work
         rdf:about=""><dc:format>image/svg+xml</dc:format><dc:type
           rdf:resource="http://purl.org/dc/dcmitype/StillImage" /><dc:title /></cc:Work></rdf:RDF></metadata><defs
     id="defs6" /><sodipodi:namedview
     pagecolor="#ffffff"
     bordercolor="#666666"
     borderopacity="1"
     objecttolerance="10"
     gridtolerance="10"
     guidetolerance="10"
     inkscape:pageopacity="0"
     inkscape:pageshadow="2"
     inkscape:window-width="2560"
     inkscape:window-height="1377"
     id="namedview4"
     inkscape:document-rotation="0"
     showgrid="false"
     inkscape:zoom="2.0881748"
     inkscape:cx="235.50711"
     inkscape:cy="235.8255"
     inkscape:window-x="2552"
     inkscape:window-y="-8"
     inkscape:window-maximized="1"
     inkscape:current-layer="g10" /><g
     id="g10"
     inkscape:groupmode="layer"
     inkscape:label="ink_ext_XXXXXX"
     transform="matrix(1.3333333,0,0,-1.3333333,0,1365.3333)"><path
       d="m 180.05626,940.03782 -33.04688,-52.42978 c -5.25713,-8.34047 -16.51388,-10.41778 -24.40097,-4.50197 l -26.284502,19.71337 c -2.41116,1.80844 -5.72934,1.79888 -8.13066,-0.0236 l -35.49769,-26.9404 c -4.73793,-3.5955 -10.9229,2.07479 -7.75125,7.10607 l 33.04688,52.42978 c 5.25656,8.34075 16.51331,10.4175 24.400692,4.50225 l 26.28394,-19.71309 c 2.41143,-1.809 5.72962,-1.79944 8.13093,0.0231 l 35.49769,26.94066 c 4.73794,3.5955 10.92263,-2.07451 7.75182,-7.10635 z M 112.5,1023.9999 C 49.125378,1023.9999 -2.1874999e-6,977.57795 -2.1874999e-6,914.87466 -2.1874999e-6,882.07698 13.441498,853.73569 35.331468,834.16041 c 1.83741,-1.64475 2.94666,-3.94875 3.02203,-6.41475 l 0.61256,-20.0115 c 0.19575,-6.38353 6.78938,-10.53675 12.63038,-7.95825 l 22.32956,9.85725 c 1.8931,0.83447 4.014,0.98972 6.00863,0.441 10.26112,-2.8215 21.182062,-4.3245 32.565372,-4.3245 63.37463,0 112.50001,46.422 112.50001,109.125 0,62.70329 -49.12538,109.12524 -112.50001,109.12524"
       style="fill:#231f20;fill-opacity:1;fill-rule:nonzero;stroke:none;stroke-width:0.028125"
       id="path20" /></g></svg>
