<?xml version="1.0" encoding="UTF-8" standalone="no"?>
<svg
   xmlns:dc="http://purl.org/dc/elements/1.1/"
   xmlns:cc="http://creativecommons.org/ns#"
   xmlns:rdf="http://www.w3.org/1999/02/22-rdf-syntax-ns#"
   xmlns:svg="http://www.w3.org/2000/svg"
   xmlns="http://www.w3.org/2000/svg"
   xmlns:sodipodi="http://sodipodi.sourceforge.net/DTD/sodipodi-0.dtd"
   xmlns:inkscape="http://www.inkscape.org/namespaces/inkscape"
   width="300"
   height="300"
   viewBox="0 0 300 300"
   version="1.1"
   id="svg8"
   inkscape:version="1.0.1 (3bc2e813f5, 2020-09-07)"
   sodipodi:docname="linkedin.svg">
  <defs
     id="defs2" />
  <sodipodi:namedview
     id="base"
     pagecolor="#ffffff"
     bordercolor="#666666"
     borderopacity="1.0"
     inkscape:pageopacity="0.0"
     inkscape:pageshadow="2"
     inkscape:zoom="2"
     inkscape:cx="150"
     inkscape:cy="150"
     inkscape:document-units="px"
     inkscape:current-layer="layer1"
     inkscape:document-rotation="0"
     showgrid="false"
     units="px"
     inkscape:window-width="2560"
     inkscape:window-height="1377"
     inkscape:window-x="2552"
     inkscape:window-y="-8"
     inkscape:window-maximized="1" />
  <metadata
     id="metadata5">
    <rdf:RDF>
      <cc:Work
         rdf:about="">
        <dc:format>image/svg+xml</dc:format>
        <dc:type
           rdf:resource="http://purl.org/dc/dcmitype/StillImage" />
        <dc:title></dc:title>
      </cc:Work>
    </rdf:RDF>
  </metadata>
  <g
     inkscape:label="Ebene 1"
     inkscape:groupmode="layer"
     id="layer1">
    <path
       id="path860"
       d="M 22.124025,0 C 9.874025,0 0,9.623537 0,21.623536 V 278.37402 C 0,290.37402 9.874025,300 22.124025,300 H 277.74902 C 289.99902,300 300,290.24902 300,278.37402 V 21.623536 C 300,9.623537 289.99902,0 277.74903,0 Z M 66.875,41.25 C 81,41.25 92.5,52.75 92.5,66.875 92.5,81 81,92.5 66.875,92.5 52.75,92.5 41.25,81 41.25,66.875 41.25,52.75 52.75,41.25 66.875,41.25 Z m 135.37597,67.5 C 247.25098,108.75 255,138.49903 255,177.12402 V 256.25 h -43.75 v -70.25146 c 0,-16.625 -0.37451,-37.37305 -23.24951,-37.37305 -23.125,0 -26.75049,17.5 -26.75049,36.25 V 256.25 H 117.5 V 112.5 H 160 v 19.49951 h 0.1245 c 6,-11.24999 20.50146,-23.24951 42.12646,-23.24951 z M 45,112.5 H 88.75 V 256.25 H 45 Z"
       style="stroke-width:1.25" />
  </g>
</svg>
