<?xml version="1.0" encoding="UTF-8" standalone="no"?>
<svg
   xmlns:dc="http://purl.org/dc/elements/1.1/"
   xmlns:cc="http://creativecommons.org/ns#"
   xmlns:rdf="http://www.w3.org/1999/02/22-rdf-syntax-ns#"
   xmlns:svg="http://www.w3.org/2000/svg"
   xmlns="http://www.w3.org/2000/svg"
   xmlns:sodipodi="http://sodipodi.sourceforge.net/DTD/sodipodi-0.dtd"
   xmlns:inkscape="http://www.inkscape.org/namespaces/inkscape"
   viewBox="0 0 299.99999 300"
   version="1.1"
   id="svg21"
   sodipodi:docname="meta.svg"
   width="300"
   height="300"
   inkscape:version="1.0.1 (3bc2e813f5, 2020-09-07)">
  <metadata
     id="metadata25">
    <rdf:RDF>
      <cc:Work
         rdf:about="">
        <dc:format>image/svg+xml</dc:format>
        <dc:type
           rdf:resource="http://purl.org/dc/dcmitype/StillImage" />
        <dc:title></dc:title>
      </cc:Work>
    </rdf:RDF>
  </metadata>
  <sodipodi:namedview
     pagecolor="#ffffff"
     bordercolor="#666666"
     borderopacity="1"
     objecttolerance="10"
     gridtolerance="10"
     guidetolerance="10"
     inkscape:pageopacity="0"
     inkscape:pageshadow="2"
     inkscape:window-width="2560"
     inkscape:window-height="1377"
     id="namedview23"
     showgrid="false"
     inkscape:zoom="0.14549654"
     inkscape:cx="3481.1824"
     inkscape:cy="1500"
     inkscape:window-x="2552"
     inkscape:window-y="-8"
     inkscape:window-maximized="1"
     inkscape:current-layer="svg21" />
  <defs
     id="defs4">
    <style
       id="style2">.cls-1{fill:none;}</style>
  </defs>
  <g
     id="Artboard_outline"
     data-name="Artboard outline">
    <rect
       class="cls-1"
       width="6962.3647"
       height="3000"
       id="rect6"
       x="0"
       y="0" />
  </g>
  <g
     id="Symbol"
     transform="matrix(0.19935844,0,0,0.19935844,-199.35844,-149.03766)">
    <path
       d="m 2080,1000 c -123.3911,0 -219.8478,92.936 -307.164,210.9931 C 1652.8473,1058.2153 1552.5,1000 1432.4138,1000 1187.5862,1000 1000,1318.6207 1000,1655.8621 1000,1866.8965 1102.0956,2000 1273.1035,2000 c 123.0805,0 211.6,-58.0259 368.9655,-333.1034 0,0 65.5973,-115.8413 110.7249,-195.6386 q 23.72,38.2978 49.9647,82.5351 l 73.7931,124.1379 C 2020.2989,1918.4789 2100.39,2000 2245.5172,2000 c 166.5959,0 259.31,-134.9233 259.31,-350.3448 C 2504.8276,1296.5517 2313.0118,1000 2080,1000 Z m -557.931,592.4138 c -127.5862,200 -171.7242,244.8276 -242.7587,244.8276 -73.1034,0 -116.5517,-64.1784 -116.5517,-178.6207 0,-244.8276 122.069,-495.1724 267.5862,-495.1724 78.8013,0 144.6539,45.51 245.5224,189.9131 -95.7792,146.9109 -153.7982,239.0524 -153.7982,239.0524 z m 481.5283,-25.178 -88.23,-147.1481 q -35.8152,-58.2482 -68.8384,-107.23 c 79.52,-122.7353 145.1135,-183.8919 223.1261,-183.8919 162.0691,0 291.7243,238.6207 291.7243,531.7241 0,111.7242 -36.5935,176.5518 -112.4139,176.5518 -72.6705,-3e-4 -107.3867,-47.9943 -245.3681,-270.0059 z"
       id="path18" />
  </g>
</svg>
