<?xml version="1.0" encoding="UTF-8" standalone="no"?>
<svg
   xmlns:dc="http://purl.org/dc/elements/1.1/"
   xmlns:cc="http://creativecommons.org/ns#"
   xmlns:rdf="http://www.w3.org/1999/02/22-rdf-syntax-ns#"
   xmlns:svg="http://www.w3.org/2000/svg"
   xmlns="http://www.w3.org/2000/svg"
   xmlns:sodipodi="http://sodipodi.sourceforge.net/DTD/sodipodi-0.dtd"
   xmlns:inkscape="http://www.inkscape.org/namespaces/inkscape"
   width="300"
   height="300"
   viewBox="0 0 300 300"
   version="1.1"
   id="svg8"
   inkscape:version="1.0.1 (3bc2e813f5, 2020-09-07)"
   sodipodi:docname="reddit.svg">
  <defs
     id="defs2" />
  <sodipodi:namedview
     id="base"
     pagecolor="#ffffff"
     bordercolor="#666666"
     borderopacity="1.0"
     inkscape:pageopacity="0.0"
     inkscape:pageshadow="2"
     inkscape:zoom="2"
     inkscape:cx="150"
     inkscape:cy="150"
     inkscape:document-units="px"
     inkscape:current-layer="layer1"
     inkscape:document-rotation="0"
     showgrid="false"
     units="px"
     inkscape:window-width="2560"
     inkscape:window-height="1377"
     inkscape:window-x="2552"
     inkscape:window-y="-8"
     inkscape:window-maximized="1" />
  <metadata
     id="metadata5">
    <rdf:RDF>
      <cc:Work
         rdf:about="">
        <dc:format>image/svg+xml</dc:format>
        <dc:type
           rdf:resource="http://purl.org/dc/dcmitype/StillImage" />
        <dc:title></dc:title>
      </cc:Work>
    </rdf:RDF>
  </metadata>
  <g
     inkscape:label="Ebene 1"
     inkscape:groupmode="layer"
     id="layer1">
    <path
       id="circle4"
       style="fill:#000000;stroke-width:1.75439"
       d="M 150,0 A 150,150 0 0 0 0,150 150,150 0 0 0 150,300 150,150 0 0 0 300,150 150,150 0 0 0 150,0 Z m 62.63021,59.29619 c 8.59649,0 15.61472,7.01823 15.61472,15.61472 0,8.59649 -7.01823,15.61472 -15.61472,15.61472 -8.42105,0 -15.26384,-6.66667 -15.61472,-14.91228 l -32.45614,-6.84279 -9.99863,46.84416 c 22.80702,0.87719 43.51014,7.89405 58.42242,18.59581 3.85965,-3.85965 9.12212,-6.14035 15.08704,-6.14035 12.10526,0 21.92982,9.82456 21.92982,21.92982 0,8.94737 -5.44065,16.66667 -12.63363,20.17544 0.35088,2.10526 0.52768,4.20916 0.52768,6.48986 0,33.68421 -39.12349,60.87924 -87.54454,60.87924 -48.42106,0 -87.544547,-27.19503 -87.544547,-60.87924 0,-2.2807 0.176807,-4.55935 0.527684,-6.66462 C 55.613349,166.49191 50.349507,158.94737 50.349507,150 c 0,-12.10526 9.824561,-21.92982 21.929825,-21.92982 5.789478,0 11.227388,2.45614 15.087038,6.14035 15.08772,-11.05264 35.96628,-17.89406 59.29961,-18.59581 l 11.054,-52.28207 c 0.35088,-1.05263 0.8772,-1.93051 1.75439,-2.45683 0.87719,-0.52631 1.92845,-0.6997 2.98109,-0.52426 l 36.31442,7.71656 c 2.45614,-5.26316 7.71998,-8.77193 13.86033,-8.77193 z M 115.61472,150 C 107.01823,150 100,157.01823 100,165.61472 c 0,8.59649 7.01823,15.6113 15.61472,15.6113 8.59649,0 15.6113,-7.01481 15.6113,-15.6113 0,-8.59649 -7.01481,-15.61472 -15.6113,-15.61472 z m 68.77056,0 c -8.59649,0 -15.61472,7.01823 -15.61472,15.61472 0,8.59649 7.01823,15.6113 15.61472,15.6113 8.59649,0 15.61472,-7.01481 15.61472,-15.6113 C 200,157.01823 192.98177,150 184.38528,150 Z m -68.33197,49.86637 c -1.05263,0 -2.10594,0.3961 -2.89542,1.18558 -1.57894,1.57894 -1.57894,4.21189 0,5.79084 10.52632,10.52632 31.05195,11.40351 37.01686,11.40351 5.96492,0 26.31511,-0.70176 37.01686,-11.40351 1.57895,-1.57895 1.581,-4.03646 0.35293,-5.79084 -1.57894,-1.57895 -4.21189,-1.57895 -5.79084,0 -6.8421,6.66666 -21.05331,9.12144 -31.40419,9.12144 -10.35088,0 -24.73753,-2.45478 -31.4042,-9.12144 -0.78947,-0.78948 -1.83936,-1.18558 -2.892,-1.18558 z" />
  </g>
</svg>
