<?xml version="1.0" encoding="UTF-8" standalone="no"?>
<svg
   xmlns:dc="http://purl.org/dc/elements/1.1/"
   xmlns:cc="http://creativecommons.org/ns#"
   xmlns:rdf="http://www.w3.org/1999/02/22-rdf-syntax-ns#"
   xmlns:svg="http://www.w3.org/2000/svg"
   xmlns="http://www.w3.org/2000/svg"
   xmlns:sodipodi="http://sodipodi.sourceforge.net/DTD/sodipodi-0.dtd"
   xmlns:inkscape="http://www.inkscape.org/namespaces/inkscape"
   viewBox="0 0 300 300"
   version="1.1"
   id="svg13"
   sodipodi:docname="snapchat.svg"
   width="300"
   height="300"
   inkscape:version="1.0.1 (3bc2e813f5, 2020-09-07)">
  <metadata
     id="metadata17">
    <rdf:RDF>
      <cc:Work
         rdf:about="">
        <dc:format>image/svg+xml</dc:format>
        <dc:type
           rdf:resource="http://purl.org/dc/dcmitype/StillImage" />
        <dc:title>1Artboard 1 copy 2</dc:title>
      </cc:Work>
    </rdf:RDF>
  </metadata>
  <sodipodi:namedview
     pagecolor="#ffffff"
     bordercolor="#666666"
     borderopacity="1"
     objecttolerance="10"
     gridtolerance="10"
     guidetolerance="10"
     inkscape:pageopacity="0"
     inkscape:pageshadow="2"
     inkscape:window-width="2560"
     inkscape:window-height="1377"
     id="namedview15"
     showgrid="false"
     inkscape:zoom="2.016"
     inkscape:cx="250"
     inkscape:cy="250"
     inkscape:window-x="2552"
     inkscape:window-y="-8"
     inkscape:window-maximized="1"
     inkscape:current-layer="svg13" />
  <defs
     id="defs4">
    <style
       id="style2">.cls-1{fill:#fff;}</style>
  </defs>
  <title
     id="title6">1Artboard 1 copy 2</title>
  <path
     d="m 298.92744,218.36706 c -2.08485,-5.67202 -6.05527,-8.70732 -10.57756,-11.2214 -0.8508,-0.49822 -1.63262,-0.8968 -2.29947,-1.20339 -1.34902,-0.69751 -2.7287,-1.37203 -4.10072,-2.08486 -14.09574,-7.47328 -25.10254,-16.9011 -32.73678,-28.07652 a 63.664648,63.664648 0 0 1 -5.61837,-9.96437 c -0.65151,-1.86257 -0.62086,-2.92033 -0.1533,-3.88611 a 6.3235413,6.3235413 0 0 1 1.80125,-1.8779 c 2.42211,-1.60195 4.92087,-3.22691 6.61481,-4.32299 3.01997,-1.95456 5.41142,-3.50286 6.95207,-4.59894 5.78699,-4.04708 9.83406,-8.34708 12.36348,-13.15297 a 26.190958,26.190958 0 0 0 1.29536,-21.75299 c -3.83244,-10.087 -13.35991,-16.349233 -24.90325,-16.349233 a 34.300421,34.300421 0 0 0 -7.24333,0.766493 c -0.63619,0.13798 -1.27237,0.28361 -1.89323,0.44458 0.10731,-6.898413 -0.046,-14.180073 -0.65918,-21.346753 C 235.59239,54.545189 226.77009,41.338565 217.57221,30.806994 A 80.481435,80.481435 0 0 0 197.03794,14.281473 C 183.08016,6.3099785 167.25215,2.2629125 149.99846,2.2629125 c -17.25369,0 -33.00505,4.047066 -46.97816,12.0185605 A 80.190169,80.190169 0 0 0 82.447711,30.837654 c -9.197878,10.531571 -18.020177,23.761182 -20.197008,48.932713 -0.613192,7.16668 -0.76649,14.48665 -0.666846,21.346743 -0.620857,-0.16096 -1.249378,-0.3066 -1.885565,-0.44457 a 34.300421,34.300421 0 0 0 -7.243329,-0.766493 c -11.551002,0 -21.093801,6.262233 -24.910921,16.349233 a 26.221618,26.221618 0 0 0 1.264709,21.77598 c 2.537081,4.80589 6.584148,9.1059 12.371146,13.15297 1.53298,1.07308 3.932093,2.62139 6.952063,4.59893 1.632623,1.05776 4.016407,2.60607 6.354201,4.15438 a 6.8217597,6.8217597 0 0 1 2.038863,2.04653 c 0.490553,1.0041 0.505883,2.08485 -0.222282,4.07772 a 63.07445,63.07445 0 0 1 -5.526392,9.75743 c -7.465611,10.92248 -18.15048,20.18167 -31.793999,27.59363 -7.228,3.83245 -14.7396005,6.39252 -17.9128645,15.01553 -2.39145,6.5075 -0.82780996,13.91179 5.250451,20.15103 v 0 a 30.375993,30.375993 0 0 0 7.6648995,5.80232 83.049176,83.049176 0 0 0 18.756007,7.50394 12.386476,12.386476 0 0 1 3.78646,1.69394 c 2.215155,1.93922 1.900894,4.85954 4.85188,9.13656 a 21.308418,21.308418 0 0 0 5.549387,5.64137 c 6.193238,4.27701 13.152966,4.54528 20.526598,4.82888 6.660797,0.25295 14.210722,0.54421 22.833733,3.38789 3.571842,1.18039 7.281653,3.46453 11.581658,6.13192 10.32462,6.34653 24.45869,15.03086 48.11257,15.03086 23.65388,0 37.8876,-8.73032 48.28886,-15.09985 4.26935,-2.62139 7.95617,-4.88254 11.42837,-6.03227 8.62301,-2.85134 16.17294,-3.13494 22.83373,-3.38789 7.37364,-0.2836 14.33336,-0.55187 20.5266,-4.82888 a 21.377402,21.377402 0 0 0 6.31588,-6.89841 c 2.12317,-3.61017 2.06952,-6.13192 4.06239,-7.89485 a 11.742625,11.742625 0 0 1 3.55652,-1.62496 83.363437,83.363437 0 0 0 19.00895,-7.57292 29.893104,29.893104 0 0 0 8.04814,-6.30054 l 0.0767,-0.092 c 5.70268,-6.10126 7.13602,-13.29093 4.79822,-19.63748 z m -21.02481,11.29807 c -12.82338,7.08237 -21.34674,6.32354 -27.97688,10.59289 -5.6337,3.6255 -2.29947,11.44369 -6.39253,14.26438 -5.02817,3.47219 -19.89041,-0.24528 -39.09098,6.09359 -15.83568,5.23512 -25.93802,20.28899 -54.42078,20.28899 -28.48277,0 -38.34749,-15.0232 -54.443778,-20.32731 -19.162246,-6.33888 -34.055144,-2.6214 -39.090983,-6.0936 -4.08539,-2.82068 -0.766489,-10.63888 -6.392525,-14.26437 -6.637802,-4.26936 -15.161169,-3.51053 -27.97688,-10.55457 -8.163117,-4.50696 -3.533518,-7.29698 -0.812479,-8.61535 46.449285,-22.48881 53.861242,-57.21081 54.190833,-59.78621 0.398575,-3.11962 0.843139,-5.57238 -2.590736,-8.74565 -3.318901,-3.06596 -18.043171,-12.17953 -22.128562,-15.03087 -6.760441,-4.72158 -9.734421,-9.43549 -7.54226,-15.23015 1.53298,-4.00874 5.27345,-5.51873 9.197878,-5.51873 a 17.092724,17.092724 0 0 1 3.686816,0.41391 c 7.419622,1.60962 14.624627,5.3271 18.786667,6.3312 a 6.6224724,6.6224724 0 0 0 1.532979,0.20695 c 2.222821,0 3.004641,-1.11907 2.851343,-3.66382 -0.475224,-8.11712 -1.624959,-23.937482 -0.344921,-38.723062 1.755262,-20.34264 8.30875,-30.421987 16.096287,-39.33626 3.74047,-4.284679 21.316081,-22.856728 54.926661,-22.856728 33.61058,0 51.23218,18.4954 54.97266,22.764749 7.7952,8.914281 14.35635,18.993619 16.09629,39.336259 1.28003,14.78559 0.17629,30.613602 -0.34493,38.723072 -0.17629,2.67505 0.62853,3.66382 2.85135,3.66382 a 6.5611532,6.5611532 0 0 0 1.53298,-0.20695 c 4.1697,-1.0041 11.37471,-4.72158 18.79433,-6.33121 a 17.092724,17.092724 0 0 1 3.68681,-0.4139 c 3.94743,0 7.6649,1.53298 9.19788,5.51873 2.19216,5.79466 -0.76649,10.50857 -7.53459,15.23015 -4.08539,2.85134 -18.80966,11.95724 -22.12856,15.03086 -3.44154,3.17327 -2.98932,5.62603 -2.59074,8.74566 0.32959,2.61373 7.73388,37.33572 54.19083,59.78621 2.74404,1.37201 7.37363,4.16204 -0.78948,8.70732 z"
     id="path10"
     style="stroke-width:0.76649" />
</svg>
