<?xml version="1.0" encoding="UTF-8" standalone="no"?>
<svg
   xmlns:dc="http://purl.org/dc/elements/1.1/"
   xmlns:cc="http://creativecommons.org/ns#"
   xmlns:rdf="http://www.w3.org/1999/02/22-rdf-syntax-ns#"
   xmlns:svg="http://www.w3.org/2000/svg"
   xmlns="http://www.w3.org/2000/svg"
   xmlns:sodipodi="http://sodipodi.sourceforge.net/DTD/sodipodi-0.dtd"
   xmlns:inkscape="http://www.inkscape.org/namespaces/inkscape"
   width="300"
   height="300"
   viewBox="0 0 300 300"
   version="1.1"
   id="svg8"
   inkscape:version="1.0.1 (3bc2e813f5, 2020-09-07)"
   sodipodi:docname="tiktok.svg">
  <defs
     id="defs2" />
  <sodipodi:namedview
     id="base"
     pagecolor="#ffffff"
     bordercolor="#666666"
     borderopacity="1.0"
     inkscape:pageopacity="0.0"
     inkscape:pageshadow="2"
     inkscape:zoom="2"
     inkscape:cx="150"
     inkscape:cy="150"
     inkscape:document-units="px"
     inkscape:current-layer="layer1"
     inkscape:document-rotation="0"
     showgrid="false"
     units="px"
     inkscape:window-width="2560"
     inkscape:window-height="1377"
     inkscape:window-x="2552"
     inkscape:window-y="-8"
     inkscape:window-maximized="1" />
  <metadata
     id="metadata5">
    <rdf:RDF>
      <cc:Work
         rdf:about="">
        <dc:format>image/svg+xml</dc:format>
        <dc:type
           rdf:resource="http://purl.org/dc/dcmitype/StillImage" />
        <dc:title></dc:title>
      </cc:Work>
    </rdf:RDF>
  </metadata>
  <g
     inkscape:label="Ebene 1"
     inkscape:groupmode="layer"
     id="layer1">
    <g
       id="g50"
       transform="matrix(2.0000039,0,0,-2.0000039,278.86292,72.052143)"
       style="fill:#000000">
      <path
         d="m 0,0 c -9.207,0.278 -17.548,4.689 -23.839,10.585 -3.438,3.275 -6.162,7.226 -8,11.604 -1.837,4.378 -2.75,9.089 -2.681,13.837 h -25.634 v -98.732 c 0,-16.128 -9.666,-25.634 -21.543,-25.634 -3.149,-0.034 -6.267,0.622 -9.136,1.923 -2.868,1.3 -5.417,3.213 -7.466,5.605 -2.049,2.392 -3.549,5.204 -4.395,8.237 -0.845,3.034 -1.016,6.217 -0.499,9.323 0.517,3.108 1.708,6.064 3.49,8.66 1.782,2.597 4.112,4.772 6.825,6.371 2.713,1.6 5.743,2.585 8.878,2.888 3.135,0.302 6.299,-0.087 9.267,-1.139 V -20.4 c -2.287,0.503 -4.622,0.75 -6.964,0.737 -9.326,0.002 -18.444,-2.762 -26.201,-7.942 -7.756,-5.18 -13.801,-12.544 -17.372,-21.161 -3.571,-8.615 -4.506,-18.098 -2.688,-27.246 1.819,-9.147 6.309,-17.551 12.903,-24.146 6.594,-6.596 14.997,-11.088 24.144,-12.909 9.148,-1.82 18.63,-0.887 27.247,2.681 8.617,3.57 15.982,9.613 21.164,17.368 5.182,7.755 7.948,16.873 7.948,26.199 v 53.137 c 9.933,-6.868 21.799,-10.115 34.466,-10.339 z"
         style="fill:#000000;fill-opacity:1;fill-rule:nonzero;stroke:none"
         id="path52" />
    </g>
  </g>
</svg>
