<?xml version="1.0" encoding="UTF-8" standalone="no"?>
<svg
   xmlns:dc="http://purl.org/dc/elements/1.1/"
   xmlns:cc="http://creativecommons.org/ns#"
   xmlns:rdf="http://www.w3.org/1999/02/22-rdf-syntax-ns#"
   xmlns:svg="http://www.w3.org/2000/svg"
   xmlns="http://www.w3.org/2000/svg"
   xmlns:sodipodi="http://sodipodi.sourceforge.net/DTD/sodipodi-0.dtd"
   xmlns:inkscape="http://www.inkscape.org/namespaces/inkscape"
   version="1.1"
   id="svg2"
   xml:space="preserve"
   width="300"
   height="300"
   viewBox="0 0 300.00001 300"
   sodipodi:docname="wechat.svg"
   inkscape:version="1.0.1 (3bc2e813f5, 2020-09-07)"><metadata
     id="metadata8"><rdf:RDF><cc:Work
         rdf:about=""><dc:format>image/svg+xml</dc:format><dc:type
           rdf:resource="http://purl.org/dc/dcmitype/StillImage" /><dc:title></dc:title></cc:Work></rdf:RDF></metadata><defs
     id="defs6" /><sodipodi:namedview
     pagecolor="#ffffff"
     bordercolor="#666666"
     borderopacity="1"
     objecttolerance="10"
     gridtolerance="10"
     guidetolerance="10"
     inkscape:pageopacity="0"
     inkscape:pageshadow="2"
     inkscape:window-width="2560"
     inkscape:window-height="1377"
     id="namedview4"
     inkscape:document-rotation="0"
     showgrid="false"
     inkscape:zoom="1.7110137"
     inkscape:cx="-81.021307"
     inkscape:cy="59.955052"
     inkscape:window-x="-8"
     inkscape:window-y="-8"
     inkscape:window-maximized="1"
     inkscape:current-layer="g10"><inkscape:grid
       type="xygrid"
       id="grid871" /></sodipodi:namedview><g
     id="g10"
     inkscape:groupmode="layer"
     inkscape:label="WeChat_PC_App_Icon_200528"
     transform="matrix(1.3333333,0,0,-1.3333333,0,708.70267)"><path
       id="path873"
       style="fill:#000000;stroke:none;stroke-width:1.53296"
       d="m 157.13712,448.39884 c -37.47793,0 -67.860642,-25.65541 -67.860642,-57.30653 0,-31.65419 30.382712,-57.30879 67.860642,-57.30879 7.743,0 15.21808,1.11884 22.15014,3.13929 0.62699,0.19317 1.29963,0.3009 1.99406,0.3009 1.30301,0 2.48954,-0.40083 3.6086,-1.05541 l 14.8521,-8.69029 c 0.41083,-0.24374 0.81483,-0.4289 1.30691,-0.4289 1.25243,0 2.26352,1.02495 2.26352,2.29271 0,0.5672 -0.2204,1.13251 -0.36603,1.67518 -0.0843,0.32346 -1.91414,7.24175 -3.05621,11.56011 -0.13181,0.48289 -0.23802,0.9522 -0.23802,1.45961 0,1.54217 0.74848,2.90267 1.89974,3.7366 14.30562,10.50235 23.44808,26.05167 23.44808,43.31899 0,31.65112 -30.3819,57.30653 -67.86289,57.30653 z m -22.05808,-30.60915 c 5.0174,0 9.08327,-4.12488 9.08327,-9.21126 0,-5.08638 -4.06587,-9.20901 -9.08327,-9.20901 -5.01739,0 -9.0855,4.12263 -9.0855,9.20901 0,5.08638 4.06811,9.21126 9.0855,9.21126 z m 45.41633,0 c 5.01586,0 9.08326,-4.12488 9.08326,-9.21126 0,-5.08638 -4.0674,-9.20901 -9.08326,-9.20901 -5.01586,0 -9.08327,4.12263 -9.08327,9.20901 0,5.08638 4.06741,9.21126 9.08327,9.21126 z M 81.488898,511.00488 C 36.484118,511.00488 -2.1874999e-6,480.1923 -2.1874999e-6,442.1809 -2.1874999e-6,421.44602 10.975638,402.77824 28.152508,390.1604 c 1.3812,-0.99643 2.28373,-2.63409 2.28373,-4.48437 0,-0.60705 -0.12872,-1.17279 -0.28968,-1.75378 -1.36893,-5.18448 -3.56274,-13.49192 -3.66699,-13.87977 -0.17016,-0.65457 -0.43788,-1.33444 -0.43788,-2.01202 0,-1.52376 1.21256,-2.75529 2.71487,-2.75529 0.59172,0 1.07143,0.22226 1.56964,0.51199 l 17.83643,10.43734 c 1.34442,0.78794 2.76357,1.26873 4.32719,1.26873 0.83546,0 1.63861,-0.12546 2.4005,-0.36153 8.32093,-2.42515 17.29809,-3.77253 26.59858,-3.77253 1.0974,0 2.18491,0.0333 3.27178,0.0696 -1.83427,5.5943 -2.84063,11.50946 -2.84063,17.66352 0,36.35911 34.381752,64.66296 75.217072,64.66296 1.43218,0 2.85371,-0.0436 4.2688,-0.11221 -7.41257,31.56454 -40.3735,55.36188 -79.917022,55.36188 z m -27.25429,-35.65491 c 6.02149,0 10.89992,-4.94538 10.89992,-11.04812 0,-6.10427 -4.87843,-11.05261 -10.89992,-11.05261 -6.01995,0 -10.89991,4.94834 -10.89991,11.05261 0,6.10274 4.87996,11.04812 10.89991,11.04812 z m 54.499602,0 c 6.01995,0 10.90216,-4.94538 10.90216,-11.04812 0,-6.10427 -4.88221,-11.05261 -10.90216,-11.05261 -6.01995,0 -10.899922,4.94834 -10.899922,11.05261 0,6.10274 4.879972,11.04812 10.899922,11.04812 z" /></g></svg>
