<?xml version="1.0" encoding="UTF-8" standalone="no"?>
<svg
   xmlns:dc="http://purl.org/dc/elements/1.1/"
   xmlns:cc="http://creativecommons.org/ns#"
   xmlns:rdf="http://www.w3.org/1999/02/22-rdf-syntax-ns#"
   xmlns:svg="http://www.w3.org/2000/svg"
   xmlns="http://www.w3.org/2000/svg"
   xmlns:sodipodi="http://sodipodi.sourceforge.net/DTD/sodipodi-0.dtd"
   xmlns:inkscape="http://www.inkscape.org/namespaces/inkscape"
   version="1.1"
   id="svg2"
   xml:space="preserve"
   width="300"
   height="300"
   viewBox="0 0 300 299.99999"
   sodipodi:docname="youtube.svg"
   inkscape:version="1.0.1 (3bc2e813f5, 2020-09-07)"><metadata
     id="metadata8"><rdf:RDF><cc:Work
         rdf:about=""><dc:format>image/svg+xml</dc:format><dc:type
           rdf:resource="http://purl.org/dc/dcmitype/StillImage" /><dc:title></dc:title></cc:Work></rdf:RDF></metadata><defs
     id="defs6" /><sodipodi:namedview
     pagecolor="#ffffff"
     bordercolor="#666666"
     borderopacity="1"
     objecttolerance="10"
     gridtolerance="10"
     guidetolerance="10"
     inkscape:pageopacity="0"
     inkscape:pageshadow="2"
     inkscape:window-width="2560"
     inkscape:window-height="1377"
     id="namedview4"
     inkscape:document-rotation="0"
     showgrid="false"
     inkscape:zoom="1.9945133"
     inkscape:cx="253.94667"
     inkscape:cy="56.693336"
     inkscape:window-x="2552"
     inkscape:window-y="-8"
     inkscape:window-maximized="1"
     inkscape:current-layer="g10" /><g
     id="g10"
     inkscape:groupmode="layer"
     inkscape:label="ink_ext_XXXXXX"
     transform="matrix(1.3333333,0,0,-1.3333333,0,113.38667)"><path
       d="M 89.99963,-61.209823 V 6.2905493 L 148.45444,-27.4601 Z m 130.29794,87.90641 c -2.58735,9.680085 -10.21052,17.30473 -19.89134,19.891901 -17.54735,4.701877 -87.90678,4.701877 -87.90678,4.701877 0,0 -70.358878,0 -87.90586,-4.701877 C 14.91358,44.001317 7.2889534,36.376672 4.7018191,26.696587 -2.1874999e-6,9.1496063 -2.1874999e-6,-27.459359 -2.1874999e-6,-27.459359 c 0,0 0,-36.610447 4.7018212874999,-54.156688 2.5871343,-9.679287 10.2117609,-17.304636 19.8917709,-19.891043 17.546982,-4.70327 87.90586,-4.70327 87.90586,-4.70327 0,0 70.35943,0 87.90678,4.70327 9.68082,2.586407 17.30399,10.211756 19.89134,19.891043 4.70244,17.546241 4.70244,54.156688 4.70244,54.156688 0,0 0,36.6089653 -4.70244,54.155946"
       style="fill:#000000;fill-opacity:1;fill-rule:nonzero;stroke:none;stroke-width:0.185208"
       id="path14" /></g></svg>
