<?xml version="1.0" encoding="UTF-8" standalone="no"?>
<svg
   xmlns:dc="http://purl.org/dc/elements/1.1/"
   xmlns:cc="http://creativecommons.org/ns#"
   xmlns:rdf="http://www.w3.org/1999/02/22-rdf-syntax-ns#"
   xmlns:svg="http://www.w3.org/2000/svg"
   xmlns="http://www.w3.org/2000/svg"
   xmlns:sodipodi="http://sodipodi.sourceforge.net/DTD/sodipodi-0.dtd"
   xmlns:inkscape="http://www.inkscape.org/namespaces/inkscape"
   width="282.853"
   height="300"
   viewBox="0 0 74.838187 79.375002"
   version="1.1"
   id="svg868"
   inkscape:version="1.0.1 (3bc2e813f5, 2020-09-07)"
   sodipodi:docname="shield-quad.svg">
  <defs
     id="defs862" />
  <sodipodi:namedview
     id="base"
     pagecolor="#ffffff"
     bordercolor="#666666"
     borderopacity="1.0"
     inkscape:pageopacity="0.0"
     inkscape:pageshadow="2"
     inkscape:zoom="2.8"
     inkscape:cx="193.33969"
     inkscape:cy="193.34176"
     inkscape:document-units="px"
     inkscape:current-layer="layer1"
     inkscape:document-rotation="0"
     showgrid="false"
     units="px"
     inkscape:window-width="2560"
     inkscape:window-height="1377"
     inkscape:window-x="2552"
     inkscape:window-y="-8"
     inkscape:window-maximized="1" />
  <metadata
     id="metadata865">
    <rdf:RDF>
      <cc:Work
         rdf:about="">
        <dc:format>image/svg+xml</dc:format>
        <dc:type
           rdf:resource="http://purl.org/dc/dcmitype/StillImage" />
        <dc:title />
      </cc:Work>
    </rdf:RDF>
  </metadata>
  <g
     inkscape:label="Ebene 1"
     inkscape:groupmode="layer"
     id="layer1">
    <g
       id="g851">
      <path
         id="path895-9"
         style="fill-opacity:1;stroke:#eb0000;stroke-width:0;stroke-miterlimit:4;stroke-dasharray:none;stroke-opacity:1"
         inkscape:transform-center-x="-6.61353"
         d="M 37.419095,79.374988 V 34.726557 H 1.684846 c 0,0 3.0736985,27.435898 30.939859,43.166279 2.658102,1.500496 4.358148,1.482152 4.79439,1.482152 z M 37.419094,4.8705704e-7 c 1.000373,0 1.9533,0.18772618294296 2.968906,0.61095007294296 L 70.052757,12.972847 c 2.47444,1.031147 4.785382,2.888958 4.785382,5.112484 0,5.434838 -1.684796,16.641226 -1.684796,16.641226 H 37.419094 Z" />
      <path
         id="rect900-8"
         style="fill-opacity:0.5;stroke:#eb0000;stroke-width:0;stroke-miterlimit:4;stroke-dasharray:none;stroke-opacity:1;fill:#000000"
         d="M 37.419095,4.8705704e-7 C 36.418723,4.8705704e-7 35.465796,0.18772667 34.450189,0.61095056 L 4.7854326,12.972847 C 2.3109925,14.003994 4.9805537e-5,15.861805 4.9805537e-5,18.085331 4.9805537e-5,23.520169 1.684846,34.726557 1.684846,34.726557 H 37.419095 Z M 37.419094,79.374988 V 34.726557 h 35.734249 c 0,0 -3.073698,27.435898 -30.939859,43.166279 -2.658102,1.500496 -4.358148,1.482152 -4.79439,1.482152 z" />
    </g>
  </g>
</svg>
